G04 EAGLE Gerber RS-274X export*
G75*
%MOIN*%
%FSLAX34Y34*%
%LPD*%
%INSilkscreen Bottom*%
%IPPOS*%
%AMOC8*
5,1,8,0,0,1.08239X$1,22.5*%
G01*
%ADD10C,0.006000*%
%ADD11C,0.005000*%
%ADD12C,0.004000*%


D10*
X21069Y23222D02*
X21071Y23200D01*
X21076Y23178D01*
X21084Y23158D01*
X21096Y23139D01*
X21111Y23122D01*
X21128Y23107D01*
X21147Y23095D01*
X21167Y23087D01*
X21189Y23082D01*
X21211Y23080D01*
X21245Y23082D01*
X21278Y23088D01*
X21311Y23097D01*
X21342Y23110D01*
X21371Y23126D01*
X21399Y23146D01*
X21424Y23169D01*
X21407Y23578D02*
X21405Y23600D01*
X21400Y23622D01*
X21392Y23642D01*
X21380Y23661D01*
X21365Y23678D01*
X21348Y23693D01*
X21329Y23705D01*
X21309Y23713D01*
X21287Y23718D01*
X21265Y23720D01*
X21236Y23718D01*
X21208Y23714D01*
X21181Y23706D01*
X21154Y23696D01*
X21129Y23683D01*
X21105Y23667D01*
X21336Y23454D02*
X21354Y23466D01*
X21369Y23481D01*
X21382Y23497D01*
X21393Y23516D01*
X21401Y23536D01*
X21405Y23557D01*
X21407Y23578D01*
X21141Y23346D02*
X21123Y23334D01*
X21108Y23319D01*
X21095Y23303D01*
X21084Y23284D01*
X21076Y23264D01*
X21072Y23243D01*
X21070Y23222D01*
X21140Y23347D02*
X21336Y23453D01*
X20693Y23720D02*
X20693Y23080D01*
X20871Y23720D02*
X20515Y23720D01*
X20271Y23720D02*
X20271Y23080D01*
X20057Y23364D02*
X20271Y23720D01*
X20057Y23364D02*
X19844Y23720D01*
X19844Y23080D01*
X19558Y23080D02*
X19380Y23080D01*
X19355Y23082D01*
X19330Y23087D01*
X19306Y23096D01*
X19284Y23108D01*
X19263Y23123D01*
X19245Y23141D01*
X19230Y23162D01*
X19218Y23184D01*
X19209Y23208D01*
X19204Y23233D01*
X19202Y23258D01*
X19204Y23283D01*
X19209Y23308D01*
X19218Y23332D01*
X19230Y23354D01*
X19245Y23375D01*
X19263Y23393D01*
X19284Y23408D01*
X19306Y23420D01*
X19330Y23429D01*
X19355Y23434D01*
X19380Y23436D01*
X19345Y23720D02*
X19558Y23720D01*
X19345Y23720D02*
X19323Y23718D01*
X19301Y23713D01*
X19281Y23705D01*
X19262Y23693D01*
X19245Y23678D01*
X19230Y23661D01*
X19218Y23642D01*
X19210Y23622D01*
X19205Y23600D01*
X19203Y23578D01*
X19205Y23556D01*
X19210Y23534D01*
X19218Y23514D01*
X19230Y23495D01*
X19245Y23478D01*
X19262Y23463D01*
X19281Y23451D01*
X19301Y23443D01*
X19323Y23438D01*
X19345Y23436D01*
X19487Y23436D01*
X18747Y23720D02*
X18724Y23718D01*
X18702Y23714D01*
X18681Y23706D01*
X18660Y23695D01*
X18642Y23681D01*
X18626Y23665D01*
X18612Y23647D01*
X18601Y23626D01*
X18593Y23605D01*
X18589Y23583D01*
X18587Y23560D01*
X18747Y23720D02*
X18773Y23718D01*
X18798Y23714D01*
X18823Y23706D01*
X18846Y23694D01*
X18868Y23681D01*
X18888Y23664D01*
X18906Y23645D01*
X18921Y23624D01*
X18933Y23602D01*
X18943Y23577D01*
X18640Y23435D02*
X18625Y23453D01*
X18611Y23472D01*
X18601Y23492D01*
X18593Y23514D01*
X18589Y23537D01*
X18587Y23560D01*
X18640Y23436D02*
X18943Y23080D01*
X18587Y23080D01*
X17730Y23436D02*
X17623Y23436D01*
X17623Y23080D01*
X17836Y23080D01*
X17858Y23082D01*
X17880Y23087D01*
X17900Y23095D01*
X17919Y23107D01*
X17936Y23122D01*
X17951Y23139D01*
X17963Y23158D01*
X17971Y23178D01*
X17976Y23200D01*
X17978Y23222D01*
X17979Y23222D02*
X17979Y23578D01*
X17978Y23578D02*
X17976Y23600D01*
X17971Y23622D01*
X17963Y23642D01*
X17951Y23661D01*
X17936Y23678D01*
X17919Y23693D01*
X17900Y23705D01*
X17880Y23713D01*
X17858Y23718D01*
X17836Y23720D01*
X17623Y23720D01*
X17343Y23542D02*
X17343Y23258D01*
X17343Y23542D02*
X17341Y23567D01*
X17336Y23592D01*
X17327Y23616D01*
X17315Y23638D01*
X17300Y23659D01*
X17282Y23677D01*
X17261Y23692D01*
X17239Y23704D01*
X17215Y23713D01*
X17190Y23718D01*
X17165Y23720D01*
X17140Y23718D01*
X17115Y23713D01*
X17091Y23704D01*
X17069Y23692D01*
X17048Y23677D01*
X17030Y23659D01*
X17015Y23638D01*
X17003Y23616D01*
X16994Y23592D01*
X16989Y23567D01*
X16987Y23542D01*
X16987Y23258D01*
X16989Y23233D01*
X16994Y23208D01*
X17003Y23184D01*
X17015Y23162D01*
X17030Y23141D01*
X17048Y23123D01*
X17069Y23108D01*
X17091Y23096D01*
X17115Y23087D01*
X17140Y23082D01*
X17165Y23080D01*
X17190Y23082D01*
X17215Y23087D01*
X17239Y23096D01*
X17261Y23108D01*
X17282Y23123D01*
X17300Y23141D01*
X17315Y23162D01*
X17327Y23184D01*
X17336Y23208D01*
X17341Y23233D01*
X17343Y23258D01*
X16706Y23080D02*
X16421Y23080D01*
X16706Y23080D02*
X16706Y23720D01*
X16421Y23720D01*
X16492Y23436D02*
X16706Y23436D01*
X16001Y23080D02*
X15979Y23082D01*
X15957Y23087D01*
X15937Y23095D01*
X15918Y23107D01*
X15901Y23122D01*
X15886Y23139D01*
X15874Y23158D01*
X15866Y23178D01*
X15861Y23200D01*
X15859Y23222D01*
X16001Y23080D02*
X16035Y23082D01*
X16068Y23088D01*
X16101Y23097D01*
X16132Y23110D01*
X16161Y23126D01*
X16189Y23146D01*
X16214Y23169D01*
X16196Y23578D02*
X16194Y23600D01*
X16189Y23622D01*
X16181Y23642D01*
X16169Y23661D01*
X16154Y23678D01*
X16137Y23693D01*
X16118Y23705D01*
X16098Y23713D01*
X16076Y23718D01*
X16054Y23720D01*
X16025Y23718D01*
X15997Y23714D01*
X15970Y23706D01*
X15943Y23696D01*
X15918Y23683D01*
X15894Y23667D01*
X16125Y23454D02*
X16143Y23466D01*
X16158Y23481D01*
X16171Y23497D01*
X16182Y23516D01*
X16190Y23536D01*
X16194Y23557D01*
X16196Y23578D01*
X15930Y23346D02*
X15912Y23334D01*
X15897Y23319D01*
X15884Y23303D01*
X15873Y23284D01*
X15865Y23264D01*
X15861Y23243D01*
X15859Y23222D01*
X15930Y23347D02*
X16126Y23453D01*
X15271Y23720D02*
X15271Y23080D01*
X15271Y23436D02*
X14915Y23436D01*
X14915Y23720D02*
X14915Y23080D01*
X14613Y23080D02*
X14329Y23080D01*
X14613Y23080D02*
X14613Y23720D01*
X14329Y23720D01*
X14400Y23436D02*
X14613Y23436D01*
X14077Y23720D02*
X14077Y23080D01*
X14077Y23720D02*
X13900Y23720D01*
X13875Y23718D01*
X13850Y23713D01*
X13826Y23704D01*
X13804Y23692D01*
X13783Y23677D01*
X13765Y23659D01*
X13750Y23638D01*
X13738Y23616D01*
X13729Y23592D01*
X13724Y23567D01*
X13722Y23542D01*
X13724Y23517D01*
X13729Y23492D01*
X13738Y23468D01*
X13750Y23446D01*
X13765Y23425D01*
X13783Y23407D01*
X13804Y23392D01*
X13826Y23380D01*
X13850Y23371D01*
X13875Y23366D01*
X13900Y23364D01*
X14077Y23364D01*
X13864Y23364D02*
X13722Y23080D01*
X13444Y23080D02*
X13159Y23080D01*
X13444Y23080D02*
X13444Y23720D01*
X13159Y23720D01*
X13231Y23436D02*
X13444Y23436D01*
X20659Y22794D02*
X20766Y22688D01*
X20659Y22794D02*
X20552Y22688D01*
X20355Y22688D02*
X20249Y22794D01*
X20142Y22688D01*
X19945Y22688D02*
X19839Y22794D01*
X19732Y22688D01*
X19535Y22688D02*
X19428Y22794D01*
X19322Y22688D01*
X19073Y22670D02*
X19073Y22208D01*
X19071Y22183D01*
X19066Y22158D01*
X19057Y22134D01*
X19045Y22112D01*
X19030Y22091D01*
X19012Y22073D01*
X18991Y22058D01*
X18969Y22046D01*
X18945Y22037D01*
X18920Y22032D01*
X18895Y22030D01*
X18870Y22032D01*
X18845Y22037D01*
X18821Y22046D01*
X18799Y22058D01*
X18778Y22073D01*
X18760Y22091D01*
X18745Y22112D01*
X18733Y22134D01*
X18724Y22158D01*
X18719Y22183D01*
X18717Y22208D01*
X18717Y22670D01*
X18102Y22172D02*
X18104Y22150D01*
X18109Y22128D01*
X18117Y22108D01*
X18129Y22089D01*
X18144Y22072D01*
X18161Y22057D01*
X18180Y22045D01*
X18200Y22037D01*
X18222Y22032D01*
X18244Y22030D01*
X18278Y22032D01*
X18311Y22038D01*
X18344Y22047D01*
X18375Y22060D01*
X18404Y22076D01*
X18432Y22096D01*
X18457Y22119D01*
X18439Y22528D02*
X18437Y22550D01*
X18432Y22572D01*
X18424Y22592D01*
X18412Y22611D01*
X18397Y22628D01*
X18380Y22643D01*
X18361Y22655D01*
X18341Y22663D01*
X18319Y22668D01*
X18297Y22670D01*
X18268Y22668D01*
X18240Y22664D01*
X18213Y22656D01*
X18186Y22646D01*
X18161Y22633D01*
X18137Y22617D01*
X18368Y22404D02*
X18386Y22416D01*
X18401Y22431D01*
X18414Y22447D01*
X18425Y22466D01*
X18433Y22486D01*
X18437Y22507D01*
X18439Y22528D01*
X18173Y22296D02*
X18155Y22284D01*
X18140Y22269D01*
X18127Y22253D01*
X18116Y22234D01*
X18108Y22214D01*
X18104Y22193D01*
X18102Y22172D01*
X18173Y22297D02*
X18368Y22403D01*
X17834Y22386D02*
X17656Y22386D01*
X17631Y22384D01*
X17606Y22379D01*
X17582Y22370D01*
X17560Y22358D01*
X17539Y22343D01*
X17521Y22325D01*
X17506Y22304D01*
X17494Y22282D01*
X17485Y22258D01*
X17480Y22233D01*
X17478Y22208D01*
X17480Y22183D01*
X17485Y22158D01*
X17494Y22134D01*
X17506Y22112D01*
X17521Y22091D01*
X17539Y22073D01*
X17560Y22058D01*
X17582Y22046D01*
X17606Y22037D01*
X17631Y22032D01*
X17656Y22030D01*
X17834Y22030D01*
X17834Y22670D01*
X17656Y22670D01*
X17634Y22668D01*
X17612Y22663D01*
X17592Y22655D01*
X17573Y22643D01*
X17556Y22628D01*
X17541Y22611D01*
X17529Y22592D01*
X17521Y22572D01*
X17516Y22550D01*
X17514Y22528D01*
X17516Y22506D01*
X17521Y22484D01*
X17529Y22464D01*
X17541Y22445D01*
X17556Y22428D01*
X17573Y22413D01*
X17592Y22401D01*
X17612Y22393D01*
X17634Y22388D01*
X17656Y22386D01*
X16898Y22208D02*
X16898Y22670D01*
X16898Y22208D02*
X16896Y22183D01*
X16891Y22158D01*
X16882Y22134D01*
X16870Y22112D01*
X16855Y22091D01*
X16837Y22073D01*
X16816Y22058D01*
X16794Y22046D01*
X16770Y22037D01*
X16745Y22032D01*
X16720Y22030D01*
X16695Y22032D01*
X16670Y22037D01*
X16646Y22046D01*
X16624Y22058D01*
X16603Y22073D01*
X16585Y22091D01*
X16570Y22112D01*
X16558Y22134D01*
X16549Y22158D01*
X16544Y22183D01*
X16542Y22208D01*
X16543Y22208D02*
X16543Y22670D01*
X16234Y22670D02*
X16234Y22030D01*
X16234Y22670D02*
X16056Y22670D01*
X16031Y22668D01*
X16006Y22663D01*
X15982Y22654D01*
X15960Y22642D01*
X15939Y22627D01*
X15921Y22609D01*
X15906Y22588D01*
X15894Y22566D01*
X15885Y22542D01*
X15880Y22517D01*
X15878Y22492D01*
X15880Y22467D01*
X15885Y22442D01*
X15894Y22418D01*
X15906Y22396D01*
X15921Y22375D01*
X15939Y22357D01*
X15960Y22342D01*
X15982Y22330D01*
X16006Y22321D01*
X16031Y22316D01*
X16056Y22314D01*
X16234Y22314D01*
X15678Y22688D02*
X15572Y22794D01*
X15465Y22688D01*
X15268Y22688D02*
X15161Y22794D01*
X15055Y22688D01*
X14858Y22688D02*
X14751Y22794D01*
X14645Y22688D01*
X14448Y22688D02*
X14341Y22794D01*
X14234Y22688D01*
X15750Y9500D02*
X16250Y9500D01*
X16500Y9750D01*
X16500Y10250D02*
X16250Y10500D01*
X16500Y9750D02*
X16750Y9500D01*
X17250Y9500D01*
X17500Y9750D01*
X17500Y10250D02*
X17250Y10500D01*
X16750Y10500D01*
X16500Y10250D01*
X15500Y10250D02*
X15500Y9750D01*
X15750Y9500D01*
X15500Y10250D02*
X15750Y10500D01*
X16250Y10500D01*
X17500Y9750D02*
X17750Y9500D01*
X18250Y9500D01*
X18500Y9750D01*
X18500Y10250D02*
X18250Y10500D01*
X17750Y10500D01*
X17500Y10250D01*
X18750Y9500D02*
X19250Y9500D01*
X19500Y9750D01*
X19500Y10250D02*
X19250Y10500D01*
X19500Y9750D02*
X19750Y9500D01*
X20250Y9500D01*
X20500Y9750D01*
X20500Y10250D02*
X20250Y10500D01*
X19750Y10500D01*
X19500Y10250D01*
X18750Y9500D02*
X18500Y9750D01*
X18500Y10250D02*
X18750Y10500D01*
X19250Y10500D01*
X20500Y9750D02*
X20750Y9500D01*
X21250Y9500D01*
X21500Y9750D01*
X21500Y10250D02*
X21250Y10500D01*
X20750Y10500D01*
X20500Y10250D01*
X21500Y10250D02*
X21500Y9750D01*
D11*
X16025Y11025D02*
X15900Y11125D01*
X15900Y10675D01*
X16025Y10675D02*
X15775Y10675D01*
X20875Y9125D02*
X21025Y9125D01*
X20875Y9125D02*
X20858Y9123D01*
X20841Y9119D01*
X20825Y9112D01*
X20811Y9102D01*
X20798Y9089D01*
X20788Y9075D01*
X20781Y9059D01*
X20777Y9042D01*
X20775Y9025D01*
X20775Y9000D01*
X20777Y8979D01*
X20782Y8959D01*
X20790Y8941D01*
X20801Y8923D01*
X20815Y8908D01*
X20832Y8895D01*
X20850Y8886D01*
X20869Y8879D01*
X20890Y8875D01*
X20910Y8875D01*
X20931Y8879D01*
X20950Y8886D01*
X20968Y8895D01*
X20985Y8908D01*
X20999Y8923D01*
X21010Y8941D01*
X21018Y8959D01*
X21023Y8979D01*
X21025Y9000D01*
X21025Y9125D01*
X21023Y9151D01*
X21018Y9177D01*
X21010Y9202D01*
X20998Y9225D01*
X20984Y9247D01*
X20966Y9266D01*
X20947Y9284D01*
X20925Y9298D01*
X20902Y9310D01*
X20877Y9318D01*
X20851Y9323D01*
X20825Y9325D01*
X16510Y8875D02*
X16493Y8877D01*
X16476Y8881D01*
X16460Y8888D01*
X16446Y8898D01*
X16433Y8911D01*
X16423Y8925D01*
X16416Y8941D01*
X16412Y8958D01*
X16410Y8975D01*
X16510Y8875D02*
X16538Y8877D01*
X16565Y8882D01*
X16591Y8891D01*
X16616Y8904D01*
X16639Y8919D01*
X16660Y8937D01*
X16648Y9225D02*
X16646Y9242D01*
X16642Y9259D01*
X16635Y9275D01*
X16625Y9289D01*
X16612Y9302D01*
X16598Y9312D01*
X16582Y9319D01*
X16565Y9323D01*
X16548Y9325D01*
X16548Y9326D02*
X16524Y9324D01*
X16500Y9320D01*
X16477Y9312D01*
X16455Y9302D01*
X16435Y9288D01*
X16598Y9137D02*
X16612Y9147D01*
X16625Y9160D01*
X16635Y9174D01*
X16642Y9190D01*
X16646Y9207D01*
X16648Y9225D01*
X16460Y9063D02*
X16446Y9053D01*
X16433Y9040D01*
X16423Y9026D01*
X16416Y9010D01*
X16412Y8993D01*
X16410Y8975D01*
X16460Y9063D02*
X16598Y9138D01*
X16250Y9325D02*
X16100Y8875D01*
X15950Y9325D01*
X15775Y9225D02*
X15650Y9325D01*
X15650Y8875D01*
X15775Y8875D02*
X15525Y8875D01*
X30453Y32039D02*
X30650Y32039D01*
X30650Y32709D01*
X29980Y32709D01*
X28366Y32039D02*
X28169Y32039D01*
X28169Y32709D01*
X28917Y32709D01*
D12*
X29842Y32571D02*
X29842Y33031D01*
X29587Y32571D01*
X29587Y33031D01*
X29276Y32571D02*
X29174Y32571D01*
X29276Y32571D02*
X29294Y32573D01*
X29311Y32577D01*
X29327Y32585D01*
X29342Y32595D01*
X29354Y32607D01*
X29364Y32622D01*
X29372Y32638D01*
X29376Y32655D01*
X29378Y32673D01*
X29379Y32673D02*
X29379Y32929D01*
X29378Y32929D02*
X29376Y32947D01*
X29372Y32964D01*
X29364Y32980D01*
X29354Y32995D01*
X29342Y33007D01*
X29327Y33017D01*
X29311Y33025D01*
X29294Y33029D01*
X29276Y33031D01*
X29174Y33031D01*
D11*
X6634Y32039D02*
X6437Y32039D01*
X6634Y32039D02*
X6634Y32709D01*
X5965Y32709D01*
X4350Y32039D02*
X4154Y32039D01*
X4154Y32709D01*
X4902Y32709D01*
D12*
X5826Y32571D02*
X5826Y33031D01*
X5571Y32571D01*
X5571Y33031D01*
X5261Y32571D02*
X5158Y32571D01*
X5261Y32571D02*
X5279Y32573D01*
X5296Y32577D01*
X5312Y32585D01*
X5327Y32595D01*
X5339Y32607D01*
X5349Y32622D01*
X5357Y32638D01*
X5361Y32655D01*
X5363Y32673D01*
X5363Y32929D01*
X5361Y32947D01*
X5357Y32964D01*
X5349Y32980D01*
X5339Y32995D01*
X5327Y33007D01*
X5312Y33017D01*
X5296Y33025D01*
X5279Y33029D01*
X5261Y33031D01*
X5158Y33031D01*
X32029Y31230D02*
X32029Y30770D01*
X32029Y31230D02*
X31901Y31230D01*
X31880Y31228D01*
X31859Y31223D01*
X31840Y31215D01*
X31822Y31203D01*
X31807Y31189D01*
X31794Y31172D01*
X31784Y31153D01*
X31777Y31133D01*
X31773Y31113D01*
X31773Y31091D01*
X31777Y31071D01*
X31784Y31051D01*
X31794Y31032D01*
X31807Y31015D01*
X31822Y31001D01*
X31840Y30989D01*
X31859Y30981D01*
X31880Y30976D01*
X31901Y30974D01*
X32029Y30974D01*
X31500Y30770D02*
X31397Y30770D01*
X31500Y30770D02*
X31518Y30772D01*
X31535Y30776D01*
X31551Y30784D01*
X31566Y30794D01*
X31578Y30806D01*
X31588Y30821D01*
X31596Y30837D01*
X31600Y30854D01*
X31602Y30872D01*
X31602Y31128D01*
X31600Y31146D01*
X31596Y31163D01*
X31588Y31179D01*
X31578Y31194D01*
X31566Y31206D01*
X31551Y31216D01*
X31535Y31224D01*
X31518Y31228D01*
X31500Y31230D01*
X31397Y31230D01*
X31226Y31128D02*
X31098Y31230D01*
X31098Y30770D01*
X31226Y30770D02*
X30970Y30770D01*
X30775Y31000D02*
X30773Y31034D01*
X30769Y31068D01*
X30761Y31102D01*
X30750Y31135D01*
X30737Y31166D01*
X30738Y31166D02*
X30731Y31181D01*
X30722Y31195D01*
X30710Y31207D01*
X30696Y31217D01*
X30681Y31224D01*
X30665Y31229D01*
X30648Y31230D01*
X30631Y31229D01*
X30615Y31224D01*
X30600Y31217D01*
X30586Y31207D01*
X30574Y31195D01*
X30565Y31181D01*
X30558Y31166D01*
X30545Y31135D01*
X30534Y31102D01*
X30526Y31068D01*
X30522Y31034D01*
X30520Y31000D01*
X30775Y31000D02*
X30773Y30966D01*
X30769Y30932D01*
X30761Y30898D01*
X30750Y30865D01*
X30737Y30834D01*
X30738Y30834D02*
X30731Y30819D01*
X30722Y30805D01*
X30710Y30793D01*
X30696Y30783D01*
X30681Y30776D01*
X30665Y30771D01*
X30648Y30770D01*
X30558Y30834D02*
X30545Y30865D01*
X30534Y30898D01*
X30526Y30932D01*
X30522Y30966D01*
X30520Y31000D01*
X30558Y30834D02*
X30565Y30819D01*
X30574Y30805D01*
X30586Y30793D01*
X30600Y30783D01*
X30615Y30776D01*
X30631Y30771D01*
X30648Y30770D01*
X30750Y30872D02*
X30546Y31128D01*
X32029Y30230D02*
X32029Y29770D01*
X32029Y30230D02*
X31901Y30230D01*
X31880Y30228D01*
X31859Y30223D01*
X31840Y30215D01*
X31822Y30203D01*
X31807Y30189D01*
X31794Y30172D01*
X31784Y30153D01*
X31777Y30133D01*
X31773Y30113D01*
X31773Y30091D01*
X31777Y30071D01*
X31784Y30051D01*
X31794Y30032D01*
X31807Y30015D01*
X31822Y30001D01*
X31840Y29989D01*
X31859Y29981D01*
X31880Y29976D01*
X31901Y29974D01*
X32029Y29974D01*
X31500Y29770D02*
X31397Y29770D01*
X31500Y29770D02*
X31518Y29772D01*
X31535Y29776D01*
X31551Y29784D01*
X31566Y29794D01*
X31578Y29806D01*
X31588Y29821D01*
X31596Y29837D01*
X31600Y29854D01*
X31602Y29872D01*
X31602Y30128D01*
X31600Y30146D01*
X31596Y30163D01*
X31588Y30179D01*
X31578Y30194D01*
X31566Y30206D01*
X31551Y30216D01*
X31535Y30224D01*
X31518Y30228D01*
X31500Y30230D01*
X31397Y30230D01*
X31226Y30128D02*
X31098Y30230D01*
X31098Y29770D01*
X31226Y29770D02*
X30970Y29770D01*
X30520Y30115D02*
X30522Y30135D01*
X30527Y30154D01*
X30535Y30173D01*
X30547Y30189D01*
X30561Y30203D01*
X30578Y30215D01*
X30596Y30223D01*
X30615Y30228D01*
X30635Y30230D01*
X30658Y30228D01*
X30681Y30223D01*
X30702Y30214D01*
X30722Y30202D01*
X30740Y30187D01*
X30755Y30169D01*
X30767Y30149D01*
X30776Y30128D01*
X30558Y30025D02*
X30545Y30040D01*
X30534Y30057D01*
X30526Y30076D01*
X30522Y30095D01*
X30520Y30115D01*
X30558Y30026D02*
X30776Y29770D01*
X30520Y29770D01*
X31746Y29230D02*
X31593Y28770D01*
X31439Y29230D01*
X31256Y29230D02*
X31256Y28770D01*
X31256Y29230D02*
X31128Y29230D01*
X31108Y29228D01*
X31088Y29224D01*
X31070Y29216D01*
X31053Y29206D01*
X31037Y29193D01*
X31024Y29177D01*
X31014Y29160D01*
X31006Y29142D01*
X31002Y29122D01*
X31000Y29102D01*
X31000Y28898D01*
X31002Y28878D01*
X31006Y28858D01*
X31014Y28840D01*
X31024Y28823D01*
X31037Y28807D01*
X31053Y28794D01*
X31070Y28784D01*
X31088Y28776D01*
X31108Y28772D01*
X31128Y28770D01*
X31256Y28770D01*
X30776Y28770D02*
X30776Y29230D01*
X30648Y29230D01*
X30628Y29228D01*
X30608Y29224D01*
X30590Y29216D01*
X30573Y29206D01*
X30557Y29193D01*
X30544Y29177D01*
X30534Y29160D01*
X30526Y29142D01*
X30522Y29122D01*
X30520Y29102D01*
X30520Y28898D01*
X30522Y28878D01*
X30526Y28858D01*
X30534Y28840D01*
X30544Y28823D01*
X30557Y28807D01*
X30573Y28794D01*
X30590Y28784D01*
X30608Y28776D01*
X30628Y28772D01*
X30648Y28770D01*
X30776Y28770D01*
X32366Y28026D02*
X32494Y28026D01*
X32366Y28026D02*
X32345Y28024D01*
X32324Y28019D01*
X32305Y28011D01*
X32287Y27999D01*
X32272Y27985D01*
X32259Y27968D01*
X32249Y27949D01*
X32242Y27929D01*
X32238Y27909D01*
X32238Y27887D01*
X32242Y27867D01*
X32249Y27847D01*
X32259Y27828D01*
X32272Y27811D01*
X32287Y27797D01*
X32305Y27785D01*
X32324Y27777D01*
X32345Y27772D01*
X32366Y27770D01*
X32494Y27770D01*
X32494Y28230D01*
X32366Y28230D01*
X32347Y28228D01*
X32329Y28223D01*
X32312Y28215D01*
X32297Y28203D01*
X32285Y28189D01*
X32275Y28173D01*
X32268Y28156D01*
X32264Y28137D01*
X32264Y28119D01*
X32268Y28100D01*
X32275Y28083D01*
X32285Y28067D01*
X32297Y28053D01*
X32312Y28041D01*
X32329Y28033D01*
X32347Y28028D01*
X32366Y28026D01*
X32066Y28102D02*
X32066Y27898D01*
X32066Y28102D02*
X32064Y28123D01*
X32059Y28144D01*
X32051Y28163D01*
X32039Y28181D01*
X32025Y28196D01*
X32008Y28209D01*
X31989Y28219D01*
X31969Y28226D01*
X31949Y28230D01*
X31927Y28230D01*
X31907Y28226D01*
X31887Y28219D01*
X31868Y28209D01*
X31851Y28196D01*
X31837Y28181D01*
X31825Y28163D01*
X31817Y28144D01*
X31812Y28123D01*
X31810Y28102D01*
X31810Y27898D01*
X31812Y27877D01*
X31817Y27856D01*
X31825Y27837D01*
X31837Y27819D01*
X31851Y27804D01*
X31868Y27791D01*
X31887Y27781D01*
X31907Y27774D01*
X31927Y27770D01*
X31949Y27770D01*
X31969Y27774D01*
X31989Y27781D01*
X32008Y27791D01*
X32025Y27804D01*
X32039Y27819D01*
X32051Y27837D01*
X32059Y27856D01*
X32064Y27877D01*
X32066Y27898D01*
X31616Y27898D02*
X31616Y28102D01*
X31614Y28123D01*
X31609Y28144D01*
X31601Y28163D01*
X31589Y28181D01*
X31575Y28196D01*
X31558Y28209D01*
X31539Y28219D01*
X31519Y28226D01*
X31499Y28230D01*
X31477Y28230D01*
X31457Y28226D01*
X31437Y28219D01*
X31418Y28209D01*
X31401Y28196D01*
X31387Y28181D01*
X31375Y28163D01*
X31367Y28144D01*
X31362Y28123D01*
X31360Y28102D01*
X31360Y27898D01*
X31362Y27877D01*
X31367Y27856D01*
X31375Y27837D01*
X31387Y27819D01*
X31401Y27804D01*
X31418Y27791D01*
X31437Y27781D01*
X31457Y27774D01*
X31477Y27770D01*
X31499Y27770D01*
X31519Y27774D01*
X31539Y27781D01*
X31558Y27791D01*
X31575Y27804D01*
X31589Y27819D01*
X31601Y27837D01*
X31609Y27856D01*
X31614Y27877D01*
X31616Y27898D01*
X31068Y27770D02*
X31068Y28230D01*
X31196Y28230D02*
X30940Y28230D01*
X30737Y28166D02*
X30750Y28135D01*
X30761Y28102D01*
X30769Y28068D01*
X30773Y28034D01*
X30775Y28000D01*
X30738Y28166D02*
X30731Y28181D01*
X30722Y28195D01*
X30710Y28207D01*
X30696Y28217D01*
X30681Y28224D01*
X30665Y28229D01*
X30648Y28230D01*
X30631Y28229D01*
X30615Y28224D01*
X30600Y28217D01*
X30586Y28207D01*
X30574Y28195D01*
X30565Y28181D01*
X30558Y28166D01*
X30545Y28135D01*
X30534Y28102D01*
X30526Y28068D01*
X30522Y28034D01*
X30520Y28000D01*
X30775Y28000D02*
X30773Y27966D01*
X30769Y27932D01*
X30761Y27898D01*
X30750Y27865D01*
X30737Y27834D01*
X30738Y27834D02*
X30731Y27819D01*
X30722Y27805D01*
X30710Y27793D01*
X30696Y27783D01*
X30681Y27776D01*
X30665Y27771D01*
X30648Y27770D01*
X30558Y27834D02*
X30545Y27865D01*
X30534Y27898D01*
X30526Y27932D01*
X30522Y27966D01*
X30520Y28000D01*
X30558Y27834D02*
X30565Y27819D01*
X30574Y27805D01*
X30586Y27793D01*
X30600Y27783D01*
X30615Y27776D01*
X30631Y27771D01*
X30648Y27770D01*
X30750Y27872D02*
X30546Y28128D01*
X31188Y27230D02*
X31188Y26770D01*
X30933Y26770D02*
X31188Y27230D01*
X30933Y27230D02*
X30933Y26770D01*
X30622Y26770D02*
X30520Y26770D01*
X30622Y26770D02*
X30640Y26772D01*
X30657Y26776D01*
X30673Y26784D01*
X30688Y26794D01*
X30700Y26806D01*
X30710Y26821D01*
X30718Y26837D01*
X30722Y26854D01*
X30724Y26872D01*
X30724Y27128D01*
X30722Y27146D01*
X30718Y27163D01*
X30710Y27179D01*
X30700Y27194D01*
X30688Y27206D01*
X30673Y27216D01*
X30657Y27224D01*
X30640Y27228D01*
X30622Y27230D01*
X30520Y27230D01*
X31188Y26230D02*
X31188Y25770D01*
X30933Y25770D02*
X31188Y26230D01*
X30933Y26230D02*
X30933Y25770D01*
X30622Y25770D02*
X30520Y25770D01*
X30622Y25770D02*
X30640Y25772D01*
X30657Y25776D01*
X30673Y25784D01*
X30688Y25794D01*
X30700Y25806D01*
X30710Y25821D01*
X30718Y25837D01*
X30722Y25854D01*
X30724Y25872D01*
X30724Y26128D01*
X30722Y26146D01*
X30718Y26163D01*
X30710Y26179D01*
X30700Y26194D01*
X30688Y26206D01*
X30673Y26216D01*
X30657Y26224D01*
X30640Y26228D01*
X30622Y26230D01*
X30520Y26230D01*
X32104Y25230D02*
X32104Y24770D01*
X32104Y25230D02*
X31976Y25230D01*
X31955Y25228D01*
X31934Y25223D01*
X31915Y25215D01*
X31897Y25203D01*
X31882Y25189D01*
X31869Y25172D01*
X31859Y25153D01*
X31852Y25133D01*
X31848Y25113D01*
X31848Y25091D01*
X31852Y25071D01*
X31859Y25051D01*
X31869Y25032D01*
X31882Y25015D01*
X31897Y25001D01*
X31915Y24989D01*
X31934Y24981D01*
X31955Y24976D01*
X31976Y24974D01*
X32104Y24974D01*
X31701Y24770D02*
X31548Y25230D01*
X31394Y24770D01*
X31433Y24885D02*
X31663Y24885D01*
X31226Y25128D02*
X31098Y25230D01*
X31098Y24770D01*
X31226Y24770D02*
X30970Y24770D01*
X30776Y24770D02*
X30648Y24770D01*
X30627Y24772D01*
X30606Y24777D01*
X30587Y24785D01*
X30569Y24797D01*
X30554Y24811D01*
X30541Y24828D01*
X30531Y24847D01*
X30524Y24867D01*
X30520Y24887D01*
X30520Y24909D01*
X30524Y24929D01*
X30531Y24949D01*
X30541Y24968D01*
X30554Y24985D01*
X30569Y24999D01*
X30587Y25011D01*
X30606Y25019D01*
X30627Y25024D01*
X30648Y25026D01*
X30622Y25230D02*
X30776Y25230D01*
X30622Y25230D02*
X30603Y25228D01*
X30585Y25223D01*
X30568Y25215D01*
X30553Y25203D01*
X30541Y25189D01*
X30531Y25173D01*
X30524Y25156D01*
X30520Y25137D01*
X30520Y25119D01*
X30524Y25100D01*
X30531Y25083D01*
X30541Y25067D01*
X30553Y25053D01*
X30568Y25041D01*
X30585Y25033D01*
X30603Y25028D01*
X30622Y25026D01*
X30724Y25026D01*
X32104Y24230D02*
X32104Y23770D01*
X32104Y24230D02*
X31976Y24230D01*
X31955Y24228D01*
X31934Y24223D01*
X31915Y24215D01*
X31897Y24203D01*
X31882Y24189D01*
X31869Y24172D01*
X31859Y24153D01*
X31852Y24133D01*
X31848Y24113D01*
X31848Y24091D01*
X31852Y24071D01*
X31859Y24051D01*
X31869Y24032D01*
X31882Y24015D01*
X31897Y24001D01*
X31915Y23989D01*
X31934Y23981D01*
X31955Y23976D01*
X31976Y23974D01*
X32104Y23974D01*
X31701Y23770D02*
X31548Y24230D01*
X31394Y23770D01*
X31433Y23885D02*
X31663Y23885D01*
X31226Y24128D02*
X31098Y24230D01*
X31098Y23770D01*
X31226Y23770D02*
X30970Y23770D01*
X30776Y23872D02*
X30673Y24230D01*
X30776Y23872D02*
X30520Y23872D01*
X30597Y23974D02*
X30597Y23770D01*
X32104Y23230D02*
X32104Y22770D01*
X32104Y23230D02*
X31976Y23230D01*
X31955Y23228D01*
X31934Y23223D01*
X31915Y23215D01*
X31897Y23203D01*
X31882Y23189D01*
X31869Y23172D01*
X31859Y23153D01*
X31852Y23133D01*
X31848Y23113D01*
X31848Y23091D01*
X31852Y23071D01*
X31859Y23051D01*
X31869Y23032D01*
X31882Y23015D01*
X31897Y23001D01*
X31915Y22989D01*
X31934Y22981D01*
X31955Y22976D01*
X31976Y22974D01*
X32104Y22974D01*
X31701Y22770D02*
X31548Y23230D01*
X31394Y22770D01*
X31433Y22885D02*
X31663Y22885D01*
X31226Y23128D02*
X31098Y23230D01*
X31098Y22770D01*
X31226Y22770D02*
X30970Y22770D01*
X30776Y22770D02*
X30622Y22770D01*
X30604Y22772D01*
X30587Y22776D01*
X30571Y22784D01*
X30556Y22794D01*
X30544Y22806D01*
X30534Y22821D01*
X30526Y22837D01*
X30522Y22854D01*
X30520Y22872D01*
X30520Y22923D01*
X30522Y22941D01*
X30526Y22958D01*
X30534Y22974D01*
X30544Y22989D01*
X30556Y23001D01*
X30571Y23011D01*
X30587Y23019D01*
X30604Y23023D01*
X30622Y23025D01*
X30622Y23026D02*
X30776Y23026D01*
X30776Y23230D01*
X30520Y23230D01*
X31480Y22026D02*
X31557Y22026D01*
X31480Y22026D02*
X31480Y21770D01*
X31633Y21770D01*
X31651Y21772D01*
X31668Y21776D01*
X31684Y21784D01*
X31699Y21794D01*
X31711Y21806D01*
X31721Y21821D01*
X31729Y21837D01*
X31733Y21854D01*
X31735Y21872D01*
X31736Y21872D02*
X31736Y22128D01*
X31735Y22128D02*
X31733Y22146D01*
X31729Y22163D01*
X31721Y22179D01*
X31711Y22194D01*
X31699Y22206D01*
X31684Y22216D01*
X31668Y22224D01*
X31651Y22228D01*
X31633Y22230D01*
X31480Y22230D01*
X31256Y22230D02*
X31256Y21770D01*
X31000Y21770D02*
X31256Y22230D01*
X31000Y22230D02*
X31000Y21770D01*
X30776Y21770D02*
X30776Y22230D01*
X30648Y22230D01*
X30628Y22228D01*
X30608Y22224D01*
X30590Y22216D01*
X30573Y22206D01*
X30557Y22193D01*
X30544Y22177D01*
X30534Y22160D01*
X30526Y22142D01*
X30522Y22122D01*
X30520Y22102D01*
X30520Y21898D01*
X30522Y21878D01*
X30526Y21858D01*
X30534Y21840D01*
X30544Y21823D01*
X30557Y21807D01*
X30573Y21794D01*
X30590Y21784D01*
X30608Y21776D01*
X30628Y21772D01*
X30648Y21770D01*
X30776Y21770D01*
X31654Y21230D02*
X31654Y20770D01*
X31654Y21230D02*
X31526Y21230D01*
X31505Y21228D01*
X31484Y21223D01*
X31465Y21215D01*
X31447Y21203D01*
X31432Y21189D01*
X31419Y21172D01*
X31409Y21153D01*
X31402Y21133D01*
X31398Y21113D01*
X31398Y21091D01*
X31402Y21071D01*
X31409Y21051D01*
X31419Y21032D01*
X31432Y21015D01*
X31447Y21001D01*
X31465Y20989D01*
X31484Y20981D01*
X31505Y20976D01*
X31526Y20974D01*
X31654Y20974D01*
X31204Y21026D02*
X31076Y21026D01*
X31055Y21024D01*
X31034Y21019D01*
X31015Y21011D01*
X30997Y20999D01*
X30982Y20985D01*
X30969Y20968D01*
X30959Y20949D01*
X30952Y20929D01*
X30948Y20909D01*
X30948Y20887D01*
X30952Y20867D01*
X30959Y20847D01*
X30969Y20828D01*
X30982Y20811D01*
X30997Y20797D01*
X31015Y20785D01*
X31034Y20777D01*
X31055Y20772D01*
X31076Y20770D01*
X31204Y20770D01*
X31204Y21230D01*
X31076Y21230D01*
X31057Y21228D01*
X31039Y21223D01*
X31022Y21215D01*
X31007Y21203D01*
X30995Y21189D01*
X30985Y21173D01*
X30978Y21156D01*
X30974Y21137D01*
X30974Y21119D01*
X30978Y21100D01*
X30985Y21083D01*
X30995Y21067D01*
X31007Y21053D01*
X31022Y21041D01*
X31039Y21033D01*
X31057Y21028D01*
X31076Y21026D01*
X30776Y21179D02*
X30776Y21230D01*
X30520Y21230D01*
X30648Y20770D01*
X32029Y20230D02*
X32029Y19770D01*
X32029Y20230D02*
X31901Y20230D01*
X31880Y20228D01*
X31859Y20223D01*
X31840Y20215D01*
X31822Y20203D01*
X31807Y20189D01*
X31794Y20172D01*
X31784Y20153D01*
X31777Y20133D01*
X31773Y20113D01*
X31773Y20091D01*
X31777Y20071D01*
X31784Y20051D01*
X31794Y20032D01*
X31807Y20015D01*
X31822Y20001D01*
X31840Y19989D01*
X31859Y19981D01*
X31880Y19976D01*
X31901Y19974D01*
X32029Y19974D01*
X31500Y19770D02*
X31397Y19770D01*
X31500Y19770D02*
X31518Y19772D01*
X31535Y19776D01*
X31551Y19784D01*
X31566Y19794D01*
X31578Y19806D01*
X31588Y19821D01*
X31596Y19837D01*
X31600Y19854D01*
X31602Y19872D01*
X31602Y20128D01*
X31600Y20146D01*
X31596Y20163D01*
X31588Y20179D01*
X31578Y20194D01*
X31566Y20206D01*
X31551Y20216D01*
X31535Y20224D01*
X31518Y20228D01*
X31500Y20230D01*
X31397Y20230D01*
X31226Y20128D02*
X31098Y20230D01*
X31098Y19770D01*
X31226Y19770D02*
X30970Y19770D01*
X30776Y19770D02*
X30648Y19770D01*
X30627Y19772D01*
X30606Y19777D01*
X30587Y19785D01*
X30569Y19797D01*
X30554Y19811D01*
X30541Y19828D01*
X30531Y19847D01*
X30524Y19867D01*
X30520Y19887D01*
X30520Y19909D01*
X30524Y19929D01*
X30531Y19949D01*
X30541Y19968D01*
X30554Y19985D01*
X30569Y19999D01*
X30587Y20011D01*
X30606Y20019D01*
X30627Y20024D01*
X30648Y20026D01*
X30622Y20230D02*
X30776Y20230D01*
X30622Y20230D02*
X30603Y20228D01*
X30585Y20223D01*
X30568Y20215D01*
X30553Y20203D01*
X30541Y20189D01*
X30531Y20173D01*
X30524Y20156D01*
X30520Y20137D01*
X30520Y20119D01*
X30524Y20100D01*
X30531Y20083D01*
X30541Y20067D01*
X30553Y20053D01*
X30568Y20041D01*
X30585Y20033D01*
X30603Y20028D01*
X30622Y20026D01*
X30724Y20026D01*
X32029Y19230D02*
X32029Y18770D01*
X32029Y19230D02*
X31901Y19230D01*
X31880Y19228D01*
X31859Y19223D01*
X31840Y19215D01*
X31822Y19203D01*
X31807Y19189D01*
X31794Y19172D01*
X31784Y19153D01*
X31777Y19133D01*
X31773Y19113D01*
X31773Y19091D01*
X31777Y19071D01*
X31784Y19051D01*
X31794Y19032D01*
X31807Y19015D01*
X31822Y19001D01*
X31840Y18989D01*
X31859Y18981D01*
X31880Y18976D01*
X31901Y18974D01*
X32029Y18974D01*
X31500Y18770D02*
X31397Y18770D01*
X31500Y18770D02*
X31518Y18772D01*
X31535Y18776D01*
X31551Y18784D01*
X31566Y18794D01*
X31578Y18806D01*
X31588Y18821D01*
X31596Y18837D01*
X31600Y18854D01*
X31602Y18872D01*
X31602Y19128D01*
X31600Y19146D01*
X31596Y19163D01*
X31588Y19179D01*
X31578Y19194D01*
X31566Y19206D01*
X31551Y19216D01*
X31535Y19224D01*
X31518Y19228D01*
X31500Y19230D01*
X31397Y19230D01*
X31226Y19128D02*
X31098Y19230D01*
X31098Y18770D01*
X31226Y18770D02*
X30970Y18770D01*
X30776Y18872D02*
X30673Y19230D01*
X30776Y18872D02*
X30520Y18872D01*
X30597Y18974D02*
X30597Y18770D01*
X32029Y18230D02*
X32029Y17770D01*
X32029Y18230D02*
X31901Y18230D01*
X31880Y18228D01*
X31859Y18223D01*
X31840Y18215D01*
X31822Y18203D01*
X31807Y18189D01*
X31794Y18172D01*
X31784Y18153D01*
X31777Y18133D01*
X31773Y18113D01*
X31773Y18091D01*
X31777Y18071D01*
X31784Y18051D01*
X31794Y18032D01*
X31807Y18015D01*
X31822Y18001D01*
X31840Y17989D01*
X31859Y17981D01*
X31880Y17976D01*
X31901Y17974D01*
X32029Y17974D01*
X31500Y17770D02*
X31397Y17770D01*
X31500Y17770D02*
X31518Y17772D01*
X31535Y17776D01*
X31551Y17784D01*
X31566Y17794D01*
X31578Y17806D01*
X31588Y17821D01*
X31596Y17837D01*
X31600Y17854D01*
X31602Y17872D01*
X31602Y18128D01*
X31600Y18146D01*
X31596Y18163D01*
X31588Y18179D01*
X31578Y18194D01*
X31566Y18206D01*
X31551Y18216D01*
X31535Y18224D01*
X31518Y18228D01*
X31500Y18230D01*
X31397Y18230D01*
X31226Y18128D02*
X31098Y18230D01*
X31098Y17770D01*
X31226Y17770D02*
X30970Y17770D01*
X30776Y17770D02*
X30622Y17770D01*
X30604Y17772D01*
X30587Y17776D01*
X30571Y17784D01*
X30556Y17794D01*
X30544Y17806D01*
X30534Y17821D01*
X30526Y17837D01*
X30522Y17854D01*
X30520Y17872D01*
X30520Y17923D01*
X30522Y17941D01*
X30526Y17958D01*
X30534Y17974D01*
X30544Y17989D01*
X30556Y18001D01*
X30571Y18011D01*
X30587Y18019D01*
X30604Y18023D01*
X30622Y18025D01*
X30622Y18026D02*
X30776Y18026D01*
X30776Y18230D01*
X30520Y18230D01*
X31684Y17230D02*
X31684Y16770D01*
X31684Y17230D02*
X31556Y17230D01*
X31535Y17228D01*
X31514Y17223D01*
X31495Y17215D01*
X31477Y17203D01*
X31462Y17189D01*
X31449Y17172D01*
X31439Y17153D01*
X31432Y17133D01*
X31428Y17113D01*
X31428Y17091D01*
X31432Y17071D01*
X31439Y17051D01*
X31449Y17032D01*
X31462Y17015D01*
X31477Y17001D01*
X31495Y16989D01*
X31514Y16981D01*
X31535Y16976D01*
X31556Y16974D01*
X31684Y16974D01*
X31241Y16770D02*
X31241Y17230D01*
X31241Y17026D02*
X30985Y17026D01*
X30985Y17230D02*
X30985Y16770D01*
X30775Y17000D02*
X30773Y17034D01*
X30769Y17068D01*
X30761Y17102D01*
X30750Y17135D01*
X30737Y17166D01*
X30738Y17166D02*
X30731Y17181D01*
X30722Y17195D01*
X30710Y17207D01*
X30696Y17217D01*
X30681Y17224D01*
X30665Y17229D01*
X30648Y17230D01*
X30631Y17229D01*
X30615Y17224D01*
X30600Y17217D01*
X30586Y17207D01*
X30574Y17195D01*
X30565Y17181D01*
X30558Y17166D01*
X30545Y17135D01*
X30534Y17102D01*
X30526Y17068D01*
X30522Y17034D01*
X30520Y17000D01*
X30775Y17000D02*
X30773Y16966D01*
X30769Y16932D01*
X30761Y16898D01*
X30750Y16865D01*
X30737Y16834D01*
X30738Y16834D02*
X30731Y16819D01*
X30722Y16805D01*
X30710Y16793D01*
X30696Y16783D01*
X30681Y16776D01*
X30665Y16771D01*
X30648Y16770D01*
X30558Y16834D02*
X30545Y16865D01*
X30534Y16898D01*
X30526Y16932D01*
X30522Y16966D01*
X30520Y17000D01*
X30558Y16834D02*
X30565Y16819D01*
X30574Y16805D01*
X30586Y16793D01*
X30600Y16783D01*
X30615Y16776D01*
X30631Y16771D01*
X30648Y16770D01*
X30750Y16872D02*
X30546Y17128D01*
X31684Y16230D02*
X31684Y15770D01*
X31684Y16230D02*
X31556Y16230D01*
X31535Y16228D01*
X31514Y16223D01*
X31495Y16215D01*
X31477Y16203D01*
X31462Y16189D01*
X31449Y16172D01*
X31439Y16153D01*
X31432Y16133D01*
X31428Y16113D01*
X31428Y16091D01*
X31432Y16071D01*
X31439Y16051D01*
X31449Y16032D01*
X31462Y16015D01*
X31477Y16001D01*
X31495Y15989D01*
X31514Y15981D01*
X31535Y15976D01*
X31556Y15974D01*
X31684Y15974D01*
X31241Y15770D02*
X31241Y16230D01*
X31241Y16026D02*
X30985Y16026D01*
X30985Y16230D02*
X30985Y15770D01*
X30776Y16128D02*
X30648Y16230D01*
X30648Y15770D01*
X30776Y15770D02*
X30520Y15770D01*
X32121Y15230D02*
X31968Y14770D01*
X31814Y15230D01*
X31624Y15026D02*
X31496Y15026D01*
X31475Y15024D01*
X31454Y15019D01*
X31435Y15011D01*
X31417Y14999D01*
X31402Y14985D01*
X31389Y14968D01*
X31379Y14949D01*
X31372Y14929D01*
X31368Y14909D01*
X31368Y14887D01*
X31372Y14867D01*
X31379Y14847D01*
X31389Y14828D01*
X31402Y14811D01*
X31417Y14797D01*
X31435Y14785D01*
X31454Y14777D01*
X31475Y14772D01*
X31496Y14770D01*
X31624Y14770D01*
X31624Y15230D01*
X31496Y15230D01*
X31477Y15228D01*
X31459Y15223D01*
X31442Y15215D01*
X31427Y15203D01*
X31415Y15189D01*
X31405Y15173D01*
X31398Y15156D01*
X31394Y15137D01*
X31394Y15119D01*
X31398Y15100D01*
X31405Y15083D01*
X31415Y15067D01*
X31427Y15053D01*
X31442Y15041D01*
X31459Y15033D01*
X31477Y15028D01*
X31496Y15026D01*
X31221Y14770D02*
X31068Y15230D01*
X30914Y14770D01*
X30953Y14885D02*
X31183Y14885D01*
X30648Y14770D02*
X30648Y15230D01*
X30776Y15230D02*
X30520Y15230D01*
X31579Y14230D02*
X31579Y13770D01*
X31579Y14230D02*
X31451Y14230D01*
X31430Y14228D01*
X31409Y14223D01*
X31390Y14215D01*
X31372Y14203D01*
X31357Y14189D01*
X31344Y14172D01*
X31334Y14153D01*
X31327Y14133D01*
X31323Y14113D01*
X31323Y14091D01*
X31327Y14071D01*
X31334Y14051D01*
X31344Y14032D01*
X31357Y14015D01*
X31372Y14001D01*
X31390Y13989D01*
X31409Y13981D01*
X31430Y13976D01*
X31451Y13974D01*
X31579Y13974D01*
X31050Y13770D02*
X30947Y13770D01*
X31050Y13770D02*
X31068Y13772D01*
X31085Y13776D01*
X31101Y13784D01*
X31116Y13794D01*
X31128Y13806D01*
X31138Y13821D01*
X31146Y13837D01*
X31150Y13854D01*
X31152Y13872D01*
X31152Y14128D01*
X31150Y14146D01*
X31146Y14163D01*
X31138Y14179D01*
X31128Y14194D01*
X31116Y14206D01*
X31101Y14216D01*
X31085Y14224D01*
X31068Y14228D01*
X31050Y14230D01*
X30947Y14230D01*
X30635Y14230D02*
X30615Y14228D01*
X30596Y14223D01*
X30578Y14215D01*
X30561Y14203D01*
X30547Y14189D01*
X30535Y14173D01*
X30527Y14154D01*
X30522Y14135D01*
X30520Y14115D01*
X30635Y14230D02*
X30658Y14228D01*
X30681Y14223D01*
X30702Y14214D01*
X30722Y14202D01*
X30740Y14187D01*
X30755Y14169D01*
X30767Y14149D01*
X30776Y14128D01*
X30558Y14025D02*
X30545Y14040D01*
X30534Y14057D01*
X30526Y14076D01*
X30522Y14095D01*
X30520Y14115D01*
X30558Y14026D02*
X30776Y13770D01*
X30520Y13770D01*
X31579Y13230D02*
X31579Y12770D01*
X31579Y13230D02*
X31451Y13230D01*
X31430Y13228D01*
X31409Y13223D01*
X31390Y13215D01*
X31372Y13203D01*
X31357Y13189D01*
X31344Y13172D01*
X31334Y13153D01*
X31327Y13133D01*
X31323Y13113D01*
X31323Y13091D01*
X31327Y13071D01*
X31334Y13051D01*
X31344Y13032D01*
X31357Y13015D01*
X31372Y13001D01*
X31390Y12989D01*
X31409Y12981D01*
X31430Y12976D01*
X31451Y12974D01*
X31579Y12974D01*
X31050Y12770D02*
X30947Y12770D01*
X31050Y12770D02*
X31068Y12772D01*
X31085Y12776D01*
X31101Y12784D01*
X31116Y12794D01*
X31128Y12806D01*
X31138Y12821D01*
X31146Y12837D01*
X31150Y12854D01*
X31152Y12872D01*
X31152Y13128D01*
X31150Y13146D01*
X31146Y13163D01*
X31138Y13179D01*
X31128Y13194D01*
X31116Y13206D01*
X31101Y13216D01*
X31085Y13224D01*
X31068Y13228D01*
X31050Y13230D01*
X30947Y13230D01*
X30776Y12770D02*
X30648Y12770D01*
X30627Y12772D01*
X30606Y12777D01*
X30587Y12785D01*
X30569Y12797D01*
X30554Y12811D01*
X30541Y12828D01*
X30531Y12847D01*
X30524Y12867D01*
X30520Y12887D01*
X30520Y12909D01*
X30524Y12929D01*
X30531Y12949D01*
X30541Y12968D01*
X30554Y12985D01*
X30569Y12999D01*
X30587Y13011D01*
X30606Y13019D01*
X30627Y13024D01*
X30648Y13026D01*
X30622Y13230D02*
X30776Y13230D01*
X30622Y13230D02*
X30603Y13228D01*
X30585Y13223D01*
X30568Y13215D01*
X30553Y13203D01*
X30541Y13189D01*
X30531Y13173D01*
X30524Y13156D01*
X30520Y13137D01*
X30520Y13119D01*
X30524Y13100D01*
X30531Y13083D01*
X30541Y13067D01*
X30553Y13053D01*
X30568Y13041D01*
X30585Y13033D01*
X30603Y13028D01*
X30622Y13026D01*
X30724Y13026D01*
X7579Y30770D02*
X7579Y31230D01*
X7451Y31230D01*
X7430Y31228D01*
X7409Y31223D01*
X7390Y31215D01*
X7372Y31203D01*
X7357Y31189D01*
X7344Y31172D01*
X7334Y31153D01*
X7327Y31133D01*
X7323Y31113D01*
X7323Y31091D01*
X7327Y31071D01*
X7334Y31051D01*
X7344Y31032D01*
X7357Y31015D01*
X7372Y31001D01*
X7390Y30989D01*
X7409Y30981D01*
X7430Y30976D01*
X7451Y30974D01*
X7579Y30974D01*
X7050Y30770D02*
X6947Y30770D01*
X7050Y30770D02*
X7068Y30772D01*
X7085Y30776D01*
X7101Y30784D01*
X7116Y30794D01*
X7128Y30806D01*
X7138Y30821D01*
X7146Y30837D01*
X7150Y30854D01*
X7152Y30872D01*
X7152Y31128D01*
X7150Y31146D01*
X7146Y31163D01*
X7138Y31179D01*
X7128Y31194D01*
X7116Y31206D01*
X7101Y31216D01*
X7085Y31224D01*
X7068Y31228D01*
X7050Y31230D01*
X6947Y31230D01*
X6673Y30974D02*
X6520Y30974D01*
X6673Y30975D02*
X6691Y30977D01*
X6708Y30981D01*
X6724Y30989D01*
X6739Y30999D01*
X6751Y31011D01*
X6761Y31026D01*
X6769Y31042D01*
X6773Y31059D01*
X6775Y31077D01*
X6776Y31077D02*
X6776Y31102D01*
X6774Y31123D01*
X6769Y31144D01*
X6761Y31163D01*
X6749Y31181D01*
X6735Y31196D01*
X6718Y31209D01*
X6699Y31219D01*
X6679Y31226D01*
X6659Y31230D01*
X6637Y31230D01*
X6617Y31226D01*
X6597Y31219D01*
X6578Y31209D01*
X6561Y31196D01*
X6547Y31181D01*
X6535Y31163D01*
X6527Y31144D01*
X6522Y31123D01*
X6520Y31102D01*
X6520Y30974D01*
X6522Y30947D01*
X6527Y30921D01*
X6536Y30896D01*
X6547Y30872D01*
X6562Y30850D01*
X6580Y30830D01*
X6600Y30812D01*
X6622Y30797D01*
X6646Y30786D01*
X6671Y30777D01*
X6697Y30772D01*
X6724Y30770D01*
X7654Y30230D02*
X7654Y29770D01*
X7654Y30230D02*
X7526Y30230D01*
X7505Y30228D01*
X7484Y30223D01*
X7465Y30215D01*
X7447Y30203D01*
X7432Y30189D01*
X7419Y30172D01*
X7409Y30153D01*
X7402Y30133D01*
X7398Y30113D01*
X7398Y30091D01*
X7402Y30071D01*
X7409Y30051D01*
X7419Y30032D01*
X7432Y30015D01*
X7447Y30001D01*
X7465Y29989D01*
X7484Y29981D01*
X7505Y29976D01*
X7526Y29974D01*
X7654Y29974D01*
X7204Y30026D02*
X7076Y30026D01*
X7055Y30024D01*
X7034Y30019D01*
X7015Y30011D01*
X6997Y29999D01*
X6982Y29985D01*
X6969Y29968D01*
X6959Y29949D01*
X6952Y29929D01*
X6948Y29909D01*
X6948Y29887D01*
X6952Y29867D01*
X6959Y29847D01*
X6969Y29828D01*
X6982Y29811D01*
X6997Y29797D01*
X7015Y29785D01*
X7034Y29777D01*
X7055Y29772D01*
X7076Y29770D01*
X7204Y29770D01*
X7204Y30230D01*
X7076Y30230D01*
X7057Y30228D01*
X7039Y30223D01*
X7022Y30215D01*
X7007Y30203D01*
X6995Y30189D01*
X6985Y30173D01*
X6978Y30156D01*
X6974Y30137D01*
X6974Y30119D01*
X6978Y30100D01*
X6985Y30083D01*
X6995Y30067D01*
X7007Y30053D01*
X7022Y30041D01*
X7039Y30033D01*
X7057Y30028D01*
X7076Y30026D01*
X6776Y29898D02*
X6774Y29919D01*
X6769Y29940D01*
X6761Y29959D01*
X6749Y29977D01*
X6735Y29992D01*
X6718Y30005D01*
X6699Y30015D01*
X6679Y30022D01*
X6659Y30026D01*
X6637Y30026D01*
X6617Y30022D01*
X6597Y30015D01*
X6578Y30005D01*
X6561Y29992D01*
X6547Y29977D01*
X6535Y29959D01*
X6527Y29940D01*
X6522Y29919D01*
X6520Y29898D01*
X6522Y29877D01*
X6527Y29856D01*
X6535Y29837D01*
X6547Y29819D01*
X6561Y29804D01*
X6578Y29791D01*
X6597Y29781D01*
X6617Y29774D01*
X6637Y29770D01*
X6659Y29770D01*
X6679Y29774D01*
X6699Y29781D01*
X6718Y29791D01*
X6735Y29804D01*
X6749Y29819D01*
X6761Y29837D01*
X6769Y29856D01*
X6774Y29877D01*
X6776Y29898D01*
X6750Y30128D02*
X6748Y30147D01*
X6743Y30165D01*
X6735Y30182D01*
X6723Y30197D01*
X6709Y30209D01*
X6693Y30219D01*
X6676Y30226D01*
X6657Y30230D01*
X6639Y30230D01*
X6620Y30226D01*
X6603Y30219D01*
X6587Y30209D01*
X6573Y30197D01*
X6561Y30182D01*
X6553Y30165D01*
X6548Y30147D01*
X6546Y30128D01*
X6548Y30109D01*
X6553Y30091D01*
X6561Y30074D01*
X6573Y30059D01*
X6587Y30047D01*
X6603Y30037D01*
X6620Y30030D01*
X6639Y30026D01*
X6657Y30026D01*
X6676Y30030D01*
X6693Y30037D01*
X6709Y30047D01*
X6723Y30059D01*
X6735Y30074D01*
X6743Y30091D01*
X6748Y30109D01*
X6750Y30128D01*
X7654Y29230D02*
X7654Y28770D01*
X7654Y29230D02*
X7526Y29230D01*
X7505Y29228D01*
X7484Y29223D01*
X7465Y29215D01*
X7447Y29203D01*
X7432Y29189D01*
X7419Y29172D01*
X7409Y29153D01*
X7402Y29133D01*
X7398Y29113D01*
X7398Y29091D01*
X7402Y29071D01*
X7409Y29051D01*
X7419Y29032D01*
X7432Y29015D01*
X7447Y29001D01*
X7465Y28989D01*
X7484Y28981D01*
X7505Y28976D01*
X7526Y28974D01*
X7654Y28974D01*
X7204Y29026D02*
X7076Y29026D01*
X7055Y29024D01*
X7034Y29019D01*
X7015Y29011D01*
X6997Y28999D01*
X6982Y28985D01*
X6969Y28968D01*
X6959Y28949D01*
X6952Y28929D01*
X6948Y28909D01*
X6948Y28887D01*
X6952Y28867D01*
X6959Y28847D01*
X6969Y28828D01*
X6982Y28811D01*
X6997Y28797D01*
X7015Y28785D01*
X7034Y28777D01*
X7055Y28772D01*
X7076Y28770D01*
X7204Y28770D01*
X7204Y29230D01*
X7076Y29230D01*
X7057Y29228D01*
X7039Y29223D01*
X7022Y29215D01*
X7007Y29203D01*
X6995Y29189D01*
X6985Y29173D01*
X6978Y29156D01*
X6974Y29137D01*
X6974Y29119D01*
X6978Y29100D01*
X6985Y29083D01*
X6995Y29067D01*
X7007Y29053D01*
X7022Y29041D01*
X7039Y29033D01*
X7057Y29028D01*
X7076Y29026D01*
X6673Y28974D02*
X6520Y28974D01*
X6673Y28975D02*
X6691Y28977D01*
X6708Y28981D01*
X6724Y28989D01*
X6739Y28999D01*
X6751Y29011D01*
X6761Y29026D01*
X6769Y29042D01*
X6773Y29059D01*
X6775Y29077D01*
X6776Y29077D02*
X6776Y29102D01*
X6774Y29123D01*
X6769Y29144D01*
X6761Y29163D01*
X6749Y29181D01*
X6735Y29196D01*
X6718Y29209D01*
X6699Y29219D01*
X6679Y29226D01*
X6659Y29230D01*
X6637Y29230D01*
X6617Y29226D01*
X6597Y29219D01*
X6578Y29209D01*
X6561Y29196D01*
X6547Y29181D01*
X6535Y29163D01*
X6527Y29144D01*
X6522Y29123D01*
X6520Y29102D01*
X6520Y28974D01*
X6522Y28947D01*
X6527Y28921D01*
X6536Y28896D01*
X6547Y28872D01*
X6562Y28850D01*
X6580Y28830D01*
X6600Y28812D01*
X6622Y28797D01*
X6646Y28786D01*
X6671Y28777D01*
X6697Y28772D01*
X6724Y28770D01*
X8043Y28230D02*
X8196Y27770D01*
X7889Y27770D02*
X8043Y28230D01*
X7928Y27885D02*
X8158Y27885D01*
X7746Y28230D02*
X7593Y27770D01*
X7439Y28230D01*
X7256Y28230D02*
X7256Y27770D01*
X7256Y28230D02*
X7128Y28230D01*
X7108Y28228D01*
X7088Y28224D01*
X7070Y28216D01*
X7053Y28206D01*
X7037Y28193D01*
X7024Y28177D01*
X7014Y28160D01*
X7006Y28142D01*
X7002Y28122D01*
X7000Y28102D01*
X7000Y27898D01*
X7002Y27878D01*
X7006Y27858D01*
X7014Y27840D01*
X7024Y27823D01*
X7037Y27807D01*
X7053Y27794D01*
X7070Y27784D01*
X7088Y27776D01*
X7108Y27772D01*
X7128Y27770D01*
X7256Y27770D01*
X6776Y27770D02*
X6776Y28230D01*
X6648Y28230D01*
X6628Y28228D01*
X6608Y28224D01*
X6590Y28216D01*
X6573Y28206D01*
X6557Y28193D01*
X6544Y28177D01*
X6534Y28160D01*
X6526Y28142D01*
X6522Y28122D01*
X6520Y28102D01*
X6520Y27898D01*
X6522Y27878D01*
X6526Y27858D01*
X6534Y27840D01*
X6544Y27823D01*
X6557Y27807D01*
X6573Y27794D01*
X6590Y27784D01*
X6608Y27776D01*
X6628Y27772D01*
X6648Y27770D01*
X6776Y27770D01*
X7480Y27026D02*
X7557Y27026D01*
X7480Y27026D02*
X7480Y26770D01*
X7633Y26770D01*
X7651Y26772D01*
X7668Y26776D01*
X7684Y26784D01*
X7699Y26794D01*
X7711Y26806D01*
X7721Y26821D01*
X7729Y26837D01*
X7733Y26854D01*
X7735Y26872D01*
X7736Y26872D02*
X7736Y27128D01*
X7735Y27128D02*
X7733Y27146D01*
X7729Y27163D01*
X7721Y27179D01*
X7711Y27194D01*
X7699Y27206D01*
X7684Y27216D01*
X7668Y27224D01*
X7651Y27228D01*
X7633Y27230D01*
X7480Y27230D01*
X7256Y27230D02*
X7256Y26770D01*
X7000Y26770D02*
X7256Y27230D01*
X7000Y27230D02*
X7000Y26770D01*
X6776Y26770D02*
X6776Y27230D01*
X6648Y27230D01*
X6628Y27228D01*
X6608Y27224D01*
X6590Y27216D01*
X6573Y27206D01*
X6557Y27193D01*
X6544Y27177D01*
X6534Y27160D01*
X6526Y27142D01*
X6522Y27122D01*
X6520Y27102D01*
X6520Y26898D01*
X6522Y26878D01*
X6526Y26858D01*
X6534Y26840D01*
X6544Y26823D01*
X6557Y26807D01*
X6573Y26794D01*
X6590Y26784D01*
X6608Y26776D01*
X6628Y26772D01*
X6648Y26770D01*
X6776Y26770D01*
X7654Y26230D02*
X7654Y25770D01*
X7654Y26230D02*
X7526Y26230D01*
X7505Y26228D01*
X7484Y26223D01*
X7465Y26215D01*
X7447Y26203D01*
X7432Y26189D01*
X7419Y26172D01*
X7409Y26153D01*
X7402Y26133D01*
X7398Y26113D01*
X7398Y26091D01*
X7402Y26071D01*
X7409Y26051D01*
X7419Y26032D01*
X7432Y26015D01*
X7447Y26001D01*
X7465Y25989D01*
X7484Y25981D01*
X7505Y25976D01*
X7526Y25974D01*
X7654Y25974D01*
X7251Y25770D02*
X7098Y26230D01*
X6944Y25770D01*
X6983Y25885D02*
X7213Y25885D01*
X6776Y25770D02*
X6622Y25770D01*
X6604Y25772D01*
X6587Y25776D01*
X6571Y25784D01*
X6556Y25794D01*
X6544Y25806D01*
X6534Y25821D01*
X6526Y25837D01*
X6522Y25854D01*
X6520Y25872D01*
X6520Y25923D01*
X6522Y25941D01*
X6526Y25958D01*
X6534Y25974D01*
X6544Y25989D01*
X6556Y26001D01*
X6571Y26011D01*
X6587Y26019D01*
X6604Y26023D01*
X6622Y26025D01*
X6622Y26026D02*
X6776Y26026D01*
X6776Y26230D01*
X6520Y26230D01*
X7654Y25230D02*
X7654Y24770D01*
X7654Y25230D02*
X7526Y25230D01*
X7505Y25228D01*
X7484Y25223D01*
X7465Y25215D01*
X7447Y25203D01*
X7432Y25189D01*
X7419Y25172D01*
X7409Y25153D01*
X7402Y25133D01*
X7398Y25113D01*
X7398Y25091D01*
X7402Y25071D01*
X7409Y25051D01*
X7419Y25032D01*
X7432Y25015D01*
X7447Y25001D01*
X7465Y24989D01*
X7484Y24981D01*
X7505Y24976D01*
X7526Y24974D01*
X7654Y24974D01*
X7251Y24770D02*
X7098Y25230D01*
X6944Y24770D01*
X6983Y24885D02*
X7213Y24885D01*
X6776Y25026D02*
X6622Y25026D01*
X6622Y25025D02*
X6604Y25023D01*
X6587Y25019D01*
X6571Y25011D01*
X6556Y25001D01*
X6544Y24989D01*
X6534Y24974D01*
X6526Y24958D01*
X6522Y24941D01*
X6520Y24923D01*
X6520Y24898D01*
X6522Y24877D01*
X6527Y24856D01*
X6535Y24837D01*
X6547Y24819D01*
X6561Y24804D01*
X6578Y24791D01*
X6597Y24781D01*
X6617Y24774D01*
X6637Y24770D01*
X6659Y24770D01*
X6679Y24774D01*
X6699Y24781D01*
X6718Y24791D01*
X6735Y24804D01*
X6749Y24819D01*
X6761Y24837D01*
X6769Y24856D01*
X6774Y24877D01*
X6776Y24898D01*
X6776Y25026D01*
X6775Y25026D02*
X6773Y25053D01*
X6768Y25079D01*
X6759Y25104D01*
X6748Y25128D01*
X6733Y25150D01*
X6715Y25170D01*
X6695Y25188D01*
X6673Y25203D01*
X6649Y25214D01*
X6624Y25223D01*
X6598Y25228D01*
X6571Y25230D01*
X7654Y24230D02*
X7654Y23770D01*
X7654Y24230D02*
X7526Y24230D01*
X7505Y24228D01*
X7484Y24223D01*
X7465Y24215D01*
X7447Y24203D01*
X7432Y24189D01*
X7419Y24172D01*
X7409Y24153D01*
X7402Y24133D01*
X7398Y24113D01*
X7398Y24091D01*
X7402Y24071D01*
X7409Y24051D01*
X7419Y24032D01*
X7432Y24015D01*
X7447Y24001D01*
X7465Y23989D01*
X7484Y23981D01*
X7505Y23976D01*
X7526Y23974D01*
X7654Y23974D01*
X7251Y23770D02*
X7098Y24230D01*
X6944Y23770D01*
X6983Y23885D02*
X7213Y23885D01*
X6776Y24179D02*
X6776Y24230D01*
X6520Y24230D01*
X6648Y23770D01*
X7654Y23230D02*
X7654Y22770D01*
X7654Y23230D02*
X7526Y23230D01*
X7505Y23228D01*
X7484Y23223D01*
X7465Y23215D01*
X7447Y23203D01*
X7432Y23189D01*
X7419Y23172D01*
X7409Y23153D01*
X7402Y23133D01*
X7398Y23113D01*
X7398Y23091D01*
X7402Y23071D01*
X7409Y23051D01*
X7419Y23032D01*
X7432Y23015D01*
X7447Y23001D01*
X7465Y22989D01*
X7484Y22981D01*
X7505Y22976D01*
X7526Y22974D01*
X7654Y22974D01*
X7204Y23026D02*
X7076Y23026D01*
X7055Y23024D01*
X7034Y23019D01*
X7015Y23011D01*
X6997Y22999D01*
X6982Y22985D01*
X6969Y22968D01*
X6959Y22949D01*
X6952Y22929D01*
X6948Y22909D01*
X6948Y22887D01*
X6952Y22867D01*
X6959Y22847D01*
X6969Y22828D01*
X6982Y22811D01*
X6997Y22797D01*
X7015Y22785D01*
X7034Y22777D01*
X7055Y22772D01*
X7076Y22770D01*
X7204Y22770D01*
X7204Y23230D01*
X7076Y23230D01*
X7057Y23228D01*
X7039Y23223D01*
X7022Y23215D01*
X7007Y23203D01*
X6995Y23189D01*
X6985Y23173D01*
X6978Y23156D01*
X6974Y23137D01*
X6974Y23119D01*
X6978Y23100D01*
X6985Y23083D01*
X6995Y23067D01*
X7007Y23053D01*
X7022Y23041D01*
X7039Y23033D01*
X7057Y23028D01*
X7076Y23026D01*
X6776Y23026D02*
X6622Y23026D01*
X6622Y23025D02*
X6604Y23023D01*
X6587Y23019D01*
X6571Y23011D01*
X6556Y23001D01*
X6544Y22989D01*
X6534Y22974D01*
X6526Y22958D01*
X6522Y22941D01*
X6520Y22923D01*
X6520Y22898D01*
X6522Y22877D01*
X6527Y22856D01*
X6535Y22837D01*
X6547Y22819D01*
X6561Y22804D01*
X6578Y22791D01*
X6597Y22781D01*
X6617Y22774D01*
X6637Y22770D01*
X6659Y22770D01*
X6679Y22774D01*
X6699Y22781D01*
X6718Y22791D01*
X6735Y22804D01*
X6749Y22819D01*
X6761Y22837D01*
X6769Y22856D01*
X6774Y22877D01*
X6776Y22898D01*
X6776Y23026D01*
X6775Y23026D02*
X6773Y23053D01*
X6768Y23079D01*
X6759Y23104D01*
X6748Y23128D01*
X6733Y23150D01*
X6715Y23170D01*
X6695Y23188D01*
X6673Y23203D01*
X6649Y23214D01*
X6624Y23223D01*
X6598Y23228D01*
X6571Y23230D01*
X7579Y22230D02*
X7579Y21770D01*
X7579Y22230D02*
X7451Y22230D01*
X7430Y22228D01*
X7409Y22223D01*
X7390Y22215D01*
X7372Y22203D01*
X7357Y22189D01*
X7344Y22172D01*
X7334Y22153D01*
X7327Y22133D01*
X7323Y22113D01*
X7323Y22091D01*
X7327Y22071D01*
X7334Y22051D01*
X7344Y22032D01*
X7357Y22015D01*
X7372Y22001D01*
X7390Y21989D01*
X7409Y21981D01*
X7430Y21976D01*
X7451Y21974D01*
X7579Y21974D01*
X7050Y21770D02*
X6947Y21770D01*
X7050Y21770D02*
X7068Y21772D01*
X7085Y21776D01*
X7101Y21784D01*
X7116Y21794D01*
X7128Y21806D01*
X7138Y21821D01*
X7146Y21837D01*
X7150Y21854D01*
X7152Y21872D01*
X7152Y22128D01*
X7150Y22146D01*
X7146Y22163D01*
X7138Y22179D01*
X7128Y22194D01*
X7116Y22206D01*
X7101Y22216D01*
X7085Y22224D01*
X7068Y22228D01*
X7050Y22230D01*
X6947Y22230D01*
X6776Y22230D02*
X6776Y22179D01*
X6776Y22230D02*
X6520Y22230D01*
X6648Y21770D01*
X7654Y21230D02*
X7654Y20770D01*
X7654Y21230D02*
X7526Y21230D01*
X7505Y21228D01*
X7484Y21223D01*
X7465Y21215D01*
X7447Y21203D01*
X7432Y21189D01*
X7419Y21172D01*
X7409Y21153D01*
X7402Y21133D01*
X7398Y21113D01*
X7398Y21091D01*
X7402Y21071D01*
X7409Y21051D01*
X7419Y21032D01*
X7432Y21015D01*
X7447Y21001D01*
X7465Y20989D01*
X7484Y20981D01*
X7505Y20976D01*
X7526Y20974D01*
X7654Y20974D01*
X7251Y20770D02*
X7098Y21230D01*
X6944Y20770D01*
X6983Y20885D02*
X7213Y20885D01*
X6673Y20974D02*
X6520Y20974D01*
X6673Y20975D02*
X6691Y20977D01*
X6708Y20981D01*
X6724Y20989D01*
X6739Y20999D01*
X6751Y21011D01*
X6761Y21026D01*
X6769Y21042D01*
X6773Y21059D01*
X6775Y21077D01*
X6776Y21077D02*
X6776Y21102D01*
X6774Y21123D01*
X6769Y21144D01*
X6761Y21163D01*
X6749Y21181D01*
X6735Y21196D01*
X6718Y21209D01*
X6699Y21219D01*
X6679Y21226D01*
X6659Y21230D01*
X6637Y21230D01*
X6617Y21226D01*
X6597Y21219D01*
X6578Y21209D01*
X6561Y21196D01*
X6547Y21181D01*
X6535Y21163D01*
X6527Y21144D01*
X6522Y21123D01*
X6520Y21102D01*
X6520Y20974D01*
X6522Y20947D01*
X6527Y20921D01*
X6536Y20896D01*
X6547Y20872D01*
X6562Y20850D01*
X6580Y20830D01*
X6600Y20812D01*
X6622Y20797D01*
X6646Y20786D01*
X6671Y20777D01*
X6697Y20772D01*
X6724Y20770D01*
X7654Y20230D02*
X7654Y19770D01*
X7654Y20230D02*
X7526Y20230D01*
X7505Y20228D01*
X7484Y20223D01*
X7465Y20215D01*
X7447Y20203D01*
X7432Y20189D01*
X7419Y20172D01*
X7409Y20153D01*
X7402Y20133D01*
X7398Y20113D01*
X7398Y20091D01*
X7402Y20071D01*
X7409Y20051D01*
X7419Y20032D01*
X7432Y20015D01*
X7447Y20001D01*
X7465Y19989D01*
X7484Y19981D01*
X7505Y19976D01*
X7526Y19974D01*
X7654Y19974D01*
X7251Y19770D02*
X7098Y20230D01*
X6944Y19770D01*
X6983Y19885D02*
X7213Y19885D01*
X6776Y19898D02*
X6774Y19919D01*
X6769Y19940D01*
X6761Y19959D01*
X6749Y19977D01*
X6735Y19992D01*
X6718Y20005D01*
X6699Y20015D01*
X6679Y20022D01*
X6659Y20026D01*
X6637Y20026D01*
X6617Y20022D01*
X6597Y20015D01*
X6578Y20005D01*
X6561Y19992D01*
X6547Y19977D01*
X6535Y19959D01*
X6527Y19940D01*
X6522Y19919D01*
X6520Y19898D01*
X6522Y19877D01*
X6527Y19856D01*
X6535Y19837D01*
X6547Y19819D01*
X6561Y19804D01*
X6578Y19791D01*
X6597Y19781D01*
X6617Y19774D01*
X6637Y19770D01*
X6659Y19770D01*
X6679Y19774D01*
X6699Y19781D01*
X6718Y19791D01*
X6735Y19804D01*
X6749Y19819D01*
X6761Y19837D01*
X6769Y19856D01*
X6774Y19877D01*
X6776Y19898D01*
X6750Y20128D02*
X6748Y20147D01*
X6743Y20165D01*
X6735Y20182D01*
X6723Y20197D01*
X6709Y20209D01*
X6693Y20219D01*
X6676Y20226D01*
X6657Y20230D01*
X6639Y20230D01*
X6620Y20226D01*
X6603Y20219D01*
X6587Y20209D01*
X6573Y20197D01*
X6561Y20182D01*
X6553Y20165D01*
X6548Y20147D01*
X6546Y20128D01*
X6548Y20109D01*
X6553Y20091D01*
X6561Y20074D01*
X6573Y20059D01*
X6587Y20047D01*
X6603Y20037D01*
X6620Y20030D01*
X6639Y20026D01*
X6657Y20026D01*
X6676Y20030D01*
X6693Y20037D01*
X6709Y20047D01*
X6723Y20059D01*
X6735Y20074D01*
X6743Y20091D01*
X6748Y20109D01*
X6750Y20128D01*
X8104Y19230D02*
X8104Y18770D01*
X8104Y19230D02*
X7976Y19230D01*
X7955Y19228D01*
X7934Y19223D01*
X7915Y19215D01*
X7897Y19203D01*
X7882Y19189D01*
X7869Y19172D01*
X7859Y19153D01*
X7852Y19133D01*
X7848Y19113D01*
X7848Y19091D01*
X7852Y19071D01*
X7859Y19051D01*
X7869Y19032D01*
X7882Y19015D01*
X7897Y19001D01*
X7915Y18989D01*
X7934Y18981D01*
X7955Y18976D01*
X7976Y18974D01*
X8104Y18974D01*
X7654Y19026D02*
X7526Y19026D01*
X7505Y19024D01*
X7484Y19019D01*
X7465Y19011D01*
X7447Y18999D01*
X7432Y18985D01*
X7419Y18968D01*
X7409Y18949D01*
X7402Y18929D01*
X7398Y18909D01*
X7398Y18887D01*
X7402Y18867D01*
X7409Y18847D01*
X7419Y18828D01*
X7432Y18811D01*
X7447Y18797D01*
X7465Y18785D01*
X7484Y18777D01*
X7505Y18772D01*
X7526Y18770D01*
X7654Y18770D01*
X7654Y19230D01*
X7526Y19230D01*
X7507Y19228D01*
X7489Y19223D01*
X7472Y19215D01*
X7457Y19203D01*
X7445Y19189D01*
X7435Y19173D01*
X7428Y19156D01*
X7424Y19137D01*
X7424Y19119D01*
X7428Y19100D01*
X7435Y19083D01*
X7445Y19067D01*
X7457Y19053D01*
X7472Y19041D01*
X7489Y19033D01*
X7507Y19028D01*
X7526Y19026D01*
X7226Y19128D02*
X7098Y19230D01*
X7098Y18770D01*
X7226Y18770D02*
X6970Y18770D01*
X6775Y19000D02*
X6773Y19034D01*
X6769Y19068D01*
X6761Y19102D01*
X6750Y19135D01*
X6737Y19166D01*
X6738Y19166D02*
X6731Y19181D01*
X6722Y19195D01*
X6710Y19207D01*
X6696Y19217D01*
X6681Y19224D01*
X6665Y19229D01*
X6648Y19230D01*
X6631Y19229D01*
X6615Y19224D01*
X6600Y19217D01*
X6586Y19207D01*
X6574Y19195D01*
X6565Y19181D01*
X6558Y19166D01*
X6545Y19135D01*
X6534Y19102D01*
X6526Y19068D01*
X6522Y19034D01*
X6520Y19000D01*
X6775Y19000D02*
X6773Y18966D01*
X6769Y18932D01*
X6761Y18898D01*
X6750Y18865D01*
X6737Y18834D01*
X6738Y18834D02*
X6731Y18819D01*
X6722Y18805D01*
X6710Y18793D01*
X6696Y18783D01*
X6681Y18776D01*
X6665Y18771D01*
X6648Y18770D01*
X6558Y18834D02*
X6545Y18865D01*
X6534Y18898D01*
X6526Y18932D01*
X6522Y18966D01*
X6520Y19000D01*
X6558Y18834D02*
X6565Y18819D01*
X6574Y18805D01*
X6586Y18793D01*
X6600Y18783D01*
X6615Y18776D01*
X6631Y18771D01*
X6648Y18770D01*
X6750Y18872D02*
X6546Y19128D01*
X7654Y18230D02*
X7654Y17770D01*
X7654Y18230D02*
X7526Y18230D01*
X7505Y18228D01*
X7484Y18223D01*
X7465Y18215D01*
X7447Y18203D01*
X7432Y18189D01*
X7419Y18172D01*
X7409Y18153D01*
X7402Y18133D01*
X7398Y18113D01*
X7398Y18091D01*
X7402Y18071D01*
X7409Y18051D01*
X7419Y18032D01*
X7432Y18015D01*
X7447Y18001D01*
X7465Y17989D01*
X7484Y17981D01*
X7505Y17976D01*
X7526Y17974D01*
X7654Y17974D01*
X7204Y18026D02*
X7076Y18026D01*
X7055Y18024D01*
X7034Y18019D01*
X7015Y18011D01*
X6997Y17999D01*
X6982Y17985D01*
X6969Y17968D01*
X6959Y17949D01*
X6952Y17929D01*
X6948Y17909D01*
X6948Y17887D01*
X6952Y17867D01*
X6959Y17847D01*
X6969Y17828D01*
X6982Y17811D01*
X6997Y17797D01*
X7015Y17785D01*
X7034Y17777D01*
X7055Y17772D01*
X7076Y17770D01*
X7204Y17770D01*
X7204Y18230D01*
X7076Y18230D01*
X7057Y18228D01*
X7039Y18223D01*
X7022Y18215D01*
X7007Y18203D01*
X6995Y18189D01*
X6985Y18173D01*
X6978Y18156D01*
X6974Y18137D01*
X6974Y18119D01*
X6978Y18100D01*
X6985Y18083D01*
X6995Y18067D01*
X7007Y18053D01*
X7022Y18041D01*
X7039Y18033D01*
X7057Y18028D01*
X7076Y18026D01*
X6776Y17872D02*
X6673Y18230D01*
X6776Y17872D02*
X6520Y17872D01*
X6597Y17974D02*
X6597Y17770D01*
X7654Y17230D02*
X7654Y16770D01*
X7654Y17230D02*
X7526Y17230D01*
X7505Y17228D01*
X7484Y17223D01*
X7465Y17215D01*
X7447Y17203D01*
X7432Y17189D01*
X7419Y17172D01*
X7409Y17153D01*
X7402Y17133D01*
X7398Y17113D01*
X7398Y17091D01*
X7402Y17071D01*
X7409Y17051D01*
X7419Y17032D01*
X7432Y17015D01*
X7447Y17001D01*
X7465Y16989D01*
X7484Y16981D01*
X7505Y16976D01*
X7526Y16974D01*
X7654Y16974D01*
X7204Y17026D02*
X7076Y17026D01*
X7055Y17024D01*
X7034Y17019D01*
X7015Y17011D01*
X6997Y16999D01*
X6982Y16985D01*
X6969Y16968D01*
X6959Y16949D01*
X6952Y16929D01*
X6948Y16909D01*
X6948Y16887D01*
X6952Y16867D01*
X6959Y16847D01*
X6969Y16828D01*
X6982Y16811D01*
X6997Y16797D01*
X7015Y16785D01*
X7034Y16777D01*
X7055Y16772D01*
X7076Y16770D01*
X7204Y16770D01*
X7204Y17230D01*
X7076Y17230D01*
X7057Y17228D01*
X7039Y17223D01*
X7022Y17215D01*
X7007Y17203D01*
X6995Y17189D01*
X6985Y17173D01*
X6978Y17156D01*
X6974Y17137D01*
X6974Y17119D01*
X6978Y17100D01*
X6985Y17083D01*
X6995Y17067D01*
X7007Y17053D01*
X7022Y17041D01*
X7039Y17033D01*
X7057Y17028D01*
X7076Y17026D01*
X6776Y16770D02*
X6622Y16770D01*
X6604Y16772D01*
X6587Y16776D01*
X6571Y16784D01*
X6556Y16794D01*
X6544Y16806D01*
X6534Y16821D01*
X6526Y16837D01*
X6522Y16854D01*
X6520Y16872D01*
X6520Y16923D01*
X6522Y16941D01*
X6526Y16958D01*
X6534Y16974D01*
X6544Y16989D01*
X6556Y17001D01*
X6571Y17011D01*
X6587Y17019D01*
X6604Y17023D01*
X6622Y17025D01*
X6622Y17026D02*
X6776Y17026D01*
X6776Y17230D01*
X6520Y17230D01*
X7654Y16230D02*
X7654Y15770D01*
X7654Y16230D02*
X7526Y16230D01*
X7505Y16228D01*
X7484Y16223D01*
X7465Y16215D01*
X7447Y16203D01*
X7432Y16189D01*
X7419Y16172D01*
X7409Y16153D01*
X7402Y16133D01*
X7398Y16113D01*
X7398Y16091D01*
X7402Y16071D01*
X7409Y16051D01*
X7419Y16032D01*
X7432Y16015D01*
X7447Y16001D01*
X7465Y15989D01*
X7484Y15981D01*
X7505Y15976D01*
X7526Y15974D01*
X7654Y15974D01*
X7204Y16026D02*
X7076Y16026D01*
X7055Y16024D01*
X7034Y16019D01*
X7015Y16011D01*
X6997Y15999D01*
X6982Y15985D01*
X6969Y15968D01*
X6959Y15949D01*
X6952Y15929D01*
X6948Y15909D01*
X6948Y15887D01*
X6952Y15867D01*
X6959Y15847D01*
X6969Y15828D01*
X6982Y15811D01*
X6997Y15797D01*
X7015Y15785D01*
X7034Y15777D01*
X7055Y15772D01*
X7076Y15770D01*
X7204Y15770D01*
X7204Y16230D01*
X7076Y16230D01*
X7057Y16228D01*
X7039Y16223D01*
X7022Y16215D01*
X7007Y16203D01*
X6995Y16189D01*
X6985Y16173D01*
X6978Y16156D01*
X6974Y16137D01*
X6974Y16119D01*
X6978Y16100D01*
X6985Y16083D01*
X6995Y16067D01*
X7007Y16053D01*
X7022Y16041D01*
X7039Y16033D01*
X7057Y16028D01*
X7076Y16026D01*
X6776Y15770D02*
X6648Y15770D01*
X6627Y15772D01*
X6606Y15777D01*
X6587Y15785D01*
X6569Y15797D01*
X6554Y15811D01*
X6541Y15828D01*
X6531Y15847D01*
X6524Y15867D01*
X6520Y15887D01*
X6520Y15909D01*
X6524Y15929D01*
X6531Y15949D01*
X6541Y15968D01*
X6554Y15985D01*
X6569Y15999D01*
X6587Y16011D01*
X6606Y16019D01*
X6627Y16024D01*
X6648Y16026D01*
X6622Y16230D02*
X6776Y16230D01*
X6622Y16230D02*
X6603Y16228D01*
X6585Y16223D01*
X6568Y16215D01*
X6553Y16203D01*
X6541Y16189D01*
X6531Y16173D01*
X6524Y16156D01*
X6520Y16137D01*
X6520Y16119D01*
X6524Y16100D01*
X6531Y16083D01*
X6541Y16067D01*
X6553Y16053D01*
X6568Y16041D01*
X6585Y16033D01*
X6603Y16028D01*
X6622Y16026D01*
X6724Y16026D01*
X8104Y15230D02*
X8104Y14770D01*
X8104Y15230D02*
X7976Y15230D01*
X7955Y15228D01*
X7934Y15223D01*
X7915Y15215D01*
X7897Y15203D01*
X7882Y15189D01*
X7869Y15172D01*
X7859Y15153D01*
X7852Y15133D01*
X7848Y15113D01*
X7848Y15091D01*
X7852Y15071D01*
X7859Y15051D01*
X7869Y15032D01*
X7882Y15015D01*
X7897Y15001D01*
X7915Y14989D01*
X7934Y14981D01*
X7955Y14976D01*
X7976Y14974D01*
X8104Y14974D01*
X7701Y14770D02*
X7548Y15230D01*
X7394Y14770D01*
X7433Y14885D02*
X7663Y14885D01*
X7226Y15128D02*
X7098Y15230D01*
X7098Y14770D01*
X7226Y14770D02*
X6970Y14770D01*
X6775Y15000D02*
X6773Y15034D01*
X6769Y15068D01*
X6761Y15102D01*
X6750Y15135D01*
X6737Y15166D01*
X6738Y15166D02*
X6731Y15181D01*
X6722Y15195D01*
X6710Y15207D01*
X6696Y15217D01*
X6681Y15224D01*
X6665Y15229D01*
X6648Y15230D01*
X6631Y15229D01*
X6615Y15224D01*
X6600Y15217D01*
X6586Y15207D01*
X6574Y15195D01*
X6565Y15181D01*
X6558Y15166D01*
X6545Y15135D01*
X6534Y15102D01*
X6526Y15068D01*
X6522Y15034D01*
X6520Y15000D01*
X6775Y15000D02*
X6773Y14966D01*
X6769Y14932D01*
X6761Y14898D01*
X6750Y14865D01*
X6737Y14834D01*
X6738Y14834D02*
X6731Y14819D01*
X6722Y14805D01*
X6710Y14793D01*
X6696Y14783D01*
X6681Y14776D01*
X6665Y14771D01*
X6648Y14770D01*
X6558Y14834D02*
X6545Y14865D01*
X6534Y14898D01*
X6526Y14932D01*
X6522Y14966D01*
X6520Y15000D01*
X6558Y14834D02*
X6565Y14819D01*
X6574Y14805D01*
X6586Y14793D01*
X6600Y14783D01*
X6615Y14776D01*
X6631Y14771D01*
X6648Y14770D01*
X6750Y14872D02*
X6546Y15128D01*
X7654Y14230D02*
X7654Y13770D01*
X7654Y14230D02*
X7526Y14230D01*
X7505Y14228D01*
X7484Y14223D01*
X7465Y14215D01*
X7447Y14203D01*
X7432Y14189D01*
X7419Y14172D01*
X7409Y14153D01*
X7402Y14133D01*
X7398Y14113D01*
X7398Y14091D01*
X7402Y14071D01*
X7409Y14051D01*
X7419Y14032D01*
X7432Y14015D01*
X7447Y14001D01*
X7465Y13989D01*
X7484Y13981D01*
X7505Y13976D01*
X7526Y13974D01*
X7654Y13974D01*
X7251Y13770D02*
X7098Y14230D01*
X6944Y13770D01*
X6983Y13885D02*
X7213Y13885D01*
X6635Y14230D02*
X6615Y14228D01*
X6596Y14223D01*
X6578Y14215D01*
X6561Y14203D01*
X6547Y14189D01*
X6535Y14173D01*
X6527Y14154D01*
X6522Y14135D01*
X6520Y14115D01*
X6635Y14230D02*
X6658Y14228D01*
X6681Y14223D01*
X6702Y14214D01*
X6722Y14202D01*
X6740Y14187D01*
X6755Y14169D01*
X6767Y14149D01*
X6776Y14128D01*
X6558Y14025D02*
X6545Y14040D01*
X6534Y14057D01*
X6526Y14076D01*
X6522Y14095D01*
X6520Y14115D01*
X6558Y14026D02*
X6776Y13770D01*
X6520Y13770D01*
X7654Y13230D02*
X7654Y12770D01*
X7654Y13230D02*
X7526Y13230D01*
X7505Y13228D01*
X7484Y13223D01*
X7465Y13215D01*
X7447Y13203D01*
X7432Y13189D01*
X7419Y13172D01*
X7409Y13153D01*
X7402Y13133D01*
X7398Y13113D01*
X7398Y13091D01*
X7402Y13071D01*
X7409Y13051D01*
X7419Y13032D01*
X7432Y13015D01*
X7447Y13001D01*
X7465Y12989D01*
X7484Y12981D01*
X7505Y12976D01*
X7526Y12974D01*
X7654Y12974D01*
X7251Y12770D02*
X7098Y13230D01*
X6944Y12770D01*
X6983Y12885D02*
X7213Y12885D01*
X6776Y12770D02*
X6648Y12770D01*
X6627Y12772D01*
X6606Y12777D01*
X6587Y12785D01*
X6569Y12797D01*
X6554Y12811D01*
X6541Y12828D01*
X6531Y12847D01*
X6524Y12867D01*
X6520Y12887D01*
X6520Y12909D01*
X6524Y12929D01*
X6531Y12949D01*
X6541Y12968D01*
X6554Y12985D01*
X6569Y12999D01*
X6587Y13011D01*
X6606Y13019D01*
X6627Y13024D01*
X6648Y13026D01*
X6622Y13230D02*
X6776Y13230D01*
X6622Y13230D02*
X6603Y13228D01*
X6585Y13223D01*
X6568Y13215D01*
X6553Y13203D01*
X6541Y13189D01*
X6531Y13173D01*
X6524Y13156D01*
X6520Y13137D01*
X6520Y13119D01*
X6524Y13100D01*
X6531Y13083D01*
X6541Y13067D01*
X6553Y13053D01*
X6568Y13041D01*
X6585Y13033D01*
X6603Y13028D01*
X6622Y13026D01*
X6724Y13026D01*
X27980Y30770D02*
X27980Y31230D01*
X27852Y31230D01*
X27831Y31228D01*
X27810Y31223D01*
X27791Y31215D01*
X27773Y31203D01*
X27758Y31189D01*
X27745Y31172D01*
X27735Y31153D01*
X27728Y31133D01*
X27724Y31113D01*
X27724Y31091D01*
X27728Y31071D01*
X27735Y31051D01*
X27745Y31032D01*
X27758Y31015D01*
X27773Y31001D01*
X27791Y30989D01*
X27810Y30981D01*
X27831Y30976D01*
X27852Y30974D01*
X27980Y30974D01*
X27451Y30770D02*
X27349Y30770D01*
X27451Y30770D02*
X27469Y30772D01*
X27486Y30776D01*
X27502Y30784D01*
X27517Y30794D01*
X27529Y30806D01*
X27539Y30821D01*
X27547Y30837D01*
X27551Y30854D01*
X27553Y30872D01*
X27553Y31128D01*
X27551Y31146D01*
X27547Y31163D01*
X27539Y31179D01*
X27529Y31194D01*
X27517Y31206D01*
X27502Y31216D01*
X27486Y31224D01*
X27469Y31228D01*
X27451Y31230D01*
X27349Y31230D01*
X27177Y31128D02*
X27049Y31230D01*
X27049Y30770D01*
X27177Y30770D02*
X26921Y30770D01*
X26727Y31128D02*
X26599Y31230D01*
X26599Y30770D01*
X26727Y30770D02*
X26471Y30770D01*
X27980Y30230D02*
X27980Y29770D01*
X27980Y30230D02*
X27852Y30230D01*
X27831Y30228D01*
X27810Y30223D01*
X27791Y30215D01*
X27773Y30203D01*
X27758Y30189D01*
X27745Y30172D01*
X27735Y30153D01*
X27728Y30133D01*
X27724Y30113D01*
X27724Y30091D01*
X27728Y30071D01*
X27735Y30051D01*
X27745Y30032D01*
X27758Y30015D01*
X27773Y30001D01*
X27791Y29989D01*
X27810Y29981D01*
X27831Y29976D01*
X27852Y29974D01*
X27980Y29974D01*
X27537Y29770D02*
X27537Y30230D01*
X27409Y30230D01*
X27389Y30228D01*
X27369Y30224D01*
X27351Y30216D01*
X27334Y30206D01*
X27318Y30193D01*
X27305Y30177D01*
X27295Y30160D01*
X27287Y30142D01*
X27283Y30122D01*
X27281Y30102D01*
X27281Y29898D01*
X27283Y29878D01*
X27287Y29858D01*
X27295Y29840D01*
X27305Y29823D01*
X27318Y29807D01*
X27334Y29794D01*
X27351Y29784D01*
X27369Y29776D01*
X27389Y29772D01*
X27409Y29770D01*
X27537Y29770D01*
X26931Y30230D02*
X26911Y30228D01*
X26892Y30223D01*
X26874Y30215D01*
X26857Y30203D01*
X26843Y30189D01*
X26831Y30173D01*
X26823Y30154D01*
X26818Y30135D01*
X26816Y30115D01*
X26931Y30230D02*
X26954Y30228D01*
X26977Y30223D01*
X26998Y30214D01*
X27018Y30202D01*
X27036Y30187D01*
X27051Y30169D01*
X27063Y30149D01*
X27072Y30128D01*
X26854Y30025D02*
X26841Y30040D01*
X26830Y30057D01*
X26822Y30076D01*
X26818Y30095D01*
X26816Y30115D01*
X26854Y30026D02*
X27072Y29770D01*
X26816Y29770D01*
X27776Y28770D02*
X27980Y28770D01*
X27980Y29230D01*
X27776Y29230D01*
X27827Y29026D02*
X27980Y29026D01*
X27606Y28770D02*
X27453Y28770D01*
X27435Y28772D01*
X27418Y28776D01*
X27402Y28784D01*
X27387Y28794D01*
X27375Y28806D01*
X27365Y28821D01*
X27357Y28837D01*
X27353Y28854D01*
X27351Y28872D01*
X27350Y28872D02*
X27350Y28923D01*
X27351Y28923D02*
X27353Y28941D01*
X27357Y28958D01*
X27365Y28974D01*
X27375Y28989D01*
X27387Y29001D01*
X27402Y29011D01*
X27418Y29019D01*
X27435Y29023D01*
X27453Y29025D01*
X27453Y29026D02*
X27606Y29026D01*
X27606Y29230D01*
X27350Y29230D01*
X27181Y29230D02*
X27028Y28770D01*
X26875Y29230D01*
X27724Y28026D02*
X27801Y28026D01*
X27724Y28026D02*
X27724Y27770D01*
X27878Y27770D01*
X27896Y27772D01*
X27913Y27776D01*
X27929Y27784D01*
X27944Y27794D01*
X27956Y27806D01*
X27966Y27821D01*
X27974Y27837D01*
X27978Y27854D01*
X27980Y27872D01*
X27980Y28128D01*
X27978Y28146D01*
X27974Y28163D01*
X27966Y28179D01*
X27956Y28194D01*
X27944Y28206D01*
X27929Y28216D01*
X27913Y28224D01*
X27896Y28228D01*
X27878Y28230D01*
X27724Y28230D01*
X27500Y28230D02*
X27500Y27770D01*
X27244Y27770D02*
X27500Y28230D01*
X27244Y28230D02*
X27244Y27770D01*
X27020Y27770D02*
X27020Y28230D01*
X26892Y28230D01*
X26872Y28228D01*
X26852Y28224D01*
X26834Y28216D01*
X26817Y28206D01*
X26801Y28193D01*
X26788Y28177D01*
X26778Y28160D01*
X26770Y28142D01*
X26766Y28122D01*
X26764Y28102D01*
X26764Y27898D01*
X26766Y27878D01*
X26770Y27858D01*
X26778Y27840D01*
X26788Y27823D01*
X26801Y27807D01*
X26817Y27794D01*
X26834Y27784D01*
X26852Y27776D01*
X26872Y27772D01*
X26892Y27770D01*
X27020Y27770D01*
X27980Y27230D02*
X27980Y26770D01*
X27724Y26770D02*
X27980Y27230D01*
X27724Y27230D02*
X27724Y26770D01*
X27414Y26770D02*
X27312Y26770D01*
X27414Y26770D02*
X27432Y26772D01*
X27449Y26776D01*
X27465Y26784D01*
X27480Y26794D01*
X27492Y26806D01*
X27502Y26821D01*
X27510Y26837D01*
X27514Y26854D01*
X27516Y26872D01*
X27516Y27128D01*
X27514Y27146D01*
X27510Y27163D01*
X27502Y27179D01*
X27492Y27194D01*
X27480Y27206D01*
X27465Y27216D01*
X27449Y27224D01*
X27432Y27228D01*
X27414Y27230D01*
X27312Y27230D01*
X27929Y26230D02*
X27929Y25770D01*
X27980Y25770D02*
X27878Y25770D01*
X27878Y26230D02*
X27980Y26230D01*
X27697Y26102D02*
X27697Y25898D01*
X27697Y26102D02*
X27695Y26123D01*
X27690Y26144D01*
X27682Y26163D01*
X27670Y26181D01*
X27656Y26196D01*
X27639Y26209D01*
X27620Y26219D01*
X27600Y26226D01*
X27580Y26230D01*
X27558Y26230D01*
X27538Y26226D01*
X27518Y26219D01*
X27499Y26209D01*
X27482Y26196D01*
X27468Y26181D01*
X27456Y26163D01*
X27448Y26144D01*
X27443Y26123D01*
X27441Y26102D01*
X27441Y25898D01*
X27443Y25877D01*
X27448Y25856D01*
X27456Y25837D01*
X27468Y25819D01*
X27482Y25804D01*
X27499Y25791D01*
X27518Y25781D01*
X27538Y25774D01*
X27558Y25770D01*
X27580Y25770D01*
X27600Y25774D01*
X27620Y25781D01*
X27639Y25791D01*
X27656Y25804D01*
X27670Y25819D01*
X27682Y25837D01*
X27690Y25856D01*
X27695Y25877D01*
X27697Y25898D01*
X27229Y25770D02*
X27229Y26230D01*
X27101Y26230D01*
X27080Y26228D01*
X27059Y26223D01*
X27040Y26215D01*
X27022Y26203D01*
X27007Y26189D01*
X26994Y26172D01*
X26984Y26153D01*
X26977Y26133D01*
X26973Y26113D01*
X26973Y26091D01*
X26977Y26071D01*
X26984Y26051D01*
X26994Y26032D01*
X27007Y26015D01*
X27022Y26001D01*
X27040Y25989D01*
X27059Y25981D01*
X27080Y25976D01*
X27101Y25974D01*
X27229Y25974D01*
X27075Y25974D02*
X26973Y25770D01*
X26766Y25770D02*
X26561Y25770D01*
X26766Y25770D02*
X26766Y26230D01*
X26561Y26230D01*
X26612Y26026D02*
X26766Y26026D01*
X26376Y26230D02*
X26376Y25770D01*
X26376Y26230D02*
X26171Y26230D01*
X26171Y26026D02*
X26376Y26026D01*
X27980Y25230D02*
X27980Y24770D01*
X27724Y24770D02*
X27980Y25230D01*
X27724Y25230D02*
X27724Y24770D01*
X27497Y24770D02*
X27497Y25230D01*
X27369Y25230D01*
X27348Y25228D01*
X27327Y25223D01*
X27308Y25215D01*
X27290Y25203D01*
X27275Y25189D01*
X27262Y25172D01*
X27252Y25153D01*
X27245Y25133D01*
X27241Y25113D01*
X27241Y25091D01*
X27245Y25071D01*
X27252Y25051D01*
X27262Y25032D01*
X27275Y25015D01*
X27290Y25001D01*
X27308Y24989D01*
X27327Y24981D01*
X27348Y24976D01*
X27369Y24974D01*
X27497Y24974D01*
X27344Y24974D02*
X27242Y24770D01*
X26912Y24770D02*
X26894Y24772D01*
X26877Y24776D01*
X26861Y24784D01*
X26846Y24794D01*
X26834Y24806D01*
X26824Y24821D01*
X26816Y24837D01*
X26812Y24854D01*
X26810Y24872D01*
X26912Y24770D02*
X26940Y24772D01*
X26968Y24777D01*
X26995Y24787D01*
X27021Y24799D01*
X27044Y24815D01*
X27065Y24834D01*
X27052Y25128D02*
X27050Y25146D01*
X27046Y25163D01*
X27038Y25179D01*
X27028Y25194D01*
X27016Y25206D01*
X27001Y25216D01*
X26985Y25224D01*
X26968Y25228D01*
X26950Y25230D01*
X26925Y25228D01*
X26901Y25224D01*
X26878Y25216D01*
X26855Y25205D01*
X26835Y25192D01*
X27001Y25038D02*
X27015Y25049D01*
X27028Y25062D01*
X27038Y25076D01*
X27046Y25093D01*
X27050Y25110D01*
X27052Y25128D01*
X26860Y24962D02*
X26846Y24951D01*
X26833Y24938D01*
X26823Y24924D01*
X26815Y24907D01*
X26811Y24890D01*
X26809Y24872D01*
X26861Y24962D02*
X27001Y25038D01*
X26532Y25230D02*
X26532Y24770D01*
X26660Y25230D02*
X26404Y25230D01*
X27852Y23770D02*
X27980Y23770D01*
X27852Y23770D02*
X27831Y23772D01*
X27810Y23777D01*
X27791Y23785D01*
X27773Y23797D01*
X27758Y23811D01*
X27745Y23828D01*
X27735Y23847D01*
X27728Y23867D01*
X27724Y23887D01*
X27724Y23909D01*
X27728Y23929D01*
X27735Y23949D01*
X27745Y23968D01*
X27758Y23985D01*
X27773Y23999D01*
X27791Y24011D01*
X27810Y24019D01*
X27831Y24024D01*
X27852Y24026D01*
X27827Y24230D02*
X27980Y24230D01*
X27827Y24230D02*
X27808Y24228D01*
X27790Y24223D01*
X27773Y24215D01*
X27758Y24203D01*
X27746Y24189D01*
X27736Y24173D01*
X27729Y24156D01*
X27725Y24137D01*
X27725Y24119D01*
X27729Y24100D01*
X27736Y24083D01*
X27746Y24067D01*
X27758Y24053D01*
X27773Y24041D01*
X27790Y24033D01*
X27808Y24028D01*
X27827Y24026D01*
X27929Y24026D01*
X27556Y24230D02*
X27402Y23770D01*
X27249Y24230D01*
X27080Y23770D02*
X26952Y23770D01*
X26931Y23772D01*
X26910Y23777D01*
X26891Y23785D01*
X26873Y23797D01*
X26858Y23811D01*
X26845Y23828D01*
X26835Y23847D01*
X26828Y23867D01*
X26824Y23887D01*
X26824Y23909D01*
X26828Y23929D01*
X26835Y23949D01*
X26845Y23968D01*
X26858Y23985D01*
X26873Y23999D01*
X26891Y24011D01*
X26910Y24019D01*
X26931Y24024D01*
X26952Y24026D01*
X26927Y24230D02*
X27080Y24230D01*
X26927Y24230D02*
X26908Y24228D01*
X26890Y24223D01*
X26873Y24215D01*
X26858Y24203D01*
X26846Y24189D01*
X26836Y24173D01*
X26829Y24156D01*
X26825Y24137D01*
X26825Y24119D01*
X26829Y24100D01*
X26836Y24083D01*
X26846Y24067D01*
X26858Y24053D01*
X26873Y24041D01*
X26890Y24033D01*
X26908Y24028D01*
X26927Y24026D01*
X27029Y24026D01*
X27827Y22770D02*
X27980Y22770D01*
X27827Y22770D02*
X27809Y22772D01*
X27792Y22776D01*
X27776Y22784D01*
X27761Y22794D01*
X27749Y22806D01*
X27739Y22821D01*
X27731Y22837D01*
X27727Y22854D01*
X27725Y22872D01*
X27724Y22872D02*
X27724Y22923D01*
X27725Y22923D02*
X27727Y22941D01*
X27731Y22958D01*
X27739Y22974D01*
X27749Y22989D01*
X27761Y23001D01*
X27776Y23011D01*
X27792Y23019D01*
X27809Y23023D01*
X27827Y23025D01*
X27827Y23026D02*
X27980Y23026D01*
X27980Y23230D01*
X27724Y23230D01*
X27556Y23230D02*
X27402Y22770D01*
X27249Y23230D01*
X27724Y22026D02*
X27801Y22026D01*
X27724Y22026D02*
X27724Y21770D01*
X27878Y21770D01*
X27896Y21772D01*
X27913Y21776D01*
X27929Y21784D01*
X27944Y21794D01*
X27956Y21806D01*
X27966Y21821D01*
X27974Y21837D01*
X27978Y21854D01*
X27980Y21872D01*
X27980Y22128D01*
X27978Y22146D01*
X27974Y22163D01*
X27966Y22179D01*
X27956Y22194D01*
X27944Y22206D01*
X27929Y22216D01*
X27913Y22224D01*
X27896Y22228D01*
X27878Y22230D01*
X27724Y22230D01*
X27500Y22230D02*
X27500Y21770D01*
X27244Y21770D02*
X27500Y22230D01*
X27244Y22230D02*
X27244Y21770D01*
X27020Y21770D02*
X27020Y22230D01*
X26892Y22230D01*
X26872Y22228D01*
X26852Y22224D01*
X26834Y22216D01*
X26817Y22206D01*
X26801Y22193D01*
X26788Y22177D01*
X26778Y22160D01*
X26770Y22142D01*
X26766Y22122D01*
X26764Y22102D01*
X26764Y21898D01*
X26766Y21878D01*
X26770Y21858D01*
X26778Y21840D01*
X26788Y21823D01*
X26801Y21807D01*
X26817Y21794D01*
X26834Y21784D01*
X26852Y21776D01*
X26872Y21772D01*
X26892Y21770D01*
X27020Y21770D01*
X27724Y21026D02*
X27801Y21026D01*
X27724Y21026D02*
X27724Y20770D01*
X27878Y20770D01*
X27896Y20772D01*
X27913Y20776D01*
X27929Y20784D01*
X27944Y20794D01*
X27956Y20806D01*
X27966Y20821D01*
X27974Y20837D01*
X27978Y20854D01*
X27980Y20872D01*
X27980Y21128D01*
X27978Y21146D01*
X27974Y21163D01*
X27966Y21179D01*
X27956Y21194D01*
X27944Y21206D01*
X27929Y21216D01*
X27913Y21224D01*
X27896Y21228D01*
X27878Y21230D01*
X27724Y21230D01*
X27500Y21230D02*
X27500Y20770D01*
X27244Y20770D02*
X27500Y21230D01*
X27244Y21230D02*
X27244Y20770D01*
X27020Y20770D02*
X27020Y21230D01*
X26892Y21230D01*
X26872Y21228D01*
X26852Y21224D01*
X26834Y21216D01*
X26817Y21206D01*
X26801Y21193D01*
X26788Y21177D01*
X26778Y21160D01*
X26770Y21142D01*
X26766Y21122D01*
X26764Y21102D01*
X26764Y20898D01*
X26766Y20878D01*
X26770Y20858D01*
X26778Y20840D01*
X26788Y20823D01*
X26801Y20807D01*
X26817Y20794D01*
X26834Y20784D01*
X26852Y20776D01*
X26872Y20772D01*
X26892Y20770D01*
X27020Y20770D01*
X27980Y20230D02*
X27827Y19770D01*
X27673Y20230D01*
X27467Y20230D02*
X27467Y19770D01*
X27518Y19770D02*
X27416Y19770D01*
X27416Y20230D02*
X27518Y20230D01*
X27219Y20230D02*
X27219Y19770D01*
X26964Y19770D02*
X27219Y20230D01*
X26964Y20230D02*
X26964Y19770D01*
X27980Y19230D02*
X27980Y18770D01*
X27724Y18770D02*
X27980Y19230D01*
X27724Y19230D02*
X27724Y18770D01*
X27414Y18770D02*
X27312Y18770D01*
X27414Y18770D02*
X27432Y18772D01*
X27449Y18776D01*
X27465Y18784D01*
X27480Y18794D01*
X27492Y18806D01*
X27502Y18821D01*
X27510Y18837D01*
X27514Y18854D01*
X27516Y18872D01*
X27516Y19128D01*
X27514Y19146D01*
X27510Y19163D01*
X27502Y19179D01*
X27492Y19194D01*
X27480Y19206D01*
X27465Y19216D01*
X27449Y19224D01*
X27432Y19228D01*
X27414Y19230D01*
X27312Y19230D01*
X27980Y18230D02*
X27980Y17770D01*
X27980Y18230D02*
X27852Y18230D01*
X27831Y18228D01*
X27810Y18223D01*
X27791Y18215D01*
X27773Y18203D01*
X27758Y18189D01*
X27745Y18172D01*
X27735Y18153D01*
X27728Y18133D01*
X27724Y18113D01*
X27724Y18091D01*
X27728Y18071D01*
X27735Y18051D01*
X27745Y18032D01*
X27758Y18015D01*
X27773Y18001D01*
X27791Y17989D01*
X27810Y17981D01*
X27831Y17976D01*
X27852Y17974D01*
X27980Y17974D01*
X27577Y17770D02*
X27424Y18230D01*
X27271Y17770D01*
X27309Y17885D02*
X27539Y17885D01*
X27102Y18000D02*
X27100Y18034D01*
X27096Y18068D01*
X27088Y18102D01*
X27077Y18135D01*
X27064Y18166D01*
X27057Y18181D01*
X27048Y18195D01*
X27036Y18207D01*
X27022Y18217D01*
X27007Y18224D01*
X26991Y18229D01*
X26974Y18230D01*
X26957Y18229D01*
X26941Y18224D01*
X26926Y18217D01*
X26912Y18207D01*
X26900Y18195D01*
X26891Y18181D01*
X26884Y18166D01*
X26871Y18135D01*
X26860Y18102D01*
X26852Y18068D01*
X26848Y18034D01*
X26846Y18000D01*
X27102Y18000D02*
X27100Y17966D01*
X27096Y17932D01*
X27088Y17898D01*
X27077Y17865D01*
X27064Y17834D01*
X27057Y17819D01*
X27048Y17805D01*
X27036Y17793D01*
X27022Y17783D01*
X27007Y17776D01*
X26991Y17771D01*
X26974Y17770D01*
X26884Y17834D02*
X26871Y17865D01*
X26860Y17898D01*
X26852Y17932D01*
X26848Y17966D01*
X26846Y18000D01*
X26884Y17834D02*
X26891Y17819D01*
X26900Y17805D01*
X26912Y17793D01*
X26926Y17783D01*
X26941Y17776D01*
X26957Y17771D01*
X26974Y17770D01*
X27076Y17872D02*
X26872Y18128D01*
X27980Y17230D02*
X27980Y16770D01*
X27980Y17230D02*
X27852Y17230D01*
X27831Y17228D01*
X27810Y17223D01*
X27791Y17215D01*
X27773Y17203D01*
X27758Y17189D01*
X27745Y17172D01*
X27735Y17153D01*
X27728Y17133D01*
X27724Y17113D01*
X27724Y17091D01*
X27728Y17071D01*
X27735Y17051D01*
X27745Y17032D01*
X27758Y17015D01*
X27773Y17001D01*
X27791Y16989D01*
X27810Y16981D01*
X27831Y16976D01*
X27852Y16974D01*
X27980Y16974D01*
X27577Y16770D02*
X27424Y17230D01*
X27271Y16770D01*
X27309Y16885D02*
X27539Y16885D01*
X27102Y17128D02*
X26974Y17230D01*
X26974Y16770D01*
X27102Y16770D02*
X26846Y16770D01*
X27980Y16230D02*
X27980Y15770D01*
X27980Y16230D02*
X27852Y16230D01*
X27831Y16228D01*
X27810Y16223D01*
X27791Y16215D01*
X27773Y16203D01*
X27758Y16189D01*
X27745Y16172D01*
X27735Y16153D01*
X27728Y16133D01*
X27724Y16113D01*
X27724Y16091D01*
X27728Y16071D01*
X27735Y16051D01*
X27745Y16032D01*
X27758Y16015D01*
X27773Y16001D01*
X27791Y15989D01*
X27810Y15981D01*
X27831Y15976D01*
X27852Y15974D01*
X27980Y15974D01*
X27577Y15770D02*
X27424Y16230D01*
X27271Y15770D01*
X27309Y15885D02*
X27539Y15885D01*
X27102Y15872D02*
X26999Y16230D01*
X27102Y15872D02*
X26846Y15872D01*
X26923Y15974D02*
X26923Y15770D01*
X27980Y15230D02*
X27980Y14770D01*
X27980Y15230D02*
X27852Y15230D01*
X27831Y15228D01*
X27810Y15223D01*
X27791Y15215D01*
X27773Y15203D01*
X27758Y15189D01*
X27745Y15172D01*
X27735Y15153D01*
X27728Y15133D01*
X27724Y15113D01*
X27724Y15091D01*
X27728Y15071D01*
X27735Y15051D01*
X27745Y15032D01*
X27758Y15015D01*
X27773Y15001D01*
X27791Y14989D01*
X27810Y14981D01*
X27831Y14976D01*
X27852Y14974D01*
X27980Y14974D01*
X27530Y15026D02*
X27402Y15026D01*
X27381Y15024D01*
X27360Y15019D01*
X27341Y15011D01*
X27323Y14999D01*
X27308Y14985D01*
X27295Y14968D01*
X27285Y14949D01*
X27278Y14929D01*
X27274Y14909D01*
X27274Y14887D01*
X27278Y14867D01*
X27285Y14847D01*
X27295Y14828D01*
X27308Y14811D01*
X27323Y14797D01*
X27341Y14785D01*
X27360Y14777D01*
X27381Y14772D01*
X27402Y14770D01*
X27530Y14770D01*
X27530Y15230D01*
X27402Y15230D01*
X27383Y15228D01*
X27365Y15223D01*
X27348Y15215D01*
X27333Y15203D01*
X27321Y15189D01*
X27311Y15173D01*
X27304Y15156D01*
X27300Y15137D01*
X27300Y15119D01*
X27304Y15100D01*
X27311Y15083D01*
X27321Y15067D01*
X27333Y15053D01*
X27348Y15041D01*
X27365Y15033D01*
X27383Y15028D01*
X27402Y15026D01*
X27102Y15000D02*
X27100Y15034D01*
X27096Y15068D01*
X27088Y15102D01*
X27077Y15135D01*
X27064Y15166D01*
X27057Y15181D01*
X27048Y15195D01*
X27036Y15207D01*
X27022Y15217D01*
X27007Y15224D01*
X26991Y15229D01*
X26974Y15230D01*
X26957Y15229D01*
X26941Y15224D01*
X26926Y15217D01*
X26912Y15207D01*
X26900Y15195D01*
X26891Y15181D01*
X26884Y15166D01*
X26871Y15135D01*
X26860Y15102D01*
X26852Y15068D01*
X26848Y15034D01*
X26846Y15000D01*
X27102Y15000D02*
X27100Y14966D01*
X27096Y14932D01*
X27088Y14898D01*
X27077Y14865D01*
X27064Y14834D01*
X27057Y14819D01*
X27048Y14805D01*
X27036Y14793D01*
X27022Y14783D01*
X27007Y14776D01*
X26991Y14771D01*
X26974Y14770D01*
X26884Y14834D02*
X26871Y14865D01*
X26860Y14898D01*
X26852Y14932D01*
X26848Y14966D01*
X26846Y15000D01*
X26884Y14834D02*
X26891Y14819D01*
X26900Y14805D01*
X26912Y14793D01*
X26926Y14783D01*
X26941Y14776D01*
X26957Y14771D01*
X26974Y14770D01*
X27076Y14872D02*
X26872Y15128D01*
X27980Y14230D02*
X27980Y13770D01*
X27980Y14230D02*
X27852Y14230D01*
X27831Y14228D01*
X27810Y14223D01*
X27791Y14215D01*
X27773Y14203D01*
X27758Y14189D01*
X27745Y14172D01*
X27735Y14153D01*
X27728Y14133D01*
X27724Y14113D01*
X27724Y14091D01*
X27728Y14071D01*
X27735Y14051D01*
X27745Y14032D01*
X27758Y14015D01*
X27773Y14001D01*
X27791Y13989D01*
X27810Y13981D01*
X27831Y13976D01*
X27852Y13974D01*
X27980Y13974D01*
X27451Y13770D02*
X27349Y13770D01*
X27451Y13770D02*
X27469Y13772D01*
X27486Y13776D01*
X27502Y13784D01*
X27517Y13794D01*
X27529Y13806D01*
X27539Y13821D01*
X27547Y13837D01*
X27551Y13854D01*
X27553Y13872D01*
X27553Y14128D01*
X27551Y14146D01*
X27547Y14163D01*
X27539Y14179D01*
X27529Y14194D01*
X27517Y14206D01*
X27502Y14216D01*
X27486Y14224D01*
X27469Y14228D01*
X27451Y14230D01*
X27349Y14230D01*
X27177Y14128D02*
X27049Y14230D01*
X27049Y13770D01*
X27177Y13770D02*
X26921Y13770D01*
X27980Y13230D02*
X27980Y12770D01*
X27980Y13230D02*
X27852Y13230D01*
X27831Y13228D01*
X27810Y13223D01*
X27791Y13215D01*
X27773Y13203D01*
X27758Y13189D01*
X27745Y13172D01*
X27735Y13153D01*
X27728Y13133D01*
X27724Y13113D01*
X27724Y13091D01*
X27728Y13071D01*
X27735Y13051D01*
X27745Y13032D01*
X27758Y13015D01*
X27773Y13001D01*
X27791Y12989D01*
X27810Y12981D01*
X27831Y12976D01*
X27852Y12974D01*
X27980Y12974D01*
X27451Y12770D02*
X27349Y12770D01*
X27451Y12770D02*
X27469Y12772D01*
X27486Y12776D01*
X27502Y12784D01*
X27517Y12794D01*
X27529Y12806D01*
X27539Y12821D01*
X27547Y12837D01*
X27551Y12854D01*
X27553Y12872D01*
X27553Y13128D01*
X27551Y13146D01*
X27547Y13163D01*
X27539Y13179D01*
X27529Y13194D01*
X27517Y13206D01*
X27502Y13216D01*
X27486Y13224D01*
X27469Y13228D01*
X27451Y13230D01*
X27349Y13230D01*
X27139Y13166D02*
X27152Y13135D01*
X27163Y13102D01*
X27171Y13068D01*
X27175Y13034D01*
X27177Y13000D01*
X27139Y13166D02*
X27132Y13181D01*
X27123Y13195D01*
X27111Y13207D01*
X27097Y13217D01*
X27082Y13224D01*
X27066Y13229D01*
X27049Y13230D01*
X27032Y13229D01*
X27016Y13224D01*
X27001Y13217D01*
X26987Y13207D01*
X26975Y13195D01*
X26966Y13181D01*
X26959Y13166D01*
X26946Y13135D01*
X26935Y13102D01*
X26927Y13068D01*
X26923Y13034D01*
X26921Y13000D01*
X27177Y13000D02*
X27175Y12966D01*
X27171Y12932D01*
X27163Y12898D01*
X27152Y12865D01*
X27139Y12834D01*
X27132Y12819D01*
X27123Y12805D01*
X27111Y12793D01*
X27097Y12783D01*
X27082Y12776D01*
X27066Y12771D01*
X27049Y12770D01*
X26959Y12834D02*
X26946Y12865D01*
X26935Y12898D01*
X26927Y12932D01*
X26923Y12966D01*
X26921Y13000D01*
X26959Y12834D02*
X26966Y12819D01*
X26975Y12805D01*
X26987Y12793D01*
X27001Y12783D01*
X27016Y12776D01*
X27032Y12771D01*
X27049Y12770D01*
X27151Y12872D02*
X26947Y13128D01*
X3980Y30770D02*
X3980Y31230D01*
X3852Y31230D01*
X3831Y31228D01*
X3810Y31223D01*
X3791Y31215D01*
X3773Y31203D01*
X3758Y31189D01*
X3745Y31172D01*
X3735Y31153D01*
X3728Y31133D01*
X3724Y31113D01*
X3724Y31091D01*
X3728Y31071D01*
X3735Y31051D01*
X3745Y31032D01*
X3758Y31015D01*
X3773Y31001D01*
X3791Y30989D01*
X3810Y30981D01*
X3831Y30976D01*
X3852Y30974D01*
X3980Y30974D01*
X3451Y30770D02*
X3349Y30770D01*
X3451Y30770D02*
X3469Y30772D01*
X3486Y30776D01*
X3502Y30784D01*
X3517Y30794D01*
X3529Y30806D01*
X3539Y30821D01*
X3547Y30837D01*
X3551Y30854D01*
X3553Y30872D01*
X3553Y31128D01*
X3551Y31146D01*
X3547Y31163D01*
X3539Y31179D01*
X3529Y31194D01*
X3517Y31206D01*
X3502Y31216D01*
X3486Y31224D01*
X3469Y31228D01*
X3451Y31230D01*
X3349Y31230D01*
X3177Y30898D02*
X3175Y30919D01*
X3170Y30940D01*
X3162Y30959D01*
X3150Y30977D01*
X3136Y30992D01*
X3119Y31005D01*
X3100Y31015D01*
X3080Y31022D01*
X3060Y31026D01*
X3038Y31026D01*
X3018Y31022D01*
X2998Y31015D01*
X2979Y31005D01*
X2962Y30992D01*
X2948Y30977D01*
X2936Y30959D01*
X2928Y30940D01*
X2923Y30919D01*
X2921Y30898D01*
X2923Y30877D01*
X2928Y30856D01*
X2936Y30837D01*
X2948Y30819D01*
X2962Y30804D01*
X2979Y30791D01*
X2998Y30781D01*
X3018Y30774D01*
X3038Y30770D01*
X3060Y30770D01*
X3080Y30774D01*
X3100Y30781D01*
X3119Y30791D01*
X3136Y30804D01*
X3150Y30819D01*
X3162Y30837D01*
X3170Y30856D01*
X3175Y30877D01*
X3177Y30898D01*
X3151Y31128D02*
X3149Y31147D01*
X3144Y31165D01*
X3136Y31182D01*
X3124Y31197D01*
X3110Y31209D01*
X3094Y31219D01*
X3077Y31226D01*
X3058Y31230D01*
X3040Y31230D01*
X3021Y31226D01*
X3004Y31219D01*
X2988Y31209D01*
X2974Y31197D01*
X2962Y31182D01*
X2954Y31165D01*
X2949Y31147D01*
X2947Y31128D01*
X2949Y31109D01*
X2954Y31091D01*
X2962Y31074D01*
X2974Y31059D01*
X2988Y31047D01*
X3004Y31037D01*
X3021Y31030D01*
X3040Y31026D01*
X3058Y31026D01*
X3077Y31030D01*
X3094Y31037D01*
X3110Y31047D01*
X3124Y31059D01*
X3136Y31074D01*
X3144Y31091D01*
X3149Y31109D01*
X3151Y31128D01*
X3980Y30230D02*
X3980Y29770D01*
X3980Y30230D02*
X3852Y30230D01*
X3831Y30228D01*
X3810Y30223D01*
X3791Y30215D01*
X3773Y30203D01*
X3758Y30189D01*
X3745Y30172D01*
X3735Y30153D01*
X3728Y30133D01*
X3724Y30113D01*
X3724Y30091D01*
X3728Y30071D01*
X3735Y30051D01*
X3745Y30032D01*
X3758Y30015D01*
X3773Y30001D01*
X3791Y29989D01*
X3810Y29981D01*
X3831Y29976D01*
X3852Y29974D01*
X3980Y29974D01*
X3451Y29770D02*
X3349Y29770D01*
X3451Y29770D02*
X3469Y29772D01*
X3486Y29776D01*
X3502Y29784D01*
X3517Y29794D01*
X3529Y29806D01*
X3539Y29821D01*
X3547Y29837D01*
X3551Y29854D01*
X3553Y29872D01*
X3553Y30128D01*
X3551Y30146D01*
X3547Y30163D01*
X3539Y30179D01*
X3529Y30194D01*
X3517Y30206D01*
X3502Y30216D01*
X3486Y30224D01*
X3469Y30228D01*
X3451Y30230D01*
X3349Y30230D01*
X3177Y30026D02*
X3023Y30026D01*
X3023Y30025D02*
X3005Y30023D01*
X2988Y30019D01*
X2972Y30011D01*
X2957Y30001D01*
X2945Y29989D01*
X2935Y29974D01*
X2927Y29958D01*
X2923Y29941D01*
X2921Y29923D01*
X2921Y29898D01*
X2923Y29877D01*
X2928Y29856D01*
X2936Y29837D01*
X2948Y29819D01*
X2962Y29804D01*
X2979Y29791D01*
X2998Y29781D01*
X3018Y29774D01*
X3038Y29770D01*
X3060Y29770D01*
X3080Y29774D01*
X3100Y29781D01*
X3119Y29791D01*
X3136Y29804D01*
X3150Y29819D01*
X3162Y29837D01*
X3170Y29856D01*
X3175Y29877D01*
X3177Y29898D01*
X3177Y30026D01*
X3176Y30026D02*
X3174Y30053D01*
X3169Y30079D01*
X3160Y30104D01*
X3149Y30128D01*
X3134Y30150D01*
X3116Y30170D01*
X3096Y30188D01*
X3074Y30203D01*
X3050Y30214D01*
X3025Y30223D01*
X2999Y30228D01*
X2972Y30230D01*
X3980Y29230D02*
X3980Y28770D01*
X3980Y29230D02*
X3852Y29230D01*
X3831Y29228D01*
X3810Y29223D01*
X3791Y29215D01*
X3773Y29203D01*
X3758Y29189D01*
X3745Y29172D01*
X3735Y29153D01*
X3728Y29133D01*
X3724Y29113D01*
X3724Y29091D01*
X3728Y29071D01*
X3735Y29051D01*
X3745Y29032D01*
X3758Y29015D01*
X3773Y29001D01*
X3791Y28989D01*
X3810Y28981D01*
X3831Y28976D01*
X3852Y28974D01*
X3980Y28974D01*
X3451Y28770D02*
X3349Y28770D01*
X3451Y28770D02*
X3469Y28772D01*
X3486Y28776D01*
X3502Y28784D01*
X3517Y28794D01*
X3529Y28806D01*
X3539Y28821D01*
X3547Y28837D01*
X3551Y28854D01*
X3553Y28872D01*
X3553Y29128D01*
X3551Y29146D01*
X3547Y29163D01*
X3539Y29179D01*
X3529Y29194D01*
X3517Y29206D01*
X3502Y29216D01*
X3486Y29224D01*
X3469Y29228D01*
X3451Y29230D01*
X3349Y29230D01*
X3177Y28770D02*
X3023Y28770D01*
X3005Y28772D01*
X2988Y28776D01*
X2972Y28784D01*
X2957Y28794D01*
X2945Y28806D01*
X2935Y28821D01*
X2927Y28837D01*
X2923Y28854D01*
X2921Y28872D01*
X2921Y28923D01*
X2923Y28941D01*
X2927Y28958D01*
X2935Y28974D01*
X2945Y28989D01*
X2957Y29001D01*
X2972Y29011D01*
X2988Y29019D01*
X3005Y29023D01*
X3023Y29025D01*
X3023Y29026D02*
X3177Y29026D01*
X3177Y29230D01*
X2921Y29230D01*
X3980Y28230D02*
X3980Y27898D01*
X3978Y27877D01*
X3973Y27856D01*
X3965Y27837D01*
X3953Y27819D01*
X3939Y27804D01*
X3922Y27791D01*
X3903Y27781D01*
X3883Y27774D01*
X3863Y27770D01*
X3841Y27770D01*
X3821Y27774D01*
X3801Y27781D01*
X3782Y27791D01*
X3765Y27804D01*
X3751Y27819D01*
X3739Y27837D01*
X3731Y27856D01*
X3726Y27877D01*
X3724Y27898D01*
X3724Y28230D01*
X3515Y27770D02*
X3362Y27770D01*
X3344Y27772D01*
X3327Y27776D01*
X3311Y27784D01*
X3296Y27794D01*
X3284Y27806D01*
X3274Y27821D01*
X3266Y27837D01*
X3262Y27854D01*
X3260Y27872D01*
X3259Y27872D02*
X3259Y27923D01*
X3260Y27923D02*
X3262Y27941D01*
X3266Y27958D01*
X3274Y27974D01*
X3284Y27989D01*
X3296Y28001D01*
X3311Y28011D01*
X3327Y28019D01*
X3344Y28023D01*
X3362Y28025D01*
X3362Y28026D02*
X3515Y28026D01*
X3515Y28230D01*
X3259Y28230D01*
X3091Y28230D02*
X2937Y27770D01*
X2784Y28230D01*
X3980Y27230D02*
X3980Y26770D01*
X3724Y26770D02*
X3980Y27230D01*
X3724Y27230D02*
X3724Y26770D01*
X3414Y26770D02*
X3312Y26770D01*
X3414Y26770D02*
X3432Y26772D01*
X3449Y26776D01*
X3465Y26784D01*
X3480Y26794D01*
X3492Y26806D01*
X3502Y26821D01*
X3510Y26837D01*
X3514Y26854D01*
X3516Y26872D01*
X3516Y27128D01*
X3514Y27146D01*
X3510Y27163D01*
X3502Y27179D01*
X3492Y27194D01*
X3480Y27206D01*
X3465Y27216D01*
X3449Y27224D01*
X3432Y27228D01*
X3414Y27230D01*
X3312Y27230D01*
X3980Y26230D02*
X3980Y25770D01*
X3980Y26230D02*
X3852Y26230D01*
X3831Y26228D01*
X3810Y26223D01*
X3791Y26215D01*
X3773Y26203D01*
X3758Y26189D01*
X3745Y26172D01*
X3735Y26153D01*
X3728Y26133D01*
X3724Y26113D01*
X3724Y26091D01*
X3728Y26071D01*
X3735Y26051D01*
X3745Y26032D01*
X3758Y26015D01*
X3773Y26001D01*
X3791Y25989D01*
X3810Y25981D01*
X3831Y25976D01*
X3852Y25974D01*
X3980Y25974D01*
X3577Y25770D02*
X3424Y26230D01*
X3271Y25770D01*
X3309Y25885D02*
X3539Y25885D01*
X3102Y26128D02*
X2974Y26230D01*
X2974Y25770D01*
X3102Y25770D02*
X2846Y25770D01*
X2396Y26115D02*
X2398Y26135D01*
X2403Y26154D01*
X2411Y26173D01*
X2423Y26189D01*
X2437Y26203D01*
X2454Y26215D01*
X2472Y26223D01*
X2491Y26228D01*
X2511Y26230D01*
X2534Y26228D01*
X2557Y26223D01*
X2578Y26214D01*
X2598Y26202D01*
X2616Y26187D01*
X2631Y26169D01*
X2643Y26149D01*
X2652Y26128D01*
X2434Y26025D02*
X2421Y26040D01*
X2410Y26057D01*
X2402Y26076D01*
X2398Y26095D01*
X2396Y26115D01*
X2434Y26026D02*
X2652Y25770D01*
X2396Y25770D01*
X3980Y25230D02*
X3980Y24770D01*
X3980Y25230D02*
X3852Y25230D01*
X3831Y25228D01*
X3810Y25223D01*
X3791Y25215D01*
X3773Y25203D01*
X3758Y25189D01*
X3745Y25172D01*
X3735Y25153D01*
X3728Y25133D01*
X3724Y25113D01*
X3724Y25091D01*
X3728Y25071D01*
X3735Y25051D01*
X3745Y25032D01*
X3758Y25015D01*
X3773Y25001D01*
X3791Y24989D01*
X3810Y24981D01*
X3831Y24976D01*
X3852Y24974D01*
X3980Y24974D01*
X3577Y24770D02*
X3424Y25230D01*
X3271Y24770D01*
X3309Y24885D02*
X3539Y24885D01*
X3102Y25128D02*
X2974Y25230D01*
X2974Y24770D01*
X3102Y24770D02*
X2846Y24770D01*
X2652Y25128D02*
X2524Y25230D01*
X2524Y24770D01*
X2652Y24770D02*
X2396Y24770D01*
X3980Y24230D02*
X3980Y23770D01*
X3980Y24230D02*
X3852Y24230D01*
X3831Y24228D01*
X3810Y24223D01*
X3791Y24215D01*
X3773Y24203D01*
X3758Y24189D01*
X3745Y24172D01*
X3735Y24153D01*
X3728Y24133D01*
X3724Y24113D01*
X3724Y24091D01*
X3728Y24071D01*
X3735Y24051D01*
X3745Y24032D01*
X3758Y24015D01*
X3773Y24001D01*
X3791Y23989D01*
X3810Y23981D01*
X3831Y23976D01*
X3852Y23974D01*
X3980Y23974D01*
X3530Y24026D02*
X3402Y24026D01*
X3381Y24024D01*
X3360Y24019D01*
X3341Y24011D01*
X3323Y23999D01*
X3308Y23985D01*
X3295Y23968D01*
X3285Y23949D01*
X3278Y23929D01*
X3274Y23909D01*
X3274Y23887D01*
X3278Y23867D01*
X3285Y23847D01*
X3295Y23828D01*
X3308Y23811D01*
X3323Y23797D01*
X3341Y23785D01*
X3360Y23777D01*
X3381Y23772D01*
X3402Y23770D01*
X3530Y23770D01*
X3530Y24230D01*
X3402Y24230D01*
X3383Y24228D01*
X3365Y24223D01*
X3348Y24215D01*
X3333Y24203D01*
X3321Y24189D01*
X3311Y24173D01*
X3304Y24156D01*
X3300Y24137D01*
X3300Y24119D01*
X3304Y24100D01*
X3311Y24083D01*
X3321Y24067D01*
X3333Y24053D01*
X3348Y24041D01*
X3365Y24033D01*
X3383Y24028D01*
X3402Y24026D01*
X3102Y24128D02*
X2974Y24230D01*
X2974Y23770D01*
X3102Y23770D02*
X2846Y23770D01*
X2396Y24115D02*
X2398Y24135D01*
X2403Y24154D01*
X2411Y24173D01*
X2423Y24189D01*
X2437Y24203D01*
X2454Y24215D01*
X2472Y24223D01*
X2491Y24228D01*
X2511Y24230D01*
X2534Y24228D01*
X2557Y24223D01*
X2578Y24214D01*
X2598Y24202D01*
X2616Y24187D01*
X2631Y24169D01*
X2643Y24149D01*
X2652Y24128D01*
X2434Y24025D02*
X2421Y24040D01*
X2410Y24057D01*
X2402Y24076D01*
X2398Y24095D01*
X2396Y24115D01*
X2434Y24026D02*
X2652Y23770D01*
X2396Y23770D01*
X3980Y23230D02*
X3980Y22770D01*
X3724Y22770D02*
X3980Y23230D01*
X3724Y23230D02*
X3724Y22770D01*
X3414Y22770D02*
X3312Y22770D01*
X3414Y22770D02*
X3432Y22772D01*
X3449Y22776D01*
X3465Y22784D01*
X3480Y22794D01*
X3492Y22806D01*
X3502Y22821D01*
X3510Y22837D01*
X3514Y22854D01*
X3516Y22872D01*
X3516Y23128D01*
X3514Y23146D01*
X3510Y23163D01*
X3502Y23179D01*
X3492Y23194D01*
X3480Y23206D01*
X3465Y23216D01*
X3449Y23224D01*
X3432Y23228D01*
X3414Y23230D01*
X3312Y23230D01*
X3724Y22026D02*
X3801Y22026D01*
X3724Y22026D02*
X3724Y21770D01*
X3878Y21770D01*
X3896Y21772D01*
X3913Y21776D01*
X3929Y21784D01*
X3944Y21794D01*
X3956Y21806D01*
X3966Y21821D01*
X3974Y21837D01*
X3978Y21854D01*
X3980Y21872D01*
X3980Y22128D01*
X3978Y22146D01*
X3974Y22163D01*
X3966Y22179D01*
X3956Y22194D01*
X3944Y22206D01*
X3929Y22216D01*
X3913Y22224D01*
X3896Y22228D01*
X3878Y22230D01*
X3724Y22230D01*
X3500Y22230D02*
X3500Y21770D01*
X3244Y21770D02*
X3500Y22230D01*
X3244Y22230D02*
X3244Y21770D01*
X3020Y21770D02*
X3020Y22230D01*
X2892Y22230D01*
X2872Y22228D01*
X2852Y22224D01*
X2834Y22216D01*
X2817Y22206D01*
X2801Y22193D01*
X2788Y22177D01*
X2778Y22160D01*
X2770Y22142D01*
X2766Y22122D01*
X2764Y22102D01*
X2764Y21898D01*
X2766Y21878D01*
X2770Y21858D01*
X2778Y21840D01*
X2788Y21823D01*
X2801Y21807D01*
X2817Y21794D01*
X2834Y21784D01*
X2852Y21776D01*
X2872Y21772D01*
X2892Y21770D01*
X3020Y21770D01*
X3980Y21230D02*
X3980Y20770D01*
X3980Y21230D02*
X3852Y21230D01*
X3831Y21228D01*
X3810Y21223D01*
X3791Y21215D01*
X3773Y21203D01*
X3758Y21189D01*
X3745Y21172D01*
X3735Y21153D01*
X3728Y21133D01*
X3724Y21113D01*
X3724Y21091D01*
X3728Y21071D01*
X3735Y21051D01*
X3745Y21032D01*
X3758Y21015D01*
X3773Y21001D01*
X3791Y20989D01*
X3810Y20981D01*
X3831Y20976D01*
X3852Y20974D01*
X3980Y20974D01*
X3530Y21026D02*
X3402Y21026D01*
X3381Y21024D01*
X3360Y21019D01*
X3341Y21011D01*
X3323Y20999D01*
X3308Y20985D01*
X3295Y20968D01*
X3285Y20949D01*
X3278Y20929D01*
X3274Y20909D01*
X3274Y20887D01*
X3278Y20867D01*
X3285Y20847D01*
X3295Y20828D01*
X3308Y20811D01*
X3323Y20797D01*
X3341Y20785D01*
X3360Y20777D01*
X3381Y20772D01*
X3402Y20770D01*
X3530Y20770D01*
X3530Y21230D01*
X3402Y21230D01*
X3383Y21228D01*
X3365Y21223D01*
X3348Y21215D01*
X3333Y21203D01*
X3321Y21189D01*
X3311Y21173D01*
X3304Y21156D01*
X3300Y21137D01*
X3300Y21119D01*
X3304Y21100D01*
X3311Y21083D01*
X3321Y21067D01*
X3333Y21053D01*
X3348Y21041D01*
X3365Y21033D01*
X3383Y21028D01*
X3402Y21026D01*
X2961Y21230D02*
X2941Y21228D01*
X2922Y21223D01*
X2904Y21215D01*
X2887Y21203D01*
X2873Y21189D01*
X2861Y21173D01*
X2853Y21154D01*
X2848Y21135D01*
X2846Y21115D01*
X2961Y21230D02*
X2984Y21228D01*
X3007Y21223D01*
X3028Y21214D01*
X3048Y21202D01*
X3066Y21187D01*
X3081Y21169D01*
X3093Y21149D01*
X3102Y21128D01*
X2884Y21025D02*
X2871Y21040D01*
X2860Y21057D01*
X2852Y21076D01*
X2848Y21095D01*
X2846Y21115D01*
X2884Y21026D02*
X3102Y20770D01*
X2846Y20770D01*
X3980Y20230D02*
X3980Y19770D01*
X3980Y20230D02*
X3852Y20230D01*
X3831Y20228D01*
X3810Y20223D01*
X3791Y20215D01*
X3773Y20203D01*
X3758Y20189D01*
X3745Y20172D01*
X3735Y20153D01*
X3728Y20133D01*
X3724Y20113D01*
X3724Y20091D01*
X3728Y20071D01*
X3735Y20051D01*
X3745Y20032D01*
X3758Y20015D01*
X3773Y20001D01*
X3791Y19989D01*
X3810Y19981D01*
X3831Y19976D01*
X3852Y19974D01*
X3980Y19974D01*
X3530Y20026D02*
X3402Y20026D01*
X3381Y20024D01*
X3360Y20019D01*
X3341Y20011D01*
X3323Y19999D01*
X3308Y19985D01*
X3295Y19968D01*
X3285Y19949D01*
X3278Y19929D01*
X3274Y19909D01*
X3274Y19887D01*
X3278Y19867D01*
X3285Y19847D01*
X3295Y19828D01*
X3308Y19811D01*
X3323Y19797D01*
X3341Y19785D01*
X3360Y19777D01*
X3381Y19772D01*
X3402Y19770D01*
X3530Y19770D01*
X3530Y20230D01*
X3402Y20230D01*
X3383Y20228D01*
X3365Y20223D01*
X3348Y20215D01*
X3333Y20203D01*
X3321Y20189D01*
X3311Y20173D01*
X3304Y20156D01*
X3300Y20137D01*
X3300Y20119D01*
X3304Y20100D01*
X3311Y20083D01*
X3321Y20067D01*
X3333Y20053D01*
X3348Y20041D01*
X3365Y20033D01*
X3383Y20028D01*
X3402Y20026D01*
X3102Y20128D02*
X2974Y20230D01*
X2974Y19770D01*
X3102Y19770D02*
X2846Y19770D01*
X3980Y19230D02*
X3980Y18770D01*
X3980Y19230D02*
X3852Y19230D01*
X3831Y19228D01*
X3810Y19223D01*
X3791Y19215D01*
X3773Y19203D01*
X3758Y19189D01*
X3745Y19172D01*
X3735Y19153D01*
X3728Y19133D01*
X3724Y19113D01*
X3724Y19091D01*
X3728Y19071D01*
X3735Y19051D01*
X3745Y19032D01*
X3758Y19015D01*
X3773Y19001D01*
X3791Y18989D01*
X3810Y18981D01*
X3831Y18976D01*
X3852Y18974D01*
X3980Y18974D01*
X3530Y19026D02*
X3402Y19026D01*
X3381Y19024D01*
X3360Y19019D01*
X3341Y19011D01*
X3323Y18999D01*
X3308Y18985D01*
X3295Y18968D01*
X3285Y18949D01*
X3278Y18929D01*
X3274Y18909D01*
X3274Y18887D01*
X3278Y18867D01*
X3285Y18847D01*
X3295Y18828D01*
X3308Y18811D01*
X3323Y18797D01*
X3341Y18785D01*
X3360Y18777D01*
X3381Y18772D01*
X3402Y18770D01*
X3530Y18770D01*
X3530Y19230D01*
X3402Y19230D01*
X3383Y19228D01*
X3365Y19223D01*
X3348Y19215D01*
X3333Y19203D01*
X3321Y19189D01*
X3311Y19173D01*
X3304Y19156D01*
X3300Y19137D01*
X3300Y19119D01*
X3304Y19100D01*
X3311Y19083D01*
X3321Y19067D01*
X3333Y19053D01*
X3348Y19041D01*
X3365Y19033D01*
X3383Y19028D01*
X3402Y19026D01*
X3102Y19128D02*
X2974Y19230D01*
X2974Y18770D01*
X3102Y18770D02*
X2846Y18770D01*
X2652Y18770D02*
X2498Y18770D01*
X2480Y18772D01*
X2463Y18776D01*
X2447Y18784D01*
X2432Y18794D01*
X2420Y18806D01*
X2410Y18821D01*
X2402Y18837D01*
X2398Y18854D01*
X2396Y18872D01*
X2396Y18923D01*
X2398Y18941D01*
X2402Y18958D01*
X2410Y18974D01*
X2420Y18989D01*
X2432Y19001D01*
X2447Y19011D01*
X2463Y19019D01*
X2480Y19023D01*
X2498Y19025D01*
X2498Y19026D02*
X2652Y19026D01*
X2652Y19230D01*
X2396Y19230D01*
X3980Y18230D02*
X3980Y17770D01*
X3980Y18230D02*
X3852Y18230D01*
X3831Y18228D01*
X3810Y18223D01*
X3791Y18215D01*
X3773Y18203D01*
X3758Y18189D01*
X3745Y18172D01*
X3735Y18153D01*
X3728Y18133D01*
X3724Y18113D01*
X3724Y18091D01*
X3728Y18071D01*
X3735Y18051D01*
X3745Y18032D01*
X3758Y18015D01*
X3773Y18001D01*
X3791Y17989D01*
X3810Y17981D01*
X3831Y17976D01*
X3852Y17974D01*
X3980Y17974D01*
X3530Y18026D02*
X3402Y18026D01*
X3381Y18024D01*
X3360Y18019D01*
X3341Y18011D01*
X3323Y17999D01*
X3308Y17985D01*
X3295Y17968D01*
X3285Y17949D01*
X3278Y17929D01*
X3274Y17909D01*
X3274Y17887D01*
X3278Y17867D01*
X3285Y17847D01*
X3295Y17828D01*
X3308Y17811D01*
X3323Y17797D01*
X3341Y17785D01*
X3360Y17777D01*
X3381Y17772D01*
X3402Y17770D01*
X3530Y17770D01*
X3530Y18230D01*
X3402Y18230D01*
X3383Y18228D01*
X3365Y18223D01*
X3348Y18215D01*
X3333Y18203D01*
X3321Y18189D01*
X3311Y18173D01*
X3304Y18156D01*
X3300Y18137D01*
X3300Y18119D01*
X3304Y18100D01*
X3311Y18083D01*
X3321Y18067D01*
X3333Y18053D01*
X3348Y18041D01*
X3365Y18033D01*
X3383Y18028D01*
X3402Y18026D01*
X3102Y18128D02*
X2974Y18230D01*
X2974Y17770D01*
X3102Y17770D02*
X2846Y17770D01*
X2652Y17872D02*
X2549Y18230D01*
X2652Y17872D02*
X2396Y17872D01*
X2473Y17974D02*
X2473Y17770D01*
X3980Y17230D02*
X3980Y16770D01*
X3980Y17230D02*
X3852Y17230D01*
X3831Y17228D01*
X3810Y17223D01*
X3791Y17215D01*
X3773Y17203D01*
X3758Y17189D01*
X3745Y17172D01*
X3735Y17153D01*
X3728Y17133D01*
X3724Y17113D01*
X3724Y17091D01*
X3728Y17071D01*
X3735Y17051D01*
X3745Y17032D01*
X3758Y17015D01*
X3773Y17001D01*
X3791Y16989D01*
X3810Y16981D01*
X3831Y16976D01*
X3852Y16974D01*
X3980Y16974D01*
X3530Y17026D02*
X3402Y17026D01*
X3381Y17024D01*
X3360Y17019D01*
X3341Y17011D01*
X3323Y16999D01*
X3308Y16985D01*
X3295Y16968D01*
X3285Y16949D01*
X3278Y16929D01*
X3274Y16909D01*
X3274Y16887D01*
X3278Y16867D01*
X3285Y16847D01*
X3295Y16828D01*
X3308Y16811D01*
X3323Y16797D01*
X3341Y16785D01*
X3360Y16777D01*
X3381Y16772D01*
X3402Y16770D01*
X3530Y16770D01*
X3530Y17230D01*
X3402Y17230D01*
X3383Y17228D01*
X3365Y17223D01*
X3348Y17215D01*
X3333Y17203D01*
X3321Y17189D01*
X3311Y17173D01*
X3304Y17156D01*
X3300Y17137D01*
X3300Y17119D01*
X3304Y17100D01*
X3311Y17083D01*
X3321Y17067D01*
X3333Y17053D01*
X3348Y17041D01*
X3365Y17033D01*
X3383Y17028D01*
X3402Y17026D01*
X3102Y17128D02*
X2974Y17230D01*
X2974Y16770D01*
X3102Y16770D02*
X2846Y16770D01*
X2652Y16770D02*
X2524Y16770D01*
X2503Y16772D01*
X2482Y16777D01*
X2463Y16785D01*
X2445Y16797D01*
X2430Y16811D01*
X2417Y16828D01*
X2407Y16847D01*
X2400Y16867D01*
X2396Y16887D01*
X2396Y16909D01*
X2400Y16929D01*
X2407Y16949D01*
X2417Y16968D01*
X2430Y16985D01*
X2445Y16999D01*
X2463Y17011D01*
X2482Y17019D01*
X2503Y17024D01*
X2524Y17026D01*
X2498Y17230D02*
X2652Y17230D01*
X2498Y17230D02*
X2479Y17228D01*
X2461Y17223D01*
X2444Y17215D01*
X2429Y17203D01*
X2417Y17189D01*
X2407Y17173D01*
X2400Y17156D01*
X2396Y17137D01*
X2396Y17119D01*
X2400Y17100D01*
X2407Y17083D01*
X2417Y17067D01*
X2429Y17053D01*
X2444Y17041D01*
X2461Y17033D01*
X2479Y17028D01*
X2498Y17026D01*
X2601Y17026D01*
X3827Y16230D02*
X3980Y15770D01*
X3673Y15770D02*
X3827Y16230D01*
X3712Y15885D02*
X3942Y15885D01*
X3311Y16026D02*
X3234Y16026D01*
X3234Y15770D01*
X3387Y15770D01*
X3405Y15772D01*
X3422Y15776D01*
X3438Y15784D01*
X3453Y15794D01*
X3465Y15806D01*
X3475Y15821D01*
X3483Y15837D01*
X3487Y15854D01*
X3489Y15872D01*
X3489Y16128D01*
X3487Y16146D01*
X3483Y16163D01*
X3475Y16179D01*
X3465Y16194D01*
X3453Y16206D01*
X3438Y16216D01*
X3422Y16224D01*
X3405Y16228D01*
X3387Y16230D01*
X3234Y16230D01*
X3009Y16230D02*
X3009Y15770D01*
X2754Y15770D02*
X3009Y16230D01*
X2754Y16230D02*
X2754Y15770D01*
X2529Y15770D02*
X2529Y16230D01*
X2402Y16230D01*
X2382Y16228D01*
X2362Y16224D01*
X2344Y16216D01*
X2327Y16206D01*
X2311Y16193D01*
X2298Y16177D01*
X2288Y16160D01*
X2280Y16142D01*
X2276Y16122D01*
X2274Y16102D01*
X2274Y15898D01*
X2276Y15878D01*
X2280Y15858D01*
X2288Y15840D01*
X2298Y15823D01*
X2311Y15807D01*
X2327Y15794D01*
X2344Y15784D01*
X2362Y15776D01*
X2382Y15772D01*
X2402Y15770D01*
X2529Y15770D01*
X3980Y15230D02*
X3980Y14770D01*
X3980Y15230D02*
X3852Y15230D01*
X3831Y15228D01*
X3810Y15223D01*
X3791Y15215D01*
X3773Y15203D01*
X3758Y15189D01*
X3745Y15172D01*
X3735Y15153D01*
X3728Y15133D01*
X3724Y15113D01*
X3724Y15091D01*
X3728Y15071D01*
X3735Y15051D01*
X3745Y15032D01*
X3758Y15015D01*
X3773Y15001D01*
X3791Y14989D01*
X3810Y14981D01*
X3831Y14976D01*
X3852Y14974D01*
X3980Y14974D01*
X3451Y14770D02*
X3349Y14770D01*
X3451Y14770D02*
X3469Y14772D01*
X3486Y14776D01*
X3502Y14784D01*
X3517Y14794D01*
X3529Y14806D01*
X3539Y14821D01*
X3547Y14837D01*
X3551Y14854D01*
X3553Y14872D01*
X3553Y15128D01*
X3551Y15146D01*
X3547Y15163D01*
X3539Y15179D01*
X3529Y15194D01*
X3517Y15206D01*
X3502Y15216D01*
X3486Y15224D01*
X3469Y15228D01*
X3451Y15230D01*
X3349Y15230D01*
X3074Y15230D02*
X3177Y14872D01*
X2921Y14872D01*
X2998Y14974D02*
X2998Y14770D01*
X3980Y14230D02*
X3980Y13770D01*
X3724Y13770D02*
X3980Y14230D01*
X3724Y14230D02*
X3724Y13770D01*
X3414Y13770D02*
X3312Y13770D01*
X3414Y13770D02*
X3432Y13772D01*
X3449Y13776D01*
X3465Y13784D01*
X3480Y13794D01*
X3492Y13806D01*
X3502Y13821D01*
X3510Y13837D01*
X3514Y13854D01*
X3516Y13872D01*
X3516Y14128D01*
X3514Y14146D01*
X3510Y14163D01*
X3502Y14179D01*
X3492Y14194D01*
X3480Y14206D01*
X3465Y14216D01*
X3449Y14224D01*
X3432Y14228D01*
X3414Y14230D01*
X3312Y14230D01*
X3980Y13230D02*
X3980Y12770D01*
X3724Y12770D02*
X3980Y13230D01*
X3724Y13230D02*
X3724Y12770D01*
X3414Y12770D02*
X3312Y12770D01*
X3414Y12770D02*
X3432Y12772D01*
X3449Y12776D01*
X3465Y12784D01*
X3480Y12794D01*
X3492Y12806D01*
X3502Y12821D01*
X3510Y12837D01*
X3514Y12854D01*
X3516Y12872D01*
X3516Y13128D01*
X3514Y13146D01*
X3510Y13163D01*
X3502Y13179D01*
X3492Y13194D01*
X3480Y13206D01*
X3465Y13216D01*
X3449Y13224D01*
X3432Y13228D01*
X3414Y13230D01*
X3312Y13230D01*
M02*
