G04 EAGLE Gerber RS-274X export*
G75*
%MOIN*%
%FSLAX34Y34*%
%LPD*%
%INBottom Copper*%
%IPPOS*%
%AMOC8*
5,1,8,0,0,1.08239X$1,22.5*%
G01*
%ADD10C,0.070500*%
%ADD11P,0.068191X8X112.500000*%
%ADD12C,0.063000*%
%ADD13P,0.068191X8X202.500000*%
%ADD14C,0.060000*%
%ADD15P,0.056284X8X112.500000*%
%ADD16C,0.059370*%
%ADD17R,0.059370X0.059370*%
%ADD18R,0.060000X0.060000*%
%ADD19C,0.060000*%
%ADD20C,0.126000*%
%ADD21R,0.126000X0.126000*%
%ADD22C,0.109252*%
%ADD23C,0.029780*%
%ADD24C,0.016000*%
%ADD25C,0.032000*%

G36*
X32632Y431D02*
X32632Y431D01*
X32633Y431D01*
X32640Y432D01*
X32647Y432D01*
X32648Y433D01*
X32649Y433D01*
X32655Y435D01*
X32662Y437D01*
X32663Y437D01*
X32664Y438D01*
X32670Y441D01*
X32676Y445D01*
X32677Y446D01*
X32682Y450D01*
X32688Y455D01*
X32689Y456D01*
X32693Y462D01*
X32698Y467D01*
X32698Y468D01*
X32699Y469D01*
X32702Y475D01*
X32705Y481D01*
X32705Y482D01*
X32705Y483D01*
X32707Y490D01*
X32709Y496D01*
X32709Y497D01*
X32709Y498D01*
X32710Y505D01*
X32710Y512D01*
X32710Y513D01*
X32710Y514D01*
X32709Y521D01*
X32708Y528D01*
X32708Y529D01*
X32708Y530D01*
X32705Y536D01*
X32703Y543D01*
X32702Y544D01*
X32699Y550D01*
X32695Y556D01*
X32695Y557D01*
X32694Y558D01*
X32689Y563D01*
X32685Y568D01*
X32684Y569D01*
X32683Y569D01*
X32678Y573D01*
X32672Y578D01*
X32671Y578D01*
X32671Y579D01*
X32665Y581D01*
X32291Y880D01*
X32022Y1274D01*
X31882Y1730D01*
X31882Y2207D01*
X32022Y2663D01*
X32291Y3057D01*
X32664Y3355D01*
X33108Y3529D01*
X33584Y3565D01*
X33977Y3475D01*
X33979Y3475D01*
X33981Y3474D01*
X33987Y3474D01*
X33992Y3473D01*
X33994Y3473D01*
X33996Y3473D01*
X34002Y3474D01*
X34008Y3474D01*
X34010Y3475D01*
X34012Y3475D01*
X34018Y3477D01*
X34023Y3479D01*
X34025Y3480D01*
X34027Y3480D01*
X34032Y3483D01*
X34037Y3486D01*
X34039Y3487D01*
X34041Y3488D01*
X34045Y3492D01*
X34050Y3496D01*
X34051Y3497D01*
X34052Y3499D01*
X34056Y3503D01*
X34060Y3508D01*
X34061Y3510D01*
X34062Y3511D01*
X34065Y3517D01*
X34067Y3522D01*
X34068Y3524D01*
X34069Y3525D01*
X34070Y3531D01*
X34072Y3537D01*
X34072Y3539D01*
X34073Y3541D01*
X34074Y3553D01*
X34074Y31881D01*
X34073Y31882D01*
X34074Y31884D01*
X34073Y31890D01*
X34072Y31896D01*
X34072Y31898D01*
X34071Y31900D01*
X34069Y31906D01*
X34067Y31911D01*
X34066Y31913D01*
X34066Y31915D01*
X34063Y31920D01*
X34060Y31925D01*
X34059Y31927D01*
X34058Y31928D01*
X34054Y31933D01*
X34050Y31937D01*
X34048Y31938D01*
X34047Y31940D01*
X34042Y31943D01*
X34037Y31947D01*
X34036Y31948D01*
X34034Y31949D01*
X34029Y31952D01*
X34023Y31954D01*
X34021Y31955D01*
X34020Y31956D01*
X34014Y31957D01*
X34008Y31959D01*
X34006Y31959D01*
X34004Y31959D01*
X33998Y31959D01*
X33992Y31960D01*
X33990Y31960D01*
X33989Y31960D01*
X33977Y31958D01*
X33584Y31868D01*
X33108Y31904D01*
X32664Y32078D01*
X32291Y32376D01*
X32022Y32770D01*
X31882Y33226D01*
X31882Y33703D01*
X32022Y34159D01*
X32291Y34553D01*
X32666Y34852D01*
X32668Y34853D01*
X32674Y34856D01*
X32675Y34857D01*
X32676Y34858D01*
X32681Y34862D01*
X32686Y34866D01*
X32687Y34867D01*
X32688Y34868D01*
X32692Y34873D01*
X32696Y34878D01*
X32697Y34879D01*
X32698Y34880D01*
X32701Y34886D01*
X32704Y34892D01*
X32704Y34893D01*
X32705Y34894D01*
X32707Y34901D01*
X32709Y34907D01*
X32709Y34908D01*
X32709Y34909D01*
X32710Y34916D01*
X32710Y34923D01*
X32710Y34924D01*
X32710Y34925D01*
X32709Y34932D01*
X32709Y34939D01*
X32708Y34940D01*
X32708Y34941D01*
X32706Y34947D01*
X32704Y34954D01*
X32704Y34955D01*
X32703Y34956D01*
X32700Y34962D01*
X32696Y34968D01*
X32695Y34969D01*
X32691Y34974D01*
X32686Y34980D01*
X32685Y34981D01*
X32679Y34985D01*
X32674Y34990D01*
X32673Y34990D01*
X32672Y34991D01*
X32666Y34994D01*
X32660Y34997D01*
X32659Y34997D01*
X32658Y34998D01*
X32651Y34999D01*
X32645Y35001D01*
X32644Y35001D01*
X32643Y35001D01*
X32631Y35002D01*
X2767Y35002D01*
X2764Y35002D01*
X2761Y35002D01*
X2756Y35001D01*
X2751Y35001D01*
X2748Y35000D01*
X2745Y34999D01*
X2741Y34998D01*
X2736Y34996D01*
X2733Y34995D01*
X2731Y34994D01*
X2726Y34991D01*
X2722Y34989D01*
X2720Y34987D01*
X2717Y34985D01*
X2714Y34982D01*
X2710Y34978D01*
X2708Y34976D01*
X2706Y34974D01*
X2703Y34970D01*
X2700Y34966D01*
X2699Y34963D01*
X2697Y34961D01*
X2695Y34956D01*
X2693Y34952D01*
X2692Y34949D01*
X2691Y34946D01*
X2690Y34942D01*
X2689Y34937D01*
X2688Y34934D01*
X2688Y34931D01*
X2688Y34926D01*
X2688Y34921D01*
X2688Y34918D01*
X2688Y34915D01*
X2689Y34910D01*
X2689Y34905D01*
X2690Y34903D01*
X2691Y34900D01*
X2693Y34895D01*
X2694Y34890D01*
X2696Y34888D01*
X2697Y34885D01*
X2700Y34881D01*
X2702Y34877D01*
X2704Y34875D01*
X2706Y34872D01*
X2710Y34869D01*
X2713Y34865D01*
X2715Y34863D01*
X2717Y34861D01*
X2723Y34857D01*
X2725Y34855D01*
X2726Y34855D01*
X2727Y34854D01*
X2967Y34716D01*
X3291Y34366D01*
X3498Y33936D01*
X3569Y33465D01*
X3498Y32993D01*
X3291Y32563D01*
X2967Y32213D01*
X2553Y31974D01*
X2088Y31868D01*
X1612Y31904D01*
X1168Y32078D01*
X795Y32376D01*
X575Y32698D01*
X569Y32705D01*
X565Y32710D01*
X553Y32720D01*
X546Y32723D01*
X539Y32727D01*
X532Y32729D01*
X524Y32731D01*
X515Y32732D01*
X508Y32732D01*
X498Y32731D01*
X492Y32730D01*
X486Y32728D01*
X477Y32725D01*
X464Y32717D01*
X453Y32708D01*
X452Y32707D01*
X442Y32694D01*
X437Y32683D01*
X436Y32680D01*
X433Y32669D01*
X432Y32665D01*
X431Y32653D01*
X431Y25071D01*
X431Y25069D01*
X431Y25067D01*
X432Y25061D01*
X432Y25055D01*
X433Y25053D01*
X433Y25052D01*
X435Y25046D01*
X437Y25040D01*
X438Y25038D01*
X438Y25037D01*
X442Y25031D01*
X445Y25026D01*
X446Y25025D01*
X446Y25023D01*
X451Y25019D01*
X455Y25014D01*
X456Y25013D01*
X457Y25011D01*
X462Y25008D01*
X467Y25004D01*
X468Y25003D01*
X470Y25002D01*
X474Y25000D01*
X472Y24999D01*
X467Y24996D01*
X465Y24995D01*
X464Y24994D01*
X459Y24990D01*
X454Y24986D01*
X453Y24985D01*
X452Y24983D01*
X448Y24978D01*
X444Y24974D01*
X443Y24972D01*
X442Y24971D01*
X440Y24965D01*
X437Y24960D01*
X436Y24958D01*
X436Y24957D01*
X434Y24951D01*
X432Y24945D01*
X432Y24943D01*
X432Y24941D01*
X431Y24929D01*
X431Y2780D01*
X432Y2768D01*
X432Y2764D01*
X435Y2755D01*
X437Y2749D01*
X445Y2735D01*
X450Y2729D01*
X455Y2723D01*
X460Y2719D01*
X467Y2713D01*
X473Y2710D01*
X481Y2706D01*
X490Y2704D01*
X496Y2702D01*
X506Y2701D01*
X512Y2701D01*
X522Y2702D01*
X528Y2703D01*
X533Y2705D01*
X543Y2708D01*
X545Y2709D01*
X556Y2716D01*
X558Y2717D01*
X568Y2726D01*
X575Y2735D01*
X795Y3057D01*
X1168Y3355D01*
X1612Y3529D01*
X2088Y3565D01*
X2553Y3459D01*
X2967Y3220D01*
X3291Y2870D01*
X3498Y2440D01*
X3569Y1969D01*
X3498Y1497D01*
X3291Y1067D01*
X2967Y717D01*
X2727Y579D01*
X2725Y577D01*
X2722Y575D01*
X2718Y572D01*
X2714Y569D01*
X2712Y567D01*
X2710Y565D01*
X2707Y561D01*
X2704Y558D01*
X2702Y555D01*
X2700Y553D01*
X2698Y549D01*
X2695Y544D01*
X2694Y542D01*
X2693Y539D01*
X2692Y534D01*
X2690Y530D01*
X2690Y527D01*
X2689Y524D01*
X2688Y519D01*
X2688Y514D01*
X2688Y511D01*
X2688Y508D01*
X2688Y503D01*
X2688Y498D01*
X2689Y495D01*
X2689Y492D01*
X2691Y488D01*
X2692Y483D01*
X2694Y480D01*
X2694Y477D01*
X2697Y473D01*
X2699Y469D01*
X2701Y466D01*
X2702Y464D01*
X2706Y460D01*
X2709Y456D01*
X2711Y454D01*
X2713Y452D01*
X2717Y449D01*
X2720Y446D01*
X2723Y444D01*
X2725Y442D01*
X2730Y440D01*
X2734Y438D01*
X2737Y437D01*
X2740Y436D01*
X2744Y434D01*
X2749Y433D01*
X2752Y432D01*
X2755Y432D01*
X2762Y431D01*
X2765Y431D01*
X2766Y431D01*
X2767Y431D01*
X32631Y431D01*
X32632Y431D01*
G37*
%LPC*%
G36*
X7065Y9071D02*
X7065Y9071D01*
X6913Y9134D01*
X6797Y9250D01*
X6734Y9402D01*
X6734Y9566D01*
X6797Y9718D01*
X6913Y9835D01*
X6940Y9846D01*
X6941Y9846D01*
X6942Y9846D01*
X6948Y9850D01*
X6954Y9853D01*
X6955Y9854D01*
X6956Y9854D01*
X6961Y9859D01*
X6966Y9863D01*
X6967Y9864D01*
X6972Y9870D01*
X6976Y9876D01*
X6977Y9876D01*
X6977Y9877D01*
X6980Y9883D01*
X6984Y9890D01*
X6984Y9891D01*
X6986Y9898D01*
X6988Y9905D01*
X6988Y9906D01*
X6989Y9913D01*
X6989Y9920D01*
X6989Y9921D01*
X6989Y9922D01*
X6988Y9929D01*
X6987Y9936D01*
X6987Y9937D01*
X6987Y9938D01*
X6985Y9944D01*
X6983Y9951D01*
X6982Y9952D01*
X6978Y9959D01*
X6975Y9965D01*
X6974Y9965D01*
X6974Y9966D01*
X6966Y9975D01*
X1886Y15055D01*
X1813Y15128D01*
X1779Y15209D01*
X1779Y30700D01*
X1779Y30701D01*
X1779Y30702D01*
X1778Y30709D01*
X1778Y30716D01*
X1777Y30717D01*
X1777Y30718D01*
X1775Y30724D01*
X1773Y30731D01*
X1773Y30732D01*
X1772Y30733D01*
X1769Y30739D01*
X1765Y30745D01*
X1764Y30746D01*
X1760Y30751D01*
X1755Y30757D01*
X1754Y30758D01*
X1748Y30762D01*
X1743Y30767D01*
X1742Y30767D01*
X1741Y30768D01*
X1735Y30771D01*
X1729Y30774D01*
X1728Y30774D01*
X1727Y30774D01*
X1720Y30776D01*
X1714Y30778D01*
X1713Y30778D01*
X1712Y30778D01*
X1700Y30779D01*
X1266Y30779D01*
X1264Y30779D01*
X1263Y30779D01*
X1256Y30778D01*
X1250Y30778D01*
X1249Y30777D01*
X1247Y30777D01*
X1241Y30775D01*
X1235Y30773D01*
X1234Y30772D01*
X1232Y30772D01*
X1227Y30769D01*
X1221Y30765D01*
X1220Y30765D01*
X1219Y30764D01*
X1210Y30756D01*
X1133Y30679D01*
X867Y30679D01*
X679Y30867D01*
X679Y31133D01*
X867Y31321D01*
X1133Y31321D01*
X1210Y31244D01*
X1211Y31243D01*
X1212Y31242D01*
X1217Y31238D01*
X1222Y31234D01*
X1223Y31233D01*
X1224Y31232D01*
X1230Y31230D01*
X1236Y31227D01*
X1237Y31226D01*
X1239Y31226D01*
X1245Y31224D01*
X1251Y31222D01*
X1252Y31222D01*
X1254Y31222D01*
X1266Y31221D01*
X2376Y31221D01*
X2377Y31221D01*
X2379Y31221D01*
X2385Y31222D01*
X2391Y31222D01*
X2393Y31223D01*
X2394Y31223D01*
X2400Y31225D01*
X2407Y31227D01*
X2408Y31228D01*
X2409Y31228D01*
X2415Y31231D01*
X2420Y31235D01*
X2421Y31235D01*
X2423Y31236D01*
X2432Y31244D01*
X4875Y33687D01*
X4956Y33721D01*
X6544Y33721D01*
X6625Y33687D01*
X8949Y31363D01*
X8950Y31363D01*
X8955Y31358D01*
X8961Y31353D01*
X8962Y31353D01*
X8969Y31349D01*
X8975Y31346D01*
X8976Y31346D01*
X8976Y31345D01*
X8983Y31343D01*
X8990Y31341D01*
X8991Y31341D01*
X8999Y31341D01*
X9006Y31340D01*
X9007Y31340D01*
X9014Y31341D01*
X9022Y31342D01*
X9023Y31342D01*
X9030Y31344D01*
X9037Y31347D01*
X9038Y31347D01*
X9044Y31351D01*
X9050Y31354D01*
X9051Y31355D01*
X9057Y31360D01*
X9062Y31365D01*
X9063Y31365D01*
X9068Y31371D01*
X9072Y31377D01*
X9072Y31378D01*
X9073Y31378D01*
X9076Y31385D01*
X9079Y31391D01*
X9079Y31392D01*
X9081Y31399D01*
X9083Y31406D01*
X9083Y31407D01*
X9084Y31419D01*
X9084Y31421D01*
X9421Y31421D01*
X9421Y31084D01*
X9419Y31084D01*
X9418Y31084D01*
X9411Y31083D01*
X9404Y31083D01*
X9403Y31083D01*
X9403Y31082D01*
X9396Y31080D01*
X9388Y31078D01*
X9381Y31074D01*
X9375Y31070D01*
X9374Y31070D01*
X9368Y31065D01*
X9363Y31060D01*
X9362Y31060D01*
X9357Y31054D01*
X9353Y31048D01*
X9352Y31048D01*
X9352Y31047D01*
X9349Y31041D01*
X9345Y31034D01*
X9345Y31033D01*
X9343Y31026D01*
X9341Y31019D01*
X9341Y31018D01*
X9341Y31010D01*
X9340Y31003D01*
X9340Y31002D01*
X9341Y30995D01*
X9342Y30987D01*
X9342Y30986D01*
X9345Y30979D01*
X9347Y30972D01*
X9351Y30965D01*
X9355Y30959D01*
X9355Y30958D01*
X9363Y30949D01*
X9413Y30899D01*
X9414Y30898D01*
X9415Y30897D01*
X9420Y30893D01*
X9425Y30889D01*
X9427Y30888D01*
X9428Y30887D01*
X9434Y30885D01*
X9439Y30882D01*
X9441Y30881D01*
X9442Y30881D01*
X9448Y30879D01*
X9455Y30877D01*
X9456Y30877D01*
X9457Y30877D01*
X9469Y30876D01*
X9575Y30876D01*
X9713Y30819D01*
X9819Y30713D01*
X9876Y30575D01*
X9876Y30469D01*
X9876Y30468D01*
X9876Y30466D01*
X9877Y30460D01*
X9877Y30454D01*
X9878Y30452D01*
X9878Y30451D01*
X9880Y30445D01*
X9882Y30438D01*
X9883Y30437D01*
X9883Y30436D01*
X9886Y30430D01*
X9890Y30425D01*
X9890Y30424D01*
X9891Y30422D01*
X9899Y30413D01*
X11004Y29308D01*
X11005Y29308D01*
X11010Y29303D01*
X11016Y29298D01*
X11017Y29298D01*
X11024Y29294D01*
X11030Y29291D01*
X11031Y29291D01*
X11031Y29290D01*
X11038Y29288D01*
X11045Y29286D01*
X11046Y29286D01*
X11054Y29286D01*
X11061Y29285D01*
X11062Y29285D01*
X11069Y29286D01*
X11077Y29287D01*
X11078Y29287D01*
X11085Y29289D01*
X11092Y29292D01*
X11093Y29292D01*
X11099Y29296D01*
X11105Y29299D01*
X11106Y29300D01*
X11112Y29305D01*
X11117Y29310D01*
X11118Y29310D01*
X11123Y29316D01*
X11127Y29322D01*
X11127Y29323D01*
X11128Y29323D01*
X11131Y29330D01*
X11134Y29336D01*
X11134Y29337D01*
X11136Y29344D01*
X11138Y29351D01*
X11138Y29352D01*
X11139Y29364D01*
X11139Y29372D01*
X11194Y29504D01*
X11296Y29606D01*
X11428Y29661D01*
X11572Y29661D01*
X11704Y29606D01*
X11806Y29504D01*
X11861Y29372D01*
X11861Y28628D01*
X11829Y28552D01*
X11829Y28551D01*
X11828Y28550D01*
X11827Y28543D01*
X11825Y28537D01*
X11825Y28536D01*
X11824Y28535D01*
X11824Y28528D01*
X11823Y28521D01*
X11823Y28520D01*
X11823Y28519D01*
X11824Y28512D01*
X11825Y28506D01*
X11825Y28504D01*
X11825Y28503D01*
X11828Y28497D01*
X11830Y28491D01*
X11830Y28490D01*
X11831Y28488D01*
X11834Y28483D01*
X11837Y28477D01*
X11838Y28476D01*
X11839Y28475D01*
X11846Y28466D01*
X12068Y28244D01*
X12069Y28243D01*
X12070Y28242D01*
X12075Y28238D01*
X12080Y28234D01*
X12082Y28233D01*
X12083Y28232D01*
X12089Y28230D01*
X12094Y28227D01*
X12096Y28226D01*
X12097Y28226D01*
X12103Y28224D01*
X12110Y28222D01*
X12111Y28222D01*
X12112Y28222D01*
X12124Y28221D01*
X12234Y28221D01*
X12241Y28221D01*
X12247Y28222D01*
X12248Y28222D01*
X12250Y28222D01*
X12256Y28224D01*
X12263Y28226D01*
X12264Y28227D01*
X12265Y28227D01*
X12271Y28230D01*
X12277Y28233D01*
X12278Y28234D01*
X12279Y28235D01*
X12284Y28239D01*
X12289Y28243D01*
X12290Y28244D01*
X12291Y28245D01*
X12295Y28250D01*
X12299Y28255D01*
X12300Y28256D01*
X12300Y28257D01*
X12304Y28263D01*
X12307Y28269D01*
X12307Y28270D01*
X12308Y28271D01*
X12310Y28278D01*
X12312Y28284D01*
X12312Y28285D01*
X12312Y28286D01*
X12312Y28293D01*
X12313Y28300D01*
X12313Y28301D01*
X12313Y28302D01*
X12312Y28309D01*
X12312Y28315D01*
X12311Y28316D01*
X12311Y28318D01*
X12309Y28324D01*
X12307Y28330D01*
X12307Y28331D01*
X12306Y28333D01*
X12303Y28338D01*
X12300Y28344D01*
X12299Y28345D01*
X12298Y28346D01*
X12294Y28351D01*
X12290Y28356D01*
X12289Y28357D01*
X12288Y28358D01*
X12286Y28360D01*
X12281Y28364D01*
X12239Y28394D01*
X12194Y28439D01*
X12157Y28490D01*
X12129Y28546D01*
X12109Y28606D01*
X12099Y28668D01*
X12099Y28901D01*
X12480Y28901D01*
X12481Y28901D01*
X12482Y28901D01*
X12489Y28902D01*
X12496Y28902D01*
X12497Y28903D01*
X12498Y28903D01*
X12500Y28904D01*
X12506Y28902D01*
X12507Y28902D01*
X12508Y28902D01*
X12520Y28901D01*
X12901Y28901D01*
X12901Y28668D01*
X12891Y28606D01*
X12871Y28546D01*
X12843Y28490D01*
X12806Y28439D01*
X12761Y28394D01*
X12719Y28364D01*
X12714Y28360D01*
X12709Y28355D01*
X12709Y28354D01*
X12708Y28354D01*
X12704Y28348D01*
X12700Y28343D01*
X12699Y28342D01*
X12698Y28341D01*
X12695Y28335D01*
X12692Y28329D01*
X12692Y28328D01*
X12691Y28327D01*
X12690Y28320D01*
X12688Y28314D01*
X12688Y28313D01*
X12688Y28311D01*
X12687Y28305D01*
X12687Y28298D01*
X12687Y28297D01*
X12687Y28296D01*
X12688Y28289D01*
X12689Y28282D01*
X12689Y28281D01*
X12689Y28280D01*
X12692Y28274D01*
X12694Y28267D01*
X12694Y28266D01*
X12695Y28265D01*
X12698Y28260D01*
X12702Y28254D01*
X12702Y28253D01*
X12703Y28252D01*
X12708Y28247D01*
X12712Y28242D01*
X12713Y28241D01*
X12714Y28240D01*
X12719Y28236D01*
X12725Y28232D01*
X12726Y28232D01*
X12727Y28231D01*
X12733Y28228D01*
X12739Y28226D01*
X12740Y28225D01*
X12741Y28225D01*
X12748Y28223D01*
X12754Y28222D01*
X12756Y28222D01*
X12757Y28221D01*
X12759Y28221D01*
X12766Y28221D01*
X13316Y28221D01*
X13324Y28222D01*
X13332Y28222D01*
X13339Y28225D01*
X13347Y28227D01*
X13354Y28231D01*
X13361Y28235D01*
X13367Y28240D01*
X13373Y28245D01*
X13378Y28251D01*
X13382Y28257D01*
X13383Y28257D01*
X13386Y28264D01*
X13390Y28271D01*
X13392Y28279D01*
X13394Y28286D01*
X13394Y28287D01*
X13395Y28294D01*
X13395Y28302D01*
X13394Y28310D01*
X13393Y28318D01*
X13391Y28325D01*
X13388Y28333D01*
X13384Y28340D01*
X13380Y28346D01*
X13380Y28347D01*
X13375Y28352D01*
X13370Y28358D01*
X13369Y28358D01*
X13363Y28363D01*
X13357Y28368D01*
X13346Y28373D01*
X13296Y28394D01*
X13194Y28496D01*
X13139Y28628D01*
X13139Y29372D01*
X13194Y29504D01*
X13296Y29606D01*
X13428Y29661D01*
X13572Y29661D01*
X13719Y29600D01*
X13720Y29600D01*
X13720Y29599D01*
X13721Y29599D01*
X13727Y29597D01*
X13734Y29595D01*
X13735Y29595D01*
X13736Y29595D01*
X13743Y29595D01*
X13749Y29594D01*
X13751Y29594D01*
X13752Y29594D01*
X13758Y29595D01*
X13765Y29596D01*
X13766Y29596D01*
X13767Y29596D01*
X13774Y29598D01*
X13780Y29600D01*
X13781Y29601D01*
X13782Y29601D01*
X13788Y29605D01*
X13794Y29608D01*
X13795Y29609D01*
X13796Y29609D01*
X13805Y29617D01*
X14802Y30614D01*
X14875Y30687D01*
X14956Y30721D01*
X15157Y30721D01*
X15158Y30721D01*
X15159Y30721D01*
X15166Y30722D01*
X15172Y30722D01*
X15174Y30723D01*
X15175Y30723D01*
X15181Y30725D01*
X15187Y30727D01*
X15189Y30728D01*
X15190Y30728D01*
X15196Y30731D01*
X15201Y30735D01*
X15202Y30735D01*
X15204Y30736D01*
X15213Y30744D01*
X15287Y30819D01*
X15425Y30876D01*
X15575Y30876D01*
X15713Y30819D01*
X15819Y30713D01*
X15876Y30575D01*
X15876Y30425D01*
X15819Y30287D01*
X15713Y30181D01*
X15575Y30124D01*
X15425Y30124D01*
X15287Y30181D01*
X15213Y30256D01*
X15211Y30257D01*
X15210Y30258D01*
X15205Y30262D01*
X15200Y30266D01*
X15199Y30267D01*
X15198Y30268D01*
X15192Y30270D01*
X15186Y30273D01*
X15185Y30274D01*
X15184Y30274D01*
X15177Y30276D01*
X15171Y30278D01*
X15170Y30278D01*
X15168Y30278D01*
X15157Y30279D01*
X15124Y30279D01*
X15123Y30279D01*
X15121Y30279D01*
X15115Y30278D01*
X15109Y30278D01*
X15107Y30277D01*
X15106Y30277D01*
X15100Y30275D01*
X15093Y30273D01*
X15092Y30272D01*
X15091Y30272D01*
X15085Y30269D01*
X15080Y30265D01*
X15079Y30265D01*
X15077Y30264D01*
X15068Y30256D01*
X13884Y29072D01*
X13883Y29071D01*
X13882Y29070D01*
X13878Y29065D01*
X13874Y29060D01*
X13873Y29058D01*
X13872Y29057D01*
X13870Y29051D01*
X13867Y29046D01*
X13866Y29044D01*
X13866Y29043D01*
X13864Y29037D01*
X13862Y29030D01*
X13862Y29029D01*
X13862Y29028D01*
X13861Y29016D01*
X13861Y28628D01*
X13806Y28496D01*
X13704Y28394D01*
X13654Y28373D01*
X13653Y28373D01*
X13647Y28369D01*
X13640Y28366D01*
X13639Y28365D01*
X13634Y28361D01*
X13628Y28356D01*
X13627Y28355D01*
X13623Y28349D01*
X13618Y28343D01*
X13614Y28336D01*
X13610Y28329D01*
X13608Y28322D01*
X13606Y28314D01*
X13605Y28306D01*
X13605Y28299D01*
X13605Y28298D01*
X13606Y28290D01*
X13607Y28283D01*
X13607Y28282D01*
X13609Y28275D01*
X13612Y28268D01*
X13612Y28267D01*
X13616Y28261D01*
X13619Y28254D01*
X13620Y28254D01*
X13625Y28248D01*
X13630Y28242D01*
X13636Y28237D01*
X13642Y28233D01*
X13643Y28233D01*
X13643Y28232D01*
X13650Y28229D01*
X13656Y28226D01*
X13657Y28226D01*
X13664Y28224D01*
X13672Y28222D01*
X13684Y28221D01*
X17376Y28221D01*
X17377Y28221D01*
X17379Y28221D01*
X17385Y28222D01*
X17391Y28222D01*
X17393Y28223D01*
X17394Y28223D01*
X17400Y28225D01*
X17407Y28227D01*
X17408Y28228D01*
X17409Y28228D01*
X17415Y28231D01*
X17420Y28235D01*
X17421Y28235D01*
X17423Y28236D01*
X17432Y28244D01*
X20907Y31719D01*
X20907Y31720D01*
X20908Y31720D01*
X20912Y31726D01*
X20917Y31731D01*
X20917Y31732D01*
X20918Y31733D01*
X20921Y31739D01*
X20924Y31745D01*
X20924Y31746D01*
X20925Y31747D01*
X20926Y31754D01*
X20928Y31760D01*
X20928Y31761D01*
X20929Y31762D01*
X20929Y31769D01*
X20930Y31776D01*
X20930Y31777D01*
X20930Y31778D01*
X20929Y31785D01*
X20928Y31791D01*
X20928Y31793D01*
X20927Y31794D01*
X20924Y31805D01*
X20893Y31879D01*
X20893Y32121D01*
X20985Y32344D01*
X21156Y32515D01*
X21379Y32607D01*
X21621Y32607D01*
X21844Y32515D01*
X22015Y32344D01*
X22107Y32121D01*
X22107Y31879D01*
X22015Y31656D01*
X21844Y31485D01*
X21621Y31393D01*
X21379Y31393D01*
X21305Y31424D01*
X21304Y31424D01*
X21303Y31425D01*
X21296Y31426D01*
X21290Y31428D01*
X21289Y31428D01*
X21288Y31429D01*
X21281Y31429D01*
X21274Y31430D01*
X21273Y31430D01*
X21272Y31430D01*
X21265Y31429D01*
X21259Y31428D01*
X21257Y31428D01*
X21256Y31428D01*
X21250Y31425D01*
X21244Y31423D01*
X21242Y31423D01*
X21241Y31422D01*
X21236Y31419D01*
X21230Y31416D01*
X21229Y31415D01*
X21228Y31414D01*
X21219Y31407D01*
X17625Y27813D01*
X17544Y27779D01*
X11956Y27779D01*
X11875Y27813D01*
X11310Y28378D01*
X11309Y28379D01*
X11308Y28381D01*
X11300Y28390D01*
X11194Y28496D01*
X11139Y28628D01*
X11139Y28700D01*
X11139Y28701D01*
X11139Y28702D01*
X11138Y28709D01*
X11138Y28716D01*
X11137Y28717D01*
X11137Y28718D01*
X11135Y28724D01*
X11133Y28731D01*
X11133Y28732D01*
X11132Y28733D01*
X11129Y28739D01*
X11125Y28745D01*
X11124Y28746D01*
X11120Y28751D01*
X11115Y28757D01*
X11114Y28758D01*
X11108Y28762D01*
X11103Y28767D01*
X11102Y28767D01*
X11101Y28768D01*
X11095Y28771D01*
X11089Y28774D01*
X11088Y28774D01*
X11087Y28774D01*
X11080Y28776D01*
X11074Y28778D01*
X11073Y28778D01*
X11072Y28778D01*
X11060Y28779D01*
X10956Y28779D01*
X10875Y28813D01*
X9587Y30101D01*
X9586Y30102D01*
X9585Y30103D01*
X9580Y30107D01*
X9575Y30111D01*
X9573Y30112D01*
X9572Y30113D01*
X9566Y30115D01*
X9561Y30118D01*
X9559Y30119D01*
X9558Y30119D01*
X9552Y30121D01*
X9545Y30123D01*
X9544Y30123D01*
X9543Y30123D01*
X9531Y30124D01*
X9425Y30124D01*
X9287Y30181D01*
X9181Y30287D01*
X9124Y30425D01*
X9124Y30531D01*
X9124Y30532D01*
X9124Y30534D01*
X9123Y30540D01*
X9123Y30546D01*
X9122Y30548D01*
X9122Y30549D01*
X9120Y30555D01*
X9118Y30562D01*
X9117Y30563D01*
X9117Y30564D01*
X9114Y30570D01*
X9110Y30575D01*
X9110Y30576D01*
X9109Y30578D01*
X9101Y30587D01*
X6432Y33256D01*
X6431Y33257D01*
X6430Y33258D01*
X6425Y33262D01*
X6420Y33266D01*
X6418Y33267D01*
X6417Y33268D01*
X6411Y33270D01*
X6406Y33273D01*
X6404Y33274D01*
X6403Y33274D01*
X6397Y33276D01*
X6390Y33278D01*
X6389Y33278D01*
X6388Y33278D01*
X6376Y33279D01*
X5124Y33279D01*
X5123Y33279D01*
X5121Y33279D01*
X5115Y33278D01*
X5109Y33278D01*
X5107Y33277D01*
X5106Y33277D01*
X5100Y33275D01*
X5093Y33273D01*
X5092Y33272D01*
X5091Y33272D01*
X5085Y33269D01*
X5080Y33265D01*
X5079Y33265D01*
X5077Y33264D01*
X5068Y33256D01*
X2625Y30813D01*
X2544Y30779D01*
X2300Y30779D01*
X2299Y30779D01*
X2298Y30779D01*
X2291Y30778D01*
X2284Y30778D01*
X2283Y30777D01*
X2282Y30777D01*
X2276Y30775D01*
X2269Y30773D01*
X2268Y30773D01*
X2267Y30772D01*
X2261Y30769D01*
X2255Y30765D01*
X2254Y30764D01*
X2249Y30760D01*
X2243Y30755D01*
X2242Y30754D01*
X2238Y30748D01*
X2233Y30743D01*
X2233Y30742D01*
X2232Y30741D01*
X2229Y30735D01*
X2226Y30729D01*
X2226Y30728D01*
X2226Y30727D01*
X2224Y30720D01*
X2222Y30714D01*
X2222Y30713D01*
X2222Y30712D01*
X2221Y30700D01*
X2221Y15378D01*
X2221Y15376D01*
X2221Y15375D01*
X2222Y15368D01*
X2222Y15362D01*
X2223Y15360D01*
X2223Y15359D01*
X2225Y15353D01*
X2227Y15347D01*
X2228Y15346D01*
X2228Y15344D01*
X2231Y15339D01*
X2235Y15333D01*
X2235Y15332D01*
X2236Y15331D01*
X2244Y15322D01*
X4441Y13124D01*
X4442Y13124D01*
X4442Y13123D01*
X4448Y13119D01*
X4453Y13114D01*
X4454Y13114D01*
X4461Y13110D01*
X4467Y13107D01*
X4468Y13107D01*
X4469Y13107D01*
X4475Y13105D01*
X4482Y13103D01*
X4483Y13103D01*
X4484Y13102D01*
X4491Y13102D01*
X4498Y13101D01*
X4499Y13101D01*
X4500Y13101D01*
X4507Y13102D01*
X4514Y13103D01*
X4515Y13103D01*
X4522Y13106D01*
X4529Y13108D01*
X4530Y13108D01*
X4536Y13112D01*
X4543Y13116D01*
X4544Y13116D01*
X4549Y13121D01*
X4554Y13126D01*
X4555Y13126D01*
X4555Y13127D01*
X4560Y13133D01*
X4564Y13138D01*
X4565Y13139D01*
X4565Y13140D01*
X4570Y13150D01*
X4618Y13266D01*
X4719Y13366D01*
X4850Y13421D01*
X4992Y13421D01*
X5124Y13366D01*
X5224Y13266D01*
X5279Y13134D01*
X5279Y12992D01*
X5224Y12860D01*
X5124Y12760D01*
X5008Y12712D01*
X5007Y12711D01*
X5001Y12708D01*
X4995Y12705D01*
X4994Y12704D01*
X4993Y12704D01*
X4988Y12699D01*
X4982Y12695D01*
X4982Y12694D01*
X4981Y12693D01*
X4977Y12688D01*
X4972Y12682D01*
X4972Y12681D01*
X4968Y12675D01*
X4965Y12668D01*
X4965Y12667D01*
X4963Y12660D01*
X4961Y12653D01*
X4961Y12652D01*
X4960Y12644D01*
X4960Y12637D01*
X4960Y12636D01*
X4961Y12629D01*
X4961Y12622D01*
X4962Y12621D01*
X4962Y12620D01*
X4964Y12613D01*
X4966Y12607D01*
X4967Y12606D01*
X4967Y12605D01*
X4971Y12599D01*
X4974Y12593D01*
X4975Y12592D01*
X4983Y12583D01*
X7645Y9921D01*
X7646Y9920D01*
X7647Y9919D01*
X7652Y9915D01*
X7657Y9911D01*
X7658Y9910D01*
X7659Y9909D01*
X7665Y9906D01*
X7671Y9903D01*
X7672Y9903D01*
X7674Y9902D01*
X7680Y9901D01*
X7686Y9899D01*
X7688Y9899D01*
X7689Y9898D01*
X7701Y9898D01*
X7935Y9898D01*
X8087Y9835D01*
X8203Y9718D01*
X8266Y9566D01*
X8266Y9402D01*
X8203Y9250D01*
X8087Y9134D01*
X7935Y9071D01*
X7065Y9071D01*
G37*
%LPD*%
%LPC*%
G36*
X24446Y30613D02*
X24446Y30613D01*
X24165Y30729D01*
X23950Y30945D01*
X23834Y31226D01*
X23834Y31433D01*
X23833Y31434D01*
X23833Y31442D01*
X23832Y31449D01*
X23832Y31450D01*
X23829Y31457D01*
X23827Y31464D01*
X23827Y31465D01*
X23823Y31471D01*
X23820Y31478D01*
X23819Y31478D01*
X23819Y31479D01*
X23814Y31484D01*
X23810Y31490D01*
X23809Y31490D01*
X23809Y31491D01*
X23803Y31495D01*
X23797Y31500D01*
X23796Y31500D01*
X23790Y31504D01*
X23783Y31507D01*
X23782Y31507D01*
X23775Y31509D01*
X23768Y31511D01*
X23767Y31512D01*
X23760Y31512D01*
X23752Y31513D01*
X23751Y31513D01*
X23744Y31512D01*
X23737Y31511D01*
X23736Y31510D01*
X23729Y31508D01*
X23722Y31506D01*
X23721Y31505D01*
X23714Y31501D01*
X23708Y31498D01*
X23708Y31497D01*
X23707Y31497D01*
X23698Y31489D01*
X23694Y31485D01*
X23471Y31393D01*
X23230Y31393D01*
X23007Y31485D01*
X22836Y31656D01*
X22743Y31879D01*
X22743Y32121D01*
X22836Y32344D01*
X23007Y32515D01*
X23081Y32545D01*
X23082Y32546D01*
X23083Y32546D01*
X23089Y32550D01*
X23095Y32553D01*
X23096Y32554D01*
X23097Y32554D01*
X23102Y32559D01*
X23107Y32563D01*
X23108Y32564D01*
X23108Y32565D01*
X23112Y32570D01*
X23117Y32575D01*
X23117Y32576D01*
X23118Y32577D01*
X23121Y32583D01*
X23124Y32589D01*
X23124Y32590D01*
X23125Y32591D01*
X23127Y32598D01*
X23128Y32604D01*
X23128Y32606D01*
X23129Y32607D01*
X23130Y32619D01*
X23130Y33525D01*
X23129Y33527D01*
X23130Y33528D01*
X23129Y33535D01*
X23128Y33541D01*
X23128Y33542D01*
X23127Y33544D01*
X23125Y33550D01*
X23123Y33556D01*
X23123Y33557D01*
X23122Y33559D01*
X23119Y33564D01*
X23116Y33570D01*
X23115Y33571D01*
X23114Y33572D01*
X23106Y33581D01*
X22432Y34256D01*
X22431Y34257D01*
X22430Y34258D01*
X22425Y34262D01*
X22420Y34266D01*
X22418Y34267D01*
X22417Y34268D01*
X22411Y34270D01*
X22406Y34273D01*
X22404Y34274D01*
X22403Y34274D01*
X22397Y34276D01*
X22390Y34278D01*
X22389Y34278D01*
X22388Y34278D01*
X22376Y34279D01*
X13890Y34279D01*
X13889Y34279D01*
X13881Y34278D01*
X13874Y34278D01*
X13873Y34277D01*
X13866Y34275D01*
X13859Y34273D01*
X13858Y34273D01*
X13852Y34269D01*
X13845Y34265D01*
X13844Y34265D01*
X13839Y34260D01*
X13833Y34255D01*
X13832Y34255D01*
X13828Y34249D01*
X13823Y34243D01*
X13823Y34242D01*
X13819Y34236D01*
X13816Y34229D01*
X13816Y34228D01*
X13814Y34221D01*
X13812Y34214D01*
X13812Y34213D01*
X13811Y34205D01*
X13811Y34198D01*
X13811Y34197D01*
X13812Y34190D01*
X13813Y34182D01*
X13813Y34181D01*
X13815Y34174D01*
X13818Y34167D01*
X13818Y34166D01*
X13820Y34163D01*
X13822Y34160D01*
X13825Y34154D01*
X13826Y34153D01*
X13827Y34152D01*
X13872Y34090D01*
X13904Y34026D01*
X13926Y33959D01*
X13938Y33888D01*
X13938Y33617D01*
X13522Y33617D01*
X13521Y33617D01*
X13520Y33617D01*
X13513Y33616D01*
X13506Y33615D01*
X13505Y33615D01*
X13504Y33615D01*
X13498Y33613D01*
X13491Y33611D01*
X13490Y33610D01*
X13489Y33610D01*
X13484Y33607D01*
X13482Y33608D01*
X13476Y33611D01*
X13475Y33612D01*
X13474Y33612D01*
X13467Y33614D01*
X13461Y33616D01*
X13460Y33616D01*
X13459Y33616D01*
X13447Y33617D01*
X13031Y33617D01*
X13031Y33888D01*
X13042Y33959D01*
X13064Y34026D01*
X13097Y34090D01*
X13142Y34153D01*
X13143Y34154D01*
X13145Y34156D01*
X13145Y34157D01*
X13149Y34164D01*
X13150Y34166D01*
X13152Y34170D01*
X13152Y34171D01*
X13154Y34178D01*
X13157Y34185D01*
X13157Y34186D01*
X13157Y34194D01*
X13158Y34201D01*
X13158Y34202D01*
X13157Y34209D01*
X13156Y34217D01*
X13156Y34218D01*
X13154Y34225D01*
X13151Y34232D01*
X13151Y34233D01*
X13147Y34239D01*
X13144Y34245D01*
X13143Y34246D01*
X13138Y34252D01*
X13133Y34257D01*
X13133Y34258D01*
X13127Y34263D01*
X13121Y34267D01*
X13120Y34267D01*
X13120Y34268D01*
X13113Y34271D01*
X13107Y34274D01*
X13106Y34274D01*
X13099Y34276D01*
X13092Y34278D01*
X13091Y34278D01*
X13079Y34279D01*
X12640Y34279D01*
X12639Y34279D01*
X12637Y34279D01*
X12631Y34278D01*
X12624Y34278D01*
X12623Y34277D01*
X12621Y34277D01*
X12615Y34275D01*
X12609Y34273D01*
X12608Y34272D01*
X12607Y34272D01*
X12601Y34269D01*
X12595Y34265D01*
X12594Y34265D01*
X12593Y34264D01*
X12584Y34256D01*
X11952Y33624D01*
X11951Y33623D01*
X11950Y33622D01*
X11946Y33617D01*
X11942Y33612D01*
X11942Y33611D01*
X11941Y33610D01*
X11938Y33604D01*
X11935Y33598D01*
X11934Y33597D01*
X11934Y33595D01*
X11932Y33589D01*
X11930Y33583D01*
X11930Y33582D01*
X11930Y33580D01*
X11929Y33568D01*
X11929Y33065D01*
X11866Y32913D01*
X11750Y32797D01*
X11598Y32734D01*
X11434Y32734D01*
X11282Y32797D01*
X11165Y32913D01*
X11102Y33065D01*
X11102Y33935D01*
X11165Y34087D01*
X11282Y34203D01*
X11434Y34266D01*
X11598Y34266D01*
X11750Y34203D01*
X11772Y34181D01*
X11773Y34180D01*
X11773Y34179D01*
X11779Y34175D01*
X11784Y34171D01*
X11785Y34170D01*
X11786Y34170D01*
X11792Y34166D01*
X11798Y34163D01*
X11799Y34163D01*
X11800Y34163D01*
X11807Y34161D01*
X11813Y34159D01*
X11814Y34159D01*
X11815Y34158D01*
X11822Y34158D01*
X11829Y34157D01*
X11830Y34157D01*
X11831Y34157D01*
X11838Y34158D01*
X11845Y34159D01*
X11846Y34159D01*
X11847Y34160D01*
X11853Y34162D01*
X11860Y34164D01*
X11861Y34164D01*
X11862Y34165D01*
X11868Y34168D01*
X11874Y34172D01*
X11875Y34173D01*
X11884Y34181D01*
X12291Y34587D01*
X12292Y34588D01*
X12293Y34589D01*
X12297Y34594D01*
X12301Y34599D01*
X12301Y34601D01*
X12302Y34602D01*
X12308Y34613D01*
X12313Y34625D01*
X12375Y34687D01*
X12456Y34721D01*
X22544Y34721D01*
X22625Y34687D01*
X23538Y33775D01*
X23571Y33694D01*
X23571Y32619D01*
X23571Y32617D01*
X23571Y32616D01*
X23572Y32609D01*
X23573Y32603D01*
X23573Y32602D01*
X23573Y32600D01*
X23575Y32594D01*
X23577Y32588D01*
X23578Y32587D01*
X23578Y32586D01*
X23582Y32580D01*
X23585Y32574D01*
X23586Y32573D01*
X23586Y32572D01*
X23591Y32567D01*
X23595Y32562D01*
X23596Y32561D01*
X23597Y32560D01*
X23602Y32556D01*
X23607Y32552D01*
X23608Y32551D01*
X23609Y32551D01*
X23620Y32545D01*
X23694Y32515D01*
X23698Y32511D01*
X23699Y32510D01*
X23705Y32505D01*
X23710Y32501D01*
X23711Y32500D01*
X23718Y32497D01*
X23724Y32493D01*
X23725Y32493D01*
X23732Y32491D01*
X23740Y32489D01*
X23748Y32488D01*
X23755Y32487D01*
X23756Y32487D01*
X23764Y32488D01*
X23771Y32489D01*
X23772Y32489D01*
X23779Y32492D01*
X23786Y32494D01*
X23787Y32494D01*
X23793Y32498D01*
X23800Y32502D01*
X23806Y32507D01*
X23812Y32512D01*
X23812Y32513D01*
X23817Y32519D01*
X23821Y32524D01*
X23822Y32525D01*
X23825Y32532D01*
X23828Y32539D01*
X23829Y32540D01*
X23831Y32547D01*
X23832Y32554D01*
X23833Y32555D01*
X23834Y32567D01*
X23834Y32778D01*
X23950Y33059D01*
X24165Y33274D01*
X24446Y33391D01*
X24751Y33391D01*
X25032Y33274D01*
X25247Y33059D01*
X25363Y32778D01*
X25363Y32474D01*
X25247Y32193D01*
X25112Y32058D01*
X25112Y32057D01*
X25111Y32057D01*
X25107Y32051D01*
X25102Y32046D01*
X25102Y32045D01*
X25101Y32044D01*
X25098Y32038D01*
X25095Y32032D01*
X25095Y32031D01*
X25094Y32030D01*
X25092Y32023D01*
X25090Y32017D01*
X25090Y32016D01*
X25090Y32015D01*
X25090Y32008D01*
X25089Y32001D01*
X25089Y32000D01*
X25089Y31999D01*
X25090Y31992D01*
X25091Y31985D01*
X25091Y31984D01*
X25091Y31983D01*
X25093Y31977D01*
X25096Y31970D01*
X25096Y31969D01*
X25100Y31963D01*
X25103Y31957D01*
X25104Y31956D01*
X25104Y31955D01*
X25112Y31946D01*
X25247Y31811D01*
X25363Y31530D01*
X25363Y31226D01*
X25247Y30945D01*
X25032Y30729D01*
X24751Y30613D01*
X24446Y30613D01*
G37*
%LPD*%
%LPC*%
G36*
X9956Y779D02*
X9956Y779D01*
X9875Y813D01*
X9313Y1375D01*
X9308Y1387D01*
X9307Y1389D01*
X9306Y1390D01*
X9303Y1396D01*
X9300Y1401D01*
X9299Y1402D01*
X9298Y1404D01*
X9291Y1413D01*
X7624Y3079D01*
X7623Y3080D01*
X7622Y3081D01*
X7617Y3085D01*
X7612Y3089D01*
X7611Y3090D01*
X7610Y3091D01*
X7604Y3094D01*
X7598Y3097D01*
X7597Y3097D01*
X7595Y3098D01*
X7589Y3099D01*
X7583Y3101D01*
X7582Y3101D01*
X7580Y3102D01*
X7568Y3102D01*
X7065Y3102D01*
X6913Y3165D01*
X6797Y3282D01*
X6734Y3434D01*
X6734Y3598D01*
X6797Y3750D01*
X6913Y3866D01*
X7065Y3929D01*
X7935Y3929D01*
X8087Y3866D01*
X8203Y3750D01*
X8266Y3598D01*
X8266Y3434D01*
X8203Y3282D01*
X8181Y3259D01*
X8180Y3259D01*
X8179Y3258D01*
X8175Y3253D01*
X8171Y3247D01*
X8170Y3246D01*
X8166Y3239D01*
X8163Y3233D01*
X8163Y3232D01*
X8163Y3231D01*
X8161Y3225D01*
X8159Y3218D01*
X8159Y3217D01*
X8158Y3216D01*
X8158Y3209D01*
X8157Y3202D01*
X8157Y3201D01*
X8157Y3200D01*
X8158Y3194D01*
X8159Y3187D01*
X8159Y3186D01*
X8160Y3185D01*
X8162Y3178D01*
X8164Y3172D01*
X8164Y3171D01*
X8165Y3170D01*
X8168Y3164D01*
X8172Y3158D01*
X8172Y3157D01*
X8173Y3156D01*
X8181Y3147D01*
X9614Y1714D01*
X9687Y1641D01*
X9692Y1628D01*
X9693Y1627D01*
X9694Y1625D01*
X9697Y1620D01*
X9700Y1615D01*
X9701Y1613D01*
X9702Y1612D01*
X9709Y1603D01*
X10068Y1244D01*
X10069Y1243D01*
X10070Y1242D01*
X10075Y1238D01*
X10080Y1234D01*
X10082Y1233D01*
X10083Y1232D01*
X10089Y1230D01*
X10094Y1227D01*
X10096Y1226D01*
X10097Y1226D01*
X10103Y1224D01*
X10110Y1222D01*
X10111Y1222D01*
X10112Y1222D01*
X10124Y1221D01*
X14876Y1221D01*
X14877Y1221D01*
X14879Y1221D01*
X14885Y1222D01*
X14891Y1222D01*
X14893Y1223D01*
X14894Y1223D01*
X14900Y1225D01*
X14907Y1227D01*
X14908Y1228D01*
X14909Y1228D01*
X14915Y1231D01*
X14920Y1235D01*
X14921Y1235D01*
X14923Y1236D01*
X14932Y1244D01*
X16756Y3068D01*
X16757Y3069D01*
X16758Y3070D01*
X16762Y3075D01*
X16766Y3080D01*
X16767Y3082D01*
X16768Y3083D01*
X16770Y3089D01*
X16773Y3094D01*
X16774Y3096D01*
X16774Y3097D01*
X16776Y3103D01*
X16778Y3110D01*
X16778Y3111D01*
X16778Y3112D01*
X16779Y3124D01*
X16779Y9378D01*
X16779Y9379D01*
X16779Y9381D01*
X16778Y9387D01*
X16778Y9393D01*
X16777Y9395D01*
X16777Y9396D01*
X16775Y9402D01*
X16773Y9409D01*
X16772Y9410D01*
X16772Y9411D01*
X16769Y9417D01*
X16765Y9422D01*
X16765Y9424D01*
X16764Y9425D01*
X16756Y9434D01*
X16694Y9496D01*
X16639Y9628D01*
X16639Y10372D01*
X16694Y10504D01*
X16796Y10606D01*
X16928Y10661D01*
X17072Y10661D01*
X17204Y10606D01*
X17306Y10504D01*
X17361Y10372D01*
X17361Y9628D01*
X17306Y9496D01*
X17244Y9434D01*
X17243Y9433D01*
X17242Y9432D01*
X17238Y9427D01*
X17234Y9422D01*
X17233Y9420D01*
X17232Y9419D01*
X17230Y9413D01*
X17227Y9408D01*
X17226Y9406D01*
X17226Y9405D01*
X17224Y9399D01*
X17222Y9392D01*
X17222Y9391D01*
X17222Y9390D01*
X17221Y9378D01*
X17221Y2956D01*
X17187Y2875D01*
X15125Y813D01*
X15044Y779D01*
X9956Y779D01*
G37*
%LPD*%
%LPC*%
G36*
X10940Y1779D02*
X10940Y1779D01*
X10859Y1813D01*
X10786Y1886D01*
X7624Y5048D01*
X7623Y5049D01*
X7622Y5050D01*
X7617Y5054D01*
X7612Y5058D01*
X7611Y5058D01*
X7610Y5059D01*
X7604Y5062D01*
X7598Y5065D01*
X7597Y5066D01*
X7595Y5066D01*
X7589Y5068D01*
X7583Y5070D01*
X7582Y5070D01*
X7580Y5070D01*
X7568Y5071D01*
X7065Y5071D01*
X6913Y5134D01*
X6797Y5250D01*
X6734Y5402D01*
X6734Y5566D01*
X6797Y5718D01*
X6913Y5835D01*
X7065Y5898D01*
X7935Y5898D01*
X8087Y5835D01*
X8203Y5718D01*
X8266Y5566D01*
X8266Y5402D01*
X8203Y5250D01*
X8181Y5228D01*
X8180Y5227D01*
X8179Y5227D01*
X8175Y5221D01*
X8171Y5216D01*
X8170Y5215D01*
X8170Y5214D01*
X8166Y5208D01*
X8163Y5202D01*
X8163Y5201D01*
X8163Y5200D01*
X8161Y5193D01*
X8159Y5187D01*
X8159Y5186D01*
X8158Y5185D01*
X8158Y5178D01*
X8157Y5171D01*
X8157Y5170D01*
X8157Y5169D01*
X8158Y5162D01*
X8159Y5155D01*
X8159Y5154D01*
X8160Y5153D01*
X8162Y5147D01*
X8164Y5140D01*
X8164Y5139D01*
X8165Y5138D01*
X8168Y5132D01*
X8172Y5126D01*
X8173Y5125D01*
X8181Y5116D01*
X11052Y2244D01*
X11054Y2243D01*
X11055Y2242D01*
X11060Y2238D01*
X11065Y2234D01*
X11066Y2233D01*
X11067Y2232D01*
X11073Y2230D01*
X11079Y2227D01*
X11080Y2226D01*
X11081Y2226D01*
X11088Y2224D01*
X11094Y2222D01*
X11095Y2222D01*
X11097Y2222D01*
X11109Y2221D01*
X14376Y2221D01*
X14377Y2221D01*
X14379Y2221D01*
X14385Y2222D01*
X14391Y2222D01*
X14393Y2223D01*
X14394Y2223D01*
X14400Y2225D01*
X14407Y2227D01*
X14408Y2228D01*
X14409Y2228D01*
X14415Y2231D01*
X14420Y2235D01*
X14421Y2235D01*
X14423Y2236D01*
X14432Y2244D01*
X15756Y3568D01*
X15757Y3569D01*
X15758Y3570D01*
X15762Y3575D01*
X15766Y3580D01*
X15767Y3582D01*
X15768Y3583D01*
X15770Y3589D01*
X15773Y3594D01*
X15774Y3596D01*
X15774Y3597D01*
X15776Y3603D01*
X15778Y3610D01*
X15778Y3611D01*
X15778Y3612D01*
X15779Y3624D01*
X15779Y9378D01*
X15779Y9379D01*
X15779Y9381D01*
X15778Y9387D01*
X15778Y9393D01*
X15777Y9395D01*
X15777Y9396D01*
X15775Y9402D01*
X15773Y9409D01*
X15772Y9410D01*
X15772Y9411D01*
X15769Y9417D01*
X15765Y9422D01*
X15765Y9424D01*
X15764Y9425D01*
X15756Y9434D01*
X15694Y9496D01*
X15639Y9628D01*
X15639Y10372D01*
X15694Y10504D01*
X15796Y10606D01*
X15928Y10661D01*
X16072Y10661D01*
X16204Y10606D01*
X16306Y10504D01*
X16361Y10372D01*
X16361Y9628D01*
X16306Y9496D01*
X16244Y9434D01*
X16243Y9433D01*
X16242Y9432D01*
X16238Y9427D01*
X16234Y9422D01*
X16233Y9420D01*
X16232Y9419D01*
X16230Y9413D01*
X16227Y9408D01*
X16226Y9406D01*
X16226Y9405D01*
X16224Y9399D01*
X16222Y9392D01*
X16222Y9391D01*
X16222Y9390D01*
X16221Y9378D01*
X16221Y3456D01*
X16187Y3375D01*
X14625Y1813D01*
X14544Y1779D01*
X10940Y1779D01*
G37*
%LPD*%
%LPC*%
G36*
X18249Y30609D02*
X18249Y30609D01*
X17968Y30726D01*
X17753Y30941D01*
X17637Y31222D01*
X17637Y31526D01*
X17753Y31807D01*
X17890Y31944D01*
X17890Y31945D01*
X17891Y31945D01*
X17895Y31951D01*
X17900Y31956D01*
X17900Y31957D01*
X17901Y31958D01*
X17904Y31964D01*
X17907Y31970D01*
X17907Y31971D01*
X17908Y31972D01*
X17910Y31979D01*
X17912Y31985D01*
X17912Y31986D01*
X17912Y31987D01*
X17912Y31994D01*
X17913Y32001D01*
X17913Y32002D01*
X17913Y32003D01*
X17912Y32010D01*
X17911Y32017D01*
X17911Y32018D01*
X17911Y32019D01*
X17908Y32025D01*
X17906Y32032D01*
X17906Y32033D01*
X17902Y32039D01*
X17899Y32045D01*
X17898Y32046D01*
X17898Y32047D01*
X17890Y32056D01*
X17753Y32193D01*
X17637Y32474D01*
X17637Y32778D01*
X17753Y33059D01*
X17968Y33274D01*
X18249Y33391D01*
X18554Y33391D01*
X18835Y33274D01*
X19050Y33059D01*
X19166Y32778D01*
X19166Y32567D01*
X19167Y32566D01*
X19167Y32558D01*
X19168Y32551D01*
X19168Y32550D01*
X19171Y32543D01*
X19173Y32536D01*
X19173Y32535D01*
X19177Y32529D01*
X19180Y32522D01*
X19181Y32522D01*
X19181Y32521D01*
X19186Y32516D01*
X19190Y32510D01*
X19191Y32510D01*
X19191Y32509D01*
X19197Y32505D01*
X19203Y32500D01*
X19204Y32500D01*
X19210Y32496D01*
X19217Y32493D01*
X19218Y32493D01*
X19225Y32491D01*
X19232Y32489D01*
X19233Y32488D01*
X19240Y32488D01*
X19248Y32487D01*
X19249Y32487D01*
X19256Y32488D01*
X19263Y32489D01*
X19264Y32490D01*
X19271Y32492D01*
X19278Y32494D01*
X19279Y32495D01*
X19286Y32499D01*
X19292Y32502D01*
X19292Y32503D01*
X19293Y32503D01*
X19302Y32511D01*
X19306Y32515D01*
X19529Y32607D01*
X19770Y32607D01*
X19993Y32515D01*
X20164Y32344D01*
X20257Y32121D01*
X20257Y31879D01*
X20164Y31656D01*
X19993Y31485D01*
X19770Y31393D01*
X19529Y31393D01*
X19306Y31485D01*
X19302Y31489D01*
X19301Y31490D01*
X19295Y31495D01*
X19290Y31499D01*
X19289Y31500D01*
X19282Y31503D01*
X19276Y31507D01*
X19275Y31507D01*
X19268Y31509D01*
X19260Y31511D01*
X19252Y31512D01*
X19245Y31513D01*
X19244Y31513D01*
X19236Y31512D01*
X19229Y31511D01*
X19228Y31511D01*
X19221Y31508D01*
X19214Y31506D01*
X19213Y31506D01*
X19207Y31502D01*
X19200Y31498D01*
X19194Y31493D01*
X19188Y31488D01*
X19188Y31487D01*
X19183Y31481D01*
X19179Y31476D01*
X19178Y31475D01*
X19175Y31468D01*
X19172Y31461D01*
X19171Y31460D01*
X19169Y31453D01*
X19168Y31446D01*
X19167Y31445D01*
X19166Y31433D01*
X19166Y31222D01*
X19050Y30941D01*
X18835Y30726D01*
X18554Y30609D01*
X18249Y30609D01*
G37*
%LPD*%
%LPC*%
G36*
X32458Y18290D02*
X32458Y18290D01*
X32381Y18322D01*
X32322Y18381D01*
X32290Y18458D01*
X32290Y18542D01*
X32322Y18619D01*
X32336Y18633D01*
X32337Y18634D01*
X32338Y18635D01*
X32342Y18640D01*
X32346Y18645D01*
X32347Y18646D01*
X32348Y18647D01*
X32350Y18653D01*
X32353Y18659D01*
X32354Y18660D01*
X32354Y18661D01*
X32356Y18668D01*
X32358Y18674D01*
X32358Y18675D01*
X32358Y18677D01*
X32359Y18689D01*
X32359Y29409D01*
X32359Y29410D01*
X32359Y29412D01*
X32358Y29418D01*
X32358Y29425D01*
X32357Y29426D01*
X32357Y29427D01*
X32355Y29433D01*
X32353Y29440D01*
X32352Y29441D01*
X32352Y29442D01*
X32349Y29448D01*
X32345Y29454D01*
X32345Y29455D01*
X32344Y29456D01*
X32336Y29465D01*
X31902Y29899D01*
X31901Y29900D01*
X31900Y29901D01*
X31895Y29905D01*
X31890Y29909D01*
X31888Y29910D01*
X31887Y29911D01*
X31881Y29913D01*
X31876Y29916D01*
X31874Y29917D01*
X31873Y29917D01*
X31867Y29919D01*
X31861Y29921D01*
X31859Y29921D01*
X31858Y29921D01*
X31846Y29922D01*
X30303Y29922D01*
X30302Y29922D01*
X30301Y29922D01*
X30294Y29921D01*
X30287Y29921D01*
X30286Y29920D01*
X30285Y29920D01*
X30279Y29918D01*
X30272Y29916D01*
X30271Y29915D01*
X30270Y29915D01*
X30264Y29912D01*
X30258Y29908D01*
X30257Y29908D01*
X30256Y29907D01*
X30251Y29903D01*
X30246Y29898D01*
X30245Y29897D01*
X30241Y29891D01*
X30236Y29886D01*
X30236Y29885D01*
X30235Y29884D01*
X30230Y29873D01*
X30224Y29860D01*
X30124Y29760D01*
X29992Y29705D01*
X29850Y29705D01*
X29719Y29760D01*
X29618Y29860D01*
X29564Y29992D01*
X29564Y30134D01*
X29618Y30266D01*
X29719Y30366D01*
X29850Y30421D01*
X29992Y30421D01*
X30124Y30366D01*
X30224Y30266D01*
X30230Y30253D01*
X30230Y30252D01*
X30231Y30250D01*
X30234Y30245D01*
X30237Y30239D01*
X30238Y30238D01*
X30239Y30237D01*
X30243Y30232D01*
X30247Y30227D01*
X30248Y30226D01*
X30249Y30225D01*
X30254Y30221D01*
X30260Y30217D01*
X30261Y30216D01*
X30262Y30215D01*
X30268Y30212D01*
X30274Y30209D01*
X30275Y30209D01*
X30276Y30209D01*
X30282Y30207D01*
X30289Y30205D01*
X30290Y30205D01*
X30291Y30205D01*
X30303Y30204D01*
X31995Y30204D01*
X32641Y29558D01*
X32641Y18689D01*
X32641Y18687D01*
X32641Y18686D01*
X32642Y18679D01*
X32642Y18673D01*
X32643Y18671D01*
X32643Y18670D01*
X32645Y18664D01*
X32647Y18658D01*
X32648Y18656D01*
X32648Y18655D01*
X32651Y18650D01*
X32655Y18644D01*
X32655Y18643D01*
X32656Y18642D01*
X32664Y18633D01*
X32678Y18619D01*
X32710Y18542D01*
X32710Y18458D01*
X32678Y18381D01*
X32619Y18322D01*
X32542Y18290D01*
X32458Y18290D01*
G37*
%LPD*%
%LPC*%
G36*
X25428Y5639D02*
X25428Y5639D01*
X25296Y5694D01*
X25194Y5796D01*
X25139Y5928D01*
X25139Y6072D01*
X25194Y6204D01*
X25296Y6306D01*
X25428Y6361D01*
X25572Y6361D01*
X25586Y6355D01*
X25588Y6354D01*
X25589Y6354D01*
X25595Y6352D01*
X25602Y6350D01*
X25603Y6350D01*
X25604Y6350D01*
X25611Y6349D01*
X25617Y6349D01*
X25618Y6349D01*
X25620Y6349D01*
X25626Y6350D01*
X25633Y6350D01*
X25634Y6351D01*
X25635Y6351D01*
X25642Y6353D01*
X25648Y6355D01*
X25649Y6356D01*
X25650Y6356D01*
X25656Y6359D01*
X25662Y6363D01*
X25663Y6363D01*
X25664Y6364D01*
X25673Y6372D01*
X27836Y8535D01*
X27837Y8536D01*
X27838Y8537D01*
X27842Y8542D01*
X27846Y8547D01*
X27847Y8549D01*
X27848Y8550D01*
X27850Y8556D01*
X27853Y8561D01*
X27854Y8563D01*
X27854Y8564D01*
X27856Y8570D01*
X27858Y8576D01*
X27858Y8578D01*
X27858Y8579D01*
X27859Y8591D01*
X27859Y15558D01*
X27965Y15664D01*
X28399Y16098D01*
X28505Y16204D01*
X28540Y16204D01*
X28541Y16204D01*
X28542Y16204D01*
X28549Y16205D01*
X28555Y16205D01*
X28556Y16206D01*
X28558Y16206D01*
X28564Y16208D01*
X28570Y16210D01*
X28571Y16211D01*
X28573Y16211D01*
X28578Y16214D01*
X28584Y16218D01*
X28585Y16218D01*
X28586Y16219D01*
X28591Y16223D01*
X28596Y16228D01*
X28597Y16229D01*
X28598Y16229D01*
X28602Y16235D01*
X28606Y16240D01*
X28607Y16241D01*
X28607Y16242D01*
X28613Y16253D01*
X28618Y16266D01*
X28719Y16366D01*
X28850Y16421D01*
X28992Y16421D01*
X29124Y16366D01*
X29224Y16266D01*
X29279Y16134D01*
X29279Y15992D01*
X29224Y15860D01*
X29124Y15760D01*
X28992Y15705D01*
X28850Y15705D01*
X28719Y15760D01*
X28645Y15834D01*
X28644Y15834D01*
X28643Y15835D01*
X28638Y15839D01*
X28633Y15844D01*
X28632Y15844D01*
X28631Y15845D01*
X28625Y15848D01*
X28619Y15851D01*
X28618Y15851D01*
X28617Y15852D01*
X28610Y15854D01*
X28604Y15856D01*
X28603Y15856D01*
X28602Y15856D01*
X28595Y15856D01*
X28588Y15857D01*
X28587Y15857D01*
X28586Y15857D01*
X28579Y15856D01*
X28572Y15855D01*
X28571Y15855D01*
X28570Y15855D01*
X28564Y15852D01*
X28557Y15850D01*
X28556Y15850D01*
X28555Y15850D01*
X28549Y15846D01*
X28543Y15843D01*
X28543Y15842D01*
X28542Y15841D01*
X28533Y15834D01*
X28164Y15465D01*
X28163Y15464D01*
X28163Y15463D01*
X28162Y15463D01*
X28158Y15458D01*
X28154Y15453D01*
X28154Y15452D01*
X28153Y15452D01*
X28153Y15451D01*
X28152Y15450D01*
X28150Y15444D01*
X28147Y15439D01*
X28146Y15438D01*
X28146Y15437D01*
X28146Y15436D01*
X28144Y15430D01*
X28142Y15424D01*
X28142Y15423D01*
X28142Y15422D01*
X28142Y15421D01*
X28141Y15409D01*
X28141Y8442D01*
X25872Y6173D01*
X25871Y6172D01*
X25870Y6171D01*
X25866Y6166D01*
X25862Y6161D01*
X25861Y6159D01*
X25858Y6153D01*
X25854Y6147D01*
X25854Y6145D01*
X25854Y6144D01*
X25852Y6138D01*
X25850Y6132D01*
X25850Y6130D01*
X25850Y6129D01*
X25849Y6122D01*
X25849Y6116D01*
X25849Y6115D01*
X25849Y6113D01*
X25850Y6107D01*
X25850Y6100D01*
X25851Y6099D01*
X25851Y6098D01*
X25855Y6086D01*
X25861Y6072D01*
X25861Y5928D01*
X25806Y5796D01*
X25704Y5694D01*
X25572Y5639D01*
X25428Y5639D01*
G37*
%LPD*%
%LPC*%
G36*
X20192Y14359D02*
X20192Y14359D01*
X20086Y14465D01*
X19670Y14881D01*
X19669Y14881D01*
X19669Y14882D01*
X19663Y14886D01*
X19658Y14891D01*
X19657Y14891D01*
X19656Y14892D01*
X19650Y14895D01*
X19644Y14898D01*
X19643Y14898D01*
X19642Y14899D01*
X19636Y14900D01*
X19629Y14902D01*
X19628Y14902D01*
X19627Y14903D01*
X19620Y14903D01*
X19613Y14904D01*
X19612Y14904D01*
X19611Y14904D01*
X19604Y14903D01*
X19598Y14902D01*
X19597Y14902D01*
X19595Y14901D01*
X19584Y14898D01*
X19571Y14892D01*
X19429Y14892D01*
X19297Y14947D01*
X19197Y15047D01*
X19142Y15179D01*
X19142Y15321D01*
X19197Y15453D01*
X19297Y15553D01*
X19429Y15608D01*
X19571Y15608D01*
X19703Y15553D01*
X19803Y15453D01*
X19858Y15321D01*
X19858Y15179D01*
X19852Y15166D01*
X19852Y15165D01*
X19851Y15164D01*
X19850Y15157D01*
X19848Y15151D01*
X19848Y15150D01*
X19847Y15148D01*
X19847Y15142D01*
X19846Y15135D01*
X19846Y15134D01*
X19846Y15133D01*
X19847Y15126D01*
X19848Y15119D01*
X19848Y15118D01*
X19848Y15117D01*
X19851Y15111D01*
X19853Y15104D01*
X19853Y15103D01*
X19854Y15102D01*
X19857Y15096D01*
X19860Y15091D01*
X19861Y15090D01*
X19862Y15089D01*
X19869Y15080D01*
X20285Y14664D01*
X20286Y14663D01*
X20287Y14662D01*
X20292Y14658D01*
X20297Y14654D01*
X20299Y14653D01*
X20300Y14652D01*
X20306Y14650D01*
X20311Y14647D01*
X20313Y14646D01*
X20314Y14646D01*
X20320Y14644D01*
X20326Y14642D01*
X20328Y14642D01*
X20329Y14642D01*
X20341Y14641D01*
X26267Y14641D01*
X26269Y14641D01*
X26270Y14641D01*
X26276Y14642D01*
X26283Y14642D01*
X26284Y14643D01*
X26286Y14643D01*
X26292Y14645D01*
X26298Y14647D01*
X26299Y14648D01*
X26301Y14648D01*
X26306Y14651D01*
X26312Y14655D01*
X26313Y14655D01*
X26314Y14656D01*
X26323Y14664D01*
X28552Y16893D01*
X28553Y16894D01*
X28554Y16894D01*
X28558Y16900D01*
X28562Y16905D01*
X28562Y16906D01*
X28563Y16907D01*
X28566Y16913D01*
X28569Y16919D01*
X28570Y16920D01*
X28570Y16921D01*
X28572Y16927D01*
X28574Y16934D01*
X28574Y16935D01*
X28574Y16936D01*
X28574Y16943D01*
X28575Y16950D01*
X28575Y16951D01*
X28575Y16952D01*
X28574Y16959D01*
X28573Y16965D01*
X28573Y16966D01*
X28573Y16968D01*
X28569Y16979D01*
X28564Y16992D01*
X28564Y17134D01*
X28618Y17266D01*
X28719Y17366D01*
X28850Y17421D01*
X28992Y17421D01*
X29124Y17366D01*
X29224Y17266D01*
X29279Y17134D01*
X29279Y16992D01*
X29224Y16860D01*
X29124Y16760D01*
X28992Y16705D01*
X28850Y16705D01*
X28837Y16711D01*
X28836Y16711D01*
X28835Y16712D01*
X28829Y16713D01*
X28822Y16715D01*
X28821Y16715D01*
X28820Y16716D01*
X28813Y16716D01*
X28806Y16717D01*
X28805Y16717D01*
X28804Y16717D01*
X28797Y16716D01*
X28791Y16715D01*
X28790Y16715D01*
X28788Y16715D01*
X28782Y16712D01*
X28776Y16710D01*
X28775Y16710D01*
X28773Y16709D01*
X28768Y16706D01*
X28762Y16703D01*
X28761Y16702D01*
X28760Y16701D01*
X28751Y16694D01*
X26522Y14465D01*
X26417Y14359D01*
X20192Y14359D01*
G37*
%LPD*%
%LPC*%
G36*
X20429Y14892D02*
X20429Y14892D01*
X20297Y14947D01*
X20197Y15047D01*
X20142Y15179D01*
X20142Y15321D01*
X20197Y15453D01*
X20297Y15553D01*
X20429Y15608D01*
X20571Y15608D01*
X20584Y15602D01*
X20585Y15602D01*
X20586Y15601D01*
X20593Y15600D01*
X20599Y15598D01*
X20600Y15598D01*
X20602Y15597D01*
X20608Y15597D01*
X20615Y15596D01*
X20616Y15596D01*
X20617Y15596D01*
X20624Y15597D01*
X20631Y15598D01*
X20632Y15598D01*
X20633Y15598D01*
X20639Y15601D01*
X20646Y15603D01*
X20647Y15603D01*
X20648Y15604D01*
X20654Y15607D01*
X20659Y15610D01*
X20660Y15611D01*
X20661Y15612D01*
X20670Y15619D01*
X23149Y18098D01*
X23255Y18204D01*
X28540Y18204D01*
X28541Y18204D01*
X28542Y18204D01*
X28549Y18205D01*
X28555Y18205D01*
X28556Y18206D01*
X28558Y18206D01*
X28564Y18208D01*
X28570Y18210D01*
X28571Y18211D01*
X28573Y18211D01*
X28578Y18214D01*
X28584Y18218D01*
X28585Y18218D01*
X28586Y18219D01*
X28591Y18223D01*
X28596Y18228D01*
X28597Y18229D01*
X28598Y18229D01*
X28602Y18235D01*
X28606Y18240D01*
X28607Y18241D01*
X28607Y18242D01*
X28613Y18253D01*
X28618Y18266D01*
X28719Y18366D01*
X28850Y18421D01*
X28992Y18421D01*
X29124Y18366D01*
X29224Y18266D01*
X29279Y18134D01*
X29279Y17992D01*
X29224Y17860D01*
X29124Y17760D01*
X28992Y17705D01*
X28850Y17705D01*
X28719Y17760D01*
X28618Y17860D01*
X28613Y17873D01*
X28612Y17874D01*
X28612Y17876D01*
X28608Y17881D01*
X28605Y17887D01*
X28605Y17888D01*
X28604Y17889D01*
X28599Y17894D01*
X28595Y17899D01*
X28594Y17900D01*
X28593Y17901D01*
X28588Y17905D01*
X28583Y17909D01*
X28582Y17910D01*
X28581Y17911D01*
X28575Y17913D01*
X28569Y17917D01*
X28568Y17917D01*
X28567Y17917D01*
X28560Y17919D01*
X28554Y17921D01*
X28553Y17921D01*
X28551Y17921D01*
X28540Y17922D01*
X23404Y17922D01*
X23403Y17922D01*
X23401Y17922D01*
X23395Y17921D01*
X23388Y17921D01*
X23387Y17920D01*
X23386Y17920D01*
X23379Y17918D01*
X23373Y17916D01*
X23372Y17915D01*
X23371Y17915D01*
X23365Y17912D01*
X23359Y17908D01*
X23358Y17908D01*
X23357Y17907D01*
X23348Y17899D01*
X20869Y15420D01*
X20869Y15419D01*
X20868Y15419D01*
X20864Y15413D01*
X20859Y15408D01*
X20859Y15407D01*
X20858Y15406D01*
X20855Y15400D01*
X20852Y15394D01*
X20852Y15393D01*
X20851Y15392D01*
X20850Y15386D01*
X20848Y15379D01*
X20848Y15378D01*
X20847Y15377D01*
X20847Y15370D01*
X20846Y15363D01*
X20846Y15362D01*
X20846Y15361D01*
X20847Y15354D01*
X20848Y15348D01*
X20848Y15347D01*
X20849Y15345D01*
X20852Y15334D01*
X20858Y15321D01*
X20858Y15179D01*
X20803Y15047D01*
X20703Y14947D01*
X20571Y14892D01*
X20429Y14892D01*
G37*
%LPD*%
%LPC*%
G36*
X18928Y9339D02*
X18928Y9339D01*
X18796Y9394D01*
X18694Y9496D01*
X18639Y9628D01*
X18639Y10372D01*
X18694Y10504D01*
X18796Y10606D01*
X18810Y10612D01*
X18811Y10612D01*
X18813Y10613D01*
X18818Y10616D01*
X18824Y10619D01*
X18825Y10620D01*
X18826Y10621D01*
X18831Y10625D01*
X18836Y10629D01*
X18837Y10630D01*
X18838Y10631D01*
X18842Y10637D01*
X18846Y10642D01*
X18847Y10643D01*
X18848Y10644D01*
X18851Y10650D01*
X18854Y10656D01*
X18854Y10657D01*
X18854Y10658D01*
X18856Y10664D01*
X18858Y10671D01*
X18858Y10672D01*
X18858Y10673D01*
X18859Y10685D01*
X18859Y13659D01*
X18859Y13660D01*
X18859Y13662D01*
X18858Y13668D01*
X18858Y13675D01*
X18857Y13676D01*
X18857Y13677D01*
X18855Y13683D01*
X18853Y13690D01*
X18852Y13691D01*
X18852Y13692D01*
X18849Y13698D01*
X18845Y13704D01*
X18845Y13705D01*
X18844Y13706D01*
X18836Y13715D01*
X17670Y14881D01*
X17669Y14881D01*
X17669Y14882D01*
X17663Y14886D01*
X17658Y14891D01*
X17657Y14891D01*
X17656Y14892D01*
X17650Y14895D01*
X17644Y14898D01*
X17643Y14898D01*
X17642Y14899D01*
X17636Y14900D01*
X17629Y14902D01*
X17628Y14902D01*
X17627Y14903D01*
X17620Y14903D01*
X17613Y14904D01*
X17612Y14904D01*
X17611Y14904D01*
X17604Y14903D01*
X17598Y14902D01*
X17597Y14902D01*
X17595Y14901D01*
X17584Y14898D01*
X17571Y14892D01*
X17429Y14892D01*
X17297Y14947D01*
X17197Y15047D01*
X17142Y15179D01*
X17142Y15321D01*
X17197Y15453D01*
X17297Y15553D01*
X17429Y15608D01*
X17571Y15608D01*
X17703Y15553D01*
X17803Y15453D01*
X17858Y15321D01*
X17858Y15179D01*
X17852Y15166D01*
X17852Y15165D01*
X17851Y15164D01*
X17850Y15157D01*
X17848Y15151D01*
X17848Y15150D01*
X17847Y15148D01*
X17847Y15142D01*
X17846Y15135D01*
X17846Y15134D01*
X17846Y15133D01*
X17847Y15126D01*
X17848Y15119D01*
X17848Y15118D01*
X17848Y15117D01*
X17851Y15111D01*
X17853Y15104D01*
X17853Y15103D01*
X17854Y15102D01*
X17857Y15096D01*
X17860Y15091D01*
X17861Y15090D01*
X17862Y15089D01*
X17869Y15080D01*
X19035Y13914D01*
X19141Y13808D01*
X19141Y10685D01*
X19141Y10684D01*
X19141Y10683D01*
X19142Y10676D01*
X19142Y10669D01*
X19143Y10668D01*
X19143Y10667D01*
X19145Y10661D01*
X19147Y10654D01*
X19148Y10653D01*
X19148Y10652D01*
X19151Y10646D01*
X19155Y10640D01*
X19156Y10638D01*
X19160Y10634D01*
X19165Y10628D01*
X19166Y10628D01*
X19166Y10627D01*
X19172Y10623D01*
X19177Y10619D01*
X19178Y10618D01*
X19179Y10617D01*
X19190Y10612D01*
X19204Y10606D01*
X19306Y10504D01*
X19361Y10372D01*
X19361Y9628D01*
X19306Y9496D01*
X19204Y9394D01*
X19072Y9339D01*
X18928Y9339D01*
G37*
%LPD*%
%LPC*%
G36*
X11175Y6639D02*
X11175Y6639D01*
X11139Y6675D01*
X11139Y7325D01*
X11175Y7361D01*
X11230Y7361D01*
X11231Y7361D01*
X11232Y7361D01*
X11239Y7362D01*
X11246Y7362D01*
X11247Y7363D01*
X11248Y7363D01*
X11254Y7365D01*
X11261Y7367D01*
X11262Y7367D01*
X11263Y7368D01*
X11269Y7371D01*
X11275Y7375D01*
X11276Y7376D01*
X11281Y7380D01*
X11287Y7385D01*
X11288Y7386D01*
X11292Y7392D01*
X11297Y7397D01*
X11297Y7398D01*
X11298Y7399D01*
X11301Y7405D01*
X11304Y7411D01*
X11304Y7412D01*
X11304Y7413D01*
X11306Y7420D01*
X11308Y7426D01*
X11308Y7427D01*
X11308Y7428D01*
X11309Y7440D01*
X11309Y7560D01*
X11309Y7561D01*
X11309Y7562D01*
X11308Y7569D01*
X11308Y7576D01*
X11307Y7577D01*
X11307Y7578D01*
X11305Y7584D01*
X11303Y7591D01*
X11303Y7592D01*
X11302Y7593D01*
X11299Y7599D01*
X11295Y7605D01*
X11294Y7606D01*
X11290Y7611D01*
X11285Y7617D01*
X11284Y7618D01*
X11278Y7622D01*
X11273Y7627D01*
X11272Y7627D01*
X11271Y7628D01*
X11265Y7631D01*
X11259Y7634D01*
X11258Y7634D01*
X11257Y7634D01*
X11250Y7636D01*
X11244Y7638D01*
X11243Y7638D01*
X11242Y7638D01*
X11230Y7639D01*
X11175Y7639D01*
X11139Y7675D01*
X11139Y8325D01*
X11175Y8361D01*
X11825Y8361D01*
X11861Y8325D01*
X11861Y8270D01*
X11861Y8269D01*
X11861Y8268D01*
X11862Y8261D01*
X11862Y8254D01*
X11863Y8253D01*
X11863Y8252D01*
X11865Y8246D01*
X11867Y8239D01*
X11867Y8238D01*
X11868Y8237D01*
X11871Y8231D01*
X11875Y8225D01*
X11876Y8224D01*
X11880Y8219D01*
X11885Y8213D01*
X11886Y8212D01*
X11892Y8208D01*
X11897Y8203D01*
X11898Y8203D01*
X11899Y8202D01*
X11905Y8199D01*
X11911Y8196D01*
X11912Y8196D01*
X11913Y8196D01*
X11920Y8194D01*
X11926Y8192D01*
X11927Y8192D01*
X11928Y8192D01*
X11940Y8191D01*
X12655Y8191D01*
X12691Y8155D01*
X12691Y6845D01*
X12655Y6809D01*
X11940Y6809D01*
X11939Y6809D01*
X11938Y6809D01*
X11931Y6808D01*
X11924Y6808D01*
X11923Y6807D01*
X11922Y6807D01*
X11916Y6805D01*
X11909Y6803D01*
X11908Y6803D01*
X11907Y6802D01*
X11901Y6799D01*
X11895Y6795D01*
X11894Y6794D01*
X11889Y6790D01*
X11883Y6785D01*
X11882Y6784D01*
X11878Y6778D01*
X11873Y6773D01*
X11873Y6772D01*
X11872Y6771D01*
X11869Y6765D01*
X11866Y6759D01*
X11866Y6758D01*
X11866Y6757D01*
X11864Y6750D01*
X11862Y6744D01*
X11862Y6743D01*
X11862Y6742D01*
X11861Y6730D01*
X11861Y6675D01*
X11825Y6639D01*
X11175Y6639D01*
G37*
%LPD*%
%LPC*%
G36*
X23835Y2169D02*
X23835Y2169D01*
X23529Y2296D01*
X23296Y2529D01*
X23169Y2835D01*
X23169Y3165D01*
X23296Y3471D01*
X23529Y3704D01*
X23835Y3831D01*
X24165Y3831D01*
X24471Y3704D01*
X24704Y3471D01*
X24831Y3165D01*
X24831Y2835D01*
X24704Y2529D01*
X24471Y2296D01*
X24165Y2169D01*
X23835Y2169D01*
G37*
%LPD*%
%LPC*%
G36*
X11835Y11169D02*
X11835Y11169D01*
X11529Y11296D01*
X11296Y11529D01*
X11169Y11835D01*
X11169Y12165D01*
X11296Y12471D01*
X11529Y12704D01*
X11835Y12831D01*
X12165Y12831D01*
X12471Y12704D01*
X12704Y12471D01*
X12831Y12165D01*
X12831Y11835D01*
X12704Y11529D01*
X12471Y11296D01*
X12165Y11169D01*
X11835Y11169D01*
G37*
%LPD*%
%LPC*%
G36*
X25925Y28124D02*
X25925Y28124D01*
X25787Y28181D01*
X25681Y28287D01*
X25624Y28425D01*
X25624Y28575D01*
X25681Y28713D01*
X25787Y28819D01*
X25925Y28876D01*
X26075Y28876D01*
X26213Y28819D01*
X26287Y28744D01*
X26289Y28743D01*
X26290Y28742D01*
X26295Y28738D01*
X26300Y28734D01*
X26301Y28733D01*
X26302Y28732D01*
X26308Y28730D01*
X26314Y28727D01*
X26315Y28726D01*
X26316Y28726D01*
X26323Y28724D01*
X26329Y28722D01*
X26330Y28722D01*
X26332Y28722D01*
X26343Y28721D01*
X28234Y28721D01*
X28235Y28721D01*
X28237Y28721D01*
X28243Y28722D01*
X28250Y28722D01*
X28251Y28723D01*
X28253Y28723D01*
X28259Y28725D01*
X28265Y28727D01*
X28266Y28728D01*
X28267Y28728D01*
X28273Y28731D01*
X28279Y28735D01*
X28280Y28735D01*
X28281Y28736D01*
X28290Y28744D01*
X28540Y28994D01*
X28541Y28996D01*
X28542Y28996D01*
X28546Y29002D01*
X28550Y29007D01*
X28551Y29008D01*
X28552Y29009D01*
X28555Y29015D01*
X28558Y29021D01*
X28558Y29022D01*
X28559Y29023D01*
X28560Y29030D01*
X28562Y29036D01*
X28562Y29037D01*
X28563Y29039D01*
X28564Y29050D01*
X28564Y29134D01*
X28618Y29266D01*
X28719Y29366D01*
X28850Y29421D01*
X28992Y29421D01*
X29124Y29366D01*
X29224Y29266D01*
X29279Y29134D01*
X29279Y28992D01*
X29224Y28860D01*
X29124Y28760D01*
X28992Y28705D01*
X28909Y28705D01*
X28907Y28705D01*
X28906Y28705D01*
X28899Y28704D01*
X28893Y28704D01*
X28892Y28703D01*
X28890Y28703D01*
X28884Y28701D01*
X28878Y28699D01*
X28877Y28698D01*
X28875Y28698D01*
X28870Y28695D01*
X28864Y28692D01*
X28863Y28691D01*
X28862Y28690D01*
X28853Y28682D01*
X28755Y28584D01*
X28751Y28579D01*
X28746Y28574D01*
X28746Y28573D01*
X28745Y28572D01*
X28742Y28566D01*
X28738Y28560D01*
X28738Y28559D01*
X28737Y28558D01*
X28736Y28552D01*
X28733Y28545D01*
X28733Y28544D01*
X28733Y28543D01*
X28732Y28536D01*
X28732Y28530D01*
X28732Y28529D01*
X28732Y28527D01*
X28732Y28521D01*
X28733Y28514D01*
X28733Y28513D01*
X28733Y28512D01*
X28735Y28505D01*
X28737Y28499D01*
X28738Y28498D01*
X28738Y28497D01*
X28741Y28491D01*
X28745Y28485D01*
X28745Y28484D01*
X28746Y28483D01*
X28750Y28478D01*
X28754Y28473D01*
X28755Y28472D01*
X28756Y28471D01*
X28761Y28467D01*
X28767Y28462D01*
X28768Y28462D01*
X28769Y28461D01*
X28775Y28458D01*
X28781Y28455D01*
X28782Y28455D01*
X28783Y28454D01*
X28789Y28452D01*
X28796Y28451D01*
X28797Y28450D01*
X28798Y28450D01*
X28805Y28450D01*
X28811Y28449D01*
X28813Y28449D01*
X28814Y28449D01*
X28816Y28449D01*
X28823Y28450D01*
X28824Y28450D01*
X28824Y28161D01*
X28535Y28161D01*
X28547Y28198D01*
X28548Y28203D01*
X28550Y28208D01*
X28550Y28211D01*
X28550Y28213D01*
X28550Y28218D01*
X28551Y28224D01*
X28551Y28226D01*
X28551Y28229D01*
X28550Y28234D01*
X28549Y28239D01*
X28548Y28242D01*
X28548Y28244D01*
X28546Y28249D01*
X28544Y28254D01*
X28543Y28257D01*
X28542Y28259D01*
X28539Y28263D01*
X28536Y28268D01*
X28535Y28270D01*
X28533Y28272D01*
X28529Y28276D01*
X28526Y28280D01*
X28524Y28282D01*
X28522Y28283D01*
X28518Y28286D01*
X28513Y28290D01*
X28511Y28291D01*
X28509Y28292D01*
X28504Y28294D01*
X28499Y28297D01*
X28497Y28297D01*
X28494Y28298D01*
X28489Y28299D01*
X28484Y28301D01*
X28481Y28301D01*
X28479Y28301D01*
X28473Y28301D01*
X28468Y28301D01*
X28466Y28301D01*
X28463Y28301D01*
X28458Y28300D01*
X28453Y28299D01*
X28450Y28298D01*
X28448Y28298D01*
X28445Y28297D01*
X28441Y28295D01*
X28402Y28279D01*
X26343Y28279D01*
X26342Y28279D01*
X26341Y28279D01*
X26334Y28278D01*
X26328Y28278D01*
X26326Y28277D01*
X26325Y28277D01*
X26319Y28275D01*
X26313Y28273D01*
X26311Y28272D01*
X26310Y28272D01*
X26304Y28269D01*
X26299Y28265D01*
X26298Y28265D01*
X26296Y28264D01*
X26287Y28256D01*
X26213Y28181D01*
X26075Y28124D01*
X25925Y28124D01*
G37*
%LPD*%
%LPC*%
G36*
X11428Y2639D02*
X11428Y2639D01*
X11296Y2694D01*
X11194Y2796D01*
X11139Y2928D01*
X11139Y3072D01*
X11194Y3204D01*
X11286Y3296D01*
X11287Y3297D01*
X11288Y3298D01*
X11292Y3303D01*
X11296Y3308D01*
X11297Y3310D01*
X11298Y3311D01*
X11300Y3317D01*
X11303Y3322D01*
X11304Y3324D01*
X11304Y3325D01*
X11306Y3331D01*
X11308Y3338D01*
X11308Y3339D01*
X11308Y3340D01*
X11309Y3352D01*
X11309Y3648D01*
X11309Y3649D01*
X11309Y3651D01*
X11308Y3657D01*
X11308Y3663D01*
X11307Y3665D01*
X11307Y3666D01*
X11305Y3672D01*
X11303Y3679D01*
X11302Y3680D01*
X11302Y3681D01*
X11299Y3687D01*
X11295Y3692D01*
X11295Y3694D01*
X11294Y3695D01*
X11286Y3704D01*
X11194Y3796D01*
X11139Y3928D01*
X11139Y4072D01*
X11194Y4204D01*
X11296Y4306D01*
X11428Y4361D01*
X11572Y4361D01*
X11704Y4306D01*
X11796Y4214D01*
X11797Y4213D01*
X11798Y4212D01*
X11803Y4208D01*
X11808Y4204D01*
X11810Y4203D01*
X11811Y4202D01*
X11817Y4200D01*
X11822Y4197D01*
X11824Y4196D01*
X11825Y4196D01*
X11831Y4194D01*
X11838Y4192D01*
X11839Y4192D01*
X11840Y4192D01*
X11852Y4191D01*
X12137Y4191D01*
X12391Y4086D01*
X12586Y3891D01*
X12691Y3637D01*
X12691Y3363D01*
X12586Y3109D01*
X12391Y2914D01*
X12137Y2809D01*
X11852Y2809D01*
X11851Y2809D01*
X11849Y2809D01*
X11843Y2808D01*
X11837Y2808D01*
X11835Y2807D01*
X11834Y2807D01*
X11828Y2805D01*
X11821Y2803D01*
X11820Y2802D01*
X11819Y2802D01*
X11813Y2799D01*
X11808Y2795D01*
X11806Y2795D01*
X11805Y2794D01*
X11796Y2786D01*
X11704Y2694D01*
X11572Y2639D01*
X11428Y2639D01*
G37*
%LPD*%
%LPC*%
G36*
X11428Y8639D02*
X11428Y8639D01*
X11296Y8694D01*
X11194Y8796D01*
X11139Y8928D01*
X11139Y9072D01*
X11194Y9204D01*
X11286Y9296D01*
X11287Y9297D01*
X11288Y9298D01*
X11292Y9303D01*
X11296Y9308D01*
X11297Y9310D01*
X11298Y9311D01*
X11300Y9317D01*
X11303Y9322D01*
X11304Y9324D01*
X11304Y9325D01*
X11306Y9331D01*
X11308Y9338D01*
X11308Y9339D01*
X11308Y9340D01*
X11309Y9352D01*
X11309Y9648D01*
X11309Y9649D01*
X11309Y9651D01*
X11308Y9657D01*
X11308Y9663D01*
X11307Y9665D01*
X11307Y9666D01*
X11305Y9672D01*
X11303Y9679D01*
X11302Y9680D01*
X11302Y9681D01*
X11299Y9687D01*
X11295Y9692D01*
X11295Y9694D01*
X11294Y9695D01*
X11286Y9704D01*
X11194Y9796D01*
X11139Y9928D01*
X11139Y10072D01*
X11194Y10204D01*
X11296Y10306D01*
X11428Y10361D01*
X11572Y10361D01*
X11704Y10306D01*
X11796Y10214D01*
X11797Y10213D01*
X11798Y10212D01*
X11803Y10208D01*
X11808Y10204D01*
X11810Y10203D01*
X11811Y10202D01*
X11817Y10200D01*
X11822Y10197D01*
X11824Y10196D01*
X11825Y10196D01*
X11831Y10194D01*
X11838Y10192D01*
X11839Y10192D01*
X11840Y10192D01*
X11852Y10191D01*
X12137Y10191D01*
X12391Y10086D01*
X12586Y9891D01*
X12691Y9637D01*
X12691Y9363D01*
X12586Y9109D01*
X12391Y8914D01*
X12137Y8809D01*
X11852Y8809D01*
X11851Y8809D01*
X11849Y8809D01*
X11843Y8808D01*
X11837Y8808D01*
X11835Y8807D01*
X11834Y8807D01*
X11828Y8805D01*
X11821Y8803D01*
X11820Y8802D01*
X11819Y8802D01*
X11813Y8799D01*
X11808Y8795D01*
X11806Y8795D01*
X11805Y8794D01*
X11796Y8786D01*
X11704Y8694D01*
X11572Y8639D01*
X11428Y8639D01*
G37*
%LPD*%
%LPC*%
G36*
X11428Y4639D02*
X11428Y4639D01*
X11296Y4694D01*
X11194Y4796D01*
X11139Y4928D01*
X11139Y5072D01*
X11194Y5204D01*
X11286Y5296D01*
X11287Y5297D01*
X11288Y5298D01*
X11292Y5303D01*
X11296Y5308D01*
X11297Y5310D01*
X11298Y5311D01*
X11300Y5317D01*
X11303Y5322D01*
X11304Y5324D01*
X11304Y5325D01*
X11306Y5331D01*
X11308Y5338D01*
X11308Y5339D01*
X11308Y5340D01*
X11309Y5352D01*
X11309Y5648D01*
X11309Y5649D01*
X11309Y5651D01*
X11308Y5657D01*
X11308Y5663D01*
X11307Y5665D01*
X11307Y5666D01*
X11305Y5672D01*
X11303Y5679D01*
X11302Y5680D01*
X11302Y5681D01*
X11299Y5687D01*
X11295Y5692D01*
X11295Y5694D01*
X11294Y5695D01*
X11286Y5704D01*
X11194Y5796D01*
X11139Y5928D01*
X11139Y6072D01*
X11194Y6204D01*
X11296Y6306D01*
X11428Y6361D01*
X11572Y6361D01*
X11704Y6306D01*
X11796Y6214D01*
X11797Y6213D01*
X11798Y6212D01*
X11803Y6208D01*
X11808Y6204D01*
X11810Y6203D01*
X11811Y6202D01*
X11817Y6200D01*
X11822Y6197D01*
X11824Y6196D01*
X11825Y6196D01*
X11831Y6194D01*
X11838Y6192D01*
X11839Y6192D01*
X11840Y6192D01*
X11852Y6191D01*
X12137Y6191D01*
X12391Y6086D01*
X12586Y5891D01*
X12691Y5637D01*
X12691Y5363D01*
X12586Y5109D01*
X12391Y4914D01*
X12137Y4809D01*
X11852Y4809D01*
X11851Y4809D01*
X11849Y4809D01*
X11843Y4808D01*
X11837Y4808D01*
X11835Y4807D01*
X11834Y4807D01*
X11828Y4805D01*
X11821Y4803D01*
X11820Y4802D01*
X11819Y4802D01*
X11813Y4799D01*
X11808Y4795D01*
X11806Y4795D01*
X11805Y4794D01*
X11796Y4786D01*
X11704Y4694D01*
X11572Y4639D01*
X11428Y4639D01*
G37*
%LPD*%
%LPC*%
G36*
X19928Y9339D02*
X19928Y9339D01*
X19796Y9394D01*
X19694Y9496D01*
X19639Y9628D01*
X19639Y10372D01*
X19694Y10504D01*
X19796Y10606D01*
X19928Y10661D01*
X20072Y10661D01*
X20204Y10606D01*
X20306Y10504D01*
X20361Y10372D01*
X20361Y9628D01*
X20306Y9496D01*
X20204Y9394D01*
X20072Y9339D01*
X19928Y9339D01*
G37*
%LPD*%
%LPC*%
G36*
X20928Y9339D02*
X20928Y9339D01*
X20796Y9394D01*
X20694Y9496D01*
X20639Y9628D01*
X20639Y10372D01*
X20694Y10504D01*
X20796Y10606D01*
X20928Y10661D01*
X21072Y10661D01*
X21204Y10606D01*
X21306Y10504D01*
X21361Y10372D01*
X21361Y9628D01*
X21306Y9496D01*
X21204Y9394D01*
X21072Y9339D01*
X20928Y9339D01*
G37*
%LPD*%
%LPC*%
G36*
X29599Y31705D02*
X29599Y31705D01*
X29564Y31741D01*
X29564Y32385D01*
X29599Y32421D01*
X30243Y32421D01*
X30279Y32385D01*
X30279Y31741D01*
X30243Y31705D01*
X29599Y31705D01*
G37*
%LPD*%
%LPC*%
G36*
X5599Y31705D02*
X5599Y31705D01*
X5564Y31741D01*
X5564Y32385D01*
X5599Y32421D01*
X6243Y32421D01*
X6279Y32385D01*
X6279Y31741D01*
X6243Y31705D01*
X5599Y31705D01*
G37*
%LPD*%
%LPC*%
G36*
X16178Y14892D02*
X16178Y14892D01*
X16142Y14928D01*
X16142Y15572D01*
X16178Y15608D01*
X16822Y15608D01*
X16858Y15572D01*
X16858Y14928D01*
X16822Y14892D01*
X16178Y14892D01*
G37*
%LPD*%
%LPC*%
G36*
X844Y25624D02*
X844Y25624D01*
X624Y25844D01*
X624Y26156D01*
X844Y26376D01*
X1156Y26376D01*
X1376Y26156D01*
X1376Y25844D01*
X1156Y25624D01*
X844Y25624D01*
G37*
%LPD*%
%LPC*%
G36*
X25428Y7639D02*
X25428Y7639D01*
X25296Y7694D01*
X25194Y7796D01*
X25139Y7928D01*
X25139Y8072D01*
X25194Y8204D01*
X25296Y8306D01*
X25428Y8361D01*
X25572Y8361D01*
X25704Y8306D01*
X25806Y8204D01*
X25861Y8072D01*
X25861Y7928D01*
X25806Y7796D01*
X25704Y7694D01*
X25572Y7639D01*
X25428Y7639D01*
G37*
%LPD*%
%LPC*%
G36*
X25428Y8639D02*
X25428Y8639D01*
X25296Y8694D01*
X25194Y8796D01*
X25139Y8928D01*
X25139Y9072D01*
X25194Y9204D01*
X25296Y9306D01*
X25428Y9361D01*
X25572Y9361D01*
X25704Y9306D01*
X25806Y9204D01*
X25861Y9072D01*
X25861Y8928D01*
X25806Y8796D01*
X25704Y8694D01*
X25572Y8639D01*
X25428Y8639D01*
G37*
%LPD*%
%LPC*%
G36*
X25428Y10639D02*
X25428Y10639D01*
X25296Y10694D01*
X25194Y10796D01*
X25139Y10928D01*
X25139Y11072D01*
X25194Y11204D01*
X25296Y11306D01*
X25428Y11361D01*
X25572Y11361D01*
X25704Y11306D01*
X25806Y11204D01*
X25861Y11072D01*
X25861Y10928D01*
X25806Y10796D01*
X25704Y10694D01*
X25572Y10639D01*
X25428Y10639D01*
G37*
%LPD*%
%LPC*%
G36*
X25428Y3639D02*
X25428Y3639D01*
X25296Y3694D01*
X25194Y3796D01*
X25139Y3928D01*
X25139Y4072D01*
X25194Y4204D01*
X25296Y4306D01*
X25428Y4361D01*
X25572Y4361D01*
X25704Y4306D01*
X25806Y4204D01*
X25861Y4072D01*
X25861Y3928D01*
X25806Y3796D01*
X25704Y3694D01*
X25572Y3639D01*
X25428Y3639D01*
G37*
%LPD*%
%LPC*%
G36*
X25428Y4639D02*
X25428Y4639D01*
X25296Y4694D01*
X25194Y4796D01*
X25139Y4928D01*
X25139Y5072D01*
X25194Y5204D01*
X25296Y5306D01*
X25428Y5361D01*
X25572Y5361D01*
X25704Y5306D01*
X25806Y5204D01*
X25861Y5072D01*
X25861Y4928D01*
X25806Y4796D01*
X25704Y4694D01*
X25572Y4639D01*
X25428Y4639D01*
G37*
%LPD*%
%LPC*%
G36*
X25428Y2639D02*
X25428Y2639D01*
X25296Y2694D01*
X25194Y2796D01*
X25139Y2928D01*
X25139Y3072D01*
X25194Y3204D01*
X25296Y3306D01*
X25428Y3361D01*
X25572Y3361D01*
X25704Y3306D01*
X25806Y3204D01*
X25861Y3072D01*
X25861Y2928D01*
X25806Y2796D01*
X25704Y2694D01*
X25572Y2639D01*
X25428Y2639D01*
G37*
%LPD*%
%LPC*%
G36*
X25428Y6639D02*
X25428Y6639D01*
X25296Y6694D01*
X25194Y6796D01*
X25139Y6928D01*
X25139Y7072D01*
X25194Y7204D01*
X25296Y7306D01*
X25428Y7361D01*
X25572Y7361D01*
X25704Y7306D01*
X25806Y7204D01*
X25861Y7072D01*
X25861Y6928D01*
X25806Y6796D01*
X25704Y6694D01*
X25572Y6639D01*
X25428Y6639D01*
G37*
%LPD*%
%LPC*%
G36*
X29850Y16705D02*
X29850Y16705D01*
X29719Y16760D01*
X29618Y16860D01*
X29564Y16992D01*
X29564Y17134D01*
X29618Y17266D01*
X29719Y17366D01*
X29850Y17421D01*
X29992Y17421D01*
X30124Y17366D01*
X30224Y17266D01*
X30279Y17134D01*
X30279Y16992D01*
X30224Y16860D01*
X30124Y16760D01*
X29992Y16705D01*
X29850Y16705D01*
G37*
%LPD*%
%LPC*%
G36*
X4850Y15705D02*
X4850Y15705D01*
X4719Y15760D01*
X4618Y15860D01*
X4564Y15992D01*
X4564Y16134D01*
X4618Y16266D01*
X4719Y16366D01*
X4850Y16421D01*
X4992Y16421D01*
X5124Y16366D01*
X5224Y16266D01*
X5279Y16134D01*
X5279Y15992D01*
X5224Y15860D01*
X5124Y15760D01*
X4992Y15705D01*
X4850Y15705D01*
G37*
%LPD*%
%LPC*%
G36*
X4850Y31705D02*
X4850Y31705D01*
X4719Y31760D01*
X4618Y31860D01*
X4564Y31992D01*
X4564Y32134D01*
X4618Y32266D01*
X4719Y32366D01*
X4850Y32421D01*
X4992Y32421D01*
X5124Y32366D01*
X5224Y32266D01*
X5279Y32134D01*
X5279Y31992D01*
X5224Y31860D01*
X5124Y31760D01*
X4992Y31705D01*
X4850Y31705D01*
G37*
%LPD*%
%LPC*%
G36*
X28850Y31705D02*
X28850Y31705D01*
X28719Y31760D01*
X28618Y31860D01*
X28564Y31992D01*
X28564Y32134D01*
X28618Y32266D01*
X28719Y32366D01*
X28850Y32421D01*
X28992Y32421D01*
X29124Y32366D01*
X29224Y32266D01*
X29279Y32134D01*
X29279Y31992D01*
X29224Y31860D01*
X29124Y31760D01*
X28992Y31705D01*
X28850Y31705D01*
G37*
%LPD*%
%LPC*%
G36*
X29850Y15705D02*
X29850Y15705D01*
X29719Y15760D01*
X29618Y15860D01*
X29564Y15992D01*
X29564Y16134D01*
X29618Y16266D01*
X29719Y16366D01*
X29850Y16421D01*
X29992Y16421D01*
X30124Y16366D01*
X30224Y16266D01*
X30279Y16134D01*
X30279Y15992D01*
X30224Y15860D01*
X30124Y15760D01*
X29992Y15705D01*
X29850Y15705D01*
G37*
%LPD*%
%LPC*%
G36*
X5850Y15705D02*
X5850Y15705D01*
X5719Y15760D01*
X5618Y15860D01*
X5564Y15992D01*
X5564Y16134D01*
X5618Y16266D01*
X5719Y16366D01*
X5850Y16421D01*
X5992Y16421D01*
X6124Y16366D01*
X6224Y16266D01*
X6279Y16134D01*
X6279Y15992D01*
X6224Y15860D01*
X6124Y15760D01*
X5992Y15705D01*
X5850Y15705D01*
G37*
%LPD*%
%LPC*%
G36*
X21429Y14892D02*
X21429Y14892D01*
X21297Y14947D01*
X21197Y15047D01*
X21142Y15179D01*
X21142Y15321D01*
X21197Y15453D01*
X21297Y15553D01*
X21429Y15608D01*
X21571Y15608D01*
X21703Y15553D01*
X21803Y15453D01*
X21858Y15321D01*
X21858Y15179D01*
X21803Y15047D01*
X21703Y14947D01*
X21571Y14892D01*
X21429Y14892D01*
G37*
%LPD*%
%LPC*%
G36*
X29850Y14705D02*
X29850Y14705D01*
X29719Y14760D01*
X29618Y14860D01*
X29564Y14992D01*
X29564Y15134D01*
X29618Y15266D01*
X29719Y15366D01*
X29850Y15421D01*
X29992Y15421D01*
X30124Y15366D01*
X30224Y15266D01*
X30279Y15134D01*
X30279Y14992D01*
X30224Y14860D01*
X30124Y14760D01*
X29992Y14705D01*
X29850Y14705D01*
G37*
%LPD*%
%LPC*%
G36*
X28850Y14705D02*
X28850Y14705D01*
X28719Y14760D01*
X28618Y14860D01*
X28564Y14992D01*
X28564Y15134D01*
X28618Y15266D01*
X28719Y15366D01*
X28850Y15421D01*
X28992Y15421D01*
X29124Y15366D01*
X29224Y15266D01*
X29279Y15134D01*
X29279Y14992D01*
X29224Y14860D01*
X29124Y14760D01*
X28992Y14705D01*
X28850Y14705D01*
G37*
%LPD*%
%LPC*%
G36*
X5850Y14705D02*
X5850Y14705D01*
X5719Y14760D01*
X5618Y14860D01*
X5564Y14992D01*
X5564Y15134D01*
X5618Y15266D01*
X5719Y15366D01*
X5850Y15421D01*
X5992Y15421D01*
X6124Y15366D01*
X6224Y15266D01*
X6279Y15134D01*
X6279Y14992D01*
X6224Y14860D01*
X6124Y14760D01*
X5992Y14705D01*
X5850Y14705D01*
G37*
%LPD*%
%LPC*%
G36*
X4850Y14705D02*
X4850Y14705D01*
X4719Y14760D01*
X4618Y14860D01*
X4564Y14992D01*
X4564Y15134D01*
X4618Y15266D01*
X4719Y15366D01*
X4850Y15421D01*
X4992Y15421D01*
X5124Y15366D01*
X5224Y15266D01*
X5279Y15134D01*
X5279Y14992D01*
X5224Y14860D01*
X5124Y14760D01*
X4992Y14705D01*
X4850Y14705D01*
G37*
%LPD*%
%LPC*%
G36*
X29850Y30705D02*
X29850Y30705D01*
X29719Y30760D01*
X29618Y30860D01*
X29564Y30992D01*
X29564Y31134D01*
X29618Y31266D01*
X29719Y31366D01*
X29850Y31421D01*
X29992Y31421D01*
X30124Y31366D01*
X30224Y31266D01*
X30279Y31134D01*
X30279Y30992D01*
X30224Y30860D01*
X30124Y30760D01*
X29992Y30705D01*
X29850Y30705D01*
G37*
%LPD*%
%LPC*%
G36*
X28850Y30705D02*
X28850Y30705D01*
X28719Y30760D01*
X28618Y30860D01*
X28564Y30992D01*
X28564Y31134D01*
X28618Y31266D01*
X28719Y31366D01*
X28850Y31421D01*
X28992Y31421D01*
X29124Y31366D01*
X29224Y31266D01*
X29279Y31134D01*
X29279Y30992D01*
X29224Y30860D01*
X29124Y30760D01*
X28992Y30705D01*
X28850Y30705D01*
G37*
%LPD*%
%LPC*%
G36*
X5850Y30705D02*
X5850Y30705D01*
X5719Y30760D01*
X5618Y30860D01*
X5564Y30992D01*
X5564Y31134D01*
X5618Y31266D01*
X5719Y31366D01*
X5850Y31421D01*
X5992Y31421D01*
X6124Y31366D01*
X6224Y31266D01*
X6279Y31134D01*
X6279Y30992D01*
X6224Y30860D01*
X6124Y30760D01*
X5992Y30705D01*
X5850Y30705D01*
G37*
%LPD*%
%LPC*%
G36*
X4850Y30705D02*
X4850Y30705D01*
X4719Y30760D01*
X4618Y30860D01*
X4564Y30992D01*
X4564Y31134D01*
X4618Y31266D01*
X4719Y31366D01*
X4850Y31421D01*
X4992Y31421D01*
X5124Y31366D01*
X5224Y31266D01*
X5279Y31134D01*
X5279Y30992D01*
X5224Y30860D01*
X5124Y30760D01*
X4992Y30705D01*
X4850Y30705D01*
G37*
%LPD*%
%LPC*%
G36*
X28850Y29705D02*
X28850Y29705D01*
X28719Y29760D01*
X28618Y29860D01*
X28564Y29992D01*
X28564Y30134D01*
X28618Y30266D01*
X28719Y30366D01*
X28850Y30421D01*
X28992Y30421D01*
X29124Y30366D01*
X29224Y30266D01*
X29279Y30134D01*
X29279Y29992D01*
X29224Y29860D01*
X29124Y29760D01*
X28992Y29705D01*
X28850Y29705D01*
G37*
%LPD*%
%LPC*%
G36*
X5850Y29705D02*
X5850Y29705D01*
X5719Y29760D01*
X5618Y29860D01*
X5564Y29992D01*
X5564Y30134D01*
X5618Y30266D01*
X5719Y30366D01*
X5850Y30421D01*
X5992Y30421D01*
X6124Y30366D01*
X6224Y30266D01*
X6279Y30134D01*
X6279Y29992D01*
X6224Y29860D01*
X6124Y29760D01*
X5992Y29705D01*
X5850Y29705D01*
G37*
%LPD*%
%LPC*%
G36*
X4850Y29705D02*
X4850Y29705D01*
X4719Y29760D01*
X4618Y29860D01*
X4564Y29992D01*
X4564Y30134D01*
X4618Y30266D01*
X4719Y30366D01*
X4850Y30421D01*
X4992Y30421D01*
X5124Y30366D01*
X5224Y30266D01*
X5279Y30134D01*
X5279Y29992D01*
X5224Y29860D01*
X5124Y29760D01*
X4992Y29705D01*
X4850Y29705D01*
G37*
%LPD*%
%LPC*%
G36*
X5850Y13705D02*
X5850Y13705D01*
X5719Y13760D01*
X5618Y13860D01*
X5564Y13992D01*
X5564Y14134D01*
X5618Y14266D01*
X5719Y14366D01*
X5850Y14421D01*
X5992Y14421D01*
X6124Y14366D01*
X6224Y14266D01*
X6279Y14134D01*
X6279Y13992D01*
X6224Y13860D01*
X6124Y13760D01*
X5992Y13705D01*
X5850Y13705D01*
G37*
%LPD*%
%LPC*%
G36*
X4850Y13705D02*
X4850Y13705D01*
X4719Y13760D01*
X4618Y13860D01*
X4564Y13992D01*
X4564Y14134D01*
X4618Y14266D01*
X4719Y14366D01*
X4850Y14421D01*
X4992Y14421D01*
X5124Y14366D01*
X5224Y14266D01*
X5279Y14134D01*
X5279Y13992D01*
X5224Y13860D01*
X5124Y13760D01*
X4992Y13705D01*
X4850Y13705D01*
G37*
%LPD*%
%LPC*%
G36*
X29850Y28705D02*
X29850Y28705D01*
X29719Y28760D01*
X29618Y28860D01*
X29564Y28992D01*
X29564Y29134D01*
X29618Y29266D01*
X29719Y29366D01*
X29850Y29421D01*
X29992Y29421D01*
X30124Y29366D01*
X30224Y29266D01*
X30279Y29134D01*
X30279Y28992D01*
X30224Y28860D01*
X30124Y28760D01*
X29992Y28705D01*
X29850Y28705D01*
G37*
%LPD*%
%LPC*%
G36*
X5850Y28705D02*
X5850Y28705D01*
X5719Y28760D01*
X5618Y28860D01*
X5564Y28992D01*
X5564Y29134D01*
X5618Y29266D01*
X5719Y29366D01*
X5850Y29421D01*
X5992Y29421D01*
X6124Y29366D01*
X6224Y29266D01*
X6279Y29134D01*
X6279Y28992D01*
X6224Y28860D01*
X6124Y28760D01*
X5992Y28705D01*
X5850Y28705D01*
G37*
%LPD*%
%LPC*%
G36*
X4850Y28705D02*
X4850Y28705D01*
X4719Y28760D01*
X4618Y28860D01*
X4564Y28992D01*
X4564Y29134D01*
X4618Y29266D01*
X4719Y29366D01*
X4850Y29421D01*
X4992Y29421D01*
X5124Y29366D01*
X5224Y29266D01*
X5279Y29134D01*
X5279Y28992D01*
X5224Y28860D01*
X5124Y28760D01*
X4992Y28705D01*
X4850Y28705D01*
G37*
%LPD*%
%LPC*%
G36*
X29850Y13705D02*
X29850Y13705D01*
X29719Y13760D01*
X29618Y13860D01*
X29564Y13992D01*
X29564Y14134D01*
X29618Y14266D01*
X29719Y14366D01*
X29850Y14421D01*
X29992Y14421D01*
X30124Y14366D01*
X30224Y14266D01*
X30279Y14134D01*
X30279Y13992D01*
X30224Y13860D01*
X30124Y13760D01*
X29992Y13705D01*
X29850Y13705D01*
G37*
%LPD*%
%LPC*%
G36*
X28850Y13705D02*
X28850Y13705D01*
X28719Y13760D01*
X28618Y13860D01*
X28564Y13992D01*
X28564Y14134D01*
X28618Y14266D01*
X28719Y14366D01*
X28850Y14421D01*
X28992Y14421D01*
X29124Y14366D01*
X29224Y14266D01*
X29279Y14134D01*
X29279Y13992D01*
X29224Y13860D01*
X29124Y13760D01*
X28992Y13705D01*
X28850Y13705D01*
G37*
%LPD*%
%LPC*%
G36*
X29850Y12705D02*
X29850Y12705D01*
X29719Y12760D01*
X29618Y12860D01*
X29564Y12992D01*
X29564Y13134D01*
X29618Y13266D01*
X29719Y13366D01*
X29850Y13421D01*
X29992Y13421D01*
X30124Y13366D01*
X30224Y13266D01*
X30279Y13134D01*
X30279Y12992D01*
X30224Y12860D01*
X30124Y12760D01*
X29992Y12705D01*
X29850Y12705D01*
G37*
%LPD*%
%LPC*%
G36*
X28850Y12705D02*
X28850Y12705D01*
X28719Y12760D01*
X28618Y12860D01*
X28564Y12992D01*
X28564Y13134D01*
X28618Y13266D01*
X28719Y13366D01*
X28850Y13421D01*
X28992Y13421D01*
X29124Y13366D01*
X29224Y13266D01*
X29279Y13134D01*
X29279Y12992D01*
X29224Y12860D01*
X29124Y12760D01*
X28992Y12705D01*
X28850Y12705D01*
G37*
%LPD*%
%LPC*%
G36*
X5850Y12705D02*
X5850Y12705D01*
X5719Y12760D01*
X5618Y12860D01*
X5564Y12992D01*
X5564Y13134D01*
X5618Y13266D01*
X5719Y13366D01*
X5850Y13421D01*
X5992Y13421D01*
X6124Y13366D01*
X6224Y13266D01*
X6279Y13134D01*
X6279Y12992D01*
X6224Y12860D01*
X6124Y12760D01*
X5992Y12705D01*
X5850Y12705D01*
G37*
%LPD*%
%LPC*%
G36*
X4850Y27705D02*
X4850Y27705D01*
X4719Y27760D01*
X4618Y27860D01*
X4564Y27992D01*
X4564Y28134D01*
X4618Y28266D01*
X4719Y28366D01*
X4850Y28421D01*
X4992Y28421D01*
X5124Y28366D01*
X5224Y28266D01*
X5279Y28134D01*
X5279Y27992D01*
X5224Y27860D01*
X5124Y27760D01*
X4992Y27705D01*
X4850Y27705D01*
G37*
%LPD*%
%LPC*%
G36*
X29850Y27705D02*
X29850Y27705D01*
X29719Y27760D01*
X29618Y27860D01*
X29564Y27992D01*
X29564Y28134D01*
X29618Y28266D01*
X29719Y28366D01*
X29850Y28421D01*
X29992Y28421D01*
X30124Y28366D01*
X30224Y28266D01*
X30279Y28134D01*
X30279Y27992D01*
X30224Y27860D01*
X30124Y27760D01*
X29992Y27705D01*
X29850Y27705D01*
G37*
%LPD*%
%LPC*%
G36*
X5850Y27705D02*
X5850Y27705D01*
X5719Y27760D01*
X5618Y27860D01*
X5564Y27992D01*
X5564Y28134D01*
X5618Y28266D01*
X5719Y28366D01*
X5850Y28421D01*
X5992Y28421D01*
X6124Y28366D01*
X6224Y28266D01*
X6279Y28134D01*
X6279Y27992D01*
X6224Y27860D01*
X6124Y27760D01*
X5992Y27705D01*
X5850Y27705D01*
G37*
%LPD*%
%LPC*%
G36*
X29850Y26705D02*
X29850Y26705D01*
X29719Y26760D01*
X29618Y26860D01*
X29564Y26992D01*
X29564Y27134D01*
X29618Y27266D01*
X29719Y27366D01*
X29850Y27421D01*
X29992Y27421D01*
X30124Y27366D01*
X30224Y27266D01*
X30279Y27134D01*
X30279Y26992D01*
X30224Y26860D01*
X30124Y26760D01*
X29992Y26705D01*
X29850Y26705D01*
G37*
%LPD*%
%LPC*%
G36*
X28850Y26705D02*
X28850Y26705D01*
X28719Y26760D01*
X28618Y26860D01*
X28564Y26992D01*
X28564Y27134D01*
X28618Y27266D01*
X28719Y27366D01*
X28850Y27421D01*
X28992Y27421D01*
X29124Y27366D01*
X29224Y27266D01*
X29279Y27134D01*
X29279Y26992D01*
X29224Y26860D01*
X29124Y26760D01*
X28992Y26705D01*
X28850Y26705D01*
G37*
%LPD*%
%LPC*%
G36*
X4850Y26705D02*
X4850Y26705D01*
X4719Y26760D01*
X4618Y26860D01*
X4564Y26992D01*
X4564Y27134D01*
X4618Y27266D01*
X4719Y27366D01*
X4850Y27421D01*
X4992Y27421D01*
X5124Y27366D01*
X5224Y27266D01*
X5279Y27134D01*
X5279Y26992D01*
X5224Y26860D01*
X5124Y26760D01*
X4992Y26705D01*
X4850Y26705D01*
G37*
%LPD*%
%LPC*%
G36*
X28850Y25705D02*
X28850Y25705D01*
X28719Y25760D01*
X28618Y25860D01*
X28564Y25992D01*
X28564Y26134D01*
X28618Y26266D01*
X28719Y26366D01*
X28850Y26421D01*
X28992Y26421D01*
X29124Y26366D01*
X29224Y26266D01*
X29279Y26134D01*
X29279Y25992D01*
X29224Y25860D01*
X29124Y25760D01*
X28992Y25705D01*
X28850Y25705D01*
G37*
%LPD*%
%LPC*%
G36*
X29850Y25705D02*
X29850Y25705D01*
X29719Y25760D01*
X29618Y25860D01*
X29564Y25992D01*
X29564Y26134D01*
X29618Y26266D01*
X29719Y26366D01*
X29850Y26421D01*
X29992Y26421D01*
X30124Y26366D01*
X30224Y26266D01*
X30279Y26134D01*
X30279Y25992D01*
X30224Y25860D01*
X30124Y25760D01*
X29992Y25705D01*
X29850Y25705D01*
G37*
%LPD*%
%LPC*%
G36*
X5850Y25705D02*
X5850Y25705D01*
X5719Y25760D01*
X5618Y25860D01*
X5564Y25992D01*
X5564Y26134D01*
X5618Y26266D01*
X5719Y26366D01*
X5850Y26421D01*
X5992Y26421D01*
X6124Y26366D01*
X6224Y26266D01*
X6279Y26134D01*
X6279Y25992D01*
X6224Y25860D01*
X6124Y25760D01*
X5992Y25705D01*
X5850Y25705D01*
G37*
%LPD*%
%LPC*%
G36*
X4850Y25705D02*
X4850Y25705D01*
X4719Y25760D01*
X4618Y25860D01*
X4564Y25992D01*
X4564Y26134D01*
X4618Y26266D01*
X4719Y26366D01*
X4850Y26421D01*
X4992Y26421D01*
X5124Y26366D01*
X5224Y26266D01*
X5279Y26134D01*
X5279Y25992D01*
X5224Y25860D01*
X5124Y25760D01*
X4992Y25705D01*
X4850Y25705D01*
G37*
%LPD*%
%LPC*%
G36*
X29850Y24705D02*
X29850Y24705D01*
X29719Y24760D01*
X29618Y24860D01*
X29564Y24992D01*
X29564Y25134D01*
X29618Y25266D01*
X29719Y25366D01*
X29850Y25421D01*
X29992Y25421D01*
X30124Y25366D01*
X30224Y25266D01*
X30279Y25134D01*
X30279Y24992D01*
X30224Y24860D01*
X30124Y24760D01*
X29992Y24705D01*
X29850Y24705D01*
G37*
%LPD*%
%LPC*%
G36*
X28850Y24705D02*
X28850Y24705D01*
X28719Y24760D01*
X28618Y24860D01*
X28564Y24992D01*
X28564Y25134D01*
X28618Y25266D01*
X28719Y25366D01*
X28850Y25421D01*
X28992Y25421D01*
X29124Y25366D01*
X29224Y25266D01*
X29279Y25134D01*
X29279Y24992D01*
X29224Y24860D01*
X29124Y24760D01*
X28992Y24705D01*
X28850Y24705D01*
G37*
%LPD*%
%LPC*%
G36*
X5850Y24705D02*
X5850Y24705D01*
X5719Y24760D01*
X5618Y24860D01*
X5564Y24992D01*
X5564Y25134D01*
X5618Y25266D01*
X5719Y25366D01*
X5850Y25421D01*
X5992Y25421D01*
X6124Y25366D01*
X6224Y25266D01*
X6279Y25134D01*
X6279Y24992D01*
X6224Y24860D01*
X6124Y24760D01*
X5992Y24705D01*
X5850Y24705D01*
G37*
%LPD*%
%LPC*%
G36*
X4850Y24705D02*
X4850Y24705D01*
X4719Y24760D01*
X4618Y24860D01*
X4564Y24992D01*
X4564Y25134D01*
X4618Y25266D01*
X4719Y25366D01*
X4850Y25421D01*
X4992Y25421D01*
X5124Y25366D01*
X5224Y25266D01*
X5279Y25134D01*
X5279Y24992D01*
X5224Y24860D01*
X5124Y24760D01*
X4992Y24705D01*
X4850Y24705D01*
G37*
%LPD*%
%LPC*%
G36*
X29850Y23705D02*
X29850Y23705D01*
X29719Y23760D01*
X29618Y23860D01*
X29564Y23992D01*
X29564Y24134D01*
X29618Y24266D01*
X29719Y24366D01*
X29850Y24421D01*
X29992Y24421D01*
X30124Y24366D01*
X30224Y24266D01*
X30279Y24134D01*
X30279Y23992D01*
X30224Y23860D01*
X30124Y23760D01*
X29992Y23705D01*
X29850Y23705D01*
G37*
%LPD*%
%LPC*%
G36*
X5850Y23705D02*
X5850Y23705D01*
X5719Y23760D01*
X5618Y23860D01*
X5564Y23992D01*
X5564Y24134D01*
X5618Y24266D01*
X5719Y24366D01*
X5850Y24421D01*
X5992Y24421D01*
X6124Y24366D01*
X6224Y24266D01*
X6279Y24134D01*
X6279Y23992D01*
X6224Y23860D01*
X6124Y23760D01*
X5992Y23705D01*
X5850Y23705D01*
G37*
%LPD*%
%LPC*%
G36*
X4850Y23705D02*
X4850Y23705D01*
X4719Y23760D01*
X4618Y23860D01*
X4564Y23992D01*
X4564Y24134D01*
X4618Y24266D01*
X4719Y24366D01*
X4850Y24421D01*
X4992Y24421D01*
X5124Y24366D01*
X5224Y24266D01*
X5279Y24134D01*
X5279Y23992D01*
X5224Y23860D01*
X5124Y23760D01*
X4992Y23705D01*
X4850Y23705D01*
G37*
%LPD*%
%LPC*%
G36*
X28850Y23705D02*
X28850Y23705D01*
X28719Y23760D01*
X28618Y23860D01*
X28564Y23992D01*
X28564Y24134D01*
X28618Y24266D01*
X28719Y24366D01*
X28850Y24421D01*
X28992Y24421D01*
X29124Y24366D01*
X29224Y24266D01*
X29279Y24134D01*
X29279Y23992D01*
X29224Y23860D01*
X29124Y23760D01*
X28992Y23705D01*
X28850Y23705D01*
G37*
%LPD*%
%LPC*%
G36*
X29850Y22705D02*
X29850Y22705D01*
X29719Y22760D01*
X29618Y22860D01*
X29564Y22992D01*
X29564Y23134D01*
X29618Y23266D01*
X29719Y23366D01*
X29850Y23421D01*
X29992Y23421D01*
X30124Y23366D01*
X30224Y23266D01*
X30279Y23134D01*
X30279Y22992D01*
X30224Y22860D01*
X30124Y22760D01*
X29992Y22705D01*
X29850Y22705D01*
G37*
%LPD*%
%LPC*%
G36*
X28850Y22705D02*
X28850Y22705D01*
X28719Y22760D01*
X28618Y22860D01*
X28564Y22992D01*
X28564Y23134D01*
X28618Y23266D01*
X28719Y23366D01*
X28850Y23421D01*
X28992Y23421D01*
X29124Y23366D01*
X29224Y23266D01*
X29279Y23134D01*
X29279Y22992D01*
X29224Y22860D01*
X29124Y22760D01*
X28992Y22705D01*
X28850Y22705D01*
G37*
%LPD*%
%LPC*%
G36*
X5850Y22705D02*
X5850Y22705D01*
X5719Y22760D01*
X5618Y22860D01*
X5564Y22992D01*
X5564Y23134D01*
X5618Y23266D01*
X5719Y23366D01*
X5850Y23421D01*
X5992Y23421D01*
X6124Y23366D01*
X6224Y23266D01*
X6279Y23134D01*
X6279Y22992D01*
X6224Y22860D01*
X6124Y22760D01*
X5992Y22705D01*
X5850Y22705D01*
G37*
%LPD*%
%LPC*%
G36*
X4850Y22705D02*
X4850Y22705D01*
X4719Y22760D01*
X4618Y22860D01*
X4564Y22992D01*
X4564Y23134D01*
X4618Y23266D01*
X4719Y23366D01*
X4850Y23421D01*
X4992Y23421D01*
X5124Y23366D01*
X5224Y23266D01*
X5279Y23134D01*
X5279Y22992D01*
X5224Y22860D01*
X5124Y22760D01*
X4992Y22705D01*
X4850Y22705D01*
G37*
%LPD*%
%LPC*%
G36*
X5850Y21705D02*
X5850Y21705D01*
X5719Y21760D01*
X5618Y21860D01*
X5564Y21992D01*
X5564Y22134D01*
X5618Y22266D01*
X5719Y22366D01*
X5850Y22421D01*
X5992Y22421D01*
X6124Y22366D01*
X6224Y22266D01*
X6279Y22134D01*
X6279Y21992D01*
X6224Y21860D01*
X6124Y21760D01*
X5992Y21705D01*
X5850Y21705D01*
G37*
%LPD*%
%LPC*%
G36*
X5850Y17705D02*
X5850Y17705D01*
X5719Y17760D01*
X5618Y17860D01*
X5564Y17992D01*
X5564Y18134D01*
X5618Y18266D01*
X5719Y18366D01*
X5850Y18421D01*
X5992Y18421D01*
X6124Y18366D01*
X6224Y18266D01*
X6279Y18134D01*
X6279Y17992D01*
X6224Y17860D01*
X6124Y17760D01*
X5992Y17705D01*
X5850Y17705D01*
G37*
%LPD*%
%LPC*%
G36*
X4850Y20705D02*
X4850Y20705D01*
X4719Y20760D01*
X4618Y20860D01*
X4564Y20992D01*
X4564Y21134D01*
X4618Y21266D01*
X4719Y21366D01*
X4850Y21421D01*
X4992Y21421D01*
X5124Y21366D01*
X5224Y21266D01*
X5279Y21134D01*
X5279Y20992D01*
X5224Y20860D01*
X5124Y20760D01*
X4992Y20705D01*
X4850Y20705D01*
G37*
%LPD*%
%LPC*%
G36*
X29850Y20705D02*
X29850Y20705D01*
X29719Y20760D01*
X29618Y20860D01*
X29564Y20992D01*
X29564Y21134D01*
X29618Y21266D01*
X29719Y21366D01*
X29850Y21421D01*
X29992Y21421D01*
X30124Y21366D01*
X30224Y21266D01*
X30279Y21134D01*
X30279Y20992D01*
X30224Y20860D01*
X30124Y20760D01*
X29992Y20705D01*
X29850Y20705D01*
G37*
%LPD*%
%LPC*%
G36*
X5850Y20705D02*
X5850Y20705D01*
X5719Y20760D01*
X5618Y20860D01*
X5564Y20992D01*
X5564Y21134D01*
X5618Y21266D01*
X5719Y21366D01*
X5850Y21421D01*
X5992Y21421D01*
X6124Y21366D01*
X6224Y21266D01*
X6279Y21134D01*
X6279Y20992D01*
X6224Y20860D01*
X6124Y20760D01*
X5992Y20705D01*
X5850Y20705D01*
G37*
%LPD*%
%LPC*%
G36*
X29850Y19705D02*
X29850Y19705D01*
X29719Y19760D01*
X29618Y19860D01*
X29564Y19992D01*
X29564Y20134D01*
X29618Y20266D01*
X29719Y20366D01*
X29850Y20421D01*
X29992Y20421D01*
X30124Y20366D01*
X30224Y20266D01*
X30279Y20134D01*
X30279Y19992D01*
X30224Y19860D01*
X30124Y19760D01*
X29992Y19705D01*
X29850Y19705D01*
G37*
%LPD*%
%LPC*%
G36*
X28850Y19705D02*
X28850Y19705D01*
X28719Y19760D01*
X28618Y19860D01*
X28564Y19992D01*
X28564Y20134D01*
X28618Y20266D01*
X28719Y20366D01*
X28850Y20421D01*
X28992Y20421D01*
X29124Y20366D01*
X29224Y20266D01*
X29279Y20134D01*
X29279Y19992D01*
X29224Y19860D01*
X29124Y19760D01*
X28992Y19705D01*
X28850Y19705D01*
G37*
%LPD*%
%LPC*%
G36*
X5850Y19705D02*
X5850Y19705D01*
X5719Y19760D01*
X5618Y19860D01*
X5564Y19992D01*
X5564Y20134D01*
X5618Y20266D01*
X5719Y20366D01*
X5850Y20421D01*
X5992Y20421D01*
X6124Y20366D01*
X6224Y20266D01*
X6279Y20134D01*
X6279Y19992D01*
X6224Y19860D01*
X6124Y19760D01*
X5992Y19705D01*
X5850Y19705D01*
G37*
%LPD*%
%LPC*%
G36*
X4850Y19705D02*
X4850Y19705D01*
X4719Y19760D01*
X4618Y19860D01*
X4564Y19992D01*
X4564Y20134D01*
X4618Y20266D01*
X4719Y20366D01*
X4850Y20421D01*
X4992Y20421D01*
X5124Y20366D01*
X5224Y20266D01*
X5279Y20134D01*
X5279Y19992D01*
X5224Y19860D01*
X5124Y19760D01*
X4992Y19705D01*
X4850Y19705D01*
G37*
%LPD*%
%LPC*%
G36*
X29850Y18705D02*
X29850Y18705D01*
X29719Y18760D01*
X29618Y18860D01*
X29564Y18992D01*
X29564Y19134D01*
X29618Y19266D01*
X29719Y19366D01*
X29850Y19421D01*
X29992Y19421D01*
X30124Y19366D01*
X30224Y19266D01*
X30279Y19134D01*
X30279Y18992D01*
X30224Y18860D01*
X30124Y18760D01*
X29992Y18705D01*
X29850Y18705D01*
G37*
%LPD*%
%LPC*%
G36*
X28850Y18705D02*
X28850Y18705D01*
X28719Y18760D01*
X28618Y18860D01*
X28564Y18992D01*
X28564Y19134D01*
X28618Y19266D01*
X28719Y19366D01*
X28850Y19421D01*
X28992Y19421D01*
X29124Y19366D01*
X29224Y19266D01*
X29279Y19134D01*
X29279Y18992D01*
X29224Y18860D01*
X29124Y18760D01*
X28992Y18705D01*
X28850Y18705D01*
G37*
%LPD*%
%LPC*%
G36*
X5850Y18705D02*
X5850Y18705D01*
X5719Y18760D01*
X5618Y18860D01*
X5564Y18992D01*
X5564Y19134D01*
X5618Y19266D01*
X5719Y19366D01*
X5850Y19421D01*
X5992Y19421D01*
X6124Y19366D01*
X6224Y19266D01*
X6279Y19134D01*
X6279Y18992D01*
X6224Y18860D01*
X6124Y18760D01*
X5992Y18705D01*
X5850Y18705D01*
G37*
%LPD*%
%LPC*%
G36*
X4850Y18705D02*
X4850Y18705D01*
X4719Y18760D01*
X4618Y18860D01*
X4564Y18992D01*
X4564Y19134D01*
X4618Y19266D01*
X4719Y19366D01*
X4850Y19421D01*
X4992Y19421D01*
X5124Y19366D01*
X5224Y19266D01*
X5279Y19134D01*
X5279Y18992D01*
X5224Y18860D01*
X5124Y18760D01*
X4992Y18705D01*
X4850Y18705D01*
G37*
%LPD*%
%LPC*%
G36*
X4850Y17705D02*
X4850Y17705D01*
X4719Y17760D01*
X4618Y17860D01*
X4564Y17992D01*
X4564Y18134D01*
X4618Y18266D01*
X4719Y18366D01*
X4850Y18421D01*
X4992Y18421D01*
X5124Y18366D01*
X5224Y18266D01*
X5279Y18134D01*
X5279Y17992D01*
X5224Y17860D01*
X5124Y17760D01*
X4992Y17705D01*
X4850Y17705D01*
G37*
%LPD*%
%LPC*%
G36*
X29850Y17705D02*
X29850Y17705D01*
X29719Y17760D01*
X29618Y17860D01*
X29564Y17992D01*
X29564Y18134D01*
X29618Y18266D01*
X29719Y18366D01*
X29850Y18421D01*
X29992Y18421D01*
X30124Y18366D01*
X30224Y18266D01*
X30279Y18134D01*
X30279Y17992D01*
X30224Y17860D01*
X30124Y17760D01*
X29992Y17705D01*
X29850Y17705D01*
G37*
%LPD*%
%LPC*%
G36*
X5850Y16705D02*
X5850Y16705D01*
X5719Y16760D01*
X5618Y16860D01*
X5564Y16992D01*
X5564Y17134D01*
X5618Y17266D01*
X5719Y17366D01*
X5850Y17421D01*
X5992Y17421D01*
X6124Y17366D01*
X6224Y17266D01*
X6279Y17134D01*
X6279Y16992D01*
X6224Y16860D01*
X6124Y16760D01*
X5992Y16705D01*
X5850Y16705D01*
G37*
%LPD*%
%LPC*%
G36*
X4850Y16705D02*
X4850Y16705D01*
X4719Y16760D01*
X4618Y16860D01*
X4564Y16992D01*
X4564Y17134D01*
X4618Y17266D01*
X4719Y17366D01*
X4850Y17421D01*
X4992Y17421D01*
X5124Y17366D01*
X5224Y17266D01*
X5279Y17134D01*
X5279Y16992D01*
X5224Y16860D01*
X5124Y16760D01*
X4992Y16705D01*
X4850Y16705D01*
G37*
%LPD*%
%LPC*%
G36*
X867Y27679D02*
X867Y27679D01*
X679Y27867D01*
X679Y28133D01*
X867Y28321D01*
X1133Y28321D01*
X1321Y28133D01*
X1321Y27867D01*
X1133Y27679D01*
X867Y27679D01*
G37*
%LPD*%
%LPC*%
G36*
X867Y23179D02*
X867Y23179D01*
X679Y23367D01*
X679Y23633D01*
X867Y23821D01*
X1133Y23821D01*
X1321Y23633D01*
X1321Y23367D01*
X1133Y23179D01*
X867Y23179D01*
G37*
%LPD*%
%LPC*%
G36*
X903Y24594D02*
X903Y24594D01*
X840Y24615D01*
X782Y24644D01*
X729Y24683D01*
X683Y24729D01*
X644Y24782D01*
X615Y24840D01*
X594Y24903D01*
X588Y24942D01*
X588Y24944D01*
X588Y24945D01*
X586Y24951D01*
X584Y24957D01*
X584Y24959D01*
X583Y24960D01*
X580Y24966D01*
X577Y24971D01*
X576Y24973D01*
X575Y24974D01*
X571Y24979D01*
X568Y24984D01*
X566Y24985D01*
X565Y24986D01*
X560Y24990D01*
X556Y24994D01*
X554Y24995D01*
X553Y24996D01*
X547Y24999D01*
X546Y25000D01*
X551Y25003D01*
X556Y25006D01*
X558Y25007D01*
X559Y25008D01*
X563Y25012D01*
X568Y25017D01*
X569Y25018D01*
X570Y25019D01*
X574Y25024D01*
X578Y25029D01*
X578Y25031D01*
X579Y25032D01*
X582Y25038D01*
X584Y25043D01*
X585Y25045D01*
X586Y25047D01*
X588Y25058D01*
X594Y25097D01*
X615Y25160D01*
X644Y25218D01*
X683Y25271D01*
X729Y25317D01*
X782Y25356D01*
X840Y25385D01*
X903Y25406D01*
X921Y25408D01*
X921Y25000D01*
X921Y24592D01*
X903Y24594D01*
G37*
%LPD*%
%LPC*%
G36*
X13601Y33383D02*
X13601Y33383D01*
X13938Y33383D01*
X13938Y33112D01*
X13926Y33041D01*
X13904Y32974D01*
X13872Y32910D01*
X13830Y32852D01*
X13780Y32802D01*
X13722Y32760D01*
X13658Y32727D01*
X13601Y32709D01*
X13601Y33383D01*
G37*
%LPD*%
%LPC*%
G36*
X6709Y7632D02*
X6709Y7632D01*
X6727Y7690D01*
X6760Y7753D01*
X6802Y7811D01*
X6852Y7861D01*
X6910Y7903D01*
X6974Y7936D01*
X7041Y7958D01*
X7112Y7969D01*
X7383Y7969D01*
X7383Y7632D01*
X6709Y7632D01*
G37*
%LPD*%
%LPC*%
G36*
X7617Y7632D02*
X7617Y7632D01*
X7617Y7969D01*
X7888Y7969D01*
X7959Y7958D01*
X8026Y7936D01*
X8090Y7903D01*
X8148Y7861D01*
X8198Y7811D01*
X8240Y7753D01*
X8273Y7690D01*
X8291Y7632D01*
X7617Y7632D01*
G37*
%LPD*%
%LPC*%
G36*
X13310Y32727D02*
X13310Y32727D01*
X13247Y32760D01*
X13189Y32802D01*
X13139Y32852D01*
X13097Y32910D01*
X13064Y32974D01*
X13042Y33041D01*
X13031Y33112D01*
X13031Y33383D01*
X13368Y33383D01*
X13368Y32709D01*
X13310Y32727D01*
G37*
%LPD*%
%LPC*%
G36*
X7112Y7062D02*
X7112Y7062D01*
X7041Y7074D01*
X6974Y7096D01*
X6910Y7128D01*
X6852Y7170D01*
X6802Y7220D01*
X6760Y7278D01*
X6727Y7342D01*
X6709Y7399D01*
X7383Y7399D01*
X7383Y7062D01*
X7112Y7062D01*
G37*
%LPD*%
%LPC*%
G36*
X7617Y7062D02*
X7617Y7062D01*
X7617Y7399D01*
X8291Y7399D01*
X8273Y7342D01*
X8240Y7278D01*
X8198Y7220D01*
X8148Y7170D01*
X8090Y7128D01*
X8026Y7096D01*
X7959Y7074D01*
X7888Y7062D01*
X7617Y7062D01*
G37*
%LPD*%
%LPC*%
G36*
X12099Y29099D02*
X12099Y29099D01*
X12099Y29332D01*
X12109Y29394D01*
X12129Y29454D01*
X12157Y29510D01*
X12194Y29561D01*
X12239Y29606D01*
X12290Y29643D01*
X12346Y29671D01*
X12401Y29689D01*
X12401Y29099D01*
X12099Y29099D01*
G37*
%LPD*%
%LPC*%
G36*
X17599Y10099D02*
X17599Y10099D01*
X17599Y10332D01*
X17609Y10394D01*
X17629Y10454D01*
X17657Y10510D01*
X17694Y10561D01*
X17739Y10606D01*
X17790Y10643D01*
X17846Y10671D01*
X17901Y10689D01*
X17901Y10099D01*
X17599Y10099D01*
G37*
%LPD*%
%LPC*%
G36*
X12599Y29099D02*
X12599Y29099D01*
X12599Y29689D01*
X12654Y29671D01*
X12710Y29643D01*
X12761Y29606D01*
X12806Y29561D01*
X12843Y29510D01*
X12871Y29454D01*
X12891Y29394D01*
X12901Y29332D01*
X12901Y29099D01*
X12599Y29099D01*
G37*
%LPD*%
%LPC*%
G36*
X18099Y9901D02*
X18099Y9901D01*
X18401Y9901D01*
X18401Y9668D01*
X18391Y9606D01*
X18371Y9546D01*
X18343Y9490D01*
X18306Y9439D01*
X18261Y9394D01*
X18210Y9357D01*
X18154Y9329D01*
X18099Y9311D01*
X18099Y9901D01*
G37*
%LPD*%
%LPC*%
G36*
X18099Y10099D02*
X18099Y10099D01*
X18099Y10689D01*
X18154Y10671D01*
X18210Y10643D01*
X18261Y10606D01*
X18306Y10561D01*
X18343Y10510D01*
X18371Y10454D01*
X18391Y10394D01*
X18401Y10332D01*
X18401Y10099D01*
X18099Y10099D01*
G37*
%LPD*%
%LPC*%
G36*
X17846Y9329D02*
X17846Y9329D01*
X17790Y9357D01*
X17739Y9394D01*
X17694Y9439D01*
X17657Y9490D01*
X17629Y9546D01*
X17609Y9606D01*
X17599Y9668D01*
X17599Y9901D01*
X17901Y9901D01*
X17901Y9311D01*
X17846Y9329D01*
G37*
%LPD*%
%LPC*%
G36*
X25099Y12099D02*
X25099Y12099D01*
X25099Y12313D01*
X25106Y12339D01*
X25119Y12362D01*
X25138Y12381D01*
X25161Y12394D01*
X25187Y12401D01*
X25401Y12401D01*
X25401Y12099D01*
X25099Y12099D01*
G37*
%LPD*%
%LPC*%
G36*
X25099Y10099D02*
X25099Y10099D01*
X25099Y10313D01*
X25106Y10339D01*
X25119Y10362D01*
X25138Y10381D01*
X25161Y10394D01*
X25187Y10401D01*
X25401Y10401D01*
X25401Y10099D01*
X25099Y10099D01*
G37*
%LPD*%
%LPC*%
G36*
X25599Y10099D02*
X25599Y10099D01*
X25599Y10401D01*
X25813Y10401D01*
X25839Y10394D01*
X25862Y10381D01*
X25881Y10362D01*
X25894Y10339D01*
X25901Y10313D01*
X25901Y10099D01*
X25599Y10099D01*
G37*
%LPD*%
%LPC*%
G36*
X25599Y12099D02*
X25599Y12099D01*
X25599Y12401D01*
X25813Y12401D01*
X25839Y12394D01*
X25862Y12381D01*
X25881Y12362D01*
X25894Y12339D01*
X25901Y12313D01*
X25901Y12099D01*
X25599Y12099D01*
G37*
%LPD*%
%LPC*%
G36*
X25599Y9599D02*
X25599Y9599D01*
X25599Y9901D01*
X25901Y9901D01*
X25901Y9687D01*
X25894Y9661D01*
X25881Y9638D01*
X25862Y9619D01*
X25839Y9606D01*
X25813Y9599D01*
X25599Y9599D01*
G37*
%LPD*%
%LPC*%
G36*
X25599Y11599D02*
X25599Y11599D01*
X25599Y11901D01*
X25901Y11901D01*
X25901Y11687D01*
X25894Y11661D01*
X25881Y11638D01*
X25862Y11619D01*
X25839Y11606D01*
X25813Y11599D01*
X25599Y11599D01*
G37*
%LPD*%
%LPC*%
G36*
X25187Y9599D02*
X25187Y9599D01*
X25161Y9606D01*
X25138Y9619D01*
X25119Y9638D01*
X25106Y9661D01*
X25099Y9687D01*
X25099Y9901D01*
X25401Y9901D01*
X25401Y9599D01*
X25187Y9599D01*
G37*
%LPD*%
%LPC*%
G36*
X25187Y11599D02*
X25187Y11599D01*
X25161Y11606D01*
X25138Y11619D01*
X25119Y11638D01*
X25106Y11661D01*
X25099Y11687D01*
X25099Y11901D01*
X25401Y11901D01*
X25401Y11599D01*
X25187Y11599D01*
G37*
%LPD*%
%LPC*%
G36*
X9579Y31579D02*
X9579Y31579D01*
X9579Y31916D01*
X9672Y31916D01*
X9916Y31672D01*
X9916Y31579D01*
X9579Y31579D01*
G37*
%LPD*%
%LPC*%
G36*
X15579Y31579D02*
X15579Y31579D01*
X15579Y31916D01*
X15672Y31916D01*
X15916Y31672D01*
X15916Y31579D01*
X15579Y31579D01*
G37*
%LPD*%
%LPC*%
G36*
X25079Y28579D02*
X25079Y28579D01*
X25079Y28916D01*
X25172Y28916D01*
X25416Y28672D01*
X25416Y28579D01*
X25079Y28579D01*
G37*
%LPD*%
%LPC*%
G36*
X9084Y31579D02*
X9084Y31579D01*
X9084Y31672D01*
X9328Y31916D01*
X9421Y31916D01*
X9421Y31579D01*
X9084Y31579D01*
G37*
%LPD*%
%LPC*%
G36*
X15084Y31579D02*
X15084Y31579D01*
X15084Y31672D01*
X15328Y31916D01*
X15421Y31916D01*
X15421Y31579D01*
X15084Y31579D01*
G37*
%LPD*%
%LPC*%
G36*
X24584Y28579D02*
X24584Y28579D01*
X24584Y28672D01*
X24828Y28916D01*
X24921Y28916D01*
X24921Y28579D01*
X24584Y28579D01*
G37*
%LPD*%
%LPC*%
G36*
X25079Y28084D02*
X25079Y28084D01*
X25079Y28421D01*
X25416Y28421D01*
X25416Y28328D01*
X25172Y28084D01*
X25079Y28084D01*
G37*
%LPD*%
%LPC*%
G36*
X9579Y31084D02*
X9579Y31084D01*
X9579Y31421D01*
X9916Y31421D01*
X9916Y31328D01*
X9672Y31084D01*
X9579Y31084D01*
G37*
%LPD*%
%LPC*%
G36*
X15579Y31084D02*
X15579Y31084D01*
X15579Y31421D01*
X15916Y31421D01*
X15916Y31328D01*
X15672Y31084D01*
X15579Y31084D01*
G37*
%LPD*%
%LPC*%
G36*
X24828Y28084D02*
X24828Y28084D01*
X24584Y28328D01*
X24584Y28421D01*
X24921Y28421D01*
X24921Y28084D01*
X24828Y28084D01*
G37*
%LPD*%
%LPC*%
G36*
X15328Y31084D02*
X15328Y31084D01*
X15084Y31328D01*
X15084Y31421D01*
X15421Y31421D01*
X15421Y31084D01*
X15328Y31084D01*
G37*
%LPD*%
%LPC*%
G36*
X1079Y25079D02*
X1079Y25079D01*
X1079Y25408D01*
X1097Y25406D01*
X1160Y25385D01*
X1218Y25356D01*
X1271Y25317D01*
X1317Y25271D01*
X1356Y25218D01*
X1385Y25160D01*
X1406Y25097D01*
X1408Y25079D01*
X1079Y25079D01*
G37*
%LPD*%
%LPC*%
G36*
X1079Y24921D02*
X1079Y24921D01*
X1408Y24921D01*
X1406Y24903D01*
X1385Y24840D01*
X1356Y24782D01*
X1317Y24729D01*
X1271Y24683D01*
X1218Y24644D01*
X1160Y24615D01*
X1097Y24594D01*
X1079Y24592D01*
X1079Y24921D01*
G37*
%LPD*%
%LPC*%
G36*
X30019Y22161D02*
X30019Y22161D01*
X30019Y22449D01*
X30074Y22431D01*
X30130Y22403D01*
X30180Y22366D01*
X30225Y22322D01*
X30261Y22271D01*
X30290Y22216D01*
X30308Y22161D01*
X30019Y22161D01*
G37*
%LPD*%
%LPC*%
G36*
X29019Y27965D02*
X29019Y27965D01*
X29308Y27965D01*
X29290Y27910D01*
X29261Y27855D01*
X29225Y27804D01*
X29180Y27760D01*
X29130Y27723D01*
X29074Y27695D01*
X29019Y27677D01*
X29019Y27965D01*
G37*
%LPD*%
%LPC*%
G36*
X29019Y28161D02*
X29019Y28161D01*
X29019Y28449D01*
X29074Y28431D01*
X29130Y28403D01*
X29180Y28366D01*
X29225Y28322D01*
X29261Y28271D01*
X29290Y28216D01*
X29308Y28161D01*
X29019Y28161D01*
G37*
%LPD*%
%LPC*%
G36*
X18347Y14882D02*
X18347Y14882D01*
X18292Y14910D01*
X18241Y14947D01*
X18197Y14991D01*
X18160Y15042D01*
X18132Y15097D01*
X18114Y15152D01*
X18402Y15152D01*
X18402Y14864D01*
X18347Y14882D01*
G37*
%LPD*%
%LPC*%
G36*
X29019Y22161D02*
X29019Y22161D01*
X29019Y22449D01*
X29074Y22431D01*
X29130Y22403D01*
X29180Y22366D01*
X29225Y22322D01*
X29261Y22271D01*
X29290Y22216D01*
X29308Y22161D01*
X29019Y22161D01*
G37*
%LPD*%
%LPC*%
G36*
X5019Y21965D02*
X5019Y21965D01*
X5308Y21965D01*
X5290Y21910D01*
X5261Y21855D01*
X5225Y21804D01*
X5180Y21760D01*
X5130Y21723D01*
X5074Y21695D01*
X5019Y21677D01*
X5019Y21965D01*
G37*
%LPD*%
%LPC*%
G36*
X28769Y21695D02*
X28769Y21695D01*
X28713Y21723D01*
X28662Y21760D01*
X28618Y21804D01*
X28581Y21855D01*
X28553Y21910D01*
X28535Y21965D01*
X28824Y21965D01*
X28824Y21677D01*
X28769Y21695D01*
G37*
%LPD*%
%LPC*%
G36*
X29535Y22161D02*
X29535Y22161D01*
X29553Y22216D01*
X29581Y22271D01*
X29618Y22322D01*
X29662Y22366D01*
X29713Y22403D01*
X29769Y22431D01*
X29824Y22449D01*
X29824Y22161D01*
X29535Y22161D01*
G37*
%LPD*%
%LPC*%
G36*
X5019Y22161D02*
X5019Y22161D01*
X5019Y22449D01*
X5074Y22431D01*
X5130Y22403D01*
X5180Y22366D01*
X5225Y22322D01*
X5261Y22271D01*
X5290Y22216D01*
X5308Y22161D01*
X5019Y22161D01*
G37*
%LPD*%
%LPC*%
G36*
X28535Y22161D02*
X28535Y22161D01*
X28553Y22216D01*
X28581Y22271D01*
X28618Y22322D01*
X28662Y22366D01*
X28713Y22403D01*
X28769Y22431D01*
X28824Y22449D01*
X28824Y22161D01*
X28535Y22161D01*
G37*
%LPD*%
%LPC*%
G36*
X28769Y20695D02*
X28769Y20695D01*
X28713Y20723D01*
X28662Y20760D01*
X28618Y20804D01*
X28581Y20855D01*
X28553Y20910D01*
X28535Y20965D01*
X28824Y20965D01*
X28824Y20677D01*
X28769Y20695D01*
G37*
%LPD*%
%LPC*%
G36*
X4535Y22161D02*
X4535Y22161D01*
X4553Y22216D01*
X4581Y22271D01*
X4618Y22322D01*
X4662Y22366D01*
X4713Y22403D01*
X4769Y22431D01*
X4824Y22449D01*
X4824Y22161D01*
X4535Y22161D01*
G37*
%LPD*%
%LPC*%
G36*
X29019Y20965D02*
X29019Y20965D01*
X29308Y20965D01*
X29290Y20910D01*
X29261Y20855D01*
X29225Y20804D01*
X29180Y20760D01*
X29130Y20723D01*
X29074Y20695D01*
X29019Y20677D01*
X29019Y20965D01*
G37*
%LPD*%
%LPC*%
G36*
X4769Y21695D02*
X4769Y21695D01*
X4713Y21723D01*
X4662Y21760D01*
X4618Y21804D01*
X4581Y21855D01*
X4553Y21910D01*
X4535Y21965D01*
X4824Y21965D01*
X4824Y21677D01*
X4769Y21695D01*
G37*
%LPD*%
%LPC*%
G36*
X29019Y21161D02*
X29019Y21161D01*
X29019Y21449D01*
X29074Y21431D01*
X29130Y21403D01*
X29180Y21366D01*
X29225Y21322D01*
X29261Y21271D01*
X29290Y21216D01*
X29308Y21161D01*
X29019Y21161D01*
G37*
%LPD*%
%LPC*%
G36*
X28535Y21161D02*
X28535Y21161D01*
X28553Y21216D01*
X28581Y21271D01*
X28618Y21322D01*
X28662Y21366D01*
X28713Y21403D01*
X28769Y21431D01*
X28824Y21449D01*
X28824Y21161D01*
X28535Y21161D01*
G37*
%LPD*%
%LPC*%
G36*
X29769Y21695D02*
X29769Y21695D01*
X29713Y21723D01*
X29662Y21760D01*
X29618Y21804D01*
X29581Y21855D01*
X29553Y21910D01*
X29535Y21965D01*
X29824Y21965D01*
X29824Y21677D01*
X29769Y21695D01*
G37*
%LPD*%
%LPC*%
G36*
X29019Y21965D02*
X29019Y21965D01*
X29308Y21965D01*
X29290Y21910D01*
X29261Y21855D01*
X29225Y21804D01*
X29180Y21760D01*
X29130Y21723D01*
X29074Y21695D01*
X29019Y21677D01*
X29019Y21965D01*
G37*
%LPD*%
%LPC*%
G36*
X5769Y26695D02*
X5769Y26695D01*
X5713Y26723D01*
X5662Y26760D01*
X5618Y26804D01*
X5581Y26855D01*
X5553Y26910D01*
X5535Y26965D01*
X5824Y26965D01*
X5824Y26677D01*
X5769Y26695D01*
G37*
%LPD*%
%LPC*%
G36*
X30019Y21965D02*
X30019Y21965D01*
X30308Y21965D01*
X30290Y21910D01*
X30261Y21855D01*
X30225Y21804D01*
X30180Y21760D01*
X30130Y21723D01*
X30074Y21695D01*
X30019Y21677D01*
X30019Y21965D01*
G37*
%LPD*%
%LPC*%
G36*
X18114Y15348D02*
X18114Y15348D01*
X18132Y15403D01*
X18160Y15458D01*
X18197Y15509D01*
X18241Y15553D01*
X18292Y15590D01*
X18347Y15618D01*
X18402Y15636D01*
X18402Y15348D01*
X18114Y15348D01*
G37*
%LPD*%
%LPC*%
G36*
X18598Y15152D02*
X18598Y15152D01*
X18886Y15152D01*
X18868Y15097D01*
X18840Y15042D01*
X18803Y14991D01*
X18759Y14947D01*
X18708Y14910D01*
X18653Y14882D01*
X18598Y14864D01*
X18598Y15152D01*
G37*
%LPD*%
%LPC*%
G36*
X18598Y15348D02*
X18598Y15348D01*
X18598Y15636D01*
X18653Y15618D01*
X18708Y15590D01*
X18759Y15553D01*
X18803Y15509D01*
X18840Y15458D01*
X18868Y15403D01*
X18886Y15348D01*
X18598Y15348D01*
G37*
%LPD*%
%LPC*%
G36*
X6019Y26965D02*
X6019Y26965D01*
X6308Y26965D01*
X6290Y26910D01*
X6261Y26855D01*
X6225Y26804D01*
X6180Y26760D01*
X6130Y26723D01*
X6074Y26695D01*
X6019Y26677D01*
X6019Y26965D01*
G37*
%LPD*%
%LPC*%
G36*
X5535Y27161D02*
X5535Y27161D01*
X5553Y27216D01*
X5581Y27271D01*
X5618Y27322D01*
X5662Y27366D01*
X5713Y27403D01*
X5769Y27431D01*
X5824Y27449D01*
X5824Y27161D01*
X5535Y27161D01*
G37*
%LPD*%
%LPC*%
G36*
X6019Y27161D02*
X6019Y27161D01*
X6019Y27449D01*
X6074Y27431D01*
X6130Y27403D01*
X6180Y27366D01*
X6225Y27322D01*
X6261Y27271D01*
X6290Y27216D01*
X6308Y27161D01*
X6019Y27161D01*
G37*
%LPD*%
%LPC*%
G36*
X28769Y27695D02*
X28769Y27695D01*
X28713Y27723D01*
X28662Y27760D01*
X28618Y27804D01*
X28581Y27855D01*
X28553Y27910D01*
X28535Y27965D01*
X28824Y27965D01*
X28824Y27677D01*
X28769Y27695D01*
G37*
%LPD*%
%LPC*%
G36*
X1079Y20579D02*
X1079Y20579D01*
X1079Y20861D01*
X1149Y20861D01*
X1361Y20649D01*
X1361Y20579D01*
X1079Y20579D01*
G37*
%LPD*%
%LPC*%
G36*
X851Y20139D02*
X851Y20139D01*
X639Y20351D01*
X639Y20421D01*
X921Y20421D01*
X921Y20139D01*
X851Y20139D01*
G37*
%LPD*%
%LPC*%
G36*
X1079Y20139D02*
X1079Y20139D01*
X1079Y20421D01*
X1361Y20421D01*
X1361Y20351D01*
X1149Y20139D01*
X1079Y20139D01*
G37*
%LPD*%
%LPC*%
G36*
X639Y20579D02*
X639Y20579D01*
X639Y20649D01*
X851Y20861D01*
X921Y20861D01*
X921Y20579D01*
X639Y20579D01*
G37*
%LPD*%
D10*
X13484Y33853D02*
X13484Y33148D01*
X11516Y33148D02*
X11516Y33853D01*
D11*
X15500Y31500D03*
D12*
X15500Y30500D03*
D11*
X9500Y31500D03*
D12*
X9500Y30500D03*
D13*
X25000Y28500D03*
D12*
X26000Y28500D03*
D11*
X1000Y26000D03*
D12*
X1000Y25000D03*
D14*
X11500Y28700D02*
X11500Y29300D01*
X12500Y29300D02*
X12500Y28700D01*
X13500Y28700D02*
X13500Y29300D01*
D15*
X1000Y28000D03*
X1000Y31000D03*
X1000Y20500D03*
X1000Y23500D03*
D14*
X16000Y10300D02*
X16000Y9700D01*
X17000Y9700D02*
X17000Y10300D01*
X18000Y10300D02*
X18000Y9700D01*
X19000Y9700D02*
X19000Y10300D01*
X20000Y10300D02*
X20000Y9700D01*
X21000Y9700D02*
X21000Y10300D01*
D16*
X29921Y13063D03*
X4921Y13063D03*
X29921Y15063D03*
X29921Y16063D03*
X29921Y17063D03*
X29921Y18063D03*
X29921Y19063D03*
X29921Y20063D03*
X29921Y21063D03*
X29921Y14063D03*
X29921Y22063D03*
X29921Y23063D03*
X29921Y24063D03*
X29921Y25063D03*
X29921Y26063D03*
X29921Y27063D03*
X29921Y28063D03*
X29921Y29063D03*
X29921Y30063D03*
X29921Y31063D03*
X28921Y13063D03*
X28921Y15063D03*
X28921Y16063D03*
X28921Y17063D03*
X28921Y18063D03*
X28921Y19063D03*
X28921Y20063D03*
X28921Y21063D03*
X28921Y14063D03*
X28921Y22063D03*
X28921Y23063D03*
X28921Y24063D03*
X28921Y25063D03*
X28921Y26063D03*
X28921Y27063D03*
X28921Y28063D03*
X28921Y29063D03*
X28921Y30063D03*
X28921Y31063D03*
X4921Y14063D03*
X4921Y15063D03*
X4921Y16063D03*
X4921Y17063D03*
X4921Y18063D03*
X4921Y19063D03*
X4921Y20063D03*
X4921Y21063D03*
X4921Y22063D03*
X4921Y23063D03*
X4921Y24063D03*
X4921Y25063D03*
X4921Y26063D03*
X4921Y27063D03*
X4921Y28063D03*
X4921Y29063D03*
X4921Y30063D03*
X4921Y31063D03*
X5921Y13063D03*
X5921Y14063D03*
X5921Y15063D03*
X5921Y16063D03*
X5921Y17063D03*
X5921Y18063D03*
X5921Y19063D03*
X5921Y20063D03*
X5921Y21063D03*
X5921Y22063D03*
X5921Y23063D03*
X5921Y24063D03*
X5921Y25063D03*
X5921Y26063D03*
X5921Y27063D03*
X5921Y28063D03*
X5921Y29063D03*
X5921Y30063D03*
X5921Y31063D03*
D17*
X29921Y32063D03*
D16*
X28921Y32063D03*
X4921Y32063D03*
D17*
X5921Y32063D03*
D18*
X25500Y12000D03*
D19*
X25500Y11000D03*
D18*
X25500Y10000D03*
D19*
X25500Y9000D03*
X25500Y8000D03*
X25500Y7000D03*
X25500Y6000D03*
X25500Y5000D03*
X25500Y4000D03*
X25500Y3000D03*
X11500Y3000D03*
X11500Y4000D03*
X11500Y5000D03*
X11500Y6000D03*
X11500Y9000D03*
X11500Y10000D03*
D20*
X12000Y3500D03*
X12000Y5500D03*
X12000Y9500D03*
D21*
X12000Y7500D03*
D18*
X11500Y8000D03*
X11500Y7000D03*
D22*
X21500Y32000D03*
X19650Y32000D03*
X23350Y32000D03*
D16*
X17500Y15250D03*
D17*
X16500Y15250D03*
D16*
X18500Y15250D03*
X19500Y15250D03*
X20500Y15250D03*
X21500Y15250D03*
D10*
X7853Y7516D02*
X7148Y7516D01*
X7148Y9484D02*
X7853Y9484D01*
X7853Y3516D02*
X7148Y3516D01*
X7148Y5484D02*
X7853Y5484D01*
D23*
X32500Y18500D03*
D24*
X32500Y29500D01*
X31937Y30063D01*
X29921Y30063D01*
X17500Y15250D02*
X19000Y13750D01*
X19000Y10000D01*
D25*
X17500Y28000D02*
X12000Y28000D01*
X11500Y28500D01*
X11500Y29000D01*
X17500Y28000D02*
X21500Y32000D01*
X11500Y29000D02*
X11000Y29000D01*
X9500Y30500D01*
X2000Y31000D02*
X1000Y31000D01*
X2000Y31000D02*
X2500Y31000D01*
X5000Y33500D01*
X6500Y33500D01*
X9500Y30500D01*
X7500Y9753D02*
X7500Y9484D01*
X7500Y9753D02*
X2000Y15253D01*
X2000Y31000D01*
X13484Y33500D02*
X13500Y33500D01*
X15500Y31500D01*
X15000Y31000D01*
X13000Y31000D01*
X12500Y30500D01*
X12500Y29000D01*
X11500Y31500D02*
X9500Y31500D01*
X11500Y31500D02*
X12500Y30500D01*
X17000Y33500D02*
X22000Y33500D01*
X17000Y33500D02*
X15500Y32000D01*
X15500Y31500D01*
X22584Y31183D02*
X22584Y32916D01*
X25000Y28767D02*
X25000Y28500D01*
X25000Y28767D02*
X22584Y31183D01*
X22584Y32916D02*
X22000Y33500D01*
X25000Y28500D02*
X25000Y27500D01*
X27000Y27500D01*
X28358Y27500D01*
X28921Y28063D01*
X18000Y10500D02*
X18000Y10000D01*
X18000Y10500D02*
X17500Y11000D01*
X11000Y11000D01*
X10000Y10000D01*
X10000Y8500D01*
X9016Y7516D01*
X7500Y7516D01*
X18000Y8500D02*
X18000Y10000D01*
X18000Y8500D02*
X18500Y8000D01*
X23500Y8000D02*
X25500Y10000D01*
X23500Y8000D02*
X18500Y8000D01*
X1000Y13000D02*
X1000Y20500D01*
X1000Y13000D02*
X6484Y7516D01*
X7500Y7516D01*
X27000Y23984D02*
X28921Y22063D01*
X27000Y23984D02*
X27000Y27500D01*
X15000Y30500D02*
X13500Y29000D01*
X15000Y30500D02*
X15500Y30500D01*
X26000Y28500D02*
X28358Y28500D01*
X28921Y29063D01*
X12500Y34484D02*
X11516Y33500D01*
X12500Y34484D02*
X12500Y34500D01*
X22500Y34500D02*
X23350Y33650D01*
X23350Y32000D01*
X22500Y34500D02*
X12500Y34500D01*
D24*
X19500Y15250D02*
X20250Y14500D01*
X26358Y14500D02*
X28921Y17063D01*
X26358Y14500D02*
X20250Y14500D01*
X20500Y15250D02*
X23313Y18063D01*
X28921Y18063D01*
X28000Y8500D02*
X25500Y6000D01*
X28000Y8500D02*
X28000Y15500D01*
X28563Y16063D01*
X28921Y16063D01*
D25*
X9500Y1516D02*
X7500Y3516D01*
X9500Y1516D02*
X9500Y1500D01*
X10000Y1000D01*
X15000Y1000D01*
X17000Y3000D01*
X17000Y10000D01*
X10984Y2000D02*
X7500Y5484D01*
X10984Y2000D02*
X14500Y2000D01*
X16000Y3500D01*
X16000Y10000D01*
M02*
