G04 EAGLE Gerber RS-274X export*
G75*
%MOIN*%
%FSLAX34Y34*%
%LPD*%
%IN*%
%IPPOS*%
%AMOC8*
5,1,8,0,0,1.08239X$1,22.5*%
G01*
%ADD10C,0.006000*%
%ADD11C,0.005118*%
%ADD12C,0.000000*%
%ADD13C,0.010000*%


D10*
X0Y0D02*
X0Y35433D01*
X35433Y35433D01*
X35433Y0D01*
X0Y0D01*
D11*
X33465Y1969D02*
X35268Y1969D01*
X35268Y33465D02*
X33465Y33465D01*
X34500Y33439D02*
X34500Y1994D01*
X34374Y2992D01*
X34626Y2992D01*
X34500Y1994D01*
X34449Y2992D01*
X34551Y2992D02*
X34500Y1994D01*
X34398Y2992D01*
X34602Y2992D02*
X34500Y1994D01*
X34374Y32441D02*
X34500Y33439D01*
X34374Y32441D02*
X34626Y32441D01*
X34500Y33439D01*
X34449Y32441D01*
X34551Y32441D02*
X34500Y33439D01*
X34398Y32441D01*
X34602Y32441D02*
X34500Y33439D01*
D10*
X34066Y16846D02*
X34041Y16844D01*
X34016Y16839D01*
X33992Y16830D01*
X33970Y16818D01*
X33949Y16803D01*
X33931Y16785D01*
X33916Y16764D01*
X33904Y16742D01*
X33895Y16718D01*
X33890Y16693D01*
X33888Y16668D01*
X33890Y16643D01*
X33895Y16618D01*
X33904Y16594D01*
X33916Y16572D01*
X33931Y16551D01*
X33949Y16533D01*
X33970Y16518D01*
X33992Y16506D01*
X34016Y16497D01*
X34041Y16492D01*
X34066Y16490D01*
X34091Y16492D01*
X34116Y16497D01*
X34140Y16506D01*
X34162Y16518D01*
X34183Y16533D01*
X34201Y16551D01*
X34216Y16572D01*
X34228Y16594D01*
X34237Y16618D01*
X34242Y16643D01*
X34244Y16668D01*
X34242Y16693D01*
X34237Y16718D01*
X34228Y16742D01*
X34216Y16764D01*
X34201Y16785D01*
X34183Y16803D01*
X34162Y16818D01*
X34140Y16830D01*
X34116Y16839D01*
X34091Y16844D01*
X34066Y16846D01*
X33746Y16810D02*
X33724Y16808D01*
X33702Y16803D01*
X33682Y16795D01*
X33663Y16783D01*
X33646Y16768D01*
X33631Y16751D01*
X33619Y16732D01*
X33611Y16712D01*
X33606Y16690D01*
X33604Y16668D01*
X33606Y16646D01*
X33611Y16624D01*
X33619Y16604D01*
X33631Y16585D01*
X33646Y16568D01*
X33663Y16553D01*
X33682Y16541D01*
X33702Y16533D01*
X33724Y16528D01*
X33746Y16526D01*
X33768Y16528D01*
X33790Y16533D01*
X33810Y16541D01*
X33829Y16553D01*
X33846Y16568D01*
X33861Y16585D01*
X33873Y16604D01*
X33881Y16624D01*
X33886Y16646D01*
X33888Y16668D01*
X33886Y16690D01*
X33881Y16712D01*
X33873Y16732D01*
X33861Y16751D01*
X33846Y16768D01*
X33829Y16783D01*
X33810Y16795D01*
X33790Y16803D01*
X33768Y16808D01*
X33746Y16810D01*
X33924Y17106D02*
X33884Y17108D01*
X33845Y17112D01*
X33806Y17119D01*
X33767Y17130D01*
X33730Y17143D01*
X33693Y17159D01*
X33692Y17158D02*
X33673Y17166D01*
X33656Y17177D01*
X33641Y17191D01*
X33628Y17206D01*
X33617Y17224D01*
X33609Y17243D01*
X33605Y17263D01*
X33603Y17283D01*
X33605Y17303D01*
X33609Y17323D01*
X33617Y17342D01*
X33628Y17360D01*
X33641Y17375D01*
X33656Y17389D01*
X33673Y17400D01*
X33692Y17408D01*
X33693Y17408D02*
X33730Y17424D01*
X33767Y17437D01*
X33806Y17448D01*
X33845Y17455D01*
X33884Y17459D01*
X33924Y17461D01*
X33924Y17106D02*
X33964Y17108D01*
X34003Y17112D01*
X34042Y17119D01*
X34081Y17130D01*
X34118Y17143D01*
X34155Y17159D01*
X34155Y17158D02*
X34174Y17166D01*
X34191Y17177D01*
X34206Y17191D01*
X34219Y17206D01*
X34230Y17224D01*
X34238Y17243D01*
X34242Y17263D01*
X34244Y17283D01*
X34155Y17408D02*
X34118Y17424D01*
X34081Y17437D01*
X34042Y17448D01*
X34003Y17455D01*
X33964Y17459D01*
X33924Y17461D01*
X34155Y17408D02*
X34174Y17400D01*
X34191Y17389D01*
X34206Y17375D01*
X34219Y17360D01*
X34230Y17342D01*
X34238Y17323D01*
X34242Y17303D01*
X34244Y17283D01*
X34102Y17141D02*
X33746Y17426D01*
X34208Y17696D02*
X34244Y17696D01*
X34208Y17696D02*
X34208Y17732D01*
X34244Y17732D01*
X34244Y17696D01*
X33924Y17968D02*
X33884Y17970D01*
X33845Y17974D01*
X33806Y17981D01*
X33767Y17992D01*
X33730Y18005D01*
X33693Y18021D01*
X33692Y18020D02*
X33673Y18028D01*
X33656Y18039D01*
X33641Y18053D01*
X33628Y18068D01*
X33617Y18086D01*
X33609Y18105D01*
X33605Y18125D01*
X33603Y18145D01*
X33605Y18165D01*
X33609Y18185D01*
X33617Y18204D01*
X33628Y18222D01*
X33641Y18237D01*
X33656Y18251D01*
X33673Y18262D01*
X33692Y18270D01*
X33693Y18269D02*
X33730Y18285D01*
X33767Y18298D01*
X33806Y18309D01*
X33845Y18316D01*
X33884Y18320D01*
X33924Y18322D01*
X33924Y17968D02*
X33964Y17970D01*
X34003Y17974D01*
X34042Y17981D01*
X34081Y17992D01*
X34118Y18005D01*
X34155Y18021D01*
X34155Y18020D02*
X34174Y18028D01*
X34191Y18039D01*
X34206Y18053D01*
X34219Y18068D01*
X34230Y18086D01*
X34238Y18105D01*
X34242Y18125D01*
X34244Y18145D01*
X34155Y18269D02*
X34118Y18285D01*
X34081Y18298D01*
X34042Y18309D01*
X34003Y18316D01*
X33964Y18320D01*
X33924Y18322D01*
X34155Y18270D02*
X34174Y18262D01*
X34191Y18251D01*
X34206Y18237D01*
X34219Y18222D01*
X34230Y18204D01*
X34238Y18185D01*
X34242Y18165D01*
X34244Y18145D01*
X34102Y18003D02*
X33746Y18287D01*
X33924Y18583D02*
X33884Y18585D01*
X33845Y18589D01*
X33806Y18596D01*
X33767Y18607D01*
X33730Y18620D01*
X33693Y18636D01*
X33692Y18635D02*
X33673Y18643D01*
X33656Y18654D01*
X33641Y18668D01*
X33628Y18683D01*
X33617Y18701D01*
X33609Y18720D01*
X33605Y18740D01*
X33603Y18760D01*
X33605Y18780D01*
X33609Y18800D01*
X33617Y18819D01*
X33628Y18837D01*
X33641Y18852D01*
X33656Y18866D01*
X33673Y18877D01*
X33692Y18885D01*
X33693Y18885D02*
X33730Y18901D01*
X33767Y18914D01*
X33806Y18925D01*
X33845Y18932D01*
X33884Y18936D01*
X33924Y18938D01*
X33924Y18583D02*
X33964Y18585D01*
X34003Y18589D01*
X34042Y18596D01*
X34081Y18607D01*
X34118Y18620D01*
X34155Y18636D01*
X34155Y18635D02*
X34174Y18643D01*
X34191Y18654D01*
X34206Y18668D01*
X34219Y18683D01*
X34230Y18701D01*
X34238Y18720D01*
X34242Y18740D01*
X34244Y18760D01*
X34155Y18885D02*
X34118Y18901D01*
X34081Y18914D01*
X34042Y18925D01*
X34003Y18932D01*
X33964Y18936D01*
X33924Y18938D01*
X34155Y18885D02*
X34174Y18877D01*
X34191Y18866D01*
X34206Y18852D01*
X34219Y18837D01*
X34230Y18819D01*
X34238Y18800D01*
X34242Y18780D01*
X34244Y18760D01*
X34102Y18618D02*
X33746Y18903D01*
D12*
X1319Y1969D02*
X1321Y2019D01*
X1327Y2069D01*
X1337Y2119D01*
X1350Y2167D01*
X1367Y2215D01*
X1388Y2261D01*
X1412Y2305D01*
X1440Y2347D01*
X1471Y2387D01*
X1505Y2424D01*
X1542Y2459D01*
X1581Y2490D01*
X1622Y2519D01*
X1666Y2544D01*
X1712Y2566D01*
X1759Y2584D01*
X1807Y2598D01*
X1856Y2609D01*
X1906Y2616D01*
X1956Y2619D01*
X2007Y2618D01*
X2057Y2613D01*
X2107Y2604D01*
X2155Y2592D01*
X2203Y2575D01*
X2249Y2555D01*
X2294Y2532D01*
X2337Y2505D01*
X2377Y2475D01*
X2415Y2442D01*
X2450Y2406D01*
X2483Y2367D01*
X2512Y2326D01*
X2538Y2283D01*
X2561Y2238D01*
X2580Y2191D01*
X2595Y2143D01*
X2607Y2094D01*
X2615Y2044D01*
X2619Y1994D01*
X2619Y1944D01*
X2615Y1894D01*
X2607Y1844D01*
X2595Y1795D01*
X2580Y1747D01*
X2561Y1700D01*
X2538Y1655D01*
X2512Y1612D01*
X2483Y1571D01*
X2450Y1532D01*
X2415Y1496D01*
X2377Y1463D01*
X2337Y1433D01*
X2294Y1406D01*
X2249Y1383D01*
X2203Y1363D01*
X2155Y1346D01*
X2107Y1334D01*
X2057Y1325D01*
X2007Y1320D01*
X1956Y1319D01*
X1906Y1322D01*
X1856Y1329D01*
X1807Y1340D01*
X1759Y1354D01*
X1712Y1372D01*
X1666Y1394D01*
X1622Y1419D01*
X1581Y1448D01*
X1542Y1479D01*
X1505Y1514D01*
X1471Y1551D01*
X1440Y1591D01*
X1412Y1633D01*
X1388Y1677D01*
X1367Y1723D01*
X1350Y1771D01*
X1337Y1819D01*
X1327Y1869D01*
X1321Y1919D01*
X1319Y1969D01*
X32815Y33465D02*
X32817Y33515D01*
X32823Y33565D01*
X32833Y33615D01*
X32846Y33663D01*
X32863Y33711D01*
X32884Y33757D01*
X32908Y33801D01*
X32936Y33843D01*
X32967Y33883D01*
X33001Y33920D01*
X33038Y33955D01*
X33077Y33986D01*
X33118Y34015D01*
X33162Y34040D01*
X33208Y34062D01*
X33255Y34080D01*
X33303Y34094D01*
X33352Y34105D01*
X33402Y34112D01*
X33452Y34115D01*
X33503Y34114D01*
X33553Y34109D01*
X33603Y34100D01*
X33651Y34088D01*
X33699Y34071D01*
X33745Y34051D01*
X33790Y34028D01*
X33833Y34001D01*
X33873Y33971D01*
X33911Y33938D01*
X33946Y33902D01*
X33979Y33863D01*
X34008Y33822D01*
X34034Y33779D01*
X34057Y33734D01*
X34076Y33687D01*
X34091Y33639D01*
X34103Y33590D01*
X34111Y33540D01*
X34115Y33490D01*
X34115Y33440D01*
X34111Y33390D01*
X34103Y33340D01*
X34091Y33291D01*
X34076Y33243D01*
X34057Y33196D01*
X34034Y33151D01*
X34008Y33108D01*
X33979Y33067D01*
X33946Y33028D01*
X33911Y32992D01*
X33873Y32959D01*
X33833Y32929D01*
X33790Y32902D01*
X33745Y32879D01*
X33699Y32859D01*
X33651Y32842D01*
X33603Y32830D01*
X33553Y32821D01*
X33503Y32816D01*
X33452Y32815D01*
X33402Y32818D01*
X33352Y32825D01*
X33303Y32836D01*
X33255Y32850D01*
X33208Y32868D01*
X33162Y32890D01*
X33118Y32915D01*
X33077Y32944D01*
X33038Y32975D01*
X33001Y33010D01*
X32967Y33047D01*
X32936Y33087D01*
X32908Y33129D01*
X32884Y33173D01*
X32863Y33219D01*
X32846Y33267D01*
X32833Y33315D01*
X32823Y33365D01*
X32817Y33415D01*
X32815Y33465D01*
X32815Y1969D02*
X32817Y2019D01*
X32823Y2069D01*
X32833Y2119D01*
X32846Y2167D01*
X32863Y2215D01*
X32884Y2261D01*
X32908Y2305D01*
X32936Y2347D01*
X32967Y2387D01*
X33001Y2424D01*
X33038Y2459D01*
X33077Y2490D01*
X33118Y2519D01*
X33162Y2544D01*
X33208Y2566D01*
X33255Y2584D01*
X33303Y2598D01*
X33352Y2609D01*
X33402Y2616D01*
X33452Y2619D01*
X33503Y2618D01*
X33553Y2613D01*
X33603Y2604D01*
X33651Y2592D01*
X33699Y2575D01*
X33745Y2555D01*
X33790Y2532D01*
X33833Y2505D01*
X33873Y2475D01*
X33911Y2442D01*
X33946Y2406D01*
X33979Y2367D01*
X34008Y2326D01*
X34034Y2283D01*
X34057Y2238D01*
X34076Y2191D01*
X34091Y2143D01*
X34103Y2094D01*
X34111Y2044D01*
X34115Y1994D01*
X34115Y1944D01*
X34111Y1894D01*
X34103Y1844D01*
X34091Y1795D01*
X34076Y1747D01*
X34057Y1700D01*
X34034Y1655D01*
X34008Y1612D01*
X33979Y1571D01*
X33946Y1532D01*
X33911Y1496D01*
X33873Y1463D01*
X33833Y1433D01*
X33790Y1406D01*
X33745Y1383D01*
X33699Y1363D01*
X33651Y1346D01*
X33603Y1334D01*
X33553Y1325D01*
X33503Y1320D01*
X33452Y1319D01*
X33402Y1322D01*
X33352Y1329D01*
X33303Y1340D01*
X33255Y1354D01*
X33208Y1372D01*
X33162Y1394D01*
X33118Y1419D01*
X33077Y1448D01*
X33038Y1479D01*
X33001Y1514D01*
X32967Y1551D01*
X32936Y1591D01*
X32908Y1633D01*
X32884Y1677D01*
X32863Y1723D01*
X32846Y1771D01*
X32833Y1819D01*
X32823Y1869D01*
X32817Y1919D01*
X32815Y1969D01*
X1319Y33465D02*
X1321Y33515D01*
X1327Y33565D01*
X1337Y33615D01*
X1350Y33663D01*
X1367Y33711D01*
X1388Y33757D01*
X1412Y33801D01*
X1440Y33843D01*
X1471Y33883D01*
X1505Y33920D01*
X1542Y33955D01*
X1581Y33986D01*
X1622Y34015D01*
X1666Y34040D01*
X1712Y34062D01*
X1759Y34080D01*
X1807Y34094D01*
X1856Y34105D01*
X1906Y34112D01*
X1956Y34115D01*
X2007Y34114D01*
X2057Y34109D01*
X2107Y34100D01*
X2155Y34088D01*
X2203Y34071D01*
X2249Y34051D01*
X2294Y34028D01*
X2337Y34001D01*
X2377Y33971D01*
X2415Y33938D01*
X2450Y33902D01*
X2483Y33863D01*
X2512Y33822D01*
X2538Y33779D01*
X2561Y33734D01*
X2580Y33687D01*
X2595Y33639D01*
X2607Y33590D01*
X2615Y33540D01*
X2619Y33490D01*
X2619Y33440D01*
X2615Y33390D01*
X2607Y33340D01*
X2595Y33291D01*
X2580Y33243D01*
X2561Y33196D01*
X2538Y33151D01*
X2512Y33108D01*
X2483Y33067D01*
X2450Y33028D01*
X2415Y32992D01*
X2377Y32959D01*
X2337Y32929D01*
X2294Y32902D01*
X2249Y32879D01*
X2203Y32859D01*
X2155Y32842D01*
X2107Y32830D01*
X2057Y32821D01*
X2007Y32816D01*
X1956Y32815D01*
X1906Y32818D01*
X1856Y32825D01*
X1807Y32836D01*
X1759Y32850D01*
X1712Y32868D01*
X1666Y32890D01*
X1622Y32915D01*
X1581Y32944D01*
X1542Y32975D01*
X1505Y33010D01*
X1471Y33047D01*
X1440Y33087D01*
X1412Y33129D01*
X1388Y33173D01*
X1367Y33219D01*
X1350Y33267D01*
X1337Y33315D01*
X1327Y33365D01*
X1321Y33415D01*
X1319Y33465D01*
X11570Y12000D02*
X11572Y12041D01*
X11578Y12081D01*
X11587Y12121D01*
X11601Y12160D01*
X11618Y12197D01*
X11638Y12232D01*
X11662Y12266D01*
X11689Y12297D01*
X11718Y12325D01*
X11751Y12350D01*
X11785Y12372D01*
X11821Y12391D01*
X11859Y12406D01*
X11899Y12418D01*
X11939Y12426D01*
X11980Y12430D01*
X12020Y12430D01*
X12061Y12426D01*
X12101Y12418D01*
X12141Y12406D01*
X12179Y12391D01*
X12215Y12372D01*
X12249Y12350D01*
X12282Y12325D01*
X12311Y12297D01*
X12338Y12266D01*
X12362Y12232D01*
X12382Y12197D01*
X12399Y12160D01*
X12413Y12121D01*
X12422Y12081D01*
X12428Y12041D01*
X12430Y12000D01*
X12428Y11959D01*
X12422Y11919D01*
X12413Y11879D01*
X12399Y11840D01*
X12382Y11803D01*
X12362Y11768D01*
X12338Y11734D01*
X12311Y11703D01*
X12282Y11675D01*
X12249Y11650D01*
X12215Y11628D01*
X12179Y11609D01*
X12141Y11594D01*
X12101Y11582D01*
X12061Y11574D01*
X12020Y11570D01*
X11980Y11570D01*
X11939Y11574D01*
X11899Y11582D01*
X11859Y11594D01*
X11821Y11609D01*
X11785Y11628D01*
X11751Y11650D01*
X11718Y11675D01*
X11689Y11703D01*
X11662Y11734D01*
X11638Y11768D01*
X11618Y11803D01*
X11601Y11840D01*
X11587Y11879D01*
X11578Y11919D01*
X11572Y11959D01*
X11570Y12000D01*
X23570Y3000D02*
X23572Y3041D01*
X23578Y3081D01*
X23587Y3121D01*
X23601Y3160D01*
X23618Y3197D01*
X23638Y3232D01*
X23662Y3266D01*
X23689Y3297D01*
X23718Y3325D01*
X23751Y3350D01*
X23785Y3372D01*
X23821Y3391D01*
X23859Y3406D01*
X23899Y3418D01*
X23939Y3426D01*
X23980Y3430D01*
X24020Y3430D01*
X24061Y3426D01*
X24101Y3418D01*
X24141Y3406D01*
X24179Y3391D01*
X24215Y3372D01*
X24249Y3350D01*
X24282Y3325D01*
X24311Y3297D01*
X24338Y3266D01*
X24362Y3232D01*
X24382Y3197D01*
X24399Y3160D01*
X24413Y3121D01*
X24422Y3081D01*
X24428Y3041D01*
X24430Y3000D01*
X24428Y2959D01*
X24422Y2919D01*
X24413Y2879D01*
X24399Y2840D01*
X24382Y2803D01*
X24362Y2768D01*
X24338Y2734D01*
X24311Y2703D01*
X24282Y2675D01*
X24249Y2650D01*
X24215Y2628D01*
X24179Y2609D01*
X24141Y2594D01*
X24101Y2582D01*
X24061Y2574D01*
X24020Y2570D01*
X23980Y2570D01*
X23939Y2574D01*
X23899Y2582D01*
X23859Y2594D01*
X23821Y2609D01*
X23785Y2628D01*
X23751Y2650D01*
X23718Y2675D01*
X23689Y2703D01*
X23662Y2734D01*
X23638Y2768D01*
X23618Y2803D01*
X23601Y2840D01*
X23587Y2879D01*
X23578Y2919D01*
X23572Y2959D01*
X23570Y3000D01*
X18038Y32626D02*
X18040Y32664D01*
X18046Y32702D01*
X18056Y32738D01*
X18069Y32774D01*
X18087Y32808D01*
X18108Y32840D01*
X18131Y32870D01*
X18158Y32897D01*
X18188Y32920D01*
X18220Y32941D01*
X18254Y32959D01*
X18290Y32972D01*
X18326Y32982D01*
X18364Y32988D01*
X18402Y32990D01*
X18440Y32988D01*
X18478Y32982D01*
X18514Y32972D01*
X18550Y32959D01*
X18584Y32941D01*
X18616Y32920D01*
X18646Y32897D01*
X18673Y32870D01*
X18696Y32840D01*
X18717Y32808D01*
X18735Y32774D01*
X18748Y32738D01*
X18758Y32702D01*
X18764Y32664D01*
X18766Y32626D01*
X18764Y32588D01*
X18758Y32550D01*
X18748Y32514D01*
X18735Y32478D01*
X18717Y32444D01*
X18696Y32412D01*
X18673Y32382D01*
X18646Y32355D01*
X18616Y32332D01*
X18584Y32311D01*
X18550Y32293D01*
X18514Y32280D01*
X18478Y32270D01*
X18440Y32264D01*
X18402Y32262D01*
X18364Y32264D01*
X18326Y32270D01*
X18290Y32280D01*
X18254Y32293D01*
X18220Y32311D01*
X18188Y32332D01*
X18158Y32355D01*
X18131Y32382D01*
X18108Y32412D01*
X18087Y32444D01*
X18069Y32478D01*
X18056Y32514D01*
X18046Y32550D01*
X18040Y32588D01*
X18038Y32626D01*
X18038Y31374D02*
X18040Y31412D01*
X18046Y31450D01*
X18056Y31486D01*
X18069Y31522D01*
X18087Y31556D01*
X18108Y31588D01*
X18131Y31618D01*
X18158Y31645D01*
X18188Y31668D01*
X18220Y31689D01*
X18254Y31707D01*
X18290Y31720D01*
X18326Y31730D01*
X18364Y31736D01*
X18402Y31738D01*
X18440Y31736D01*
X18478Y31730D01*
X18514Y31720D01*
X18550Y31707D01*
X18584Y31689D01*
X18616Y31668D01*
X18646Y31645D01*
X18673Y31618D01*
X18696Y31588D01*
X18717Y31556D01*
X18735Y31522D01*
X18748Y31486D01*
X18758Y31450D01*
X18764Y31412D01*
X18766Y31374D01*
X18764Y31336D01*
X18758Y31298D01*
X18748Y31262D01*
X18735Y31226D01*
X18717Y31192D01*
X18696Y31160D01*
X18673Y31130D01*
X18646Y31103D01*
X18616Y31080D01*
X18584Y31059D01*
X18550Y31041D01*
X18514Y31028D01*
X18478Y31018D01*
X18440Y31012D01*
X18402Y31010D01*
X18364Y31012D01*
X18326Y31018D01*
X18290Y31028D01*
X18254Y31041D01*
X18220Y31059D01*
X18188Y31080D01*
X18158Y31103D01*
X18131Y31130D01*
X18108Y31160D01*
X18087Y31192D01*
X18069Y31226D01*
X18056Y31262D01*
X18046Y31298D01*
X18040Y31336D01*
X18038Y31374D01*
X24234Y32626D02*
X24236Y32664D01*
X24242Y32702D01*
X24252Y32738D01*
X24265Y32774D01*
X24283Y32808D01*
X24304Y32840D01*
X24327Y32870D01*
X24354Y32897D01*
X24384Y32920D01*
X24416Y32941D01*
X24450Y32959D01*
X24486Y32972D01*
X24522Y32982D01*
X24560Y32988D01*
X24598Y32990D01*
X24636Y32988D01*
X24674Y32982D01*
X24710Y32972D01*
X24746Y32959D01*
X24780Y32941D01*
X24812Y32920D01*
X24842Y32897D01*
X24869Y32870D01*
X24892Y32840D01*
X24913Y32808D01*
X24931Y32774D01*
X24944Y32738D01*
X24954Y32702D01*
X24960Y32664D01*
X24962Y32626D01*
X24960Y32588D01*
X24954Y32550D01*
X24944Y32514D01*
X24931Y32478D01*
X24913Y32444D01*
X24892Y32412D01*
X24869Y32382D01*
X24842Y32355D01*
X24812Y32332D01*
X24780Y32311D01*
X24746Y32293D01*
X24710Y32280D01*
X24674Y32270D01*
X24636Y32264D01*
X24598Y32262D01*
X24560Y32264D01*
X24522Y32270D01*
X24486Y32280D01*
X24450Y32293D01*
X24416Y32311D01*
X24384Y32332D01*
X24354Y32355D01*
X24327Y32382D01*
X24304Y32412D01*
X24283Y32444D01*
X24265Y32478D01*
X24252Y32514D01*
X24242Y32550D01*
X24236Y32588D01*
X24234Y32626D01*
X24234Y31378D02*
X24236Y31416D01*
X24242Y31454D01*
X24252Y31490D01*
X24265Y31526D01*
X24283Y31560D01*
X24304Y31592D01*
X24327Y31622D01*
X24354Y31649D01*
X24384Y31672D01*
X24416Y31693D01*
X24450Y31711D01*
X24486Y31724D01*
X24522Y31734D01*
X24560Y31740D01*
X24598Y31742D01*
X24636Y31740D01*
X24674Y31734D01*
X24710Y31724D01*
X24746Y31711D01*
X24780Y31693D01*
X24812Y31672D01*
X24842Y31649D01*
X24869Y31622D01*
X24892Y31592D01*
X24913Y31560D01*
X24931Y31526D01*
X24944Y31490D01*
X24954Y31454D01*
X24960Y31416D01*
X24962Y31378D01*
X24960Y31340D01*
X24954Y31302D01*
X24944Y31266D01*
X24931Y31230D01*
X24913Y31196D01*
X24892Y31164D01*
X24869Y31134D01*
X24842Y31107D01*
X24812Y31084D01*
X24780Y31063D01*
X24746Y31045D01*
X24710Y31032D01*
X24674Y31022D01*
X24636Y31016D01*
X24598Y31014D01*
X24560Y31016D01*
X24522Y31022D01*
X24486Y31032D01*
X24450Y31045D01*
X24416Y31063D01*
X24384Y31084D01*
X24354Y31107D01*
X24327Y31134D01*
X24304Y31164D01*
X24283Y31196D01*
X24265Y31230D01*
X24252Y31266D01*
X24242Y31302D01*
X24236Y31340D01*
X24234Y31378D01*
D13*
X0Y0D02*
X35433Y0D01*
X35433Y35433D01*
X0Y35433D01*
X0Y0D01*
X2618Y1947D02*
X2615Y1905D01*
X2610Y1863D01*
X2601Y1821D01*
X2590Y1780D01*
X2577Y1740D01*
X2561Y1700D01*
X2542Y1662D01*
X2520Y1625D01*
X2497Y1590D01*
X2471Y1556D01*
X2443Y1524D01*
X2413Y1494D01*
X2381Y1466D01*
X2347Y1440D01*
X2312Y1417D01*
X2275Y1395D01*
X2237Y1376D01*
X2197Y1360D01*
X2157Y1347D01*
X2116Y1336D01*
X2074Y1327D01*
X2032Y1322D01*
X1990Y1319D01*
X1947Y1319D01*
X1905Y1322D01*
X1863Y1327D01*
X1821Y1336D01*
X1780Y1347D01*
X1740Y1360D01*
X1700Y1376D01*
X1662Y1395D01*
X1625Y1417D01*
X1590Y1440D01*
X1556Y1466D01*
X1524Y1494D01*
X1494Y1524D01*
X1466Y1556D01*
X1440Y1590D01*
X1417Y1625D01*
X1395Y1662D01*
X1376Y1700D01*
X1360Y1740D01*
X1347Y1780D01*
X1336Y1821D01*
X1327Y1863D01*
X1322Y1905D01*
X1319Y1947D01*
X1319Y1990D01*
X1322Y2032D01*
X1327Y2074D01*
X1336Y2116D01*
X1347Y2157D01*
X1360Y2197D01*
X1376Y2237D01*
X1395Y2275D01*
X1417Y2312D01*
X1440Y2347D01*
X1466Y2381D01*
X1494Y2413D01*
X1524Y2443D01*
X1556Y2471D01*
X1590Y2497D01*
X1625Y2520D01*
X1662Y2542D01*
X1700Y2561D01*
X1740Y2577D01*
X1780Y2590D01*
X1821Y2601D01*
X1863Y2610D01*
X1905Y2615D01*
X1947Y2618D01*
X1990Y2618D01*
X2032Y2615D01*
X2074Y2610D01*
X2116Y2601D01*
X2157Y2590D01*
X2197Y2577D01*
X2237Y2561D01*
X2275Y2542D01*
X2312Y2520D01*
X2347Y2497D01*
X2381Y2471D01*
X2413Y2443D01*
X2443Y2413D01*
X2471Y2381D01*
X2497Y2347D01*
X2520Y2312D01*
X2542Y2275D01*
X2561Y2237D01*
X2577Y2197D01*
X2590Y2157D01*
X2601Y2116D01*
X2610Y2074D01*
X2615Y2032D01*
X2618Y1990D01*
X2618Y1947D01*
X34114Y33443D02*
X34111Y33401D01*
X34106Y33359D01*
X34098Y33317D01*
X34087Y33276D01*
X34073Y33236D01*
X34057Y33196D01*
X34038Y33158D01*
X34017Y33121D01*
X33993Y33086D01*
X33967Y33052D01*
X33939Y33020D01*
X33909Y32990D01*
X33877Y32962D01*
X33843Y32936D01*
X33808Y32913D01*
X33771Y32891D01*
X33733Y32873D01*
X33694Y32856D01*
X33653Y32843D01*
X33612Y32832D01*
X33570Y32823D01*
X33528Y32818D01*
X33486Y32815D01*
X33443Y32815D01*
X33401Y32818D01*
X33359Y32823D01*
X33317Y32832D01*
X33276Y32843D01*
X33236Y32856D01*
X33196Y32873D01*
X33158Y32891D01*
X33121Y32913D01*
X33086Y32936D01*
X33052Y32962D01*
X33020Y32990D01*
X32990Y33020D01*
X32962Y33052D01*
X32936Y33086D01*
X32913Y33121D01*
X32891Y33158D01*
X32873Y33196D01*
X32856Y33236D01*
X32843Y33276D01*
X32832Y33317D01*
X32823Y33359D01*
X32818Y33401D01*
X32815Y33443D01*
X32815Y33486D01*
X32818Y33528D01*
X32823Y33570D01*
X32832Y33612D01*
X32843Y33653D01*
X32856Y33694D01*
X32873Y33733D01*
X32891Y33771D01*
X32913Y33808D01*
X32936Y33843D01*
X32962Y33877D01*
X32990Y33909D01*
X33020Y33939D01*
X33052Y33967D01*
X33086Y33993D01*
X33121Y34017D01*
X33158Y34038D01*
X33196Y34057D01*
X33236Y34073D01*
X33276Y34087D01*
X33317Y34098D01*
X33359Y34106D01*
X33401Y34111D01*
X33443Y34114D01*
X33486Y34114D01*
X33528Y34111D01*
X33570Y34106D01*
X33612Y34098D01*
X33653Y34087D01*
X33694Y34073D01*
X33733Y34057D01*
X33771Y34038D01*
X33808Y34017D01*
X33843Y33993D01*
X33877Y33967D01*
X33909Y33939D01*
X33939Y33909D01*
X33967Y33877D01*
X33993Y33843D01*
X34017Y33808D01*
X34038Y33771D01*
X34057Y33733D01*
X34073Y33694D01*
X34087Y33653D01*
X34098Y33612D01*
X34106Y33570D01*
X34111Y33528D01*
X34114Y33486D01*
X34114Y33443D01*
X34114Y1947D02*
X34111Y1905D01*
X34106Y1863D01*
X34098Y1821D01*
X34087Y1780D01*
X34073Y1740D01*
X34057Y1700D01*
X34038Y1662D01*
X34017Y1625D01*
X33993Y1590D01*
X33967Y1556D01*
X33939Y1524D01*
X33909Y1494D01*
X33877Y1466D01*
X33843Y1440D01*
X33808Y1417D01*
X33771Y1395D01*
X33733Y1376D01*
X33694Y1360D01*
X33653Y1347D01*
X33612Y1336D01*
X33570Y1327D01*
X33528Y1322D01*
X33486Y1319D01*
X33443Y1319D01*
X33401Y1322D01*
X33359Y1327D01*
X33317Y1336D01*
X33276Y1347D01*
X33236Y1360D01*
X33196Y1376D01*
X33158Y1395D01*
X33121Y1417D01*
X33086Y1440D01*
X33052Y1466D01*
X33020Y1494D01*
X32990Y1524D01*
X32962Y1556D01*
X32936Y1590D01*
X32913Y1625D01*
X32891Y1662D01*
X32873Y1700D01*
X32856Y1740D01*
X32843Y1780D01*
X32832Y1821D01*
X32823Y1863D01*
X32818Y1905D01*
X32815Y1947D01*
X32815Y1990D01*
X32818Y2032D01*
X32823Y2074D01*
X32832Y2116D01*
X32843Y2157D01*
X32856Y2197D01*
X32873Y2237D01*
X32891Y2275D01*
X32913Y2312D01*
X32936Y2347D01*
X32962Y2381D01*
X32990Y2413D01*
X33020Y2443D01*
X33052Y2471D01*
X33086Y2497D01*
X33121Y2520D01*
X33158Y2542D01*
X33196Y2561D01*
X33236Y2577D01*
X33276Y2590D01*
X33317Y2601D01*
X33359Y2610D01*
X33401Y2615D01*
X33443Y2618D01*
X33486Y2618D01*
X33528Y2615D01*
X33570Y2610D01*
X33612Y2601D01*
X33653Y2590D01*
X33694Y2577D01*
X33733Y2561D01*
X33771Y2542D01*
X33808Y2520D01*
X33843Y2497D01*
X33877Y2471D01*
X33909Y2443D01*
X33939Y2413D01*
X33967Y2381D01*
X33993Y2347D01*
X34017Y2312D01*
X34038Y2275D01*
X34057Y2237D01*
X34073Y2197D01*
X34087Y2157D01*
X34098Y2116D01*
X34106Y2074D01*
X34111Y2032D01*
X34114Y1990D01*
X34114Y1947D01*
X2618Y33443D02*
X2615Y33401D01*
X2610Y33359D01*
X2601Y33317D01*
X2590Y33276D01*
X2577Y33236D01*
X2561Y33196D01*
X2542Y33158D01*
X2520Y33121D01*
X2497Y33086D01*
X2471Y33052D01*
X2443Y33020D01*
X2413Y32990D01*
X2381Y32962D01*
X2347Y32936D01*
X2312Y32913D01*
X2275Y32891D01*
X2237Y32873D01*
X2197Y32856D01*
X2157Y32843D01*
X2116Y32832D01*
X2074Y32823D01*
X2032Y32818D01*
X1990Y32815D01*
X1947Y32815D01*
X1905Y32818D01*
X1863Y32823D01*
X1821Y32832D01*
X1780Y32843D01*
X1740Y32856D01*
X1700Y32873D01*
X1662Y32891D01*
X1625Y32913D01*
X1590Y32936D01*
X1556Y32962D01*
X1524Y32990D01*
X1494Y33020D01*
X1466Y33052D01*
X1440Y33086D01*
X1417Y33121D01*
X1395Y33158D01*
X1376Y33196D01*
X1360Y33236D01*
X1347Y33276D01*
X1336Y33317D01*
X1327Y33359D01*
X1322Y33401D01*
X1319Y33443D01*
X1319Y33486D01*
X1322Y33528D01*
X1327Y33570D01*
X1336Y33612D01*
X1347Y33653D01*
X1360Y33694D01*
X1376Y33733D01*
X1395Y33771D01*
X1417Y33808D01*
X1440Y33843D01*
X1466Y33877D01*
X1494Y33909D01*
X1524Y33939D01*
X1556Y33967D01*
X1590Y33993D01*
X1625Y34017D01*
X1662Y34038D01*
X1700Y34057D01*
X1740Y34073D01*
X1780Y34087D01*
X1821Y34098D01*
X1863Y34106D01*
X1905Y34111D01*
X1947Y34114D01*
X1990Y34114D01*
X2032Y34111D01*
X2074Y34106D01*
X2116Y34098D01*
X2157Y34087D01*
X2197Y34073D01*
X2237Y34057D01*
X2275Y34038D01*
X2312Y34017D01*
X2347Y33993D01*
X2381Y33967D01*
X2413Y33939D01*
X2443Y33909D01*
X2471Y33877D01*
X2497Y33843D01*
X2520Y33808D01*
X2542Y33771D01*
X2561Y33733D01*
X2577Y33694D01*
X2590Y33653D01*
X2601Y33612D01*
X2610Y33570D01*
X2615Y33528D01*
X2618Y33486D01*
X2618Y33443D01*
X11983Y11570D02*
X11949Y11573D01*
X11916Y11578D01*
X11883Y11586D01*
X11851Y11596D01*
X11820Y11609D01*
X11790Y11625D01*
X11761Y11642D01*
X11734Y11662D01*
X11708Y11684D01*
X11684Y11708D01*
X11662Y11734D01*
X11642Y11761D01*
X11625Y11790D01*
X11609Y11820D01*
X11596Y11851D01*
X11586Y11883D01*
X11578Y11916D01*
X11573Y11949D01*
X11570Y11983D01*
X11570Y12017D01*
X11573Y12051D01*
X11578Y12084D01*
X11586Y12117D01*
X11596Y12149D01*
X11609Y12180D01*
X11625Y12210D01*
X11642Y12239D01*
X11662Y12266D01*
X11684Y12292D01*
X11708Y12316D01*
X11734Y12338D01*
X11761Y12358D01*
X11790Y12375D01*
X11820Y12391D01*
X11851Y12404D01*
X11883Y12414D01*
X11916Y12422D01*
X11949Y12427D01*
X11983Y12430D01*
X12017Y12430D01*
X12051Y12427D01*
X12084Y12422D01*
X12117Y12414D01*
X12149Y12404D01*
X12180Y12391D01*
X12210Y12375D01*
X12239Y12358D01*
X12266Y12338D01*
X12292Y12316D01*
X12316Y12292D01*
X12338Y12266D01*
X12358Y12239D01*
X12375Y12210D01*
X12391Y12180D01*
X12404Y12149D01*
X12414Y12117D01*
X12422Y12084D01*
X12427Y12051D01*
X12430Y12017D01*
X12430Y11983D01*
X12427Y11949D01*
X12422Y11916D01*
X12414Y11883D01*
X12404Y11851D01*
X12391Y11820D01*
X12375Y11790D01*
X12358Y11761D01*
X12338Y11734D01*
X12316Y11708D01*
X12292Y11684D01*
X12266Y11662D01*
X12239Y11642D01*
X12210Y11625D01*
X12180Y11609D01*
X12149Y11596D01*
X12117Y11586D01*
X12084Y11578D01*
X12051Y11573D01*
X12017Y11570D01*
X11983Y11570D01*
X23983Y2570D02*
X23949Y2573D01*
X23916Y2578D01*
X23883Y2586D01*
X23851Y2596D01*
X23820Y2609D01*
X23790Y2625D01*
X23761Y2642D01*
X23734Y2662D01*
X23708Y2684D01*
X23684Y2708D01*
X23662Y2734D01*
X23642Y2761D01*
X23625Y2790D01*
X23609Y2820D01*
X23596Y2851D01*
X23586Y2883D01*
X23578Y2916D01*
X23573Y2949D01*
X23570Y2983D01*
X23570Y3017D01*
X23573Y3051D01*
X23578Y3084D01*
X23586Y3117D01*
X23596Y3149D01*
X23609Y3180D01*
X23625Y3210D01*
X23642Y3239D01*
X23662Y3266D01*
X23684Y3292D01*
X23708Y3316D01*
X23734Y3338D01*
X23761Y3358D01*
X23790Y3375D01*
X23820Y3391D01*
X23851Y3404D01*
X23883Y3414D01*
X23916Y3422D01*
X23949Y3427D01*
X23983Y3430D01*
X24017Y3430D01*
X24051Y3427D01*
X24084Y3422D01*
X24117Y3414D01*
X24149Y3404D01*
X24180Y3391D01*
X24210Y3375D01*
X24239Y3358D01*
X24266Y3338D01*
X24292Y3316D01*
X24316Y3292D01*
X24338Y3266D01*
X24358Y3239D01*
X24375Y3210D01*
X24391Y3180D01*
X24404Y3149D01*
X24414Y3117D01*
X24422Y3084D01*
X24427Y3051D01*
X24430Y3017D01*
X24430Y2983D01*
X24427Y2949D01*
X24422Y2916D01*
X24414Y2883D01*
X24404Y2851D01*
X24391Y2820D01*
X24375Y2790D01*
X24358Y2761D01*
X24338Y2734D01*
X24316Y2708D01*
X24292Y2684D01*
X24266Y2662D01*
X24239Y2642D01*
X24210Y2625D01*
X24180Y2609D01*
X24149Y2596D01*
X24117Y2586D01*
X24084Y2578D01*
X24051Y2573D01*
X24017Y2570D01*
X23983Y2570D01*
X18417Y32990D02*
X18449Y32987D01*
X18480Y32982D01*
X18511Y32974D01*
X18541Y32963D01*
X18570Y32949D01*
X18597Y32933D01*
X18623Y32915D01*
X18648Y32895D01*
X18670Y32872D01*
X18691Y32848D01*
X18709Y32822D01*
X18725Y32794D01*
X18738Y32765D01*
X18749Y32736D01*
X18757Y32705D01*
X18763Y32674D01*
X18766Y32642D01*
X18766Y32610D01*
X18763Y32578D01*
X18757Y32547D01*
X18749Y32516D01*
X18738Y32486D01*
X18725Y32458D01*
X18709Y32430D01*
X18691Y32404D01*
X18670Y32380D01*
X18648Y32357D01*
X18623Y32337D01*
X18597Y32319D01*
X18570Y32303D01*
X18541Y32289D01*
X18511Y32278D01*
X18480Y32270D01*
X18449Y32265D01*
X18417Y32262D01*
X18386Y32262D01*
X18354Y32265D01*
X18323Y32270D01*
X18292Y32278D01*
X18262Y32289D01*
X18233Y32303D01*
X18206Y32319D01*
X18180Y32337D01*
X18155Y32357D01*
X18133Y32380D01*
X18112Y32404D01*
X18094Y32430D01*
X18078Y32458D01*
X18065Y32486D01*
X18054Y32516D01*
X18046Y32547D01*
X18040Y32578D01*
X18037Y32610D01*
X18037Y32642D01*
X18040Y32674D01*
X18046Y32705D01*
X18054Y32736D01*
X18065Y32765D01*
X18078Y32794D01*
X18094Y32822D01*
X18112Y32848D01*
X18133Y32872D01*
X18155Y32895D01*
X18180Y32915D01*
X18206Y32933D01*
X18233Y32949D01*
X18262Y32963D01*
X18292Y32974D01*
X18323Y32982D01*
X18354Y32987D01*
X18386Y32990D01*
X18417Y32990D01*
X18417Y31738D02*
X18449Y31735D01*
X18480Y31730D01*
X18511Y31722D01*
X18541Y31711D01*
X18570Y31697D01*
X18597Y31681D01*
X18623Y31663D01*
X18648Y31643D01*
X18670Y31620D01*
X18691Y31596D01*
X18709Y31570D01*
X18725Y31542D01*
X18738Y31514D01*
X18749Y31484D01*
X18757Y31453D01*
X18763Y31422D01*
X18766Y31390D01*
X18766Y31358D01*
X18763Y31326D01*
X18757Y31295D01*
X18749Y31264D01*
X18738Y31235D01*
X18725Y31206D01*
X18709Y31178D01*
X18691Y31152D01*
X18670Y31128D01*
X18648Y31105D01*
X18623Y31085D01*
X18597Y31067D01*
X18570Y31051D01*
X18541Y31037D01*
X18511Y31026D01*
X18480Y31018D01*
X18449Y31013D01*
X18417Y31010D01*
X18386Y31010D01*
X18354Y31013D01*
X18323Y31018D01*
X18292Y31026D01*
X18262Y31037D01*
X18233Y31051D01*
X18206Y31067D01*
X18180Y31085D01*
X18155Y31105D01*
X18133Y31128D01*
X18112Y31152D01*
X18094Y31178D01*
X18078Y31206D01*
X18065Y31235D01*
X18054Y31264D01*
X18046Y31295D01*
X18040Y31326D01*
X18037Y31358D01*
X18037Y31390D01*
X18040Y31422D01*
X18046Y31453D01*
X18054Y31484D01*
X18065Y31514D01*
X18078Y31542D01*
X18094Y31570D01*
X18112Y31596D01*
X18133Y31620D01*
X18155Y31643D01*
X18180Y31663D01*
X18206Y31681D01*
X18233Y31697D01*
X18262Y31711D01*
X18292Y31722D01*
X18323Y31730D01*
X18354Y31735D01*
X18386Y31738D01*
X18417Y31738D01*
X24614Y32990D02*
X24646Y32987D01*
X24677Y32982D01*
X24708Y32974D01*
X24738Y32963D01*
X24767Y32949D01*
X24794Y32933D01*
X24820Y32915D01*
X24845Y32895D01*
X24867Y32872D01*
X24888Y32848D01*
X24906Y32822D01*
X24922Y32794D01*
X24935Y32765D01*
X24946Y32736D01*
X24954Y32705D01*
X24960Y32674D01*
X24963Y32642D01*
X24963Y32610D01*
X24960Y32578D01*
X24954Y32547D01*
X24946Y32516D01*
X24935Y32486D01*
X24922Y32458D01*
X24906Y32430D01*
X24888Y32404D01*
X24867Y32380D01*
X24845Y32357D01*
X24820Y32337D01*
X24794Y32319D01*
X24767Y32303D01*
X24738Y32289D01*
X24708Y32278D01*
X24677Y32270D01*
X24646Y32265D01*
X24614Y32262D01*
X24583Y32262D01*
X24551Y32265D01*
X24520Y32270D01*
X24489Y32278D01*
X24459Y32289D01*
X24430Y32303D01*
X24403Y32319D01*
X24377Y32337D01*
X24352Y32357D01*
X24330Y32380D01*
X24309Y32404D01*
X24291Y32430D01*
X24275Y32458D01*
X24262Y32486D01*
X24251Y32516D01*
X24243Y32547D01*
X24237Y32578D01*
X24234Y32610D01*
X24234Y32642D01*
X24237Y32674D01*
X24243Y32705D01*
X24251Y32736D01*
X24262Y32765D01*
X24275Y32794D01*
X24291Y32822D01*
X24309Y32848D01*
X24330Y32872D01*
X24352Y32895D01*
X24377Y32915D01*
X24403Y32933D01*
X24430Y32949D01*
X24459Y32963D01*
X24489Y32974D01*
X24520Y32982D01*
X24551Y32987D01*
X24583Y32990D01*
X24614Y32990D01*
X24614Y31742D02*
X24646Y31739D01*
X24677Y31734D01*
X24708Y31726D01*
X24738Y31715D01*
X24767Y31701D01*
X24794Y31685D01*
X24820Y31667D01*
X24845Y31647D01*
X24867Y31624D01*
X24888Y31600D01*
X24906Y31574D01*
X24922Y31546D01*
X24935Y31517D01*
X24946Y31488D01*
X24954Y31457D01*
X24960Y31426D01*
X24963Y31394D01*
X24963Y31362D01*
X24960Y31330D01*
X24954Y31299D01*
X24946Y31268D01*
X24935Y31238D01*
X24922Y31210D01*
X24906Y31182D01*
X24888Y31156D01*
X24867Y31132D01*
X24845Y31109D01*
X24820Y31089D01*
X24794Y31071D01*
X24767Y31055D01*
X24738Y31041D01*
X24708Y31030D01*
X24677Y31022D01*
X24646Y31017D01*
X24614Y31014D01*
X24583Y31014D01*
X24551Y31017D01*
X24520Y31022D01*
X24489Y31030D01*
X24459Y31041D01*
X24430Y31055D01*
X24403Y31071D01*
X24377Y31089D01*
X24352Y31109D01*
X24330Y31132D01*
X24309Y31156D01*
X24291Y31182D01*
X24275Y31210D01*
X24262Y31238D01*
X24251Y31268D01*
X24243Y31299D01*
X24237Y31330D01*
X24234Y31362D01*
X24234Y31394D01*
X24237Y31426D01*
X24243Y31457D01*
X24251Y31488D01*
X24262Y31517D01*
X24275Y31546D01*
X24291Y31574D01*
X24309Y31600D01*
X24330Y31624D01*
X24352Y31647D01*
X24377Y31667D01*
X24403Y31685D01*
X24430Y31701D01*
X24459Y31715D01*
X24489Y31726D01*
X24520Y31734D01*
X24551Y31739D01*
X24583Y31742D01*
X24614Y31742D01*
M02*
