G04 EAGLE Gerber RS-274X export*
G75*
%MOIN*%
%FSLAX34Y34*%
%LPD*%
%INSilkscreen Top*%
%IPPOS*%
%AMOC8*
5,1,8,0,0,1.08239X$1,22.5*%
G01*
%ADD10C,0.006000*%
%ADD11C,0.005000*%
%ADD12C,0.008000*%
%ADD13R,0.420000X0.030000*%
%ADD14R,0.075000X0.020000*%
%ADD15R,0.030000X0.020000*%
%ADD16R,0.020000X0.015000*%
%ADD17C,0.004000*%


D10*
X8886Y18610D02*
X8884Y18633D01*
X8880Y18655D01*
X8872Y18676D01*
X8861Y18697D01*
X8847Y18715D01*
X8831Y18731D01*
X8813Y18745D01*
X8792Y18756D01*
X8771Y18764D01*
X8749Y18768D01*
X8726Y18770D01*
X8700Y18768D01*
X8675Y18764D01*
X8650Y18756D01*
X8627Y18744D01*
X8605Y18731D01*
X8585Y18714D01*
X8567Y18695D01*
X8552Y18674D01*
X8540Y18652D01*
X8530Y18627D01*
X8833Y18485D02*
X8848Y18503D01*
X8862Y18522D01*
X8872Y18542D01*
X8880Y18564D01*
X8884Y18587D01*
X8886Y18610D01*
X8832Y18486D02*
X8530Y18130D01*
X8886Y18130D01*
X9146Y18450D02*
X9148Y18490D01*
X9152Y18529D01*
X9159Y18569D01*
X9170Y18607D01*
X9183Y18644D01*
X9199Y18681D01*
X9198Y18681D02*
X9206Y18700D01*
X9217Y18717D01*
X9231Y18732D01*
X9246Y18745D01*
X9264Y18756D01*
X9283Y18764D01*
X9303Y18768D01*
X9323Y18770D01*
X9343Y18768D01*
X9363Y18764D01*
X9382Y18756D01*
X9400Y18745D01*
X9415Y18732D01*
X9429Y18717D01*
X9440Y18700D01*
X9448Y18681D01*
X9464Y18644D01*
X9477Y18607D01*
X9488Y18569D01*
X9495Y18529D01*
X9499Y18490D01*
X9501Y18450D01*
X9146Y18450D02*
X9148Y18410D01*
X9152Y18371D01*
X9159Y18332D01*
X9170Y18293D01*
X9183Y18256D01*
X9199Y18219D01*
X9198Y18219D02*
X9206Y18200D01*
X9217Y18183D01*
X9231Y18168D01*
X9246Y18155D01*
X9264Y18144D01*
X9283Y18136D01*
X9303Y18132D01*
X9323Y18130D01*
X9448Y18219D02*
X9464Y18256D01*
X9477Y18293D01*
X9488Y18332D01*
X9495Y18371D01*
X9499Y18410D01*
X9501Y18450D01*
X9448Y18219D02*
X9440Y18200D01*
X9429Y18183D01*
X9415Y18168D01*
X9400Y18155D01*
X9382Y18144D01*
X9363Y18136D01*
X9343Y18132D01*
X9323Y18130D01*
X9181Y18272D02*
X9465Y18628D01*
X9956Y18770D02*
X9979Y18768D01*
X10001Y18764D01*
X10022Y18756D01*
X10043Y18745D01*
X10061Y18731D01*
X10077Y18715D01*
X10091Y18697D01*
X10102Y18676D01*
X10110Y18655D01*
X10114Y18633D01*
X10116Y18610D01*
X9956Y18770D02*
X9930Y18768D01*
X9905Y18764D01*
X9880Y18756D01*
X9857Y18744D01*
X9835Y18731D01*
X9815Y18714D01*
X9797Y18695D01*
X9782Y18674D01*
X9770Y18652D01*
X9760Y18627D01*
X10064Y18485D02*
X10079Y18503D01*
X10093Y18522D01*
X10103Y18542D01*
X10111Y18564D01*
X10115Y18587D01*
X10117Y18610D01*
X10063Y18486D02*
X9761Y18130D01*
X10116Y18130D01*
X10377Y18450D02*
X10379Y18490D01*
X10383Y18529D01*
X10390Y18569D01*
X10401Y18607D01*
X10414Y18644D01*
X10430Y18681D01*
X10429Y18681D02*
X10437Y18700D01*
X10448Y18717D01*
X10462Y18732D01*
X10477Y18745D01*
X10495Y18756D01*
X10514Y18764D01*
X10534Y18768D01*
X10554Y18770D01*
X10574Y18768D01*
X10594Y18764D01*
X10613Y18756D01*
X10631Y18745D01*
X10646Y18732D01*
X10660Y18717D01*
X10671Y18700D01*
X10679Y18681D01*
X10678Y18681D02*
X10694Y18644D01*
X10707Y18607D01*
X10718Y18569D01*
X10725Y18529D01*
X10729Y18490D01*
X10731Y18450D01*
X10377Y18450D02*
X10379Y18410D01*
X10383Y18371D01*
X10390Y18332D01*
X10401Y18293D01*
X10414Y18256D01*
X10430Y18219D01*
X10429Y18219D02*
X10437Y18200D01*
X10448Y18183D01*
X10462Y18168D01*
X10477Y18155D01*
X10495Y18144D01*
X10514Y18136D01*
X10534Y18132D01*
X10554Y18130D01*
X10678Y18219D02*
X10694Y18256D01*
X10707Y18293D01*
X10718Y18332D01*
X10725Y18371D01*
X10729Y18410D01*
X10731Y18450D01*
X10679Y18219D02*
X10671Y18200D01*
X10660Y18183D01*
X10646Y18168D01*
X10631Y18155D01*
X10613Y18144D01*
X10594Y18136D01*
X10574Y18132D01*
X10554Y18130D01*
X10412Y18272D02*
X10696Y18628D01*
X11340Y18770D02*
X11340Y18130D01*
X11340Y18770D02*
X11518Y18770D01*
X11543Y18768D01*
X11568Y18763D01*
X11592Y18754D01*
X11614Y18742D01*
X11635Y18727D01*
X11653Y18709D01*
X11668Y18688D01*
X11680Y18666D01*
X11689Y18642D01*
X11694Y18617D01*
X11696Y18592D01*
X11696Y18308D01*
X11694Y18283D01*
X11689Y18258D01*
X11680Y18234D01*
X11668Y18212D01*
X11653Y18191D01*
X11635Y18173D01*
X11614Y18158D01*
X11592Y18146D01*
X11568Y18137D01*
X11543Y18132D01*
X11518Y18130D01*
X11340Y18130D01*
X11971Y18272D02*
X11971Y18414D01*
X11973Y18436D01*
X11978Y18458D01*
X11986Y18478D01*
X11998Y18497D01*
X12013Y18514D01*
X12030Y18529D01*
X12049Y18541D01*
X12069Y18549D01*
X12091Y18554D01*
X12113Y18556D01*
X12135Y18554D01*
X12157Y18549D01*
X12177Y18541D01*
X12196Y18529D01*
X12213Y18514D01*
X12228Y18497D01*
X12240Y18478D01*
X12248Y18458D01*
X12253Y18436D01*
X12255Y18414D01*
X12255Y18272D01*
X12253Y18250D01*
X12248Y18228D01*
X12240Y18208D01*
X12228Y18189D01*
X12213Y18172D01*
X12196Y18157D01*
X12177Y18145D01*
X12157Y18137D01*
X12135Y18132D01*
X12113Y18130D01*
X12091Y18132D01*
X12069Y18137D01*
X12049Y18145D01*
X12030Y18157D01*
X12013Y18172D01*
X11998Y18189D01*
X11986Y18208D01*
X11978Y18228D01*
X11973Y18250D01*
X11971Y18272D01*
X12530Y18130D02*
X12530Y18770D01*
X12708Y18770D01*
X12733Y18768D01*
X12758Y18763D01*
X12782Y18754D01*
X12804Y18742D01*
X12825Y18727D01*
X12843Y18709D01*
X12858Y18688D01*
X12870Y18666D01*
X12879Y18642D01*
X12884Y18617D01*
X12886Y18592D01*
X12886Y18308D01*
X12884Y18283D01*
X12879Y18258D01*
X12870Y18234D01*
X12858Y18212D01*
X12843Y18191D01*
X12825Y18173D01*
X12804Y18158D01*
X12782Y18146D01*
X12758Y18137D01*
X12733Y18132D01*
X12708Y18130D01*
X12530Y18130D01*
X13516Y18130D02*
X13516Y18770D01*
X13800Y18770D01*
X13800Y18486D02*
X13516Y18486D01*
X13992Y18770D02*
X14205Y18468D01*
X14419Y18770D01*
X14205Y18468D02*
X14205Y18130D01*
X14672Y18130D02*
X14672Y18770D01*
X14850Y18770D01*
X14875Y18768D01*
X14900Y18763D01*
X14924Y18754D01*
X14946Y18742D01*
X14967Y18727D01*
X14985Y18709D01*
X15000Y18688D01*
X15012Y18666D01*
X15021Y18642D01*
X15026Y18617D01*
X15028Y18592D01*
X15026Y18567D01*
X15021Y18542D01*
X15012Y18518D01*
X15000Y18496D01*
X14985Y18475D01*
X14967Y18457D01*
X14946Y18442D01*
X14924Y18430D01*
X14900Y18421D01*
X14875Y18416D01*
X14850Y18414D01*
X14672Y18414D01*
X8708Y17720D02*
X8708Y17080D01*
X8530Y17720D02*
X8886Y17720D01*
X9098Y17507D02*
X9098Y17080D01*
X9080Y17684D02*
X9080Y17720D01*
X9115Y17720D01*
X9115Y17684D01*
X9080Y17684D01*
X9377Y17507D02*
X9377Y17080D01*
X9377Y17507D02*
X9697Y17507D01*
X9716Y17505D01*
X9734Y17501D01*
X9751Y17493D01*
X9766Y17482D01*
X9779Y17469D01*
X9790Y17454D01*
X9798Y17437D01*
X9802Y17419D01*
X9804Y17400D01*
X9803Y17400D02*
X9803Y17080D01*
X9590Y17080D02*
X9590Y17507D01*
X10084Y17364D02*
X10084Y17222D01*
X10084Y17364D02*
X10086Y17386D01*
X10091Y17408D01*
X10099Y17428D01*
X10111Y17447D01*
X10126Y17464D01*
X10143Y17479D01*
X10162Y17491D01*
X10182Y17499D01*
X10204Y17504D01*
X10226Y17506D01*
X10248Y17504D01*
X10270Y17499D01*
X10290Y17491D01*
X10309Y17479D01*
X10326Y17464D01*
X10341Y17447D01*
X10353Y17428D01*
X10361Y17408D01*
X10366Y17386D01*
X10368Y17364D01*
X10368Y17222D01*
X10366Y17200D01*
X10361Y17178D01*
X10353Y17158D01*
X10341Y17139D01*
X10326Y17122D01*
X10309Y17107D01*
X10290Y17095D01*
X10270Y17087D01*
X10248Y17082D01*
X10226Y17080D01*
X10204Y17082D01*
X10182Y17087D01*
X10162Y17095D01*
X10143Y17107D01*
X10126Y17122D01*
X10111Y17139D01*
X10099Y17158D01*
X10091Y17178D01*
X10086Y17200D01*
X10084Y17222D01*
X10566Y17507D02*
X10779Y17507D01*
X10637Y17720D02*
X10637Y17187D01*
X10639Y17168D01*
X10643Y17150D01*
X10651Y17134D01*
X10662Y17118D01*
X10675Y17105D01*
X10691Y17094D01*
X10707Y17086D01*
X10725Y17082D01*
X10744Y17080D01*
X10779Y17080D01*
X11027Y17080D02*
X11027Y17720D01*
X11027Y17507D02*
X11205Y17507D01*
X11224Y17505D01*
X11242Y17501D01*
X11258Y17493D01*
X11274Y17482D01*
X11287Y17469D01*
X11298Y17454D01*
X11306Y17437D01*
X11310Y17419D01*
X11312Y17400D01*
X11312Y17080D01*
X11561Y16867D02*
X11632Y16867D01*
X11845Y17507D01*
X11561Y17507D02*
X11703Y17080D01*
X12428Y17080D02*
X12428Y17720D01*
X12605Y17720D01*
X12630Y17718D01*
X12655Y17713D01*
X12679Y17704D01*
X12701Y17692D01*
X12722Y17677D01*
X12740Y17659D01*
X12755Y17638D01*
X12767Y17616D01*
X12776Y17592D01*
X12781Y17567D01*
X12783Y17542D01*
X12783Y17258D01*
X12781Y17233D01*
X12776Y17208D01*
X12767Y17184D01*
X12755Y17162D01*
X12740Y17141D01*
X12722Y17123D01*
X12701Y17108D01*
X12679Y17096D01*
X12655Y17087D01*
X12630Y17082D01*
X12605Y17080D01*
X12428Y17080D01*
X13079Y17187D02*
X13079Y17507D01*
X13078Y17187D02*
X13080Y17168D01*
X13084Y17150D01*
X13092Y17134D01*
X13103Y17118D01*
X13116Y17105D01*
X13132Y17094D01*
X13148Y17086D01*
X13166Y17082D01*
X13185Y17080D01*
X13363Y17080D01*
X13363Y17507D01*
X13653Y17507D02*
X13653Y17080D01*
X13653Y17507D02*
X13831Y17507D01*
X13850Y17505D01*
X13868Y17501D01*
X13884Y17493D01*
X13900Y17482D01*
X13913Y17469D01*
X13924Y17454D01*
X13932Y17437D01*
X13936Y17419D01*
X13938Y17400D01*
X13937Y17400D02*
X13937Y17080D01*
X14227Y17080D02*
X14227Y17507D01*
X14405Y17507D01*
X14424Y17505D01*
X14442Y17501D01*
X14458Y17493D01*
X14474Y17482D01*
X14487Y17469D01*
X14498Y17454D01*
X14506Y17437D01*
X14510Y17419D01*
X14512Y17400D01*
X14512Y17080D01*
X8814Y16030D02*
X8672Y16030D01*
X8650Y16032D01*
X8628Y16037D01*
X8608Y16045D01*
X8589Y16057D01*
X8572Y16072D01*
X8557Y16089D01*
X8545Y16108D01*
X8537Y16128D01*
X8532Y16150D01*
X8530Y16172D01*
X8530Y16528D01*
X8532Y16550D01*
X8537Y16572D01*
X8545Y16592D01*
X8557Y16611D01*
X8572Y16628D01*
X8589Y16643D01*
X8608Y16655D01*
X8628Y16663D01*
X8650Y16668D01*
X8672Y16670D01*
X8814Y16670D01*
X9044Y16030D02*
X9222Y16030D01*
X9247Y16032D01*
X9272Y16037D01*
X9296Y16046D01*
X9318Y16058D01*
X9339Y16073D01*
X9357Y16091D01*
X9372Y16112D01*
X9384Y16134D01*
X9393Y16158D01*
X9398Y16183D01*
X9400Y16208D01*
X9398Y16233D01*
X9393Y16258D01*
X9384Y16282D01*
X9372Y16304D01*
X9357Y16325D01*
X9339Y16343D01*
X9318Y16358D01*
X9296Y16370D01*
X9272Y16379D01*
X9247Y16384D01*
X9222Y16386D01*
X9258Y16670D02*
X9044Y16670D01*
X9258Y16670D02*
X9280Y16668D01*
X9302Y16663D01*
X9322Y16655D01*
X9341Y16643D01*
X9358Y16628D01*
X9373Y16611D01*
X9385Y16592D01*
X9393Y16572D01*
X9398Y16550D01*
X9400Y16528D01*
X9398Y16506D01*
X9393Y16484D01*
X9385Y16464D01*
X9373Y16445D01*
X9358Y16428D01*
X9341Y16413D01*
X9322Y16401D01*
X9302Y16393D01*
X9280Y16388D01*
X9258Y16386D01*
X9116Y16386D01*
X9855Y16670D02*
X9878Y16668D01*
X9900Y16664D01*
X9921Y16656D01*
X9942Y16645D01*
X9960Y16631D01*
X9976Y16615D01*
X9990Y16597D01*
X10001Y16576D01*
X10009Y16555D01*
X10013Y16533D01*
X10015Y16510D01*
X9855Y16670D02*
X9829Y16668D01*
X9804Y16664D01*
X9779Y16656D01*
X9756Y16644D01*
X9734Y16631D01*
X9714Y16614D01*
X9696Y16595D01*
X9681Y16574D01*
X9669Y16552D01*
X9659Y16527D01*
X9962Y16385D02*
X9977Y16403D01*
X9991Y16422D01*
X10001Y16442D01*
X10009Y16464D01*
X10013Y16487D01*
X10015Y16510D01*
X9962Y16386D02*
X9660Y16030D01*
X10015Y16030D01*
X10275Y16030D02*
X10453Y16030D01*
X10478Y16032D01*
X10503Y16037D01*
X10527Y16046D01*
X10549Y16058D01*
X10570Y16073D01*
X10588Y16091D01*
X10603Y16112D01*
X10615Y16134D01*
X10624Y16158D01*
X10629Y16183D01*
X10631Y16208D01*
X10629Y16233D01*
X10624Y16258D01*
X10615Y16282D01*
X10603Y16304D01*
X10588Y16325D01*
X10570Y16343D01*
X10549Y16358D01*
X10527Y16370D01*
X10503Y16379D01*
X10478Y16384D01*
X10453Y16386D01*
X10489Y16670D02*
X10275Y16670D01*
X10489Y16670D02*
X10511Y16668D01*
X10533Y16663D01*
X10553Y16655D01*
X10572Y16643D01*
X10589Y16628D01*
X10604Y16611D01*
X10616Y16592D01*
X10624Y16572D01*
X10629Y16550D01*
X10631Y16528D01*
X10629Y16506D01*
X10624Y16484D01*
X10616Y16464D01*
X10604Y16445D01*
X10589Y16428D01*
X10572Y16413D01*
X10553Y16401D01*
X10533Y16393D01*
X10511Y16388D01*
X10489Y16386D01*
X10346Y16386D01*
X10891Y16172D02*
X11033Y16670D01*
X10891Y16172D02*
X11246Y16172D01*
X11139Y16314D02*
X11139Y16030D01*
X11702Y16670D02*
X11725Y16668D01*
X11747Y16664D01*
X11768Y16656D01*
X11789Y16645D01*
X11807Y16631D01*
X11823Y16615D01*
X11837Y16597D01*
X11848Y16576D01*
X11856Y16555D01*
X11860Y16533D01*
X11862Y16510D01*
X11702Y16670D02*
X11676Y16668D01*
X11651Y16664D01*
X11626Y16656D01*
X11603Y16644D01*
X11581Y16631D01*
X11561Y16614D01*
X11543Y16595D01*
X11528Y16574D01*
X11516Y16552D01*
X11506Y16527D01*
X11809Y16385D02*
X11824Y16403D01*
X11838Y16422D01*
X11848Y16442D01*
X11856Y16464D01*
X11860Y16487D01*
X11862Y16510D01*
X11808Y16386D02*
X11506Y16030D01*
X11862Y16030D01*
X12122Y16350D02*
X12124Y16390D01*
X12128Y16429D01*
X12135Y16469D01*
X12146Y16507D01*
X12159Y16544D01*
X12175Y16581D01*
X12174Y16581D02*
X12182Y16600D01*
X12193Y16617D01*
X12207Y16632D01*
X12222Y16645D01*
X12240Y16656D01*
X12259Y16664D01*
X12279Y16668D01*
X12299Y16670D01*
X12319Y16668D01*
X12339Y16664D01*
X12358Y16656D01*
X12376Y16645D01*
X12391Y16632D01*
X12405Y16617D01*
X12416Y16600D01*
X12424Y16581D01*
X12440Y16544D01*
X12453Y16507D01*
X12464Y16469D01*
X12471Y16429D01*
X12475Y16390D01*
X12477Y16350D01*
X12122Y16350D02*
X12124Y16310D01*
X12128Y16271D01*
X12135Y16232D01*
X12146Y16193D01*
X12159Y16156D01*
X12175Y16119D01*
X12174Y16119D02*
X12182Y16100D01*
X12193Y16083D01*
X12207Y16068D01*
X12222Y16055D01*
X12240Y16044D01*
X12259Y16036D01*
X12279Y16032D01*
X12299Y16030D01*
X12424Y16119D02*
X12440Y16156D01*
X12453Y16193D01*
X12464Y16232D01*
X12471Y16271D01*
X12475Y16310D01*
X12477Y16350D01*
X12424Y16119D02*
X12416Y16100D01*
X12405Y16083D01*
X12391Y16068D01*
X12376Y16055D01*
X12358Y16044D01*
X12339Y16036D01*
X12319Y16032D01*
X12299Y16030D01*
X12157Y16172D02*
X12441Y16528D01*
X12737Y16599D02*
X12737Y16670D01*
X13092Y16670D01*
X12915Y16030D01*
X14464Y35150D02*
X10534Y35150D01*
X10534Y31610D02*
X10534Y31530D01*
X14464Y31530D01*
X14464Y34210D02*
X14464Y35150D01*
X14464Y34210D02*
X13834Y34210D01*
X13134Y34210D02*
X11864Y34210D01*
X11164Y34210D02*
X10534Y34210D01*
X14464Y34210D02*
X14464Y31610D01*
X10534Y34210D02*
X10534Y35150D01*
X10534Y31610D02*
X14464Y31610D01*
X14464Y31530D01*
X10534Y31610D02*
X10534Y34210D01*
X13284Y32130D02*
X13286Y32158D01*
X13292Y32185D01*
X13301Y32211D01*
X13314Y32236D01*
X13331Y32259D01*
X13350Y32279D01*
X13372Y32296D01*
X13396Y32310D01*
X13422Y32320D01*
X13449Y32327D01*
X13477Y32330D01*
X13505Y32329D01*
X13532Y32324D01*
X13559Y32315D01*
X13584Y32303D01*
X13607Y32288D01*
X13628Y32269D01*
X13646Y32248D01*
X13661Y32224D01*
X13672Y32198D01*
X13680Y32172D01*
X13684Y32144D01*
X13684Y32116D01*
X13680Y32088D01*
X13672Y32062D01*
X13661Y32036D01*
X13646Y32012D01*
X13628Y31991D01*
X13607Y31972D01*
X13584Y31957D01*
X13559Y31945D01*
X13532Y31936D01*
X13505Y31931D01*
X13477Y31930D01*
X13449Y31933D01*
X13422Y31940D01*
X13396Y31950D01*
X13372Y31964D01*
X13350Y31981D01*
X13331Y32001D01*
X13314Y32024D01*
X13301Y32049D01*
X13292Y32075D01*
X13286Y32102D01*
X13284Y32130D01*
X11314Y32130D02*
X11316Y32158D01*
X11322Y32185D01*
X11331Y32211D01*
X11344Y32236D01*
X11361Y32259D01*
X11380Y32279D01*
X11402Y32296D01*
X11426Y32310D01*
X11452Y32320D01*
X11479Y32327D01*
X11507Y32330D01*
X11535Y32329D01*
X11562Y32324D01*
X11589Y32315D01*
X11614Y32303D01*
X11637Y32288D01*
X11658Y32269D01*
X11676Y32248D01*
X11691Y32224D01*
X11702Y32198D01*
X11710Y32172D01*
X11714Y32144D01*
X11714Y32116D01*
X11710Y32088D01*
X11702Y32062D01*
X11691Y32036D01*
X11676Y32012D01*
X11658Y31991D01*
X11637Y31972D01*
X11614Y31957D01*
X11589Y31945D01*
X11562Y31936D01*
X11535Y31931D01*
X11507Y31930D01*
X11479Y31933D01*
X11452Y31940D01*
X11426Y31950D01*
X11402Y31964D01*
X11380Y31981D01*
X11361Y32001D01*
X11344Y32024D01*
X11331Y32049D01*
X11322Y32075D01*
X11316Y32102D01*
X11314Y32130D01*
D11*
X14009Y32625D02*
X14134Y32725D01*
X14134Y32275D01*
X14009Y32275D02*
X14259Y32275D01*
X12310Y32613D02*
X12308Y32633D01*
X12303Y32652D01*
X12295Y32670D01*
X12284Y32686D01*
X12270Y32700D01*
X12254Y32711D01*
X12236Y32719D01*
X12217Y32724D01*
X12197Y32726D01*
X12197Y32725D02*
X12174Y32723D01*
X12152Y32718D01*
X12131Y32709D01*
X12112Y32697D01*
X12094Y32682D01*
X12080Y32665D01*
X12068Y32646D01*
X12059Y32625D01*
X12271Y32525D02*
X12284Y32540D01*
X12295Y32556D01*
X12303Y32574D01*
X12307Y32593D01*
X12309Y32613D01*
X12272Y32525D02*
X12059Y32275D01*
X12309Y32275D01*
X12371Y34845D02*
X12496Y34945D01*
X12496Y34495D01*
X12371Y34495D02*
X12621Y34495D01*
X13071Y34833D02*
X13069Y34853D01*
X13064Y34872D01*
X13056Y34890D01*
X13045Y34906D01*
X13031Y34920D01*
X13015Y34931D01*
X12997Y34939D01*
X12978Y34944D01*
X12958Y34946D01*
X12958Y34945D02*
X12935Y34943D01*
X12913Y34938D01*
X12892Y34929D01*
X12873Y34917D01*
X12855Y34902D01*
X12841Y34885D01*
X12829Y34866D01*
X12820Y34845D01*
X13033Y34745D02*
X13046Y34760D01*
X13057Y34776D01*
X13065Y34794D01*
X13069Y34813D01*
X13071Y34833D01*
X13033Y34745D02*
X12821Y34495D01*
X13071Y34495D01*
X13396Y34495D02*
X13246Y34945D01*
X13546Y34945D02*
X13396Y34495D01*
X13739Y34495D02*
X13739Y34945D01*
X13864Y34945D01*
X13885Y34943D01*
X13905Y34938D01*
X13923Y34930D01*
X13941Y34919D01*
X13956Y34905D01*
X13969Y34888D01*
X13978Y34870D01*
X13985Y34851D01*
X13989Y34830D01*
X13989Y34810D01*
X13985Y34789D01*
X13978Y34770D01*
X13969Y34752D01*
X13956Y34735D01*
X13941Y34721D01*
X13923Y34710D01*
X13905Y34702D01*
X13885Y34697D01*
X13864Y34695D01*
X13739Y34695D01*
X13889Y34695D02*
X13989Y34495D01*
D10*
X15000Y30450D02*
X15000Y30350D01*
X15000Y30450D02*
X15100Y30450D01*
X15000Y30450D02*
X15000Y30550D01*
X15000Y30450D02*
X14900Y30450D01*
X14500Y31000D02*
X14502Y31063D01*
X14508Y31125D01*
X14518Y31187D01*
X14531Y31249D01*
X14549Y31309D01*
X14570Y31368D01*
X14595Y31426D01*
X14624Y31482D01*
X14656Y31536D01*
X14691Y31588D01*
X14729Y31637D01*
X14771Y31685D01*
X14815Y31729D01*
X14863Y31771D01*
X14912Y31809D01*
X14964Y31844D01*
X15018Y31876D01*
X15074Y31905D01*
X15132Y31930D01*
X15191Y31951D01*
X15251Y31969D01*
X15313Y31982D01*
X15375Y31992D01*
X15437Y31998D01*
X15500Y32000D01*
X15563Y31998D01*
X15625Y31992D01*
X15687Y31982D01*
X15749Y31969D01*
X15809Y31951D01*
X15868Y31930D01*
X15926Y31905D01*
X15982Y31876D01*
X16036Y31844D01*
X16088Y31809D01*
X16137Y31771D01*
X16185Y31729D01*
X16229Y31685D01*
X16271Y31637D01*
X16309Y31588D01*
X16344Y31536D01*
X16376Y31482D01*
X16405Y31426D01*
X16430Y31368D01*
X16451Y31309D01*
X16469Y31249D01*
X16482Y31187D01*
X16492Y31125D01*
X16498Y31063D01*
X16500Y31000D01*
X16498Y30937D01*
X16492Y30875D01*
X16482Y30813D01*
X16469Y30751D01*
X16451Y30691D01*
X16430Y30632D01*
X16405Y30574D01*
X16376Y30518D01*
X16344Y30464D01*
X16309Y30412D01*
X16271Y30363D01*
X16229Y30315D01*
X16185Y30271D01*
X16137Y30229D01*
X16088Y30191D01*
X16036Y30156D01*
X15982Y30124D01*
X15926Y30095D01*
X15868Y30070D01*
X15809Y30049D01*
X15749Y30031D01*
X15687Y30018D01*
X15625Y30008D01*
X15563Y30002D01*
X15500Y30000D01*
X15437Y30002D01*
X15375Y30008D01*
X15313Y30018D01*
X15251Y30031D01*
X15191Y30049D01*
X15132Y30070D01*
X15074Y30095D01*
X15018Y30124D01*
X14964Y30156D01*
X14912Y30191D01*
X14863Y30229D01*
X14815Y30271D01*
X14771Y30315D01*
X14729Y30363D01*
X14691Y30412D01*
X14656Y30464D01*
X14624Y30518D01*
X14595Y30574D01*
X14570Y30632D01*
X14549Y30691D01*
X14531Y30751D01*
X14518Y30813D01*
X14508Y30875D01*
X14502Y30937D01*
X14500Y31000D01*
D11*
X14975Y32075D02*
X14975Y32175D01*
X14975Y32075D02*
X14973Y32058D01*
X14969Y32041D01*
X14962Y32025D01*
X14952Y32011D01*
X14939Y31998D01*
X14925Y31988D01*
X14909Y31981D01*
X14892Y31977D01*
X14875Y31975D01*
X14625Y31975D01*
X14608Y31977D01*
X14591Y31981D01*
X14575Y31988D01*
X14561Y31998D01*
X14548Y32011D01*
X14538Y32025D01*
X14531Y32041D01*
X14527Y32058D01*
X14525Y32075D01*
X14525Y32175D01*
X14625Y32351D02*
X14525Y32476D01*
X14975Y32476D01*
X14975Y32351D02*
X14975Y32601D01*
X15975Y32100D02*
X16075Y31975D01*
X15975Y32100D02*
X16425Y32100D01*
X16425Y31975D02*
X16425Y32225D01*
X16200Y32425D02*
X16166Y32427D01*
X16133Y32431D01*
X16100Y32439D01*
X16068Y32449D01*
X16037Y32463D01*
X16038Y32462D02*
X16023Y32469D01*
X16009Y32478D01*
X15997Y32489D01*
X15988Y32503D01*
X15981Y32518D01*
X15976Y32534D01*
X15975Y32550D01*
X15976Y32566D01*
X15981Y32582D01*
X15988Y32597D01*
X15997Y32611D01*
X16009Y32622D01*
X16023Y32631D01*
X16038Y32638D01*
X16037Y32637D02*
X16068Y32651D01*
X16100Y32661D01*
X16133Y32669D01*
X16166Y32673D01*
X16200Y32675D01*
X16200Y32425D02*
X16234Y32427D01*
X16267Y32431D01*
X16300Y32439D01*
X16332Y32449D01*
X16363Y32463D01*
X16363Y32462D02*
X16378Y32469D01*
X16392Y32478D01*
X16404Y32489D01*
X16413Y32503D01*
X16420Y32518D01*
X16425Y32534D01*
X16426Y32550D01*
X16363Y32637D02*
X16332Y32651D01*
X16300Y32661D01*
X16267Y32669D01*
X16234Y32673D01*
X16200Y32675D01*
X16363Y32638D02*
X16378Y32631D01*
X16392Y32622D01*
X16404Y32611D01*
X16413Y32597D01*
X16420Y32582D01*
X16425Y32566D01*
X16426Y32550D01*
X16325Y32450D02*
X16075Y32650D01*
X16200Y32875D02*
X16166Y32877D01*
X16133Y32881D01*
X16100Y32889D01*
X16068Y32899D01*
X16037Y32913D01*
X16038Y32912D02*
X16023Y32919D01*
X16009Y32928D01*
X15997Y32939D01*
X15988Y32953D01*
X15981Y32968D01*
X15976Y32984D01*
X15975Y33000D01*
X15976Y33016D01*
X15981Y33032D01*
X15988Y33047D01*
X15997Y33061D01*
X16009Y33072D01*
X16023Y33081D01*
X16038Y33088D01*
X16037Y33087D02*
X16068Y33101D01*
X16100Y33111D01*
X16133Y33119D01*
X16166Y33123D01*
X16200Y33125D01*
X16200Y32875D02*
X16234Y32877D01*
X16267Y32881D01*
X16300Y32889D01*
X16332Y32899D01*
X16363Y32913D01*
X16363Y32912D02*
X16378Y32919D01*
X16392Y32928D01*
X16404Y32939D01*
X16413Y32953D01*
X16420Y32968D01*
X16425Y32984D01*
X16426Y33000D01*
X16363Y33087D02*
X16332Y33101D01*
X16300Y33111D01*
X16267Y33119D01*
X16234Y33123D01*
X16200Y33125D01*
X16363Y33088D02*
X16378Y33081D01*
X16392Y33072D01*
X16404Y33061D01*
X16413Y33047D01*
X16420Y33032D01*
X16425Y33016D01*
X16426Y33000D01*
X16325Y32900D02*
X16075Y33100D01*
X16125Y33335D02*
X16425Y33335D01*
X16125Y33335D02*
X16125Y33460D01*
X16126Y33475D01*
X16131Y33489D01*
X16138Y33502D01*
X16147Y33513D01*
X16158Y33522D01*
X16171Y33529D01*
X16185Y33534D01*
X16200Y33535D01*
X16425Y33535D01*
X16425Y33761D02*
X15975Y33761D01*
X15975Y33961D01*
X16175Y33961D02*
X16175Y33761D01*
D10*
X9000Y30450D02*
X9000Y30350D01*
X9000Y30450D02*
X9100Y30450D01*
X9000Y30450D02*
X9000Y30550D01*
X9000Y30450D02*
X8900Y30450D01*
X8500Y31000D02*
X8502Y31063D01*
X8508Y31125D01*
X8518Y31187D01*
X8531Y31249D01*
X8549Y31309D01*
X8570Y31368D01*
X8595Y31426D01*
X8624Y31482D01*
X8656Y31536D01*
X8691Y31588D01*
X8729Y31637D01*
X8771Y31685D01*
X8815Y31729D01*
X8863Y31771D01*
X8912Y31809D01*
X8964Y31844D01*
X9018Y31876D01*
X9074Y31905D01*
X9132Y31930D01*
X9191Y31951D01*
X9251Y31969D01*
X9313Y31982D01*
X9375Y31992D01*
X9437Y31998D01*
X9500Y32000D01*
X9563Y31998D01*
X9625Y31992D01*
X9687Y31982D01*
X9749Y31969D01*
X9809Y31951D01*
X9868Y31930D01*
X9926Y31905D01*
X9982Y31876D01*
X10036Y31844D01*
X10088Y31809D01*
X10137Y31771D01*
X10185Y31729D01*
X10229Y31685D01*
X10271Y31637D01*
X10309Y31588D01*
X10344Y31536D01*
X10376Y31482D01*
X10405Y31426D01*
X10430Y31368D01*
X10451Y31309D01*
X10469Y31249D01*
X10482Y31187D01*
X10492Y31125D01*
X10498Y31063D01*
X10500Y31000D01*
X10498Y30937D01*
X10492Y30875D01*
X10482Y30813D01*
X10469Y30751D01*
X10451Y30691D01*
X10430Y30632D01*
X10405Y30574D01*
X10376Y30518D01*
X10344Y30464D01*
X10309Y30412D01*
X10271Y30363D01*
X10229Y30315D01*
X10185Y30271D01*
X10137Y30229D01*
X10088Y30191D01*
X10036Y30156D01*
X9982Y30124D01*
X9926Y30095D01*
X9868Y30070D01*
X9809Y30049D01*
X9749Y30031D01*
X9687Y30018D01*
X9625Y30008D01*
X9563Y30002D01*
X9500Y30000D01*
X9437Y30002D01*
X9375Y30008D01*
X9313Y30018D01*
X9251Y30031D01*
X9191Y30049D01*
X9132Y30070D01*
X9074Y30095D01*
X9018Y30124D01*
X8964Y30156D01*
X8912Y30191D01*
X8863Y30229D01*
X8815Y30271D01*
X8771Y30315D01*
X8729Y30363D01*
X8691Y30412D01*
X8656Y30464D01*
X8624Y30518D01*
X8595Y30574D01*
X8570Y30632D01*
X8549Y30691D01*
X8531Y30751D01*
X8518Y30813D01*
X8508Y30875D01*
X8502Y30937D01*
X8500Y31000D01*
D11*
X8975Y32075D02*
X8975Y32175D01*
X8975Y32075D02*
X8973Y32058D01*
X8969Y32041D01*
X8962Y32025D01*
X8952Y32011D01*
X8939Y31998D01*
X8925Y31988D01*
X8909Y31981D01*
X8892Y31977D01*
X8875Y31975D01*
X8625Y31975D01*
X8608Y31977D01*
X8591Y31981D01*
X8575Y31988D01*
X8561Y31998D01*
X8548Y32011D01*
X8538Y32025D01*
X8531Y32041D01*
X8527Y32058D01*
X8525Y32075D01*
X8525Y32175D01*
X8525Y32489D02*
X8527Y32509D01*
X8532Y32528D01*
X8540Y32546D01*
X8551Y32562D01*
X8565Y32576D01*
X8582Y32587D01*
X8599Y32595D01*
X8618Y32600D01*
X8638Y32602D01*
X8525Y32489D02*
X8527Y32466D01*
X8532Y32444D01*
X8541Y32423D01*
X8553Y32404D01*
X8568Y32386D01*
X8585Y32372D01*
X8604Y32360D01*
X8625Y32351D01*
X8726Y32564D02*
X8711Y32577D01*
X8695Y32588D01*
X8677Y32596D01*
X8658Y32600D01*
X8638Y32602D01*
X8725Y32564D02*
X8975Y32351D01*
X8975Y32601D01*
X10425Y32100D02*
X10425Y31975D01*
X10425Y32100D02*
X10423Y32121D01*
X10418Y32141D01*
X10410Y32159D01*
X10399Y32177D01*
X10385Y32192D01*
X10368Y32205D01*
X10350Y32214D01*
X10331Y32221D01*
X10310Y32225D01*
X10290Y32225D01*
X10269Y32221D01*
X10250Y32214D01*
X10232Y32205D01*
X10215Y32192D01*
X10201Y32177D01*
X10190Y32159D01*
X10182Y32141D01*
X10177Y32121D01*
X10175Y32100D01*
X9975Y32125D02*
X9975Y31975D01*
X9975Y32125D02*
X9977Y32143D01*
X9982Y32161D01*
X9990Y32178D01*
X10001Y32192D01*
X10015Y32205D01*
X10030Y32215D01*
X10048Y32221D01*
X10066Y32225D01*
X10084Y32225D01*
X10102Y32221D01*
X10120Y32215D01*
X10135Y32205D01*
X10149Y32192D01*
X10160Y32178D01*
X10168Y32161D01*
X10173Y32143D01*
X10175Y32125D01*
X10175Y32025D01*
X10425Y32425D02*
X10425Y32550D01*
X10423Y32571D01*
X10418Y32591D01*
X10410Y32609D01*
X10399Y32627D01*
X10385Y32642D01*
X10368Y32655D01*
X10350Y32664D01*
X10331Y32671D01*
X10310Y32675D01*
X10290Y32675D01*
X10269Y32671D01*
X10250Y32664D01*
X10232Y32655D01*
X10215Y32642D01*
X10201Y32627D01*
X10190Y32609D01*
X10182Y32591D01*
X10177Y32571D01*
X10175Y32550D01*
X9975Y32575D02*
X9975Y32425D01*
X9975Y32575D02*
X9977Y32593D01*
X9982Y32611D01*
X9990Y32628D01*
X10001Y32642D01*
X10015Y32655D01*
X10030Y32665D01*
X10048Y32671D01*
X10066Y32675D01*
X10084Y32675D01*
X10102Y32671D01*
X10120Y32665D01*
X10135Y32655D01*
X10149Y32642D01*
X10160Y32628D01*
X10168Y32611D01*
X10173Y32593D01*
X10175Y32575D01*
X10175Y32475D01*
X10200Y32875D02*
X10166Y32877D01*
X10133Y32881D01*
X10100Y32889D01*
X10068Y32899D01*
X10037Y32913D01*
X10038Y32912D02*
X10023Y32919D01*
X10009Y32928D01*
X9997Y32939D01*
X9988Y32953D01*
X9981Y32968D01*
X9976Y32984D01*
X9975Y33000D01*
X9976Y33016D01*
X9981Y33032D01*
X9988Y33047D01*
X9997Y33061D01*
X10009Y33072D01*
X10023Y33081D01*
X10038Y33088D01*
X10037Y33087D02*
X10068Y33101D01*
X10100Y33111D01*
X10133Y33119D01*
X10166Y33123D01*
X10200Y33125D01*
X10200Y32875D02*
X10234Y32877D01*
X10267Y32881D01*
X10300Y32889D01*
X10332Y32899D01*
X10363Y32913D01*
X10363Y32912D02*
X10378Y32919D01*
X10392Y32928D01*
X10404Y32939D01*
X10413Y32953D01*
X10420Y32968D01*
X10425Y32984D01*
X10426Y33000D01*
X10363Y33087D02*
X10332Y33101D01*
X10300Y33111D01*
X10267Y33119D01*
X10234Y33123D01*
X10200Y33125D01*
X10363Y33088D02*
X10378Y33081D01*
X10392Y33072D01*
X10404Y33061D01*
X10413Y33047D01*
X10420Y33032D01*
X10425Y33016D01*
X10426Y33000D01*
X10325Y32900D02*
X10075Y33100D01*
X10125Y33335D02*
X10425Y33335D01*
X10125Y33335D02*
X10125Y33460D01*
X10126Y33475D01*
X10131Y33489D01*
X10138Y33502D01*
X10147Y33513D01*
X10158Y33522D01*
X10171Y33529D01*
X10185Y33534D01*
X10200Y33535D01*
X10425Y33535D01*
X10425Y33761D02*
X9975Y33761D01*
X9975Y33961D01*
X10175Y33961D02*
X10175Y33761D01*
D10*
X26050Y28000D02*
X26150Y28000D01*
X26050Y28000D02*
X26050Y28100D01*
X26050Y28000D02*
X25950Y28000D01*
X26050Y28000D02*
X26050Y27900D01*
X24500Y28500D02*
X24502Y28563D01*
X24508Y28625D01*
X24518Y28687D01*
X24531Y28749D01*
X24549Y28809D01*
X24570Y28868D01*
X24595Y28926D01*
X24624Y28982D01*
X24656Y29036D01*
X24691Y29088D01*
X24729Y29137D01*
X24771Y29185D01*
X24815Y29229D01*
X24863Y29271D01*
X24912Y29309D01*
X24964Y29344D01*
X25018Y29376D01*
X25074Y29405D01*
X25132Y29430D01*
X25191Y29451D01*
X25251Y29469D01*
X25313Y29482D01*
X25375Y29492D01*
X25437Y29498D01*
X25500Y29500D01*
X25563Y29498D01*
X25625Y29492D01*
X25687Y29482D01*
X25749Y29469D01*
X25809Y29451D01*
X25868Y29430D01*
X25926Y29405D01*
X25982Y29376D01*
X26036Y29344D01*
X26088Y29309D01*
X26137Y29271D01*
X26185Y29229D01*
X26229Y29185D01*
X26271Y29137D01*
X26309Y29088D01*
X26344Y29036D01*
X26376Y28982D01*
X26405Y28926D01*
X26430Y28868D01*
X26451Y28809D01*
X26469Y28749D01*
X26482Y28687D01*
X26492Y28625D01*
X26498Y28563D01*
X26500Y28500D01*
X26498Y28437D01*
X26492Y28375D01*
X26482Y28313D01*
X26469Y28251D01*
X26451Y28191D01*
X26430Y28132D01*
X26405Y28074D01*
X26376Y28018D01*
X26344Y27964D01*
X26309Y27912D01*
X26271Y27863D01*
X26229Y27815D01*
X26185Y27771D01*
X26137Y27729D01*
X26088Y27691D01*
X26036Y27656D01*
X25982Y27624D01*
X25926Y27595D01*
X25868Y27570D01*
X25809Y27549D01*
X25749Y27531D01*
X25687Y27518D01*
X25625Y27508D01*
X25563Y27502D01*
X25500Y27500D01*
X25437Y27502D01*
X25375Y27508D01*
X25313Y27518D01*
X25251Y27531D01*
X25191Y27549D01*
X25132Y27570D01*
X25074Y27595D01*
X25018Y27624D01*
X24964Y27656D01*
X24912Y27691D01*
X24863Y27729D01*
X24815Y27771D01*
X24771Y27815D01*
X24729Y27863D01*
X24691Y27912D01*
X24656Y27964D01*
X24624Y28018D01*
X24595Y28074D01*
X24570Y28132D01*
X24549Y28191D01*
X24531Y28251D01*
X24518Y28313D01*
X24508Y28375D01*
X24502Y28437D01*
X24500Y28500D01*
D11*
X24099Y27525D02*
X23999Y27525D01*
X23982Y27527D01*
X23965Y27531D01*
X23949Y27538D01*
X23935Y27548D01*
X23922Y27561D01*
X23912Y27575D01*
X23905Y27591D01*
X23901Y27608D01*
X23899Y27625D01*
X23899Y27875D01*
X23901Y27892D01*
X23905Y27909D01*
X23912Y27925D01*
X23922Y27939D01*
X23935Y27952D01*
X23949Y27962D01*
X23965Y27969D01*
X23982Y27973D01*
X23999Y27975D01*
X24099Y27975D01*
X24275Y27525D02*
X24400Y27525D01*
X24421Y27527D01*
X24441Y27532D01*
X24459Y27540D01*
X24477Y27551D01*
X24492Y27565D01*
X24505Y27582D01*
X24514Y27600D01*
X24521Y27619D01*
X24525Y27640D01*
X24525Y27660D01*
X24521Y27681D01*
X24514Y27700D01*
X24505Y27718D01*
X24492Y27735D01*
X24477Y27749D01*
X24459Y27760D01*
X24441Y27768D01*
X24421Y27773D01*
X24400Y27775D01*
X24425Y27975D02*
X24275Y27975D01*
X24425Y27975D02*
X24443Y27973D01*
X24461Y27968D01*
X24478Y27960D01*
X24492Y27949D01*
X24505Y27935D01*
X24515Y27920D01*
X24521Y27902D01*
X24525Y27884D01*
X24525Y27866D01*
X24521Y27848D01*
X24515Y27830D01*
X24505Y27815D01*
X24492Y27801D01*
X24478Y27790D01*
X24461Y27782D01*
X24443Y27777D01*
X24425Y27775D01*
X24325Y27775D01*
X22664Y29425D02*
X22539Y29325D01*
X22664Y29425D02*
X22664Y28975D01*
X22539Y28975D02*
X22789Y28975D01*
X22989Y29200D02*
X22991Y29234D01*
X22995Y29267D01*
X23003Y29300D01*
X23013Y29332D01*
X23027Y29363D01*
X23026Y29363D02*
X23033Y29378D01*
X23042Y29392D01*
X23053Y29404D01*
X23067Y29413D01*
X23082Y29420D01*
X23098Y29425D01*
X23114Y29426D01*
X23130Y29425D01*
X23146Y29420D01*
X23161Y29413D01*
X23175Y29404D01*
X23186Y29392D01*
X23195Y29378D01*
X23202Y29363D01*
X23201Y29363D02*
X23215Y29332D01*
X23225Y29300D01*
X23233Y29267D01*
X23237Y29234D01*
X23239Y29200D01*
X22989Y29200D02*
X22991Y29166D01*
X22995Y29133D01*
X23003Y29100D01*
X23013Y29068D01*
X23027Y29037D01*
X23026Y29038D02*
X23033Y29023D01*
X23042Y29009D01*
X23053Y28997D01*
X23067Y28988D01*
X23082Y28981D01*
X23098Y28976D01*
X23114Y28975D01*
X23201Y29037D02*
X23215Y29068D01*
X23225Y29100D01*
X23233Y29133D01*
X23237Y29166D01*
X23239Y29200D01*
X23202Y29038D02*
X23195Y29023D01*
X23186Y29009D01*
X23175Y28997D01*
X23161Y28988D01*
X23146Y28981D01*
X23130Y28976D01*
X23114Y28975D01*
X23014Y29075D02*
X23214Y29325D01*
X23439Y29200D02*
X23441Y29234D01*
X23445Y29267D01*
X23453Y29300D01*
X23463Y29332D01*
X23477Y29363D01*
X23476Y29363D02*
X23483Y29378D01*
X23492Y29392D01*
X23503Y29404D01*
X23517Y29413D01*
X23532Y29420D01*
X23548Y29425D01*
X23564Y29426D01*
X23580Y29425D01*
X23596Y29420D01*
X23611Y29413D01*
X23625Y29404D01*
X23636Y29392D01*
X23645Y29378D01*
X23652Y29363D01*
X23651Y29363D02*
X23665Y29332D01*
X23675Y29300D01*
X23683Y29267D01*
X23687Y29234D01*
X23689Y29200D01*
X23439Y29200D02*
X23441Y29166D01*
X23445Y29133D01*
X23453Y29100D01*
X23463Y29068D01*
X23477Y29037D01*
X23476Y29038D02*
X23483Y29023D01*
X23492Y29009D01*
X23503Y28997D01*
X23517Y28988D01*
X23532Y28981D01*
X23548Y28976D01*
X23564Y28975D01*
X23651Y29037D02*
X23665Y29068D01*
X23675Y29100D01*
X23683Y29133D01*
X23687Y29166D01*
X23689Y29200D01*
X23652Y29038D02*
X23645Y29023D01*
X23636Y29009D01*
X23625Y28997D01*
X23611Y28988D01*
X23596Y28981D01*
X23580Y28976D01*
X23564Y28975D01*
X23464Y29075D02*
X23664Y29325D01*
X23899Y29275D02*
X23899Y29050D01*
X23900Y29035D01*
X23905Y29021D01*
X23912Y29008D01*
X23921Y28997D01*
X23932Y28988D01*
X23945Y28981D01*
X23959Y28976D01*
X23974Y28975D01*
X24099Y28975D01*
X24099Y29275D01*
X24325Y29425D02*
X24325Y28975D01*
X24325Y29425D02*
X24525Y29425D01*
X24525Y29225D02*
X24325Y29225D01*
D10*
X500Y24950D02*
X500Y24850D01*
X500Y24950D02*
X600Y24950D01*
X500Y24950D02*
X500Y25050D01*
X500Y24950D02*
X400Y24950D01*
X0Y25500D02*
X2Y25563D01*
X8Y25625D01*
X18Y25687D01*
X31Y25749D01*
X49Y25809D01*
X70Y25868D01*
X95Y25926D01*
X124Y25982D01*
X156Y26036D01*
X191Y26088D01*
X229Y26137D01*
X271Y26185D01*
X315Y26229D01*
X363Y26271D01*
X412Y26309D01*
X464Y26344D01*
X518Y26376D01*
X574Y26405D01*
X632Y26430D01*
X691Y26451D01*
X751Y26469D01*
X813Y26482D01*
X875Y26492D01*
X937Y26498D01*
X1000Y26500D01*
X1063Y26498D01*
X1125Y26492D01*
X1187Y26482D01*
X1249Y26469D01*
X1309Y26451D01*
X1368Y26430D01*
X1426Y26405D01*
X1482Y26376D01*
X1536Y26344D01*
X1588Y26309D01*
X1637Y26271D01*
X1685Y26229D01*
X1729Y26185D01*
X1771Y26137D01*
X1809Y26088D01*
X1844Y26036D01*
X1876Y25982D01*
X1905Y25926D01*
X1930Y25868D01*
X1951Y25809D01*
X1969Y25749D01*
X1982Y25687D01*
X1992Y25625D01*
X1998Y25563D01*
X2000Y25500D01*
X1998Y25437D01*
X1992Y25375D01*
X1982Y25313D01*
X1969Y25251D01*
X1951Y25191D01*
X1930Y25132D01*
X1905Y25074D01*
X1876Y25018D01*
X1844Y24964D01*
X1809Y24912D01*
X1771Y24863D01*
X1729Y24815D01*
X1685Y24771D01*
X1637Y24729D01*
X1588Y24691D01*
X1536Y24656D01*
X1482Y24624D01*
X1426Y24595D01*
X1368Y24570D01*
X1309Y24549D01*
X1249Y24531D01*
X1187Y24518D01*
X1125Y24508D01*
X1063Y24502D01*
X1000Y24500D01*
X937Y24502D01*
X875Y24508D01*
X813Y24518D01*
X751Y24531D01*
X691Y24549D01*
X632Y24570D01*
X574Y24595D01*
X518Y24624D01*
X464Y24656D01*
X412Y24691D01*
X363Y24729D01*
X315Y24771D01*
X271Y24815D01*
X229Y24863D01*
X191Y24912D01*
X156Y24964D01*
X124Y25018D01*
X95Y25074D01*
X70Y25132D01*
X49Y25191D01*
X31Y25251D01*
X18Y25313D01*
X8Y25375D01*
X2Y25437D01*
X0Y25500D01*
D11*
X475Y26575D02*
X475Y26675D01*
X475Y26575D02*
X473Y26558D01*
X469Y26541D01*
X462Y26525D01*
X452Y26511D01*
X439Y26498D01*
X425Y26488D01*
X409Y26481D01*
X392Y26477D01*
X375Y26475D01*
X125Y26475D01*
X108Y26477D01*
X91Y26481D01*
X75Y26488D01*
X61Y26498D01*
X48Y26511D01*
X38Y26525D01*
X31Y26541D01*
X27Y26558D01*
X25Y26575D01*
X25Y26675D01*
X25Y26951D02*
X375Y26851D01*
X375Y27101D01*
X275Y27026D02*
X475Y27026D01*
X1475Y26600D02*
X1575Y26475D01*
X1475Y26600D02*
X1925Y26600D01*
X1925Y26475D02*
X1925Y26725D01*
X1700Y26925D02*
X1666Y26927D01*
X1633Y26931D01*
X1600Y26939D01*
X1568Y26949D01*
X1537Y26963D01*
X1538Y26962D02*
X1523Y26969D01*
X1509Y26978D01*
X1497Y26989D01*
X1488Y27003D01*
X1481Y27018D01*
X1476Y27034D01*
X1475Y27050D01*
X1476Y27066D01*
X1481Y27082D01*
X1488Y27097D01*
X1497Y27111D01*
X1509Y27122D01*
X1523Y27131D01*
X1538Y27138D01*
X1537Y27137D02*
X1568Y27151D01*
X1600Y27161D01*
X1633Y27169D01*
X1666Y27173D01*
X1700Y27175D01*
X1700Y26925D02*
X1734Y26927D01*
X1767Y26931D01*
X1800Y26939D01*
X1832Y26949D01*
X1863Y26963D01*
X1863Y26962D02*
X1878Y26969D01*
X1892Y26978D01*
X1904Y26989D01*
X1913Y27003D01*
X1920Y27018D01*
X1925Y27034D01*
X1926Y27050D01*
X1863Y27137D02*
X1832Y27151D01*
X1800Y27161D01*
X1767Y27169D01*
X1734Y27173D01*
X1700Y27175D01*
X1863Y27138D02*
X1878Y27131D01*
X1892Y27122D01*
X1904Y27111D01*
X1913Y27097D01*
X1920Y27082D01*
X1925Y27066D01*
X1926Y27050D01*
X1825Y26950D02*
X1575Y27150D01*
X1700Y27375D02*
X1666Y27377D01*
X1633Y27381D01*
X1600Y27389D01*
X1568Y27399D01*
X1537Y27413D01*
X1538Y27412D02*
X1523Y27419D01*
X1509Y27428D01*
X1497Y27439D01*
X1488Y27453D01*
X1481Y27468D01*
X1476Y27484D01*
X1475Y27500D01*
X1476Y27516D01*
X1481Y27532D01*
X1488Y27547D01*
X1497Y27561D01*
X1509Y27572D01*
X1523Y27581D01*
X1538Y27588D01*
X1537Y27587D02*
X1568Y27601D01*
X1600Y27611D01*
X1633Y27619D01*
X1666Y27623D01*
X1700Y27625D01*
X1700Y27375D02*
X1734Y27377D01*
X1767Y27381D01*
X1800Y27389D01*
X1832Y27399D01*
X1863Y27413D01*
X1863Y27412D02*
X1878Y27419D01*
X1892Y27428D01*
X1904Y27439D01*
X1913Y27453D01*
X1920Y27468D01*
X1925Y27484D01*
X1926Y27500D01*
X1863Y27587D02*
X1832Y27601D01*
X1800Y27611D01*
X1767Y27619D01*
X1734Y27623D01*
X1700Y27625D01*
X1863Y27588D02*
X1878Y27581D01*
X1892Y27572D01*
X1904Y27561D01*
X1913Y27547D01*
X1920Y27532D01*
X1925Y27516D01*
X1926Y27500D01*
X1825Y27400D02*
X1575Y27600D01*
X1625Y27835D02*
X1925Y27835D01*
X1625Y27835D02*
X1625Y27960D01*
X1626Y27975D01*
X1631Y27989D01*
X1638Y28002D01*
X1647Y28013D01*
X1658Y28022D01*
X1671Y28029D01*
X1685Y28034D01*
X1700Y28035D01*
X1925Y28035D01*
X1925Y28261D02*
X1475Y28261D01*
X1475Y28461D01*
X1675Y28461D02*
X1675Y28261D01*
D10*
X619Y1969D02*
X621Y2042D01*
X627Y2115D01*
X637Y2187D01*
X651Y2259D01*
X668Y2330D01*
X690Y2400D01*
X715Y2469D01*
X744Y2536D01*
X776Y2601D01*
X812Y2665D01*
X852Y2727D01*
X894Y2786D01*
X940Y2843D01*
X989Y2897D01*
X1041Y2949D01*
X1095Y2998D01*
X1152Y3044D01*
X1211Y3086D01*
X1273Y3126D01*
X1337Y3162D01*
X1402Y3194D01*
X1469Y3223D01*
X1538Y3248D01*
X1608Y3270D01*
X1679Y3287D01*
X1751Y3301D01*
X1823Y3311D01*
X1896Y3317D01*
X1969Y3319D01*
X2042Y3317D01*
X2115Y3311D01*
X2187Y3301D01*
X2259Y3287D01*
X2330Y3270D01*
X2400Y3248D01*
X2469Y3223D01*
X2536Y3194D01*
X2601Y3162D01*
X2665Y3126D01*
X2727Y3086D01*
X2786Y3044D01*
X2843Y2998D01*
X2897Y2949D01*
X2949Y2897D01*
X2998Y2843D01*
X3044Y2786D01*
X3086Y2727D01*
X3126Y2665D01*
X3162Y2601D01*
X3194Y2536D01*
X3223Y2469D01*
X3248Y2400D01*
X3270Y2330D01*
X3287Y2259D01*
X3301Y2187D01*
X3311Y2115D01*
X3317Y2042D01*
X3319Y1969D01*
X3317Y1896D01*
X3311Y1823D01*
X3301Y1751D01*
X3287Y1679D01*
X3270Y1608D01*
X3248Y1538D01*
X3223Y1469D01*
X3194Y1402D01*
X3162Y1337D01*
X3126Y1273D01*
X3086Y1211D01*
X3044Y1152D01*
X2998Y1095D01*
X2949Y1041D01*
X2897Y989D01*
X2843Y940D01*
X2786Y894D01*
X2727Y852D01*
X2665Y812D01*
X2601Y776D01*
X2536Y744D01*
X2469Y715D01*
X2400Y690D01*
X2330Y668D01*
X2259Y651D01*
X2187Y637D01*
X2115Y627D01*
X2042Y621D01*
X1969Y619D01*
X1896Y621D01*
X1823Y627D01*
X1751Y637D01*
X1679Y651D01*
X1608Y668D01*
X1538Y690D01*
X1469Y715D01*
X1402Y744D01*
X1337Y776D01*
X1273Y812D01*
X1211Y852D01*
X1152Y894D01*
X1095Y940D01*
X1041Y989D01*
X989Y1041D01*
X940Y1095D01*
X894Y1152D01*
X852Y1211D01*
X812Y1273D01*
X776Y1337D01*
X744Y1402D01*
X715Y1469D01*
X690Y1538D01*
X668Y1608D01*
X651Y1679D01*
X637Y1751D01*
X627Y1823D01*
X621Y1896D01*
X619Y1969D01*
D12*
X1280Y1969D02*
X1282Y2021D01*
X1288Y2073D01*
X1298Y2124D01*
X1311Y2174D01*
X1329Y2224D01*
X1350Y2271D01*
X1374Y2317D01*
X1403Y2361D01*
X1434Y2403D01*
X1468Y2442D01*
X1505Y2479D01*
X1545Y2512D01*
X1588Y2543D01*
X1632Y2570D01*
X1678Y2594D01*
X1727Y2614D01*
X1776Y2630D01*
X1827Y2643D01*
X1878Y2652D01*
X1930Y2657D01*
X1982Y2658D01*
X2034Y2655D01*
X2086Y2648D01*
X2137Y2637D01*
X2187Y2623D01*
X2236Y2604D01*
X2283Y2582D01*
X2328Y2557D01*
X2372Y2528D01*
X2413Y2496D01*
X2452Y2461D01*
X2487Y2423D01*
X2520Y2382D01*
X2550Y2340D01*
X2576Y2295D01*
X2599Y2248D01*
X2618Y2199D01*
X2634Y2149D01*
X2646Y2099D01*
X2654Y2047D01*
X2658Y1995D01*
X2658Y1943D01*
X2654Y1891D01*
X2646Y1839D01*
X2634Y1789D01*
X2618Y1739D01*
X2599Y1690D01*
X2576Y1643D01*
X2550Y1598D01*
X2520Y1556D01*
X2487Y1515D01*
X2452Y1477D01*
X2413Y1442D01*
X2372Y1410D01*
X2328Y1381D01*
X2283Y1356D01*
X2236Y1334D01*
X2187Y1315D01*
X2137Y1301D01*
X2086Y1290D01*
X2034Y1283D01*
X1982Y1280D01*
X1930Y1281D01*
X1878Y1286D01*
X1827Y1295D01*
X1776Y1308D01*
X1727Y1324D01*
X1678Y1344D01*
X1632Y1368D01*
X1588Y1395D01*
X1545Y1426D01*
X1505Y1459D01*
X1468Y1496D01*
X1434Y1535D01*
X1403Y1577D01*
X1374Y1621D01*
X1350Y1667D01*
X1329Y1714D01*
X1311Y1764D01*
X1298Y1814D01*
X1288Y1865D01*
X1282Y1917D01*
X1280Y1969D01*
D10*
X32115Y33465D02*
X32117Y33538D01*
X32123Y33611D01*
X32133Y33683D01*
X32147Y33755D01*
X32164Y33826D01*
X32186Y33896D01*
X32211Y33965D01*
X32240Y34032D01*
X32272Y34097D01*
X32308Y34161D01*
X32348Y34223D01*
X32390Y34282D01*
X32436Y34339D01*
X32485Y34393D01*
X32537Y34445D01*
X32591Y34494D01*
X32648Y34540D01*
X32707Y34582D01*
X32769Y34622D01*
X32833Y34658D01*
X32898Y34690D01*
X32965Y34719D01*
X33034Y34744D01*
X33104Y34766D01*
X33175Y34783D01*
X33247Y34797D01*
X33319Y34807D01*
X33392Y34813D01*
X33465Y34815D01*
X33538Y34813D01*
X33611Y34807D01*
X33683Y34797D01*
X33755Y34783D01*
X33826Y34766D01*
X33896Y34744D01*
X33965Y34719D01*
X34032Y34690D01*
X34097Y34658D01*
X34161Y34622D01*
X34223Y34582D01*
X34282Y34540D01*
X34339Y34494D01*
X34393Y34445D01*
X34445Y34393D01*
X34494Y34339D01*
X34540Y34282D01*
X34582Y34223D01*
X34622Y34161D01*
X34658Y34097D01*
X34690Y34032D01*
X34719Y33965D01*
X34744Y33896D01*
X34766Y33826D01*
X34783Y33755D01*
X34797Y33683D01*
X34807Y33611D01*
X34813Y33538D01*
X34815Y33465D01*
X34813Y33392D01*
X34807Y33319D01*
X34797Y33247D01*
X34783Y33175D01*
X34766Y33104D01*
X34744Y33034D01*
X34719Y32965D01*
X34690Y32898D01*
X34658Y32833D01*
X34622Y32769D01*
X34582Y32707D01*
X34540Y32648D01*
X34494Y32591D01*
X34445Y32537D01*
X34393Y32485D01*
X34339Y32436D01*
X34282Y32390D01*
X34223Y32348D01*
X34161Y32308D01*
X34097Y32272D01*
X34032Y32240D01*
X33965Y32211D01*
X33896Y32186D01*
X33826Y32164D01*
X33755Y32147D01*
X33683Y32133D01*
X33611Y32123D01*
X33538Y32117D01*
X33465Y32115D01*
X33392Y32117D01*
X33319Y32123D01*
X33247Y32133D01*
X33175Y32147D01*
X33104Y32164D01*
X33034Y32186D01*
X32965Y32211D01*
X32898Y32240D01*
X32833Y32272D01*
X32769Y32308D01*
X32707Y32348D01*
X32648Y32390D01*
X32591Y32436D01*
X32537Y32485D01*
X32485Y32537D01*
X32436Y32591D01*
X32390Y32648D01*
X32348Y32707D01*
X32308Y32769D01*
X32272Y32833D01*
X32240Y32898D01*
X32211Y32965D01*
X32186Y33034D01*
X32164Y33104D01*
X32147Y33175D01*
X32133Y33247D01*
X32123Y33319D01*
X32117Y33392D01*
X32115Y33465D01*
D12*
X32776Y33465D02*
X32778Y33517D01*
X32784Y33569D01*
X32794Y33620D01*
X32807Y33670D01*
X32825Y33720D01*
X32846Y33767D01*
X32870Y33813D01*
X32899Y33857D01*
X32930Y33899D01*
X32964Y33938D01*
X33001Y33975D01*
X33041Y34008D01*
X33084Y34039D01*
X33128Y34066D01*
X33174Y34090D01*
X33223Y34110D01*
X33272Y34126D01*
X33323Y34139D01*
X33374Y34148D01*
X33426Y34153D01*
X33478Y34154D01*
X33530Y34151D01*
X33582Y34144D01*
X33633Y34133D01*
X33683Y34119D01*
X33732Y34100D01*
X33779Y34078D01*
X33824Y34053D01*
X33868Y34024D01*
X33909Y33992D01*
X33948Y33957D01*
X33983Y33919D01*
X34016Y33878D01*
X34046Y33836D01*
X34072Y33791D01*
X34095Y33744D01*
X34114Y33695D01*
X34130Y33645D01*
X34142Y33595D01*
X34150Y33543D01*
X34154Y33491D01*
X34154Y33439D01*
X34150Y33387D01*
X34142Y33335D01*
X34130Y33285D01*
X34114Y33235D01*
X34095Y33186D01*
X34072Y33139D01*
X34046Y33094D01*
X34016Y33052D01*
X33983Y33011D01*
X33948Y32973D01*
X33909Y32938D01*
X33868Y32906D01*
X33824Y32877D01*
X33779Y32852D01*
X33732Y32830D01*
X33683Y32811D01*
X33633Y32797D01*
X33582Y32786D01*
X33530Y32779D01*
X33478Y32776D01*
X33426Y32777D01*
X33374Y32782D01*
X33323Y32791D01*
X33272Y32804D01*
X33223Y32820D01*
X33174Y32840D01*
X33128Y32864D01*
X33084Y32891D01*
X33041Y32922D01*
X33001Y32955D01*
X32964Y32992D01*
X32930Y33031D01*
X32899Y33073D01*
X32870Y33117D01*
X32846Y33163D01*
X32825Y33210D01*
X32807Y33260D01*
X32794Y33310D01*
X32784Y33361D01*
X32778Y33413D01*
X32776Y33465D01*
D10*
X32115Y1969D02*
X32117Y2042D01*
X32123Y2115D01*
X32133Y2187D01*
X32147Y2259D01*
X32164Y2330D01*
X32186Y2400D01*
X32211Y2469D01*
X32240Y2536D01*
X32272Y2601D01*
X32308Y2665D01*
X32348Y2727D01*
X32390Y2786D01*
X32436Y2843D01*
X32485Y2897D01*
X32537Y2949D01*
X32591Y2998D01*
X32648Y3044D01*
X32707Y3086D01*
X32769Y3126D01*
X32833Y3162D01*
X32898Y3194D01*
X32965Y3223D01*
X33034Y3248D01*
X33104Y3270D01*
X33175Y3287D01*
X33247Y3301D01*
X33319Y3311D01*
X33392Y3317D01*
X33465Y3319D01*
X33538Y3317D01*
X33611Y3311D01*
X33683Y3301D01*
X33755Y3287D01*
X33826Y3270D01*
X33896Y3248D01*
X33965Y3223D01*
X34032Y3194D01*
X34097Y3162D01*
X34161Y3126D01*
X34223Y3086D01*
X34282Y3044D01*
X34339Y2998D01*
X34393Y2949D01*
X34445Y2897D01*
X34494Y2843D01*
X34540Y2786D01*
X34582Y2727D01*
X34622Y2665D01*
X34658Y2601D01*
X34690Y2536D01*
X34719Y2469D01*
X34744Y2400D01*
X34766Y2330D01*
X34783Y2259D01*
X34797Y2187D01*
X34807Y2115D01*
X34813Y2042D01*
X34815Y1969D01*
X34813Y1896D01*
X34807Y1823D01*
X34797Y1751D01*
X34783Y1679D01*
X34766Y1608D01*
X34744Y1538D01*
X34719Y1469D01*
X34690Y1402D01*
X34658Y1337D01*
X34622Y1273D01*
X34582Y1211D01*
X34540Y1152D01*
X34494Y1095D01*
X34445Y1041D01*
X34393Y989D01*
X34339Y940D01*
X34282Y894D01*
X34223Y852D01*
X34161Y812D01*
X34097Y776D01*
X34032Y744D01*
X33965Y715D01*
X33896Y690D01*
X33826Y668D01*
X33755Y651D01*
X33683Y637D01*
X33611Y627D01*
X33538Y621D01*
X33465Y619D01*
X33392Y621D01*
X33319Y627D01*
X33247Y637D01*
X33175Y651D01*
X33104Y668D01*
X33034Y690D01*
X32965Y715D01*
X32898Y744D01*
X32833Y776D01*
X32769Y812D01*
X32707Y852D01*
X32648Y894D01*
X32591Y940D01*
X32537Y989D01*
X32485Y1041D01*
X32436Y1095D01*
X32390Y1152D01*
X32348Y1211D01*
X32308Y1273D01*
X32272Y1337D01*
X32240Y1402D01*
X32211Y1469D01*
X32186Y1538D01*
X32164Y1608D01*
X32147Y1679D01*
X32133Y1751D01*
X32123Y1823D01*
X32117Y1896D01*
X32115Y1969D01*
D12*
X32776Y1969D02*
X32778Y2021D01*
X32784Y2073D01*
X32794Y2124D01*
X32807Y2174D01*
X32825Y2224D01*
X32846Y2271D01*
X32870Y2317D01*
X32899Y2361D01*
X32930Y2403D01*
X32964Y2442D01*
X33001Y2479D01*
X33041Y2512D01*
X33084Y2543D01*
X33128Y2570D01*
X33174Y2594D01*
X33223Y2614D01*
X33272Y2630D01*
X33323Y2643D01*
X33374Y2652D01*
X33426Y2657D01*
X33478Y2658D01*
X33530Y2655D01*
X33582Y2648D01*
X33633Y2637D01*
X33683Y2623D01*
X33732Y2604D01*
X33779Y2582D01*
X33824Y2557D01*
X33868Y2528D01*
X33909Y2496D01*
X33948Y2461D01*
X33983Y2423D01*
X34016Y2382D01*
X34046Y2340D01*
X34072Y2295D01*
X34095Y2248D01*
X34114Y2199D01*
X34130Y2149D01*
X34142Y2099D01*
X34150Y2047D01*
X34154Y1995D01*
X34154Y1943D01*
X34150Y1891D01*
X34142Y1839D01*
X34130Y1789D01*
X34114Y1739D01*
X34095Y1690D01*
X34072Y1643D01*
X34046Y1598D01*
X34016Y1556D01*
X33983Y1515D01*
X33948Y1477D01*
X33909Y1442D01*
X33868Y1410D01*
X33824Y1381D01*
X33779Y1356D01*
X33732Y1334D01*
X33683Y1315D01*
X33633Y1301D01*
X33582Y1290D01*
X33530Y1283D01*
X33478Y1280D01*
X33426Y1281D01*
X33374Y1286D01*
X33323Y1295D01*
X33272Y1308D01*
X33223Y1324D01*
X33174Y1344D01*
X33128Y1368D01*
X33084Y1395D01*
X33041Y1426D01*
X33001Y1459D01*
X32964Y1496D01*
X32930Y1535D01*
X32899Y1577D01*
X32870Y1621D01*
X32846Y1667D01*
X32825Y1714D01*
X32807Y1764D01*
X32794Y1814D01*
X32784Y1865D01*
X32778Y1917D01*
X32776Y1969D01*
D10*
X619Y33465D02*
X621Y33538D01*
X627Y33611D01*
X637Y33683D01*
X651Y33755D01*
X668Y33826D01*
X690Y33896D01*
X715Y33965D01*
X744Y34032D01*
X776Y34097D01*
X812Y34161D01*
X852Y34223D01*
X894Y34282D01*
X940Y34339D01*
X989Y34393D01*
X1041Y34445D01*
X1095Y34494D01*
X1152Y34540D01*
X1211Y34582D01*
X1273Y34622D01*
X1337Y34658D01*
X1402Y34690D01*
X1469Y34719D01*
X1538Y34744D01*
X1608Y34766D01*
X1679Y34783D01*
X1751Y34797D01*
X1823Y34807D01*
X1896Y34813D01*
X1969Y34815D01*
X2042Y34813D01*
X2115Y34807D01*
X2187Y34797D01*
X2259Y34783D01*
X2330Y34766D01*
X2400Y34744D01*
X2469Y34719D01*
X2536Y34690D01*
X2601Y34658D01*
X2665Y34622D01*
X2727Y34582D01*
X2786Y34540D01*
X2843Y34494D01*
X2897Y34445D01*
X2949Y34393D01*
X2998Y34339D01*
X3044Y34282D01*
X3086Y34223D01*
X3126Y34161D01*
X3162Y34097D01*
X3194Y34032D01*
X3223Y33965D01*
X3248Y33896D01*
X3270Y33826D01*
X3287Y33755D01*
X3301Y33683D01*
X3311Y33611D01*
X3317Y33538D01*
X3319Y33465D01*
X3317Y33392D01*
X3311Y33319D01*
X3301Y33247D01*
X3287Y33175D01*
X3270Y33104D01*
X3248Y33034D01*
X3223Y32965D01*
X3194Y32898D01*
X3162Y32833D01*
X3126Y32769D01*
X3086Y32707D01*
X3044Y32648D01*
X2998Y32591D01*
X2949Y32537D01*
X2897Y32485D01*
X2843Y32436D01*
X2786Y32390D01*
X2727Y32348D01*
X2665Y32308D01*
X2601Y32272D01*
X2536Y32240D01*
X2469Y32211D01*
X2400Y32186D01*
X2330Y32164D01*
X2259Y32147D01*
X2187Y32133D01*
X2115Y32123D01*
X2042Y32117D01*
X1969Y32115D01*
X1896Y32117D01*
X1823Y32123D01*
X1751Y32133D01*
X1679Y32147D01*
X1608Y32164D01*
X1538Y32186D01*
X1469Y32211D01*
X1402Y32240D01*
X1337Y32272D01*
X1273Y32308D01*
X1211Y32348D01*
X1152Y32390D01*
X1095Y32436D01*
X1041Y32485D01*
X989Y32537D01*
X940Y32591D01*
X894Y32648D01*
X852Y32707D01*
X812Y32769D01*
X776Y32833D01*
X744Y32898D01*
X715Y32965D01*
X690Y33034D01*
X668Y33104D01*
X651Y33175D01*
X637Y33247D01*
X627Y33319D01*
X621Y33392D01*
X619Y33465D01*
D12*
X1280Y33465D02*
X1282Y33517D01*
X1288Y33569D01*
X1298Y33620D01*
X1311Y33670D01*
X1329Y33720D01*
X1350Y33767D01*
X1374Y33813D01*
X1403Y33857D01*
X1434Y33899D01*
X1468Y33938D01*
X1505Y33975D01*
X1545Y34008D01*
X1588Y34039D01*
X1632Y34066D01*
X1678Y34090D01*
X1727Y34110D01*
X1776Y34126D01*
X1827Y34139D01*
X1878Y34148D01*
X1930Y34153D01*
X1982Y34154D01*
X2034Y34151D01*
X2086Y34144D01*
X2137Y34133D01*
X2187Y34119D01*
X2236Y34100D01*
X2283Y34078D01*
X2328Y34053D01*
X2372Y34024D01*
X2413Y33992D01*
X2452Y33957D01*
X2487Y33919D01*
X2520Y33878D01*
X2550Y33836D01*
X2576Y33791D01*
X2599Y33744D01*
X2618Y33695D01*
X2634Y33645D01*
X2646Y33595D01*
X2654Y33543D01*
X2658Y33491D01*
X2658Y33439D01*
X2654Y33387D01*
X2646Y33335D01*
X2634Y33285D01*
X2618Y33235D01*
X2599Y33186D01*
X2576Y33139D01*
X2550Y33094D01*
X2520Y33052D01*
X2487Y33011D01*
X2452Y32973D01*
X2413Y32938D01*
X2372Y32906D01*
X2328Y32877D01*
X2283Y32852D01*
X2236Y32830D01*
X2187Y32811D01*
X2137Y32797D01*
X2086Y32786D01*
X2034Y32779D01*
X1982Y32776D01*
X1930Y32777D01*
X1878Y32782D01*
X1827Y32791D01*
X1776Y32804D01*
X1727Y32820D01*
X1678Y32840D01*
X1632Y32864D01*
X1588Y32891D01*
X1545Y32922D01*
X1505Y32955D01*
X1468Y32992D01*
X1434Y33031D01*
X1403Y33073D01*
X1374Y33117D01*
X1350Y33163D01*
X1329Y33210D01*
X1311Y33260D01*
X1298Y33310D01*
X1288Y33361D01*
X1282Y33413D01*
X1280Y33465D01*
D11*
X14500Y29550D02*
X14450Y28400D01*
X14350Y28300D01*
X10650Y28300D01*
X10550Y28400D01*
X10500Y29550D01*
X10630Y28540D02*
X10632Y28560D01*
X10638Y28578D01*
X10647Y28596D01*
X10659Y28611D01*
X10674Y28623D01*
X10692Y28632D01*
X10710Y28638D01*
X10730Y28640D01*
X10750Y28638D01*
X10768Y28632D01*
X10786Y28623D01*
X10801Y28611D01*
X10813Y28596D01*
X10822Y28578D01*
X10828Y28560D01*
X10830Y28540D01*
X10828Y28520D01*
X10822Y28502D01*
X10813Y28484D01*
X10801Y28469D01*
X10786Y28457D01*
X10768Y28448D01*
X10750Y28442D01*
X10730Y28440D01*
X10710Y28442D01*
X10692Y28448D01*
X10674Y28457D01*
X10659Y28469D01*
X10647Y28484D01*
X10638Y28502D01*
X10632Y28520D01*
X10630Y28540D01*
D13*
X12500Y29850D03*
D14*
X10775Y29600D03*
D15*
X12000Y29600D03*
X13000Y29600D03*
D14*
X14225Y29600D03*
D11*
X10575Y28095D02*
X10575Y27645D01*
X10525Y27645D02*
X10625Y27645D01*
X10625Y28095D02*
X10525Y28095D01*
X10909Y27645D02*
X11009Y27645D01*
X10909Y27645D02*
X10892Y27647D01*
X10875Y27651D01*
X10859Y27658D01*
X10845Y27668D01*
X10832Y27681D01*
X10822Y27695D01*
X10815Y27711D01*
X10811Y27728D01*
X10809Y27745D01*
X10809Y27995D01*
X10811Y28012D01*
X10815Y28029D01*
X10822Y28045D01*
X10832Y28059D01*
X10845Y28072D01*
X10859Y28082D01*
X10875Y28089D01*
X10892Y28093D01*
X10909Y28095D01*
X11009Y28095D01*
X11185Y27995D02*
X11310Y28095D01*
X11310Y27645D01*
X11185Y27645D02*
X11435Y27645D01*
X10525Y27475D02*
X10525Y27425D01*
X10525Y27475D02*
X10775Y27475D01*
X10650Y27025D01*
X10975Y27150D02*
X10977Y27171D01*
X10982Y27191D01*
X10990Y27209D01*
X11001Y27227D01*
X11015Y27242D01*
X11032Y27255D01*
X11050Y27264D01*
X11069Y27271D01*
X11090Y27275D01*
X11110Y27275D01*
X11131Y27271D01*
X11150Y27264D01*
X11168Y27255D01*
X11185Y27242D01*
X11199Y27227D01*
X11210Y27209D01*
X11218Y27191D01*
X11223Y27171D01*
X11225Y27150D01*
X11223Y27129D01*
X11218Y27109D01*
X11210Y27091D01*
X11199Y27073D01*
X11185Y27058D01*
X11168Y27045D01*
X11150Y27036D01*
X11131Y27029D01*
X11110Y27025D01*
X11090Y27025D01*
X11069Y27029D01*
X11050Y27036D01*
X11032Y27045D01*
X11015Y27058D01*
X11001Y27073D01*
X10990Y27091D01*
X10982Y27109D01*
X10977Y27129D01*
X10975Y27150D01*
X11000Y27375D02*
X11002Y27393D01*
X11007Y27411D01*
X11015Y27428D01*
X11026Y27442D01*
X11040Y27455D01*
X11055Y27465D01*
X11073Y27471D01*
X11091Y27475D01*
X11109Y27475D01*
X11127Y27471D01*
X11145Y27465D01*
X11160Y27455D01*
X11174Y27442D01*
X11185Y27428D01*
X11193Y27411D01*
X11198Y27393D01*
X11200Y27375D01*
X11198Y27357D01*
X11193Y27339D01*
X11185Y27322D01*
X11174Y27308D01*
X11160Y27295D01*
X11145Y27285D01*
X11127Y27279D01*
X11109Y27275D01*
X11091Y27275D01*
X11073Y27279D01*
X11055Y27285D01*
X11040Y27295D01*
X11026Y27308D01*
X11015Y27322D01*
X11007Y27339D01*
X11002Y27357D01*
X11000Y27375D01*
X11425Y27250D02*
X11427Y27284D01*
X11431Y27317D01*
X11439Y27350D01*
X11449Y27382D01*
X11463Y27413D01*
X11462Y27413D02*
X11469Y27428D01*
X11478Y27442D01*
X11489Y27454D01*
X11503Y27463D01*
X11518Y27470D01*
X11534Y27475D01*
X11550Y27476D01*
X11566Y27475D01*
X11582Y27470D01*
X11597Y27463D01*
X11611Y27454D01*
X11622Y27442D01*
X11631Y27428D01*
X11638Y27413D01*
X11637Y27413D02*
X11651Y27382D01*
X11661Y27350D01*
X11669Y27317D01*
X11673Y27284D01*
X11675Y27250D01*
X11425Y27250D02*
X11427Y27216D01*
X11431Y27183D01*
X11439Y27150D01*
X11449Y27118D01*
X11463Y27087D01*
X11462Y27088D02*
X11469Y27073D01*
X11478Y27059D01*
X11489Y27047D01*
X11503Y27038D01*
X11518Y27031D01*
X11534Y27026D01*
X11550Y27025D01*
X11637Y27087D02*
X11651Y27118D01*
X11661Y27150D01*
X11669Y27183D01*
X11673Y27216D01*
X11675Y27250D01*
X11638Y27088D02*
X11631Y27073D01*
X11622Y27059D01*
X11611Y27047D01*
X11597Y27038D01*
X11582Y27031D01*
X11566Y27026D01*
X11550Y27025D01*
X11450Y27125D02*
X11650Y27375D01*
X11875Y27025D02*
X12025Y27025D01*
X12042Y27027D01*
X12059Y27031D01*
X12075Y27038D01*
X12089Y27048D01*
X12102Y27061D01*
X12112Y27075D01*
X12119Y27091D01*
X12123Y27108D01*
X12125Y27125D01*
X12125Y27175D01*
X12123Y27192D01*
X12119Y27209D01*
X12112Y27225D01*
X12102Y27239D01*
X12089Y27252D01*
X12075Y27262D01*
X12059Y27269D01*
X12042Y27273D01*
X12025Y27275D01*
X11875Y27275D01*
X11875Y27475D01*
X12125Y27475D01*
X12420Y27475D02*
X12420Y27025D01*
X12295Y27475D02*
X12545Y27475D01*
X12690Y27475D02*
X12840Y27025D01*
X12990Y27475D01*
D10*
X700Y28500D02*
X683Y28502D01*
X666Y28506D01*
X650Y28513D01*
X636Y28523D01*
X623Y28536D01*
X613Y28550D01*
X606Y28566D01*
X602Y28583D01*
X600Y28600D01*
X1300Y28500D02*
X1317Y28502D01*
X1334Y28506D01*
X1350Y28513D01*
X1364Y28523D01*
X1377Y28536D01*
X1387Y28550D01*
X1394Y28566D01*
X1398Y28583D01*
X1400Y28600D01*
X1400Y30400D02*
X1398Y30417D01*
X1394Y30434D01*
X1387Y30450D01*
X1377Y30464D01*
X1364Y30477D01*
X1350Y30487D01*
X1334Y30494D01*
X1317Y30498D01*
X1300Y30500D01*
X700Y30500D02*
X683Y30498D01*
X666Y30494D01*
X650Y30487D01*
X636Y30477D01*
X623Y30464D01*
X613Y30450D01*
X606Y30434D01*
X602Y30417D01*
X600Y30400D01*
X700Y28500D02*
X1300Y28500D01*
X600Y28600D02*
X600Y28750D01*
X650Y28800D01*
X1400Y28750D02*
X1400Y28600D01*
X1400Y28750D02*
X1350Y28800D01*
X650Y30200D02*
X600Y30250D01*
X650Y30200D02*
X650Y28800D01*
X1350Y30200D02*
X1400Y30250D01*
X1350Y30200D02*
X1350Y28800D01*
X600Y30250D02*
X600Y30400D01*
X1400Y30400D02*
X1400Y30250D01*
X1300Y30500D02*
X700Y30500D01*
D16*
X1000Y30575D03*
X1000Y28425D03*
D17*
X470Y28520D02*
X120Y28520D01*
X120Y28617D01*
X122Y28635D01*
X127Y28652D01*
X135Y28668D01*
X145Y28682D01*
X159Y28694D01*
X174Y28704D01*
X190Y28710D01*
X208Y28714D01*
X226Y28714D01*
X244Y28710D01*
X260Y28704D01*
X275Y28694D01*
X289Y28682D01*
X299Y28668D01*
X307Y28652D01*
X312Y28635D01*
X314Y28617D01*
X314Y28520D01*
X314Y28637D02*
X470Y28714D01*
X198Y28868D02*
X120Y28966D01*
X470Y28966D01*
X470Y29063D02*
X470Y28868D01*
X1170Y28880D02*
X1170Y28977D01*
X1168Y28995D01*
X1163Y29012D01*
X1155Y29028D01*
X1145Y29042D01*
X1131Y29054D01*
X1116Y29064D01*
X1100Y29070D01*
X1082Y29074D01*
X1064Y29074D01*
X1046Y29070D01*
X1030Y29064D01*
X1015Y29054D01*
X1001Y29042D01*
X991Y29028D01*
X983Y29012D01*
X978Y28995D01*
X976Y28977D01*
X820Y28997D02*
X820Y28880D01*
X820Y28997D02*
X822Y29013D01*
X827Y29029D01*
X835Y29043D01*
X846Y29055D01*
X859Y29065D01*
X874Y29071D01*
X890Y29075D01*
X906Y29075D01*
X922Y29071D01*
X937Y29065D01*
X950Y29055D01*
X961Y29043D01*
X969Y29029D01*
X974Y29013D01*
X976Y28997D01*
X976Y28919D01*
X995Y29231D02*
X962Y29233D01*
X930Y29238D01*
X899Y29248D01*
X869Y29260D01*
X855Y29266D01*
X843Y29275D01*
X833Y29286D01*
X826Y29299D01*
X822Y29313D01*
X820Y29328D01*
X822Y29343D01*
X826Y29357D01*
X833Y29370D01*
X843Y29381D01*
X855Y29390D01*
X869Y29396D01*
X899Y29408D01*
X930Y29418D01*
X962Y29423D01*
X995Y29425D01*
X995Y29231D02*
X1028Y29233D01*
X1060Y29238D01*
X1091Y29248D01*
X1121Y29260D01*
X1135Y29266D01*
X1147Y29275D01*
X1157Y29286D01*
X1164Y29299D01*
X1168Y29313D01*
X1170Y29328D01*
X1121Y29396D02*
X1091Y29408D01*
X1060Y29418D01*
X1028Y29423D01*
X995Y29425D01*
X1121Y29396D02*
X1135Y29390D01*
X1147Y29381D01*
X1157Y29370D01*
X1164Y29357D01*
X1168Y29343D01*
X1170Y29328D01*
X1092Y29250D02*
X898Y29406D01*
X820Y29594D02*
X1170Y29594D01*
X1053Y29594D02*
X937Y29750D01*
X1005Y29663D02*
X1170Y29750D01*
D10*
X600Y21100D02*
X602Y21083D01*
X606Y21066D01*
X613Y21050D01*
X623Y21036D01*
X636Y21023D01*
X650Y21013D01*
X666Y21006D01*
X683Y21002D01*
X700Y21000D01*
X1300Y21000D02*
X1317Y21002D01*
X1334Y21006D01*
X1350Y21013D01*
X1364Y21023D01*
X1377Y21036D01*
X1387Y21050D01*
X1394Y21066D01*
X1398Y21083D01*
X1400Y21100D01*
X1400Y22900D02*
X1398Y22917D01*
X1394Y22934D01*
X1387Y22950D01*
X1377Y22964D01*
X1364Y22977D01*
X1350Y22987D01*
X1334Y22994D01*
X1317Y22998D01*
X1300Y23000D01*
X700Y23000D02*
X683Y22998D01*
X666Y22994D01*
X650Y22987D01*
X636Y22977D01*
X623Y22964D01*
X613Y22950D01*
X606Y22934D01*
X602Y22917D01*
X600Y22900D01*
X700Y21000D02*
X1300Y21000D01*
X600Y21100D02*
X600Y21250D01*
X650Y21300D01*
X1400Y21250D02*
X1400Y21100D01*
X1400Y21250D02*
X1350Y21300D01*
X650Y22700D02*
X600Y22750D01*
X650Y22700D02*
X650Y21300D01*
X1350Y22700D02*
X1400Y22750D01*
X1350Y22700D02*
X1350Y21300D01*
X600Y22750D02*
X600Y22900D01*
X1400Y22900D02*
X1400Y22750D01*
X1300Y23000D02*
X700Y23000D01*
D16*
X1000Y23075D03*
X1000Y20925D03*
D17*
X470Y21020D02*
X120Y21020D01*
X120Y21117D01*
X122Y21135D01*
X127Y21152D01*
X135Y21168D01*
X145Y21182D01*
X159Y21194D01*
X174Y21204D01*
X190Y21210D01*
X208Y21214D01*
X226Y21214D01*
X244Y21210D01*
X260Y21204D01*
X275Y21194D01*
X289Y21182D01*
X299Y21168D01*
X307Y21152D01*
X312Y21135D01*
X314Y21117D01*
X314Y21020D01*
X314Y21137D02*
X470Y21214D01*
X208Y21563D02*
X191Y21561D01*
X174Y21556D01*
X159Y21548D01*
X146Y21537D01*
X135Y21524D01*
X127Y21509D01*
X122Y21492D01*
X120Y21475D01*
X122Y21455D01*
X127Y21436D01*
X136Y21418D01*
X148Y21401D01*
X162Y21387D01*
X179Y21376D01*
X197Y21368D01*
X276Y21534D02*
X262Y21546D01*
X245Y21555D01*
X227Y21561D01*
X208Y21563D01*
X276Y21534D02*
X470Y21368D01*
X470Y21563D01*
X1170Y21497D02*
X1170Y21380D01*
X1170Y21497D02*
X1168Y21514D01*
X1162Y21531D01*
X1153Y21546D01*
X1141Y21558D01*
X1126Y21567D01*
X1109Y21573D01*
X1092Y21575D01*
X1092Y21574D02*
X1053Y21574D01*
X1053Y21575D02*
X1038Y21574D01*
X1023Y21569D01*
X1010Y21562D01*
X998Y21552D01*
X988Y21540D01*
X981Y21527D01*
X976Y21512D01*
X975Y21497D01*
X976Y21497D02*
X976Y21380D01*
X820Y21380D01*
X820Y21574D01*
X1151Y21713D02*
X1170Y21713D01*
X1151Y21713D02*
X1151Y21733D01*
X1170Y21733D01*
X1170Y21713D01*
X898Y21871D02*
X820Y21969D01*
X1170Y21969D01*
X1170Y22066D02*
X1170Y21871D01*
X1170Y22235D02*
X820Y22235D01*
X937Y22390D02*
X1053Y22235D01*
X1005Y22303D02*
X1170Y22390D01*
D11*
X26000Y13000D02*
X26000Y2000D01*
X26000Y13000D02*
X11000Y13000D01*
X11000Y2000D01*
X26000Y2000D01*
D17*
X13173Y9270D02*
X13020Y9730D01*
X13327Y9730D02*
X13173Y9270D01*
X13533Y9270D02*
X13533Y9730D01*
X13482Y9270D02*
X13584Y9270D01*
X13584Y9730D02*
X13482Y9730D01*
X13781Y9730D02*
X13781Y9270D01*
X14036Y9270D02*
X13781Y9730D01*
X14036Y9730D02*
X14036Y9270D01*
X13276Y7526D02*
X13199Y7526D01*
X13276Y7526D02*
X13276Y7270D01*
X13122Y7270D01*
X13104Y7272D01*
X13087Y7276D01*
X13071Y7284D01*
X13056Y7294D01*
X13044Y7306D01*
X13034Y7321D01*
X13026Y7337D01*
X13022Y7354D01*
X13020Y7372D01*
X13020Y7628D01*
X13022Y7648D01*
X13028Y7667D01*
X13037Y7685D01*
X13050Y7700D01*
X13065Y7713D01*
X13083Y7722D01*
X13102Y7728D01*
X13122Y7730D01*
X13276Y7730D01*
X13500Y7730D02*
X13500Y7270D01*
X13756Y7270D02*
X13500Y7730D01*
X13756Y7730D02*
X13756Y7270D01*
X13980Y7270D02*
X13980Y7730D01*
X14108Y7730D01*
X14128Y7728D01*
X14148Y7724D01*
X14166Y7716D01*
X14183Y7706D01*
X14199Y7693D01*
X14212Y7677D01*
X14222Y7660D01*
X14230Y7642D01*
X14234Y7622D01*
X14236Y7602D01*
X14236Y7398D01*
X14234Y7378D01*
X14230Y7358D01*
X14222Y7340D01*
X14212Y7323D01*
X14199Y7307D01*
X14183Y7294D01*
X14166Y7284D01*
X14148Y7276D01*
X14128Y7272D01*
X14108Y7270D01*
X13980Y7270D01*
X13020Y5602D02*
X13020Y5398D01*
X13020Y5602D02*
X13022Y5623D01*
X13027Y5644D01*
X13035Y5663D01*
X13047Y5681D01*
X13061Y5696D01*
X13078Y5709D01*
X13097Y5719D01*
X13117Y5726D01*
X13137Y5730D01*
X13159Y5730D01*
X13179Y5726D01*
X13199Y5719D01*
X13218Y5709D01*
X13235Y5696D01*
X13249Y5681D01*
X13261Y5663D01*
X13269Y5644D01*
X13274Y5623D01*
X13276Y5602D01*
X13276Y5398D01*
X13274Y5377D01*
X13269Y5356D01*
X13261Y5337D01*
X13249Y5319D01*
X13235Y5304D01*
X13218Y5291D01*
X13199Y5281D01*
X13179Y5274D01*
X13159Y5270D01*
X13137Y5270D01*
X13117Y5274D01*
X13097Y5281D01*
X13078Y5291D01*
X13061Y5304D01*
X13047Y5319D01*
X13035Y5337D01*
X13027Y5356D01*
X13022Y5377D01*
X13020Y5398D01*
X13485Y5398D02*
X13485Y5730D01*
X13485Y5398D02*
X13487Y5377D01*
X13492Y5356D01*
X13500Y5337D01*
X13512Y5319D01*
X13526Y5304D01*
X13543Y5291D01*
X13562Y5281D01*
X13582Y5274D01*
X13602Y5270D01*
X13624Y5270D01*
X13644Y5274D01*
X13664Y5281D01*
X13683Y5291D01*
X13700Y5304D01*
X13714Y5319D01*
X13726Y5337D01*
X13734Y5356D01*
X13739Y5377D01*
X13741Y5398D01*
X13741Y5730D01*
X14048Y5730D02*
X14048Y5270D01*
X13920Y5730D02*
X14176Y5730D01*
X14362Y5526D02*
X14489Y5526D01*
X14510Y5524D01*
X14531Y5519D01*
X14550Y5511D01*
X14568Y5499D01*
X14583Y5485D01*
X14596Y5468D01*
X14606Y5449D01*
X14613Y5429D01*
X14617Y5409D01*
X14617Y5387D01*
X14613Y5367D01*
X14606Y5347D01*
X14596Y5328D01*
X14583Y5311D01*
X14568Y5297D01*
X14550Y5285D01*
X14531Y5277D01*
X14510Y5272D01*
X14489Y5270D01*
X14362Y5270D01*
X14362Y5730D01*
X14489Y5730D01*
X14508Y5728D01*
X14526Y5723D01*
X14543Y5715D01*
X14558Y5703D01*
X14570Y5689D01*
X14580Y5673D01*
X14587Y5656D01*
X14591Y5637D01*
X14591Y5619D01*
X14587Y5600D01*
X14580Y5583D01*
X14570Y5567D01*
X14558Y5553D01*
X14543Y5541D01*
X14526Y5533D01*
X14508Y5528D01*
X14489Y5526D01*
X13020Y3602D02*
X13020Y3398D01*
X13020Y3602D02*
X13022Y3623D01*
X13027Y3644D01*
X13035Y3663D01*
X13047Y3681D01*
X13061Y3696D01*
X13078Y3709D01*
X13097Y3719D01*
X13117Y3726D01*
X13137Y3730D01*
X13159Y3730D01*
X13179Y3726D01*
X13199Y3719D01*
X13218Y3709D01*
X13235Y3696D01*
X13249Y3681D01*
X13261Y3663D01*
X13269Y3644D01*
X13274Y3623D01*
X13276Y3602D01*
X13276Y3398D01*
X13274Y3377D01*
X13269Y3356D01*
X13261Y3337D01*
X13249Y3319D01*
X13235Y3304D01*
X13218Y3291D01*
X13199Y3281D01*
X13179Y3274D01*
X13159Y3270D01*
X13137Y3270D01*
X13117Y3274D01*
X13097Y3281D01*
X13078Y3291D01*
X13061Y3304D01*
X13047Y3319D01*
X13035Y3337D01*
X13027Y3356D01*
X13022Y3377D01*
X13020Y3398D01*
X13485Y3398D02*
X13485Y3730D01*
X13485Y3398D02*
X13487Y3377D01*
X13492Y3356D01*
X13500Y3337D01*
X13512Y3319D01*
X13526Y3304D01*
X13543Y3291D01*
X13562Y3281D01*
X13582Y3274D01*
X13602Y3270D01*
X13624Y3270D01*
X13644Y3274D01*
X13664Y3281D01*
X13683Y3291D01*
X13700Y3304D01*
X13714Y3319D01*
X13726Y3337D01*
X13734Y3356D01*
X13739Y3377D01*
X13741Y3398D01*
X13741Y3730D01*
X14048Y3730D02*
X14048Y3270D01*
X13920Y3730D02*
X14176Y3730D01*
X14468Y3730D02*
X14314Y3270D01*
X14621Y3270D02*
X14468Y3730D01*
X14583Y3385D02*
X14353Y3385D01*
X23987Y3230D02*
X23987Y2770D01*
X23936Y2770D02*
X24038Y2770D01*
X24038Y3230D02*
X23936Y3230D01*
X24234Y3230D02*
X24234Y2770D01*
X24489Y2770D02*
X24234Y3230D01*
X24489Y3230D02*
X24489Y2770D01*
X24673Y2770D02*
X24827Y3230D01*
X24980Y2770D01*
X24942Y2885D02*
X24712Y2885D01*
X24049Y3770D02*
X23845Y3770D01*
X23845Y4230D01*
X24049Y4230D01*
X23998Y4026D02*
X23845Y4026D01*
X24234Y4230D02*
X24234Y3770D01*
X24489Y3770D02*
X24234Y4230D01*
X24489Y4230D02*
X24489Y3770D01*
X24673Y3770D02*
X24827Y4230D01*
X24980Y3770D01*
X24942Y3885D02*
X24712Y3885D01*
X23656Y4770D02*
X23656Y5230D01*
X23783Y5230D01*
X23804Y5228D01*
X23825Y5223D01*
X23844Y5215D01*
X23862Y5203D01*
X23877Y5189D01*
X23890Y5172D01*
X23900Y5153D01*
X23907Y5133D01*
X23911Y5113D01*
X23911Y5091D01*
X23907Y5071D01*
X23900Y5051D01*
X23890Y5032D01*
X23877Y5015D01*
X23862Y5001D01*
X23844Y4989D01*
X23825Y4981D01*
X23804Y4976D01*
X23783Y4974D01*
X23656Y4974D01*
X24067Y5230D02*
X24169Y4770D01*
X24272Y5077D01*
X24374Y4770D01*
X24476Y5230D01*
X24673Y5230D02*
X24673Y4770D01*
X24827Y4974D02*
X24673Y5230D01*
X24827Y4974D02*
X24980Y5230D01*
X24980Y4770D01*
X24568Y5770D02*
X24465Y5770D01*
X24447Y5772D01*
X24430Y5776D01*
X24414Y5784D01*
X24399Y5794D01*
X24387Y5806D01*
X24377Y5821D01*
X24369Y5837D01*
X24365Y5854D01*
X24363Y5872D01*
X24363Y6128D01*
X24365Y6148D01*
X24371Y6167D01*
X24380Y6185D01*
X24393Y6200D01*
X24408Y6213D01*
X24426Y6222D01*
X24445Y6228D01*
X24465Y6230D01*
X24568Y6230D01*
X24980Y5872D02*
X24978Y5854D01*
X24974Y5837D01*
X24966Y5821D01*
X24956Y5806D01*
X24944Y5794D01*
X24929Y5784D01*
X24913Y5776D01*
X24896Y5772D01*
X24878Y5770D01*
X24850Y5772D01*
X24822Y5777D01*
X24795Y5787D01*
X24769Y5799D01*
X24746Y5815D01*
X24725Y5834D01*
X24737Y6128D02*
X24739Y6146D01*
X24743Y6163D01*
X24751Y6179D01*
X24761Y6194D01*
X24773Y6206D01*
X24788Y6216D01*
X24804Y6224D01*
X24821Y6228D01*
X24839Y6230D01*
X24864Y6228D01*
X24888Y6224D01*
X24911Y6216D01*
X24934Y6205D01*
X24954Y6192D01*
X24737Y6128D02*
X24739Y6110D01*
X24743Y6093D01*
X24751Y6076D01*
X24761Y6062D01*
X24774Y6049D01*
X24788Y6038D01*
X24929Y5962D02*
X24943Y5951D01*
X24956Y5938D01*
X24966Y5924D01*
X24974Y5907D01*
X24978Y5890D01*
X24980Y5872D01*
X24929Y5962D02*
X24788Y6038D01*
X23038Y6770D02*
X23038Y7230D01*
X23166Y7230D01*
X23186Y7228D01*
X23206Y7224D01*
X23224Y7216D01*
X23241Y7206D01*
X23257Y7193D01*
X23270Y7177D01*
X23280Y7160D01*
X23288Y7142D01*
X23292Y7122D01*
X23294Y7102D01*
X23293Y7102D02*
X23293Y6898D01*
X23294Y6898D02*
X23292Y6878D01*
X23288Y6858D01*
X23280Y6840D01*
X23270Y6823D01*
X23257Y6807D01*
X23241Y6794D01*
X23224Y6784D01*
X23206Y6776D01*
X23186Y6772D01*
X23166Y6770D01*
X23038Y6770D01*
X23541Y6770D02*
X23541Y7230D01*
X23489Y6770D02*
X23592Y6770D01*
X23592Y7230D02*
X23489Y7230D01*
X23901Y7230D02*
X23747Y6770D01*
X24054Y6770D02*
X23901Y7230D01*
X24016Y6885D02*
X23786Y6885D01*
X24417Y7026D02*
X24493Y7026D01*
X24493Y6770D01*
X24340Y6770D01*
X24322Y6772D01*
X24305Y6776D01*
X24289Y6784D01*
X24274Y6794D01*
X24262Y6806D01*
X24252Y6821D01*
X24244Y6837D01*
X24240Y6854D01*
X24238Y6872D01*
X24238Y7128D01*
X24240Y7148D01*
X24246Y7167D01*
X24255Y7185D01*
X24268Y7200D01*
X24283Y7213D01*
X24301Y7222D01*
X24320Y7228D01*
X24340Y7230D01*
X24493Y7230D01*
X24724Y7026D02*
X24852Y7026D01*
X24873Y7024D01*
X24894Y7019D01*
X24913Y7011D01*
X24931Y6999D01*
X24946Y6985D01*
X24959Y6968D01*
X24969Y6949D01*
X24976Y6929D01*
X24980Y6909D01*
X24980Y6887D01*
X24976Y6867D01*
X24969Y6847D01*
X24959Y6828D01*
X24946Y6811D01*
X24931Y6797D01*
X24913Y6785D01*
X24894Y6777D01*
X24873Y6772D01*
X24852Y6770D01*
X24724Y6770D01*
X24724Y7230D01*
X24852Y7230D01*
X24871Y7228D01*
X24889Y7223D01*
X24906Y7215D01*
X24921Y7203D01*
X24933Y7189D01*
X24943Y7173D01*
X24950Y7156D01*
X24954Y7137D01*
X24954Y7119D01*
X24950Y7100D01*
X24943Y7083D01*
X24933Y7067D01*
X24921Y7053D01*
X24906Y7041D01*
X24889Y7033D01*
X24871Y7028D01*
X24852Y7026D01*
X23991Y7770D02*
X23991Y8230D01*
X23939Y7770D02*
X24042Y7770D01*
X24042Y8230D02*
X23939Y8230D01*
X24238Y8230D02*
X24238Y7770D01*
X24493Y7770D02*
X24238Y8230D01*
X24493Y8230D02*
X24493Y7770D01*
X24724Y8026D02*
X24852Y8026D01*
X24873Y8024D01*
X24894Y8019D01*
X24913Y8011D01*
X24931Y7999D01*
X24946Y7985D01*
X24959Y7968D01*
X24969Y7949D01*
X24976Y7929D01*
X24980Y7909D01*
X24980Y7887D01*
X24976Y7867D01*
X24969Y7847D01*
X24959Y7828D01*
X24946Y7811D01*
X24931Y7797D01*
X24913Y7785D01*
X24894Y7777D01*
X24873Y7772D01*
X24852Y7770D01*
X24724Y7770D01*
X24724Y8230D01*
X24852Y8230D01*
X24871Y8228D01*
X24889Y8223D01*
X24906Y8215D01*
X24921Y8203D01*
X24933Y8189D01*
X24943Y8173D01*
X24950Y8156D01*
X24954Y8137D01*
X24954Y8119D01*
X24950Y8100D01*
X24943Y8083D01*
X24933Y8067D01*
X24921Y8053D01*
X24906Y8041D01*
X24889Y8033D01*
X24871Y8028D01*
X24852Y8026D01*
X23907Y8770D02*
X23754Y9230D01*
X24061Y9230D02*
X23907Y8770D01*
X24244Y8770D02*
X24244Y9230D01*
X24372Y9230D01*
X24392Y9228D01*
X24412Y9224D01*
X24430Y9216D01*
X24447Y9206D01*
X24463Y9193D01*
X24476Y9177D01*
X24486Y9160D01*
X24494Y9142D01*
X24498Y9122D01*
X24500Y9102D01*
X24500Y8898D01*
X24498Y8878D01*
X24494Y8858D01*
X24486Y8840D01*
X24476Y8823D01*
X24463Y8807D01*
X24447Y8794D01*
X24430Y8784D01*
X24412Y8776D01*
X24392Y8772D01*
X24372Y8770D01*
X24244Y8770D01*
X24724Y8770D02*
X24724Y9230D01*
X24852Y9230D01*
X24872Y9228D01*
X24892Y9224D01*
X24910Y9216D01*
X24927Y9206D01*
X24943Y9193D01*
X24956Y9177D01*
X24966Y9160D01*
X24974Y9142D01*
X24978Y9122D01*
X24980Y9102D01*
X24980Y8898D01*
X24978Y8878D01*
X24974Y8858D01*
X24966Y8840D01*
X24956Y8823D01*
X24943Y8807D01*
X24927Y8794D01*
X24910Y8784D01*
X24892Y8776D01*
X24872Y8772D01*
X24852Y8770D01*
X24724Y8770D01*
X24020Y10026D02*
X23943Y10026D01*
X24020Y10026D02*
X24020Y9770D01*
X23867Y9770D01*
X23849Y9772D01*
X23832Y9776D01*
X23816Y9784D01*
X23801Y9794D01*
X23789Y9806D01*
X23779Y9821D01*
X23771Y9837D01*
X23767Y9854D01*
X23765Y9872D01*
X23764Y9872D02*
X23764Y10128D01*
X23765Y10128D02*
X23767Y10148D01*
X23773Y10167D01*
X23782Y10185D01*
X23795Y10200D01*
X23810Y10213D01*
X23828Y10222D01*
X23847Y10228D01*
X23867Y10230D01*
X24020Y10230D01*
X24244Y10230D02*
X24244Y9770D01*
X24500Y9770D02*
X24244Y10230D01*
X24500Y10230D02*
X24500Y9770D01*
X24724Y9770D02*
X24724Y10230D01*
X24852Y10230D01*
X24872Y10228D01*
X24892Y10224D01*
X24910Y10216D01*
X24927Y10206D01*
X24943Y10193D01*
X24956Y10177D01*
X24966Y10160D01*
X24974Y10142D01*
X24978Y10122D01*
X24980Y10102D01*
X24980Y9898D01*
X24978Y9878D01*
X24974Y9858D01*
X24966Y9840D01*
X24956Y9823D01*
X24943Y9807D01*
X24927Y9794D01*
X24910Y9784D01*
X24892Y9776D01*
X24872Y9772D01*
X24852Y9770D01*
X24724Y9770D01*
X23502Y10770D02*
X23349Y11230D01*
X23656Y11230D02*
X23502Y10770D01*
X23824Y10898D02*
X23824Y11102D01*
X23826Y11123D01*
X23831Y11144D01*
X23839Y11163D01*
X23851Y11181D01*
X23865Y11196D01*
X23882Y11209D01*
X23901Y11219D01*
X23921Y11226D01*
X23941Y11230D01*
X23963Y11230D01*
X23983Y11226D01*
X24003Y11219D01*
X24022Y11209D01*
X24039Y11196D01*
X24053Y11181D01*
X24065Y11163D01*
X24073Y11144D01*
X24078Y11123D01*
X24080Y11102D01*
X24080Y10898D01*
X24078Y10877D01*
X24073Y10856D01*
X24065Y10837D01*
X24053Y10819D01*
X24039Y10804D01*
X24022Y10791D01*
X24003Y10781D01*
X23983Y10774D01*
X23963Y10770D01*
X23941Y10770D01*
X23921Y10774D01*
X23901Y10781D01*
X23882Y10791D01*
X23865Y10804D01*
X23851Y10819D01*
X23839Y10837D01*
X23831Y10856D01*
X23826Y10877D01*
X23824Y10898D01*
X24289Y10898D02*
X24289Y11230D01*
X24289Y10898D02*
X24291Y10877D01*
X24296Y10856D01*
X24304Y10837D01*
X24316Y10819D01*
X24330Y10804D01*
X24347Y10791D01*
X24366Y10781D01*
X24386Y10774D01*
X24406Y10770D01*
X24428Y10770D01*
X24448Y10774D01*
X24468Y10781D01*
X24487Y10791D01*
X24504Y10804D01*
X24518Y10819D01*
X24530Y10837D01*
X24538Y10856D01*
X24543Y10877D01*
X24545Y10898D01*
X24545Y11230D01*
X24852Y11230D02*
X24852Y10770D01*
X24724Y11230D02*
X24980Y11230D01*
X24020Y12026D02*
X23943Y12026D01*
X24020Y12026D02*
X24020Y11770D01*
X23867Y11770D01*
X23849Y11772D01*
X23832Y11776D01*
X23816Y11784D01*
X23801Y11794D01*
X23789Y11806D01*
X23779Y11821D01*
X23771Y11837D01*
X23767Y11854D01*
X23765Y11872D01*
X23764Y11872D02*
X23764Y12128D01*
X23765Y12128D02*
X23767Y12148D01*
X23773Y12167D01*
X23782Y12185D01*
X23795Y12200D01*
X23810Y12213D01*
X23828Y12222D01*
X23847Y12228D01*
X23867Y12230D01*
X24020Y12230D01*
X24244Y12230D02*
X24244Y11770D01*
X24500Y11770D02*
X24244Y12230D01*
X24500Y12230D02*
X24500Y11770D01*
X24724Y11770D02*
X24724Y12230D01*
X24852Y12230D01*
X24872Y12228D01*
X24892Y12224D01*
X24910Y12216D01*
X24927Y12206D01*
X24943Y12193D01*
X24956Y12177D01*
X24966Y12160D01*
X24974Y12142D01*
X24978Y12122D01*
X24980Y12102D01*
X24980Y11898D01*
X24978Y11878D01*
X24974Y11858D01*
X24966Y11840D01*
X24956Y11823D01*
X24943Y11807D01*
X24927Y11794D01*
X24910Y11784D01*
X24892Y11776D01*
X24872Y11772D01*
X24852Y11770D01*
X24724Y11770D01*
X13020Y13148D02*
X13020Y13480D01*
X13020Y13148D02*
X13022Y13127D01*
X13027Y13106D01*
X13035Y13087D01*
X13047Y13069D01*
X13061Y13054D01*
X13078Y13041D01*
X13097Y13031D01*
X13117Y13024D01*
X13137Y13020D01*
X13159Y13020D01*
X13179Y13024D01*
X13199Y13031D01*
X13218Y13041D01*
X13235Y13054D01*
X13249Y13069D01*
X13261Y13087D01*
X13269Y13106D01*
X13274Y13127D01*
X13276Y13148D01*
X13276Y13480D01*
X13583Y13480D02*
X13583Y13020D01*
X13583Y13250D02*
X13519Y13288D01*
X13519Y13289D02*
X13506Y13299D01*
X13495Y13312D01*
X13487Y13326D01*
X13483Y13343D01*
X13482Y13359D01*
X13485Y13376D01*
X13492Y13391D01*
X13501Y13405D01*
X13514Y13416D01*
X13528Y13424D01*
X13544Y13429D01*
X13545Y13429D02*
X13569Y13432D01*
X13593Y13432D01*
X13617Y13429D01*
X13641Y13423D01*
X13663Y13414D01*
X13685Y13403D01*
X13583Y13250D02*
X13647Y13212D01*
X13646Y13211D02*
X13659Y13201D01*
X13670Y13188D01*
X13678Y13174D01*
X13682Y13157D01*
X13683Y13141D01*
X13680Y13124D01*
X13673Y13109D01*
X13664Y13095D01*
X13651Y13084D01*
X13637Y13076D01*
X13621Y13071D01*
X13597Y13068D01*
X13573Y13068D01*
X13549Y13071D01*
X13525Y13077D01*
X13503Y13086D01*
X13481Y13097D01*
X14016Y13480D02*
X14036Y13478D01*
X14055Y13473D01*
X14074Y13465D01*
X14090Y13453D01*
X14104Y13439D01*
X14116Y13423D01*
X14124Y13404D01*
X14129Y13385D01*
X14131Y13365D01*
X14016Y13480D02*
X13993Y13478D01*
X13970Y13473D01*
X13949Y13464D01*
X13929Y13452D01*
X13911Y13437D01*
X13896Y13419D01*
X13884Y13399D01*
X13875Y13378D01*
X14093Y13275D02*
X14106Y13290D01*
X14117Y13307D01*
X14125Y13326D01*
X14129Y13345D01*
X14131Y13365D01*
X14092Y13276D02*
X13875Y13020D01*
X14131Y13020D01*
X13270Y1980D02*
X13423Y1520D01*
X13577Y1980D01*
X13761Y1980D02*
X13761Y1520D01*
X14016Y1520D02*
X13761Y1980D01*
X14016Y1980D02*
X14016Y1520D01*
X14241Y1520D02*
X14241Y1980D01*
X14241Y1776D02*
X14496Y1776D01*
X14496Y1980D02*
X14496Y1520D01*
X14706Y1520D02*
X14859Y1520D01*
X14877Y1522D01*
X14894Y1526D01*
X14910Y1534D01*
X14925Y1544D01*
X14937Y1556D01*
X14947Y1571D01*
X14955Y1587D01*
X14959Y1604D01*
X14961Y1622D01*
X14961Y1673D01*
X14959Y1691D01*
X14955Y1708D01*
X14947Y1724D01*
X14937Y1739D01*
X14925Y1751D01*
X14910Y1761D01*
X14894Y1769D01*
X14877Y1773D01*
X14859Y1775D01*
X14859Y1776D02*
X14706Y1776D01*
X14706Y1980D01*
X14961Y1980D01*
X15194Y1916D02*
X15181Y1885D01*
X15170Y1852D01*
X15162Y1818D01*
X15158Y1784D01*
X15156Y1750D01*
X15193Y1916D02*
X15200Y1931D01*
X15209Y1945D01*
X15221Y1957D01*
X15235Y1967D01*
X15250Y1974D01*
X15266Y1979D01*
X15283Y1980D01*
X15300Y1979D01*
X15316Y1974D01*
X15331Y1967D01*
X15345Y1957D01*
X15357Y1945D01*
X15366Y1931D01*
X15373Y1916D01*
X15386Y1885D01*
X15397Y1852D01*
X15405Y1818D01*
X15409Y1784D01*
X15411Y1750D01*
X15156Y1750D02*
X15158Y1716D01*
X15162Y1682D01*
X15170Y1648D01*
X15181Y1615D01*
X15194Y1584D01*
X15193Y1584D02*
X15200Y1569D01*
X15209Y1555D01*
X15221Y1543D01*
X15235Y1533D01*
X15250Y1526D01*
X15266Y1521D01*
X15283Y1520D01*
X15373Y1584D02*
X15386Y1615D01*
X15397Y1648D01*
X15405Y1682D01*
X15409Y1716D01*
X15411Y1750D01*
X15373Y1584D02*
X15366Y1569D01*
X15357Y1555D01*
X15345Y1543D01*
X15331Y1533D01*
X15316Y1526D01*
X15300Y1521D01*
X15283Y1520D01*
X15181Y1622D02*
X15386Y1878D01*
X15606Y1878D02*
X15733Y1980D01*
X15733Y1520D01*
X15606Y1520D02*
X15861Y1520D01*
X16158Y1724D02*
X16311Y1724D01*
X16158Y1725D02*
X16140Y1727D01*
X16123Y1731D01*
X16107Y1739D01*
X16092Y1749D01*
X16080Y1761D01*
X16070Y1776D01*
X16062Y1792D01*
X16058Y1809D01*
X16056Y1827D01*
X16056Y1852D01*
X16055Y1852D02*
X16057Y1873D01*
X16062Y1894D01*
X16070Y1913D01*
X16082Y1931D01*
X16096Y1946D01*
X16113Y1959D01*
X16132Y1969D01*
X16152Y1976D01*
X16172Y1980D01*
X16194Y1980D01*
X16214Y1976D01*
X16234Y1969D01*
X16253Y1959D01*
X16270Y1946D01*
X16284Y1931D01*
X16296Y1913D01*
X16304Y1894D01*
X16309Y1873D01*
X16311Y1852D01*
X16311Y1724D01*
X16309Y1697D01*
X16304Y1671D01*
X16295Y1646D01*
X16284Y1622D01*
X16269Y1600D01*
X16251Y1580D01*
X16231Y1562D01*
X16209Y1547D01*
X16185Y1536D01*
X16160Y1527D01*
X16134Y1522D01*
X16107Y1520D01*
X16523Y1520D02*
X16523Y1980D01*
X16651Y1980D01*
X16672Y1978D01*
X16693Y1973D01*
X16712Y1965D01*
X16730Y1953D01*
X16745Y1939D01*
X16758Y1922D01*
X16768Y1903D01*
X16775Y1883D01*
X16779Y1863D01*
X16779Y1841D01*
X16775Y1821D01*
X16768Y1801D01*
X16758Y1782D01*
X16745Y1765D01*
X16730Y1751D01*
X16712Y1739D01*
X16693Y1731D01*
X16672Y1726D01*
X16651Y1724D01*
X16523Y1724D01*
X16677Y1724D02*
X16779Y1520D01*
X16986Y1520D02*
X17191Y1520D01*
X16986Y1520D02*
X16986Y1980D01*
X17191Y1980D01*
X17140Y1776D02*
X16986Y1776D01*
X17335Y1520D02*
X17488Y1980D01*
X17642Y1520D01*
X17603Y1635D02*
X17373Y1635D01*
X17826Y1520D02*
X17826Y1980D01*
X17826Y1520D02*
X18031Y1520D01*
D11*
X16250Y14750D02*
X15750Y14750D01*
X16250Y14750D02*
X16750Y14750D01*
X17250Y14750D01*
X17750Y14750D01*
X18250Y14750D01*
X18750Y14750D01*
X22250Y14750D01*
X22250Y29250D01*
X21600Y29250D01*
X16400Y29250D01*
X15750Y29250D01*
X15750Y14750D01*
X19000Y15500D02*
X19250Y15750D01*
X19750Y15750D01*
X20000Y15500D01*
X20250Y15750D01*
X20750Y15750D01*
X21000Y15500D01*
X21250Y15750D01*
X21750Y15750D01*
X22000Y15000D02*
X21750Y14750D01*
X21250Y14750D02*
X21000Y15000D01*
X20750Y14750D01*
X20250Y14750D02*
X20000Y15000D01*
X19750Y14750D01*
X19250Y14750D02*
X19000Y15000D01*
X22000Y15000D02*
X22000Y15500D01*
X21750Y15750D01*
X19000Y15500D02*
X18750Y15750D01*
X18250Y15750D01*
X18000Y15500D01*
X17750Y15750D01*
X17250Y15750D01*
X17000Y15500D01*
X16750Y15750D01*
X16250Y15750D01*
X16000Y15500D01*
X16000Y15000D01*
X16250Y14750D01*
X16750Y14750D02*
X17000Y15000D01*
X17250Y14750D01*
X17750Y14750D02*
X18000Y15000D01*
X18250Y14750D01*
X18750Y14750D02*
X19000Y15000D01*
X16400Y27750D02*
X16400Y29250D01*
X16400Y27750D02*
X16400Y18750D01*
X21600Y18750D01*
X21600Y27750D01*
X21600Y29250D01*
X21600Y27750D02*
X16400Y27750D01*
X17218Y28225D02*
X17401Y28775D01*
X17585Y28225D01*
X17539Y28363D02*
X17264Y28363D01*
X17805Y28225D02*
X17805Y28775D01*
X18111Y28225D01*
X18111Y28775D01*
X18479Y28775D02*
X18479Y28225D01*
X18326Y28775D02*
X18632Y28775D01*
X18848Y28225D02*
X19093Y28225D01*
X18848Y28225D02*
X18848Y28775D01*
X19093Y28775D01*
X19032Y28531D02*
X18848Y28531D01*
X19314Y28775D02*
X19314Y28225D01*
X19620Y28225D02*
X19314Y28775D01*
X19620Y28775D02*
X19620Y28225D01*
X19889Y28225D02*
X19889Y28775D01*
X20195Y28225D01*
X20195Y28775D01*
X20599Y28775D02*
X20415Y28225D01*
X20782Y28225D02*
X20599Y28775D01*
X20736Y28363D02*
X20461Y28363D01*
D17*
X16730Y16224D02*
X16730Y16020D01*
X16270Y16020D01*
X16270Y16224D01*
X16474Y16173D02*
X16474Y16020D01*
X16270Y16409D02*
X16730Y16409D01*
X16730Y16665D02*
X16270Y16409D01*
X16270Y16665D02*
X16730Y16665D01*
X17270Y16020D02*
X17730Y16173D01*
X17270Y16327D01*
X17730Y16596D02*
X17730Y16699D01*
X17730Y16596D02*
X17728Y16578D01*
X17724Y16561D01*
X17716Y16545D01*
X17706Y16530D01*
X17694Y16518D01*
X17679Y16508D01*
X17663Y16500D01*
X17646Y16496D01*
X17628Y16494D01*
X17372Y16494D01*
X17352Y16496D01*
X17333Y16502D01*
X17315Y16511D01*
X17300Y16524D01*
X17287Y16539D01*
X17278Y16557D01*
X17272Y16576D01*
X17270Y16596D01*
X17270Y16699D01*
X17730Y16971D02*
X17730Y17074D01*
X17730Y16971D02*
X17728Y16953D01*
X17724Y16936D01*
X17716Y16920D01*
X17706Y16905D01*
X17694Y16893D01*
X17679Y16883D01*
X17663Y16875D01*
X17646Y16871D01*
X17628Y16869D01*
X17372Y16869D01*
X17352Y16871D01*
X17333Y16877D01*
X17315Y16886D01*
X17300Y16899D01*
X17287Y16914D01*
X17278Y16932D01*
X17272Y16951D01*
X17270Y16971D01*
X17270Y17074D01*
X18474Y16276D02*
X18474Y16199D01*
X18474Y16276D02*
X18730Y16276D01*
X18730Y16122D01*
X18728Y16104D01*
X18724Y16087D01*
X18716Y16071D01*
X18706Y16056D01*
X18694Y16044D01*
X18679Y16034D01*
X18663Y16026D01*
X18646Y16022D01*
X18628Y16020D01*
X18372Y16020D01*
X18352Y16022D01*
X18333Y16028D01*
X18315Y16037D01*
X18300Y16050D01*
X18287Y16065D01*
X18278Y16083D01*
X18272Y16102D01*
X18270Y16122D01*
X18270Y16276D01*
X18270Y16500D02*
X18730Y16500D01*
X18730Y16756D02*
X18270Y16500D01*
X18270Y16756D02*
X18730Y16756D01*
X18730Y16980D02*
X18270Y16980D01*
X18270Y17108D01*
X18272Y17128D01*
X18276Y17148D01*
X18284Y17166D01*
X18294Y17183D01*
X18307Y17199D01*
X18323Y17212D01*
X18340Y17222D01*
X18358Y17230D01*
X18378Y17234D01*
X18398Y17236D01*
X18602Y17236D01*
X18622Y17234D01*
X18642Y17230D01*
X18660Y17222D01*
X18677Y17212D01*
X18693Y17199D01*
X18706Y17183D01*
X18716Y17166D01*
X18724Y17148D01*
X18728Y17128D01*
X18730Y17108D01*
X18730Y16980D01*
X19270Y16148D02*
X19730Y16148D01*
X19270Y16020D02*
X19270Y16276D01*
X19270Y16721D02*
X19730Y16414D01*
X19730Y16721D02*
X19270Y16414D01*
X19270Y16905D02*
X19730Y16905D01*
X19270Y16905D02*
X19270Y17033D01*
X19272Y17053D01*
X19276Y17073D01*
X19284Y17091D01*
X19294Y17108D01*
X19307Y17124D01*
X19323Y17137D01*
X19340Y17147D01*
X19358Y17155D01*
X19378Y17159D01*
X19398Y17161D01*
X19602Y17161D01*
X19622Y17159D01*
X19642Y17155D01*
X19660Y17147D01*
X19677Y17137D01*
X19693Y17124D01*
X19706Y17108D01*
X19716Y17091D01*
X19724Y17073D01*
X19728Y17053D01*
X19730Y17033D01*
X19730Y16905D01*
X20270Y16020D02*
X20730Y16020D01*
X20270Y16020D02*
X20270Y16148D01*
X20272Y16169D01*
X20277Y16190D01*
X20285Y16209D01*
X20297Y16227D01*
X20311Y16242D01*
X20328Y16255D01*
X20347Y16265D01*
X20367Y16272D01*
X20387Y16276D01*
X20409Y16276D01*
X20429Y16272D01*
X20449Y16265D01*
X20468Y16255D01*
X20485Y16242D01*
X20499Y16227D01*
X20511Y16209D01*
X20519Y16190D01*
X20524Y16169D01*
X20526Y16148D01*
X20526Y16020D01*
X20526Y16173D02*
X20730Y16276D01*
X20730Y16442D02*
X20270Y16748D01*
X20270Y16442D02*
X20730Y16748D01*
X20730Y16932D02*
X20270Y16932D01*
X20270Y17060D01*
X20272Y17080D01*
X20276Y17100D01*
X20284Y17118D01*
X20294Y17135D01*
X20307Y17151D01*
X20323Y17164D01*
X20340Y17174D01*
X20358Y17182D01*
X20378Y17186D01*
X20398Y17188D01*
X20602Y17188D01*
X20622Y17186D01*
X20642Y17182D01*
X20660Y17174D01*
X20677Y17164D01*
X20693Y17151D01*
X20706Y17135D01*
X20716Y17118D01*
X20724Y17100D01*
X20728Y17080D01*
X20730Y17060D01*
X20730Y16932D01*
X21628Y16275D02*
X21646Y16273D01*
X21663Y16269D01*
X21679Y16261D01*
X21694Y16251D01*
X21706Y16239D01*
X21716Y16224D01*
X21724Y16208D01*
X21728Y16191D01*
X21730Y16173D01*
X21728Y16145D01*
X21723Y16117D01*
X21713Y16090D01*
X21701Y16064D01*
X21685Y16041D01*
X21666Y16020D01*
X21372Y16033D02*
X21354Y16035D01*
X21337Y16039D01*
X21321Y16047D01*
X21306Y16057D01*
X21294Y16069D01*
X21284Y16084D01*
X21276Y16100D01*
X21272Y16117D01*
X21270Y16135D01*
X21272Y16160D01*
X21276Y16184D01*
X21284Y16207D01*
X21295Y16230D01*
X21308Y16250D01*
X21372Y16033D02*
X21390Y16035D01*
X21407Y16039D01*
X21424Y16047D01*
X21438Y16057D01*
X21451Y16070D01*
X21462Y16084D01*
X21538Y16225D02*
X21549Y16239D01*
X21562Y16252D01*
X21576Y16262D01*
X21593Y16270D01*
X21610Y16274D01*
X21628Y16276D01*
X21538Y16224D02*
X21462Y16084D01*
X21270Y16553D02*
X21730Y16553D01*
X21270Y16425D02*
X21270Y16681D01*
X21270Y16973D02*
X21730Y16819D01*
X21730Y17126D02*
X21270Y16973D01*
X21615Y17088D02*
X21615Y16858D01*
X21730Y17393D02*
X21270Y17393D01*
X21270Y17265D02*
X21270Y17521D01*
X21730Y17701D02*
X21730Y17905D01*
X21730Y17701D02*
X21270Y17701D01*
X21270Y17905D01*
X21474Y17854D02*
X21474Y17701D01*
X18445Y29898D02*
X18445Y30230D01*
X18445Y29898D02*
X18447Y29877D01*
X18452Y29856D01*
X18460Y29837D01*
X18472Y29819D01*
X18486Y29804D01*
X18503Y29791D01*
X18522Y29781D01*
X18542Y29774D01*
X18562Y29770D01*
X18584Y29770D01*
X18604Y29774D01*
X18624Y29781D01*
X18643Y29791D01*
X18660Y29804D01*
X18674Y29819D01*
X18686Y29837D01*
X18694Y29856D01*
X18699Y29877D01*
X18701Y29898D01*
X18700Y29898D02*
X18700Y30230D01*
X19008Y30230D02*
X19008Y29770D01*
X19008Y30000D02*
X18944Y30038D01*
X18944Y30039D02*
X18931Y30049D01*
X18920Y30062D01*
X18912Y30076D01*
X18908Y30093D01*
X18907Y30109D01*
X18910Y30126D01*
X18917Y30141D01*
X18926Y30155D01*
X18939Y30166D01*
X18953Y30174D01*
X18969Y30179D01*
X18970Y30179D02*
X18994Y30182D01*
X19018Y30182D01*
X19042Y30179D01*
X19066Y30173D01*
X19088Y30164D01*
X19110Y30153D01*
X19008Y30000D02*
X19071Y29962D01*
X19071Y29961D02*
X19084Y29951D01*
X19095Y29938D01*
X19103Y29924D01*
X19107Y29907D01*
X19108Y29891D01*
X19105Y29874D01*
X19098Y29859D01*
X19089Y29845D01*
X19076Y29834D01*
X19062Y29826D01*
X19046Y29821D01*
X19045Y29821D02*
X19021Y29818D01*
X18997Y29818D01*
X18973Y29821D01*
X18949Y29827D01*
X18927Y29836D01*
X18905Y29847D01*
X19300Y29872D02*
X19402Y30230D01*
X19300Y29872D02*
X19555Y29872D01*
X19479Y29974D02*
X19479Y29770D01*
X13854Y14230D02*
X13956Y13770D01*
X14058Y14077D01*
X14161Y13770D01*
X14263Y14230D01*
X14478Y14230D02*
X14478Y13770D01*
X14427Y13770D02*
X14529Y13770D01*
X14529Y14230D02*
X14427Y14230D01*
X14728Y14230D02*
X14728Y13770D01*
X14728Y14230D02*
X14856Y14230D01*
X14877Y14228D01*
X14898Y14223D01*
X14917Y14215D01*
X14935Y14203D01*
X14950Y14189D01*
X14963Y14172D01*
X14973Y14153D01*
X14980Y14133D01*
X14984Y14113D01*
X14984Y14091D01*
X14980Y14071D01*
X14973Y14051D01*
X14963Y14032D01*
X14950Y14015D01*
X14935Y14001D01*
X14917Y13989D01*
X14898Y13981D01*
X14877Y13976D01*
X14856Y13974D01*
X14728Y13974D01*
X14882Y13974D02*
X14984Y13770D01*
X15191Y13770D02*
X15396Y13770D01*
X15191Y13770D02*
X15191Y14230D01*
X15396Y14230D01*
X15345Y14026D02*
X15191Y14026D01*
X15581Y14230D02*
X15581Y13770D01*
X15786Y13770D01*
X15971Y13770D02*
X16176Y13770D01*
X15971Y13770D02*
X15971Y14230D01*
X16176Y14230D01*
X16125Y14026D02*
X15971Y14026D01*
X16484Y13770D02*
X16502Y13772D01*
X16519Y13776D01*
X16535Y13784D01*
X16550Y13794D01*
X16562Y13806D01*
X16572Y13821D01*
X16580Y13837D01*
X16584Y13854D01*
X16586Y13872D01*
X16484Y13770D02*
X16456Y13772D01*
X16428Y13777D01*
X16401Y13787D01*
X16375Y13799D01*
X16352Y13815D01*
X16331Y13834D01*
X16344Y14128D02*
X16346Y14146D01*
X16350Y14163D01*
X16358Y14179D01*
X16368Y14194D01*
X16380Y14206D01*
X16395Y14216D01*
X16411Y14224D01*
X16428Y14228D01*
X16446Y14230D01*
X16471Y14228D01*
X16495Y14224D01*
X16518Y14216D01*
X16541Y14205D01*
X16561Y14192D01*
X16343Y14128D02*
X16345Y14110D01*
X16349Y14093D01*
X16357Y14076D01*
X16367Y14062D01*
X16380Y14049D01*
X16394Y14038D01*
X16535Y13962D02*
X16549Y13951D01*
X16562Y13938D01*
X16572Y13924D01*
X16580Y13907D01*
X16584Y13890D01*
X16586Y13872D01*
X16535Y13962D02*
X16394Y14038D01*
X16904Y13770D02*
X16922Y13772D01*
X16939Y13776D01*
X16955Y13784D01*
X16970Y13794D01*
X16982Y13806D01*
X16992Y13821D01*
X17000Y13837D01*
X17004Y13854D01*
X17006Y13872D01*
X16904Y13770D02*
X16876Y13772D01*
X16848Y13777D01*
X16821Y13787D01*
X16795Y13799D01*
X16772Y13815D01*
X16751Y13834D01*
X16764Y14128D02*
X16766Y14146D01*
X16770Y14163D01*
X16778Y14179D01*
X16788Y14194D01*
X16800Y14206D01*
X16815Y14216D01*
X16831Y14224D01*
X16848Y14228D01*
X16866Y14230D01*
X16891Y14228D01*
X16915Y14224D01*
X16938Y14216D01*
X16961Y14205D01*
X16981Y14192D01*
X16763Y14128D02*
X16765Y14110D01*
X16769Y14093D01*
X16777Y14076D01*
X16787Y14062D01*
X16800Y14049D01*
X16814Y14038D01*
X16955Y13962D02*
X16969Y13951D01*
X16982Y13938D01*
X16992Y13924D01*
X17000Y13907D01*
X17004Y13890D01*
X17006Y13872D01*
X16955Y13962D02*
X16814Y14038D01*
X17190Y13949D02*
X17497Y13949D01*
X17717Y14026D02*
X17845Y14026D01*
X17866Y14024D01*
X17887Y14019D01*
X17906Y14011D01*
X17924Y13999D01*
X17939Y13985D01*
X17952Y13968D01*
X17962Y13949D01*
X17969Y13929D01*
X17973Y13909D01*
X17973Y13887D01*
X17969Y13867D01*
X17962Y13847D01*
X17952Y13828D01*
X17939Y13811D01*
X17924Y13797D01*
X17906Y13785D01*
X17887Y13777D01*
X17866Y13772D01*
X17845Y13770D01*
X17717Y13770D01*
X17717Y14230D01*
X17845Y14230D01*
X17864Y14228D01*
X17882Y14223D01*
X17899Y14215D01*
X17914Y14203D01*
X17926Y14189D01*
X17936Y14173D01*
X17943Y14156D01*
X17947Y14137D01*
X17947Y14119D01*
X17943Y14100D01*
X17936Y14083D01*
X17926Y14067D01*
X17914Y14053D01*
X17899Y14041D01*
X17882Y14033D01*
X17864Y14028D01*
X17845Y14026D01*
X18161Y14230D02*
X18161Y13770D01*
X18366Y13770D01*
X18551Y13898D02*
X18551Y14230D01*
X18550Y13898D02*
X18552Y13877D01*
X18557Y13856D01*
X18565Y13837D01*
X18577Y13819D01*
X18591Y13804D01*
X18608Y13791D01*
X18627Y13781D01*
X18647Y13774D01*
X18667Y13770D01*
X18689Y13770D01*
X18709Y13774D01*
X18729Y13781D01*
X18748Y13791D01*
X18765Y13804D01*
X18779Y13819D01*
X18791Y13837D01*
X18799Y13856D01*
X18804Y13877D01*
X18806Y13898D01*
X18806Y14230D01*
X19031Y13770D02*
X19236Y13770D01*
X19031Y13770D02*
X19031Y14230D01*
X19236Y14230D01*
X19185Y14026D02*
X19031Y14026D01*
X19503Y14230D02*
X19503Y13770D01*
X19376Y14230D02*
X19631Y14230D01*
X19796Y14102D02*
X19796Y13898D01*
X19795Y14102D02*
X19797Y14123D01*
X19802Y14144D01*
X19810Y14163D01*
X19822Y14181D01*
X19836Y14196D01*
X19853Y14209D01*
X19872Y14219D01*
X19892Y14226D01*
X19912Y14230D01*
X19934Y14230D01*
X19954Y14226D01*
X19974Y14219D01*
X19993Y14209D01*
X20010Y14196D01*
X20024Y14181D01*
X20036Y14163D01*
X20044Y14144D01*
X20049Y14123D01*
X20051Y14102D01*
X20051Y13898D01*
X20049Y13877D01*
X20044Y13856D01*
X20036Y13837D01*
X20024Y13819D01*
X20010Y13804D01*
X19993Y13791D01*
X19974Y13781D01*
X19954Y13774D01*
X19934Y13770D01*
X19912Y13770D01*
X19892Y13774D01*
X19872Y13781D01*
X19853Y13791D01*
X19836Y13804D01*
X19822Y13819D01*
X19810Y13837D01*
X19802Y13856D01*
X19797Y13877D01*
X19795Y13898D01*
X20246Y13898D02*
X20246Y14102D01*
X20245Y14102D02*
X20247Y14123D01*
X20252Y14144D01*
X20260Y14163D01*
X20272Y14181D01*
X20286Y14196D01*
X20303Y14209D01*
X20322Y14219D01*
X20342Y14226D01*
X20362Y14230D01*
X20384Y14230D01*
X20404Y14226D01*
X20424Y14219D01*
X20443Y14209D01*
X20460Y14196D01*
X20474Y14181D01*
X20486Y14163D01*
X20494Y14144D01*
X20499Y14123D01*
X20501Y14102D01*
X20501Y13898D01*
X20499Y13877D01*
X20494Y13856D01*
X20486Y13837D01*
X20474Y13819D01*
X20460Y13804D01*
X20443Y13791D01*
X20424Y13781D01*
X20404Y13774D01*
X20384Y13770D01*
X20362Y13770D01*
X20342Y13774D01*
X20322Y13781D01*
X20303Y13791D01*
X20286Y13804D01*
X20272Y13819D01*
X20260Y13837D01*
X20252Y13856D01*
X20247Y13877D01*
X20245Y13898D01*
X20793Y13770D02*
X20793Y14230D01*
X20666Y14230D02*
X20921Y14230D01*
X21101Y14230D02*
X21101Y13770D01*
X21101Y14026D02*
X21356Y14026D01*
X21356Y14230D02*
X21356Y13770D01*
X21570Y13949D02*
X21877Y13949D01*
X22091Y13770D02*
X22091Y14230D01*
X22091Y14026D02*
X22346Y14026D01*
X22346Y14230D02*
X22346Y13770D01*
X22656Y13770D02*
X22759Y13770D01*
X22656Y13770D02*
X22638Y13772D01*
X22621Y13776D01*
X22605Y13784D01*
X22590Y13794D01*
X22578Y13806D01*
X22568Y13821D01*
X22560Y13837D01*
X22556Y13854D01*
X22554Y13872D01*
X22554Y14128D01*
X22556Y14148D01*
X22562Y14167D01*
X22571Y14185D01*
X22584Y14200D01*
X22599Y14213D01*
X22617Y14222D01*
X22636Y14228D01*
X22656Y14230D01*
X22759Y14230D01*
X22935Y13949D02*
X23242Y13949D01*
X23441Y14000D02*
X23443Y14034D01*
X23447Y14068D01*
X23455Y14102D01*
X23466Y14135D01*
X23479Y14166D01*
X23478Y14166D02*
X23485Y14181D01*
X23494Y14195D01*
X23506Y14207D01*
X23520Y14217D01*
X23535Y14224D01*
X23551Y14229D01*
X23568Y14230D01*
X23585Y14229D01*
X23601Y14224D01*
X23616Y14217D01*
X23630Y14207D01*
X23642Y14195D01*
X23651Y14181D01*
X23658Y14166D01*
X23671Y14135D01*
X23682Y14102D01*
X23690Y14068D01*
X23694Y14034D01*
X23696Y14000D01*
X23441Y14000D02*
X23443Y13966D01*
X23447Y13932D01*
X23455Y13898D01*
X23466Y13865D01*
X23479Y13834D01*
X23478Y13834D02*
X23485Y13819D01*
X23494Y13805D01*
X23506Y13793D01*
X23520Y13783D01*
X23535Y13776D01*
X23551Y13771D01*
X23568Y13770D01*
X23658Y13834D02*
X23671Y13865D01*
X23682Y13898D01*
X23690Y13932D01*
X23694Y13966D01*
X23696Y14000D01*
X23658Y13834D02*
X23651Y13819D01*
X23642Y13805D01*
X23630Y13793D01*
X23616Y13783D01*
X23601Y13776D01*
X23585Y13771D01*
X23568Y13770D01*
X23466Y13872D02*
X23671Y14128D01*
X23891Y13770D02*
X24044Y13770D01*
X24062Y13772D01*
X24079Y13776D01*
X24095Y13784D01*
X24110Y13794D01*
X24122Y13806D01*
X24132Y13821D01*
X24140Y13837D01*
X24144Y13854D01*
X24146Y13872D01*
X24146Y13923D01*
X24144Y13941D01*
X24140Y13958D01*
X24132Y13974D01*
X24122Y13989D01*
X24110Y14001D01*
X24095Y14011D01*
X24079Y14019D01*
X24062Y14023D01*
X24044Y14025D01*
X24044Y14026D02*
X23891Y14026D01*
X23891Y14230D01*
X24146Y14230D01*
D10*
X9150Y10466D02*
X9150Y6536D01*
X5610Y10466D02*
X5530Y10466D01*
X5530Y6536D01*
X8210Y6536D02*
X9150Y6536D01*
X8210Y6536D02*
X8210Y7166D01*
X8210Y7866D02*
X8210Y9136D01*
X8210Y9836D02*
X8210Y10466D01*
X8210Y6536D02*
X5610Y6536D01*
X8210Y10466D02*
X9150Y10466D01*
X5610Y10466D02*
X5610Y6536D01*
X5530Y6536D01*
X5610Y10466D02*
X8210Y10466D01*
X5930Y7516D02*
X5932Y7544D01*
X5938Y7571D01*
X5947Y7597D01*
X5960Y7622D01*
X5977Y7645D01*
X5996Y7665D01*
X6018Y7682D01*
X6042Y7696D01*
X6068Y7706D01*
X6095Y7713D01*
X6123Y7716D01*
X6151Y7715D01*
X6178Y7710D01*
X6205Y7701D01*
X6230Y7689D01*
X6253Y7674D01*
X6274Y7655D01*
X6292Y7634D01*
X6307Y7610D01*
X6318Y7584D01*
X6326Y7558D01*
X6330Y7530D01*
X6330Y7502D01*
X6326Y7474D01*
X6318Y7448D01*
X6307Y7422D01*
X6292Y7398D01*
X6274Y7377D01*
X6253Y7358D01*
X6230Y7343D01*
X6205Y7331D01*
X6178Y7322D01*
X6151Y7317D01*
X6123Y7316D01*
X6095Y7319D01*
X6068Y7326D01*
X6042Y7336D01*
X6018Y7350D01*
X5996Y7367D01*
X5977Y7387D01*
X5960Y7410D01*
X5947Y7435D01*
X5938Y7461D01*
X5932Y7488D01*
X5930Y7516D01*
X5930Y9486D02*
X5932Y9514D01*
X5938Y9541D01*
X5947Y9567D01*
X5960Y9592D01*
X5977Y9615D01*
X5996Y9635D01*
X6018Y9652D01*
X6042Y9666D01*
X6068Y9676D01*
X6095Y9683D01*
X6123Y9686D01*
X6151Y9685D01*
X6178Y9680D01*
X6205Y9671D01*
X6230Y9659D01*
X6253Y9644D01*
X6274Y9625D01*
X6292Y9604D01*
X6307Y9580D01*
X6318Y9554D01*
X6326Y9528D01*
X6330Y9500D01*
X6330Y9472D01*
X6326Y9444D01*
X6318Y9418D01*
X6307Y9392D01*
X6292Y9368D01*
X6274Y9347D01*
X6253Y9328D01*
X6230Y9313D01*
X6205Y9301D01*
X6178Y9292D01*
X6151Y9287D01*
X6123Y9286D01*
X6095Y9289D01*
X6068Y9296D01*
X6042Y9306D01*
X6018Y9320D01*
X5996Y9337D01*
X5977Y9357D01*
X5960Y9380D01*
X5947Y9405D01*
X5938Y9431D01*
X5932Y9458D01*
X5930Y9486D01*
D11*
X6275Y6866D02*
X6375Y6741D01*
X6275Y6866D02*
X6725Y6866D01*
X6725Y6741D02*
X6725Y6991D01*
X6275Y8828D02*
X6277Y8848D01*
X6282Y8867D01*
X6290Y8885D01*
X6301Y8901D01*
X6315Y8915D01*
X6332Y8926D01*
X6349Y8934D01*
X6368Y8939D01*
X6388Y8941D01*
X6275Y8828D02*
X6277Y8805D01*
X6282Y8783D01*
X6291Y8762D01*
X6303Y8743D01*
X6318Y8725D01*
X6335Y8711D01*
X6354Y8699D01*
X6375Y8690D01*
X6476Y8903D02*
X6461Y8916D01*
X6445Y8927D01*
X6427Y8935D01*
X6408Y8939D01*
X6388Y8941D01*
X6475Y8903D02*
X6725Y8691D01*
X6725Y8941D01*
X8495Y7311D02*
X8945Y7011D01*
X8945Y7311D02*
X8495Y7011D01*
X8595Y7486D02*
X8495Y7611D01*
X8945Y7611D01*
X8945Y7486D02*
X8945Y7736D01*
D10*
X9150Y6466D02*
X9150Y2536D01*
X5610Y6466D02*
X5530Y6466D01*
X5530Y2536D01*
X8210Y2536D02*
X9150Y2536D01*
X8210Y2536D02*
X8210Y3166D01*
X8210Y3866D02*
X8210Y5136D01*
X8210Y5836D02*
X8210Y6466D01*
X8210Y2536D02*
X5610Y2536D01*
X8210Y6466D02*
X9150Y6466D01*
X5610Y6466D02*
X5610Y2536D01*
X5530Y2536D01*
X5610Y6466D02*
X8210Y6466D01*
X5930Y3516D02*
X5932Y3544D01*
X5938Y3571D01*
X5947Y3597D01*
X5960Y3622D01*
X5977Y3645D01*
X5996Y3665D01*
X6018Y3682D01*
X6042Y3696D01*
X6068Y3706D01*
X6095Y3713D01*
X6123Y3716D01*
X6151Y3715D01*
X6178Y3710D01*
X6205Y3701D01*
X6230Y3689D01*
X6253Y3674D01*
X6274Y3655D01*
X6292Y3634D01*
X6307Y3610D01*
X6318Y3584D01*
X6326Y3558D01*
X6330Y3530D01*
X6330Y3502D01*
X6326Y3474D01*
X6318Y3448D01*
X6307Y3422D01*
X6292Y3398D01*
X6274Y3377D01*
X6253Y3358D01*
X6230Y3343D01*
X6205Y3331D01*
X6178Y3322D01*
X6151Y3317D01*
X6123Y3316D01*
X6095Y3319D01*
X6068Y3326D01*
X6042Y3336D01*
X6018Y3350D01*
X5996Y3367D01*
X5977Y3387D01*
X5960Y3410D01*
X5947Y3435D01*
X5938Y3461D01*
X5932Y3488D01*
X5930Y3516D01*
X5930Y5486D02*
X5932Y5514D01*
X5938Y5541D01*
X5947Y5567D01*
X5960Y5592D01*
X5977Y5615D01*
X5996Y5635D01*
X6018Y5652D01*
X6042Y5666D01*
X6068Y5676D01*
X6095Y5683D01*
X6123Y5686D01*
X6151Y5685D01*
X6178Y5680D01*
X6205Y5671D01*
X6230Y5659D01*
X6253Y5644D01*
X6274Y5625D01*
X6292Y5604D01*
X6307Y5580D01*
X6318Y5554D01*
X6326Y5528D01*
X6330Y5500D01*
X6330Y5472D01*
X6326Y5444D01*
X6318Y5418D01*
X6307Y5392D01*
X6292Y5368D01*
X6274Y5347D01*
X6253Y5328D01*
X6230Y5313D01*
X6205Y5301D01*
X6178Y5292D01*
X6151Y5287D01*
X6123Y5286D01*
X6095Y5289D01*
X6068Y5296D01*
X6042Y5306D01*
X6018Y5320D01*
X5996Y5337D01*
X5977Y5357D01*
X5960Y5380D01*
X5947Y5405D01*
X5938Y5431D01*
X5932Y5458D01*
X5930Y5486D01*
D11*
X6275Y2866D02*
X6375Y2741D01*
X6275Y2866D02*
X6725Y2866D01*
X6725Y2741D02*
X6725Y2991D01*
X6275Y4828D02*
X6277Y4848D01*
X6282Y4867D01*
X6290Y4885D01*
X6301Y4901D01*
X6315Y4915D01*
X6332Y4926D01*
X6349Y4934D01*
X6368Y4939D01*
X6388Y4941D01*
X6275Y4828D02*
X6277Y4805D01*
X6282Y4783D01*
X6291Y4762D01*
X6303Y4743D01*
X6318Y4725D01*
X6335Y4711D01*
X6354Y4699D01*
X6375Y4690D01*
X6476Y4903D02*
X6461Y4916D01*
X6445Y4927D01*
X6427Y4935D01*
X6408Y4939D01*
X6388Y4941D01*
X6475Y4903D02*
X6725Y4691D01*
X6725Y4941D01*
X8495Y3311D02*
X8945Y3011D01*
X8945Y3311D02*
X8495Y3011D01*
X8495Y3623D02*
X8497Y3643D01*
X8502Y3662D01*
X8510Y3680D01*
X8521Y3696D01*
X8535Y3710D01*
X8552Y3721D01*
X8569Y3729D01*
X8588Y3734D01*
X8608Y3736D01*
X8495Y3623D02*
X8497Y3600D01*
X8502Y3578D01*
X8511Y3557D01*
X8523Y3538D01*
X8538Y3520D01*
X8555Y3506D01*
X8574Y3494D01*
X8595Y3485D01*
X8696Y3698D02*
X8681Y3711D01*
X8665Y3722D01*
X8647Y3730D01*
X8628Y3734D01*
X8608Y3736D01*
X8695Y3698D02*
X8945Y3486D01*
X8945Y3736D01*
M02*
