M48
;GenerationSoftware,Autodesk,EAGLE,9.5.0*%
;CreationDate,2020-08-11T04:50:48Z*%
FMAT,2
ICI,OFF
METRIC,TZ,000.000
T8C0.350
T7C0.813
T6C1.000
T5C1.016
T4C1.194
T3C1.850
T2C2.184
T1C3.300
%
G90
M71
T1
X5000Y5000
X85000Y85000
X85000Y5000
X5000Y85000
T2
X30480Y8890
X30480Y30480
X60960Y7620
X30480Y13970
X30480Y24130
X30480Y19050
T3
X46740Y82870
X46740Y79690
X62480Y82870
X62480Y79700
X54610Y81280
X49910Y81280
X59310Y81280
T4
X34250Y85090
X29250Y85090
X19050Y13930
X19050Y8930
X19050Y19090
X19050Y24090
T5
X34290Y73660
X64770Y22860
X64770Y25400
X64770Y27940
X64770Y30480
X40640Y25400
X43180Y25400
X45720Y25400
X48260Y25400
X50800Y25400
X53340Y25400
X29210Y10160
X29210Y12700
X29210Y15240
X29210Y7620
X29210Y25400
X64770Y7620
X64770Y10160
X64770Y12700
X29210Y20320
X29210Y22860
X64770Y15240
X64770Y17780
X64770Y20320
X29210Y73660
X31750Y73660
X29210Y17780
T6
X76000Y71280
X76000Y73820
X76000Y76360
X76000Y78900
X73460Y33180
X73460Y38260
X73460Y40800
X73460Y43340
X73460Y45880
X73460Y48420
X73460Y50960
X73460Y53500
X73460Y35720
X73460Y56040
X73460Y58580
X73460Y61120
X73460Y63660
X73460Y66200
X73460Y68740
X73460Y71280
X73460Y73820
X73460Y76360
X73460Y78900
X12500Y35720
X12500Y38260
X12500Y40800
X12500Y43340
X12500Y45880
X12500Y48420
X12500Y50960
X12500Y53500
X12500Y56040
X12500Y58580
X12500Y61120
X12500Y63660
X12500Y66200
X12500Y68740
X12500Y71280
X12500Y73820
X12500Y76360
X12500Y78900
X15040Y33180
X15040Y35720
X15040Y38260
X15040Y40800
X15040Y43340
X15040Y45880
X15040Y48420
X15040Y50960
X15040Y53500
X15040Y56040
X15040Y58580
X15040Y61120
X15040Y63660
X15040Y66200
X15040Y68740
X15040Y71280
X15040Y73820
X15040Y76360
X15040Y78900
X76000Y81440
X73460Y81440
X15040Y81440
X76000Y38260
X76000Y33180
X12500Y33180
X76000Y40800
X76000Y43340
X76000Y45880
X76000Y48420
X76000Y50960
X76000Y53500
X76000Y35720
X76000Y56040
X76000Y58580
X76000Y61120
X44450Y38735
X41910Y38735
X46990Y38735
X49530Y38735
X52070Y38735
X54610Y38735
X76000Y63660
X76000Y66200
X76000Y68740
X12500Y81440
T7
X39370Y77470
X39370Y80010
X2540Y59690
X2540Y52070
X2540Y78740
X2540Y71120
X66040Y72390
X2540Y63500
X2540Y66040
X63500Y72390
X24130Y77470
X24130Y80010
T8
X82550Y46990
M30