M48
;GenerationSoftware,Autodesk,EAGLE,9.5.0*%
;CreationDate,2020-08-11T05:45:11Z*%
FMAT,2
ICI,OFF
INCH,TZ,000.000
T8C0.014
T7C0.032
T6C0.039
T5C0.040
T4C0.047
T3C0.073
T2C0.086
T1C0.130
%
G90
M72
T1
X197Y197
X3346Y3346
X3346Y197
X197Y3346
T2
X1200Y350
X1200Y1200
X2400Y300
X1200Y550
X1200Y950
X1200Y750
T3
X1840Y3263
X1840Y3137
X2460Y3263
X2460Y3138
X2150Y3200
X1965Y3200
X2335Y3200
T4
X1348Y3350
X1152Y3350
X750Y548
X750Y352
X750Y752
X750Y948
T5
X1350Y2900
X2550Y900
X2550Y1000
X2550Y1100
X2550Y1200
X1600Y1000
X1700Y1000
X1800Y1000
X1900Y1000
X2000Y1000
X2100Y1000
X1150Y400
X1150Y500
X1150Y600
X1150Y300
X1150Y1000
X2550Y300
X2550Y400
X2550Y500
X1150Y800
X1150Y900
X2550Y600
X2550Y700
X2550Y800
X1150Y2900
X1250Y2900
X1150Y700
T6
X2992Y2806
X2992Y2906
X2992Y3006
X2992Y3106
X2892Y1306
X2892Y1506
X2892Y1606
X2892Y1706
X2892Y1806
X2892Y1906
X2892Y2006
X2892Y2106
X2892Y1406
X2892Y2206
X2892Y2306
X2892Y2406
X2892Y2506
X2892Y2606
X2892Y2706
X2892Y2806
X2892Y2906
X2892Y3006
X2892Y3106
X492Y1406
X492Y1506
X492Y1606
X492Y1706
X492Y1806
X492Y1906
X492Y2006
X492Y2106
X492Y2206
X492Y2306
X492Y2406
X492Y2506
X492Y2606
X492Y2706
X492Y2806
X492Y2906
X492Y3006
X492Y3106
X592Y1306
X592Y1406
X592Y1506
X592Y1606
X592Y1706
X592Y1806
X592Y1906
X592Y2006
X592Y2106
X592Y2206
X592Y2306
X592Y2406
X592Y2506
X592Y2606
X592Y2706
X592Y2806
X592Y2906
X592Y3006
X592Y3106
X2992Y3206
X2892Y3206
X592Y3206
X2992Y1506
X2992Y1306
X492Y1306
X2992Y1606
X2992Y1706
X2992Y1806
X2992Y1906
X2992Y2006
X2992Y2106
X2992Y1406
X2992Y2206
X2992Y2306
X2992Y2406
X1750Y1525
X1650Y1525
X1850Y1525
X1950Y1525
X2050Y1525
X2150Y1525
X2992Y2506
X2992Y2606
X2992Y2706
X492Y3206
T7
X1550Y3050
X1550Y3150
X100Y2350
X100Y2050
X100Y3100
X100Y2800
X2600Y2850
X100Y2500
X100Y2600
X2500Y2850
X950Y3050
X950Y3150
T8
X3250Y1850
M30